<?xml version="1.0" encoding="UTF-8"?>
<svg width="384px" height="512px" viewBox="0 0 384 512" version="1.1" xmlns="http://www.w3.org/2000/svg" xmlns:xlink="http://www.w3.org/1999/xlink" style="background: #FFFFFF;">
    <!-- Generator: Sketch 48.2 (47327) - http://www.bohemiancoding.com/sketch -->
    <title>T01</title>
    <desc>Created with Sketch.</desc>
    <defs>
        <rect id="path-1" x="0.5" y="0" width="4" height="5.5"></rect>
        <rect id="path-2" x="0.5" y="9.5" width="4" height="5.5"></rect>
        <rect id="path-3" x="0" y="19.5" width="4" height="5.5"></rect>
        <polygon id="path-4" points="0 0 199.5 0 199.5 104.945055 199.5 286.5 0 286.5"></polygon>
        <rect id="path-5" x="10.5" y="123.5" width="142" height="15.5"></rect>
    </defs>
    <g id="Page-1" stroke="none" stroke-width="1" fill="none" fill-rule="evenodd">
        <g id="Artboard" transform="translate(-560.000000, -227.000000)"></g>
        <g id="T01">
            <g id="Logo" opacity="0.900000036" transform="translate(98.000000, 33.500000)">
                <g id="Group-23" transform="translate(38.750000, 40.000000) rotate(21.000000) translate(-38.750000, -40.000000) translate(36.500000, 27.500000)" opacity="0.423629982">
                    <g id="Rectangle-20-Copy-2">
                        <use fill="#FFFFFF" fill-rule="evenodd" xlink:href="#path-1"></use>
                        <rect stroke="#3A5868" stroke-width="0.99792" x="0.00104" y="-0.49896" width="4.99792" height="6.49792"></rect>
                    </g>
                    <g id="Rectangle-20-Copy-3">
                        <use fill="#FFFFFF" fill-rule="evenodd" xlink:href="#path-2"></use>
                        <rect stroke="#3A5868" stroke-width="0.99792" x="0.00104" y="9.00104" width="4.99792" height="6.49792"></rect>
                    </g>
                    <g id="Rectangle-20-Copy-4">
                        <use fill="#FFFFFF" fill-rule="evenodd" xlink:href="#path-3"></use>
                        <rect stroke="#3A5868" stroke-width="0.99792" x="-0.49896" y="19.00104" width="4.99792" height="6.49792"></rect>
                    </g>
                </g>
                <path d="M62.5,25 L62.5,17.5 C66.08475,17.5 69,20.86375 69,25 L62.5,25 Z M56,71.3125 C56,75.5521562 53.196875,79 49.75,79 L49.75,71.3125 C49.75,67.0651563 46.953125,63.625 43.5,63.625 L31,63.625 L31,25.1875 C31,20.9401563 33.796875,17.5 37.25,17.5 L56,17.5 L56,71.3125 Z M43.5,79 L24.75,79 C21.303125,79 18.5,75.63625 18.5,71.5 L40.375,71.5 C42.1,71.5 43.5,73.18 43.5,75.25 L43.5,79 Z M37.4,9 C30.386425,9 24.7,15.9849 24.7,24.6 L24.7,63.6 L15.175,63.6 C13.4224,63.6 12,65.3472 12,67.5 L12,71.4 C12,80.0151 17.686425,87 24.7,87 L50.1,87 C57.113575,87 62.8,80.0151 62.8,71.4 L62.8,32.4 L72.325,32.4 C74.0776,32.4 75.5,30.6528 75.5,28.5 L75.5,24.6 C75.5,15.9849 69.813575,9 62.8,9 L37.4,9 Z" id="script-[#1603]-copy-2" fill-opacity="0.174860145" fill="#78A9C2" opacity="0.757699275" transform="translate(43.750000, 48.000000) rotate(21.000000) translate(-43.750000, -48.000000) "></path>
                <text id="TASKLY" fill="#3A5868" style="mix-blend-mode: darken;" font-family="GurmukhiMN-Bold, Gurmukhi MN" font-size="32" font-weight="bold" letter-spacing="1.14086962">
                    <tspan x="17.5" y="71">TASKLY</tspan>
                </text>
                <text id="Getting-things-done!" font-family="Futura-MediumItalic, Futura" font-size="11" font-style="italic" font-weight="500" letter-spacing="0.703999996" fill="#314357">
                    <tspan x="69.2036524" y="94">Getting things done!</tspan>
                </text>
            </g>
            <g id="Group" transform="translate(93.500000, 150.000000)">
                <g id="Rectangle-26" opacity="0.429574275">
                    <use fill="#78A9C2" fill-rule="evenodd" xlink:href="#path-4"></use>
                    <path stroke="#78A9C2" stroke-width="4.5" d="M2.25,2.25 L2.25,284.25 L197.25,284.25 L197.25,2.25 L2.25,2.25 Z"></path>
                </g>
                <g id="Form-Copy" transform="translate(19.000000, 15.000000)">
                    <text id="or" font-family="Futura-Bold, Futura" font-size="8" font-weight="bold" fill="#302F2E">
                        <tspan x="76.5" y="62.5">o</tspan>
                        <tspan x="76.5" y="74.5">r</tspan>
                    </text>
                    <path d="M92.5,61 L162.5,61" id="Line" stroke="#3A5868" stroke-width="1.5" opacity="0.92821558" stroke-linecap="square"></path>
                    <path d="M0.5,61.0021803 L70.5,60.9978197" id="Line" stroke="#3A5868" stroke-width="1.5" opacity="0.928781703" stroke-linecap="square"></path>
                    <text id="Sign-in-with" font-family="Futura-Bold, Futura" font-size="10" font-weight="bold" fill="#302F2E">
                        <tspan x="0" y="13">Sign in with </tspan>
                    </text>
                    <g id="Facebook-Copy-2" transform="translate(90.500000, 25.500000)" fill="#1E599B">
                        <path d="M0,9.75 C0,4.36522342 4.36522342,0 9.75,0 C15.1347766,0 19.5,4.36522342 19.5,9.75 C19.5,15.1347766 15.1347766,19.5 9.75,19.5 C4.36522342,19.5 0,15.1347766 0,9.75 Z M10.3247817,15 L10.3247817,9.74938526 L11.803975,9.74938526 L12,7.93999434 L10.3247817,7.93999434 L10.3272948,7.03437677 C10.3272948,6.56245975 10.3730549,6.30959583 11.0647972,6.30959583 L11.9895286,6.30959583 L11.9895286,4.5 L10.5101259,4.5 C8.7331253,4.5 8.10766718,5.37774926 8.10766718,6.8538475 L8.10766718,7.94019925 L7,7.94019925 L7,9.74959017 L8.10766718,9.74959017 L8.10766718,15 L10.3247817,15 Z" id="Combined-Shape"></path>
                    </g>
                    <g id="Google-+-Copy-2" transform="translate(52.000000, 26.000000)" fill="#DB4C32">
                        <path d="M0,9.75 C0,4.36522342 4.36522342,0 9.75,0 C15.1347766,0 19.5,4.36522342 19.5,9.75 C19.5,15.1347766 15.1347766,19.5 9.75,19.5 C4.36522342,19.5 0,15.1347766 0,9.75 Z M8.06122449,9.57142857 L8.06122449,10.6 L9.79737609,10.6 C9.72740525,11.0414286 9.27259475,11.8942857 8.06122449,11.8942857 C7.01603499,11.8942857 6.16326531,11.0457143 6.16326531,10 C6.16326531,8.95428571 7.01603499,8.10571429 8.06122449,8.10571429 C8.65597668,8.10571429 9.05393586,8.35428571 9.28134111,8.56857143 L10.1122449,7.78428571 C9.5787172,7.29571429 8.8877551,7 8.06122449,7 C6.36880466,7 5,8.34142857 5,10 C5,11.6585714 6.36880466,13 8.06122449,13 C9.82798834,13 11,11.7828571 11,10.0685714 C11,9.87142857 10.9781341,9.72142857 10.951895,9.57142857 L8.06122449,9.57142857 Z M14.5,9.33333333 L13.6666667,9.33333333 L13.6666667,8.5 L12.8333333,8.5 L12.8333333,9.33333333 L12,9.33333333 L12,10.1666667 L12.8333333,10.1666667 L12.8333333,11 L13.6666667,11 L13.6666667,10.1666667 L14.5,10.1666667 L14.5,9.33333333 Z" id="Combined-Shape"></path>
                    </g>
                    <rect id="Rectangle-28-Copy-3" stroke="#302F2E" stroke-width="0.5" fill="#FFFFFF" x="10" y="91" width="143" height="15.5"></rect>
                    <text id="Forgot-password?" font-family="Futura-Medium, Futura" font-size="5.5" font-weight="400" fill="#000000">
                        <tspan x="107.5" y="157.5">Forgot password?</tspan>
                    </text>
                    <g id="Rectangle-28-Copy-3">
                        <use fill="#FFFFFF" fill-rule="evenodd" xlink:href="#path-5"></use>
                        <rect stroke="#302F2E" stroke-width="0.5" x="10.25" y="123.25" width="142.5" height="16"></rect>
                    </g>
                </g>
            </g>
            <path d="M34.8569933,459.507538 C36.5076075,458.502513 38.3052764,458 40.25,458 C42.1953238,458 43.9923925,458.502513 45.6436069,459.507538 C47.2936209,460.512563 48.5997069,461.878769 49.559464,463.606156 C50.5198213,465.333543 51,467.214824 51,469.25 C51,471.285176 50.5198213,473.166457 49.559464,474.893844 C48.5997069,476.621231 47.2936209,477.987437 45.6436069,478.992462 C43.9923925,479.997487 42.1953238,480.5 40.25,480.5 C38.3052764,480.5 36.5076075,479.997487 34.8569933,478.992462 C33.2063791,477.987437 31.9008934,476.621231 30.9411362,474.893844 C29.9801787,473.166457 29.5,471.285176 29.5,469.25 C29.5,467.214824 29.9801787,465.333543 30.9411362,463.606156 C31.9008934,461.878769 33.2063791,460.512563 34.8569933,459.507538 C34.8569933,459.507538 33.2063791,460.512563 34.8569933,459.507538 L34.8569933,459.507538 L34.8569933,459.507538 Z M36.5,467.5 L36.5,469.375 L38.25,469.375 L38.25,473.125 L36.5,473.125 L36.5,475 L43.5,475 L43.5,473.125 L41.75,473.125 L41.75,467.5 L36.5,467.5 L36.5,467.5 L36.5,467.5 L36.5,467.5 Z M38.5,465.5 L42,465.5 L42,463.5 L38.5,463.5 L38.5,463.5 L38.5,465.5 L38.5,465.5 Z" id="Fill-88" stroke="#3A5868" stroke-width="0.5" fill="#FFFFFF"></path>
            <g id="Info-pop-up" transform="translate(53.000000, 212.000000)">
                <rect id="Rectangle" fill="#FFFFFF" x="10.5" y="0" width="183.5" height="258"></rect>
                <path d="M8.97692308,1.5 L194.5,1.5 L194.5,257.216868 L0,258.5 C0,258.5 8.12736661,252.293666 8.53805265,240.53615 C8.9487387,228.778634 8.97692308,1.5 8.97692308,1.5 Z" id="Rectangle-14" stroke="#AFE6E1" stroke-width="3.132" fill-opacity="0.5" fill="#AFE6E1" opacity="0.925271739"></path>
                <text id="Settings" font-family="Futura-Medium, Futura" font-size="11.31" font-weight="400" letter-spacing="0.188499972" fill="#3A5868">
                    <tspan x="40.5" y="77.5">Settings</tspan>
                </text>
                <text id="FAQ" font-family="Futura-Medium, Futura" font-size="11.31" font-weight="400" letter-spacing="0.188499972" fill="#3A5868">
                    <tspan x="40.5" y="113.5">FAQ</tspan>
                </text>
                <text id="About-Us" font-family="Futura-Medium, Futura" font-size="11.31" font-weight="400" letter-spacing="0.188499972" fill="#3A5868">
                    <tspan x="40.5" y="149">About Us</tspan>
                </text>
                <text id="Contact-Us" font-family="Futura-Medium, Futura" font-size="11.31" font-weight="400" letter-spacing="0.188499972" fill="#3A5868">
                    <tspan x="40.5" y="185.5">Contact Us</tspan>
                </text>
            </g>
            <g id="StatusBar-Light-iPhone6-Copy">
                <rect id="Background" fill="#FFFFFF" x="0" y="0" width="384" height="21"></rect>
                <path d="M352.5,7 C352.5,6.17157288 353.171573,5.5 354,5.5 L374.5,5.5 C375.328427,5.5 376,6.17157288 376,7 L376,14.5 C376,15.3284271 375.328427,16 374.5,16 L354,16 C353.171573,16 352.5,15.3284271 352.5,14.5 L352.5,7 Z M353,7.5 L353,14 C353,14.8284271 353.671573,15.5 354.5,15.5 L374,15.5 C374.828427,15.5 375.5,14.8284271 375.5,14 L375.5,7.5 C375.5,6.67157288 374.828427,6 374,6 L354.5,6 C353.671573,6 353,6.67157288 353,7.5 Z M353.5,8 C353.5,7.17157288 354.171573,6.5 355,6.5 L364.5,6.5 L364.5,15 L355,15 C354.171573,15 353.5,14.3284271 353.5,13.5 L353.5,8 Z M379,10.5 C379,11.5178721 378.130764,12.3599457 377,12.5 L377,8.5 C378.130764,8.64005431 379,9.48212794 379,10.5 Z" id="battery-@2x" fill="#000000"></path>
                <text id="49%" font-family="HelveticaNeue, Helvetica Neue" font-size="12" font-weight="normal" line-spacing="12" fill="#000000">
                    <tspan x="324" y="16.5">49%</tspan>
                </text>
                <path d="M316,11.5 L317.5,13 L316,14.5 L316,11.5 Z M316,9 L316,6 L317.5,7.5 L316,9 Z M319,7.64722653 L315.028486,3.5 L315.028486,9.20243648 L312,6.09201658 L311,7.12882321 L314.45349,10.2504999 L311,13.349663 L312,14.3864696 L315.028486,11.2760497 L315.028486,17 L319,12.8312597 L316.5,10.2504998 L319,7.64722653 Z" id="bluetooth-@2x-copy" fill="#535353"></path>
                <text id="9:49-AM" font-family="HelveticaNeue, Helvetica Neue" font-size="12" font-weight="normal" letter-spacing="0.599999905" fill="#000000">
                    <tspan x="167.192" y="14">9:49 AM</tspan>
                </text>
                <path d="M79.7455746,7.56231003 C81.766171,7.56231003 83.607668,8.29635258 85.0196385,9.5 L86,8.43262411 C84.3277104,7.00101317 82.1436336,6 79.7455746,6 C77.35116,6 75.170207,6.99797366 73.5,8.42502533 L74.478279,9.49392097 C75.8892082,8.29381966 77.7275813,7.56231003 79.7455746,7.56231003 L79.7455746,7.56231003 Z M82.9518386,12 L84,10.7490651 C82.8592299,9.69109948 81.3753869,9 79.7473691,9 C78.1225084,9 76.6397177,9.6894166 75.5,10.7440165 L76.5465829,11.9966343 C77.4084747,11.2073672 78.5250402,10.7288706 79.7473691,10.7288706 C80.9712765,10.7288706 82.0894206,11.2090501 82.9518386,12 Z M82,13.2681206 C81.3907337,12.8142533 80.6062141,12.5 79.7486265,12.5 C78.8926871,12.5 78.1092663,12.8137668 77.5,13.2656883 L79.7486265,15.5 L82,13.2681206 L82,13.2681206 Z" id="wifi-@2x" fill="#0C0000"></path>
                <text id="Yext" font-family="HelveticaNeue, Helvetica Neue" font-size="12" font-weight="normal" fill="#000000">
                    <tspan x="45" y="13.5">Yext</tspan>
                </text>
                <path d="M8,14 C6.34314567,14 5,12.5449255 5,10.75 C5,8.95507447 6.34314567,7.5 8,7.5 C9.65685433,7.5 11,8.95507447 11,10.75 C11,12.5449255 9.65685433,14 8,14 Z M15,14 C13.3431457,14 12,12.5449255 12,10.75 C12,8.95507447 13.3431457,7.5 15,7.5 C16.6568543,7.5 18,8.95507447 18,10.75 C18,12.5449255 16.6568543,14 15,14 Z M22.5,14 C20.8431457,14 19.5,12.5449255 19.5,10.75 C19.5,8.95507447 20.8431457,7.5 22.5,7.5 C24.1568543,7.5 25.5,8.95507447 25.5,10.75 C25.5,12.5449255 24.1568543,14 22.5,14 Z M29.5,14 C27.8431457,14 26.5,12.5449255 26.5,10.75 C26.5,8.95507447 27.8431457,7.5 29.5,7.5 C31.1568543,7.5 32.5,8.95507447 32.5,10.75 C32.5,12.5449255 31.1568543,14 29.5,14 Z M29.5,13.5 C30.8807119,13.5 32,12.2687831 32,10.75 C32,9.23121686 30.8807119,8 29.5,8 C28.1192881,8 27,9.23121686 27,10.75 C27,12.2687831 28.1192881,13.5 29.5,13.5 Z M37,14 C35.3431457,14 34,12.5449255 34,10.75 C34,8.95507447 35.3431457,7.5 37,7.5 C38.6568543,7.5 40,8.95507447 40,10.75 C40,12.5449255 38.6568543,14 37,14 Z M37,13.5 C38.3807119,13.5 39.5,12.2687831 39.5,10.75 C39.5,9.23121686 38.3807119,8 37,8 C35.6192881,8 34.5,9.23121686 34.5,10.75 C34.5,12.2687831 35.6192881,13.5 37,13.5 Z" id="signal-@2x" fill="#000000"></path>
            </g>
        </g>
    </g>
</svg>