<?xml version="1.0" encoding="UTF-8"?>
<svg width="384px" height="512px" viewBox="0 0 384 512" version="1.1" xmlns="http://www.w3.org/2000/svg" xmlns:xlink="http://www.w3.org/1999/xlink" style="background: #FFFFFF;">
    <!-- Generator: Sketch 48.2 (47327) - http://www.bohemiancoding.com/sketch -->
    <title>T02</title>
    <desc>Created with Sketch.</desc>
    <defs></defs>
    <g id="Page-1" stroke="none" stroke-width="1" fill="none" fill-rule="evenodd">
        <g id="Artboard" transform="translate(-165.000000, -798.000000)"></g>
        <g id="T02">
            <g id="StatusBar-Light-iPhone6">
                <rect id="Background" fill="#FFFFFF" x="0" y="0" width="384" height="20.5"></rect>
                <path d="M352.5,6.5 C352.5,5.67157288 353.171573,5 354,5 L374.5,5 C375.328427,5 376,5.67157288 376,6.5 L376,14 C376,14.8284271 375.328427,15.5 374.5,15.5 L354,15.5 C353.171573,15.5 352.5,14.8284271 352.5,14 L352.5,6.5 Z M353,7 L353,13.5 C353,14.3284271 353.671573,15 354.5,15 L374,15 C374.828427,15 375.5,14.3284271 375.5,13.5 L375.5,7 C375.5,6.17157288 374.828427,5.5 374,5.5 L354.5,5.5 C353.671573,5.5 353,6.17157288 353,7 Z M353.5,7.5 C353.5,6.67157288 354.171573,6 355,6 L364.5,6 L364.5,14.5 L355,14.5 C354.171573,14.5 353.5,13.8284271 353.5,13 L353.5,7.5 Z M379,10 C379,11.0178721 378.130764,11.8599457 377,12 L377,8 C378.130764,8.14005431 379,8.98212794 379,10 Z" id="battery-@2x" fill="#000000"></path>
                <text id="49%" font-family="HelveticaNeue, Helvetica Neue" font-size="12" font-weight="normal" line-spacing="12" fill="#000000">
                    <tspan x="324" y="16">49%</tspan>
                </text>
                <path d="M316,11.5 L317.5,13 L316,14.5 L316,11.5 Z M316,9 L316,6 L317.5,7.5 L316,9 Z M319,7.64722653 L315.028486,3.5 L315.028486,9.20243648 L312,6.09201658 L311,7.12882321 L314.45349,10.2504999 L311,13.349663 L312,14.3864696 L315.028486,11.2760497 L315.028486,17 L319,12.8312597 L316.5,10.2504998 L319,7.64722653 Z" id="bluetooth-@2x" fill="#535353"></path>
                <text id="9:49-AM" font-family="HelveticaNeue, Helvetica Neue" font-size="12" font-weight="normal" letter-spacing="0.599999905" fill="#000000">
                    <tspan x="167.192" y="14">9:49 AM</tspan>
                </text>
                <path d="M79.7455746,7.06231003 C81.766171,7.06231003 83.607668,7.79635258 85.0196385,9 L86,7.93262411 C84.3277104,6.50101317 82.1436336,5.5 79.7455746,5.5 C77.35116,5.5 75.170207,6.49797366 73.5,7.92502533 L74.478279,8.99392097 C75.8892082,7.79381966 77.7275813,7.06231003 79.7455746,7.06231003 L79.7455746,7.06231003 Z M82.9518386,11 L84,9.95755423 C82.8592299,9.07591623 81.3753869,8.5 79.7473691,8.5 C78.1225084,8.5 76.6397177,9.07451384 75.5,9.95334705 L76.5465829,10.9971952 C77.4084747,10.3394727 78.5250402,9.9407255 79.7473691,9.9407255 C80.9712765,9.9407255 82.0894206,10.3408751 82.9518386,11 Z M82,12.2681206 C81.3907337,11.8142533 80.6062141,11.5 79.7486265,11.5 C78.8926871,11.5 78.1092663,11.8137668 77.5,12.2656883 L79.7486265,14.5 L82,12.2681206 L82,12.2681206 Z" id="wifi-@2x" fill="#0C0000"></path>
                <text id="Yext" font-family="HelveticaNeue, Helvetica Neue" font-size="12" font-weight="normal" fill="#000000">
                    <tspan x="45" y="13.5">Yext</tspan>
                </text>
                <path d="M8,13 C6.34314567,13 5,11.6568543 5,10 C5,8.34314567 6.34314567,7 8,7 C9.65685433,7 11,8.34314567 11,10 C11,11.6568543 9.65685433,13 8,13 Z M15,13 C13.3431457,13 12,11.6568543 12,10 C12,8.34314567 13.3431457,7 15,7 C16.6568543,7 18,8.34314567 18,10 C18,11.6568543 16.6568543,13 15,13 Z M22.5,13 C20.8431457,13 19.5,11.6568543 19.5,10 C19.5,8.34314567 20.8431457,7 22.5,7 C24.1568543,7 25.5,8.34314567 25.5,10 C25.5,11.6568543 24.1568543,13 22.5,13 Z M29.5,13 C27.8431457,13 26.5,11.6568543 26.5,10 C26.5,8.34314567 27.8431457,7 29.5,7 C31.1568543,7 32.5,8.34314567 32.5,10 C32.5,11.6568543 31.1568543,13 29.5,13 Z M29.5,12.5 C30.8807119,12.5 32,11.3807119 32,10 C32,8.61928806 30.8807119,7.5 29.5,7.5 C28.1192881,7.5 27,8.61928806 27,10 C27,11.3807119 28.1192881,12.5 29.5,12.5 Z M37,13 C35.3431457,13 34,11.6568543 34,10 C34,8.34314567 35.3431457,7 37,7 C38.6568543,7 40,8.34314567 40,10 C40,11.6568543 38.6568543,13 37,13 Z M37,12.5 C38.3807119,12.5 39.5,11.3807119 39.5,10 C39.5,8.61928806 38.3807119,7.5 37,7.5 C35.6192881,7.5 34.5,8.61928806 34.5,10 C34.5,11.3807119 35.6192881,12.5 37,12.5 Z" id="signal-@2x" fill="#000000"></path>
            </g>
            <g id="Group" transform="translate(192.000000, 87.500000) rotate(1.000000) translate(-192.000000, -87.500000) translate(162.500000, 58.500000)">
                <path d="M43,16 L43,11.5 C45.48175,11.5 47.5,13.51825 47.5,16 L43,16 Z M38.5,42.125 C38.5,44.5378125 36.48175,46.5 34,46.5 L34,42.125 C34,39.7078125 31.98625,37.75 29.5,37.75 L20.5,37.75 L20.5,15.875 C20.5,13.4578125 22.51375,11.5 25,11.5 L38.5,11.5 L38.5,42.125 Z M29.5,46.5 L16,46.5 C13.51825,46.5 11.5,44.48175 11.5,42 L27.25,42 C28.492,42 29.5,43.008 29.5,44.25 L29.5,46.5 Z M25,6.5 C20.02975,6.5 16,10.484975 16,15.4 L16,37.65 L9.25,37.65 C8.008,37.65 7,38.6468 7,39.875 L7,42.1 C7,47.015025 11.02975,51 16,51 L34,51 C38.97025,51 43,47.015025 43,42.1 L43,19.85 L49.75,19.85 C50.992,19.85 52,18.8532 52,17.625 L52,15.4 C52,10.484975 47.97025,6.5 43,6.5 L25,6.5 Z" id="script-[#1603]-copy-3" fill-opacity="0.174860145" fill="#78A9C2" opacity="0.757699275" transform="translate(29.500000, 28.750000) rotate(19.000000) translate(-29.500000, -28.750000) "></path>
                <g id="Group-2" transform="translate(28.600582, 25.429572) rotate(200.000000) translate(-28.600582, -25.429572) translate(18.100582, 7.429572)" font-family="GurmukhiMN-Bold, Gurmukhi MN" font-weight="bold">
                    <text id="T" fill="#3A5868" style="mix-blend-mode: darken;" transform="translate(11.500000, 18.000000) scale(1, -1) translate(-11.500000, -18.000000) " font-size="24.60672" letter-spacing="0.877283216">
                        <tspan x="2" y="26.5">T</tspan>
                    </text>
                    <text id="T" fill="#78A9C2" style="mix-blend-mode: darken;" font-size="18.25" letter-spacing="0.650652111">
                        <tspan x="-2.20268248e-13" y="21.5">T</tspan>
                    </text>
                </g>
            </g>
            <text id="Go-ahead,-get-starte" font-family="Roboto-MediumItalic, Roboto" font-size="10" font-style="italic" font-weight="500" fill="#78A9C2">
                <tspan x="161.890137" y="191.5">Go ahead, get </tspan>
                <tspan x="175.105469" y="204.5">started!</tspan>
            </text>
            <text id="Welcome,-Kathryn!" font-family="Roboto-MediumItalic, Roboto" font-size="15" font-style="italic" font-weight="500" letter-spacing="1" fill="#78A9C2">
                <tspan x="122.538818" y="165">Welcome, Kathryn</tspan>
                <tspan x="257.484131" y="165">!</tspan>
            </text>
            <g id="circle-check-copy-3" transform="translate(179.500000, 456.000000)">
                <ellipse id="Oval-3" stroke="#78A9C2" stroke-width="0.75" fill="#78A9C2" cx="12.75" cy="13.25" rx="12.75" ry="13.25"></ellipse>
                <polygon id="Fill-2" fill="#3A5868" points="15.0454545 15.3181818 15.0454545 21.5 10.9545455 21.5 10.9545455 15.3181818 5.5 15.3181818 5.5 10.6818182 10.9545455 10.6818182 10.9545455 4.5 15.0454545 4.5 15.0454545 10.6818182 20.5 10.6818182 20.5 15.3181818"></polygon>
            </g>
            <path d="M192.25,251.758651 L192.25,400.741349" id="Line" stroke="#3A5868" stroke-width="2.5" stroke-linecap="square"></path>
            <path id="Line-decoration-1" d="M192.25,400.741349 L195.25,389.941349 L189.25,389.941349 L192.25,400.741349 Z" stroke="#3A5868" stroke-width="2.5" stroke-linecap="square"></path>
            <path d="M35.3569933,459.507538 C37.0076075,458.502513 38.8052764,458 40.75,458 C42.6953238,458 44.4923925,458.502513 46.1436069,459.507538 C47.7936209,460.512563 49.0997069,461.878769 50.059464,463.606156 C51.0198213,465.333543 51.5,467.214824 51.5,469.25 C51.5,471.285176 51.0198213,473.166457 50.059464,474.893844 C49.0997069,476.621231 47.7936209,477.987437 46.1436069,478.992462 C44.4923925,479.997487 42.6953238,480.5 40.75,480.5 C38.8052764,480.5 37.0076075,479.997487 35.3569933,478.992462 C33.7063791,477.987437 32.4008934,476.621231 31.4411362,474.893844 C30.4801787,473.166457 30,471.285176 30,469.25 C30,467.214824 30.4801787,465.333543 31.4411362,463.606156 C32.4008934,461.878769 33.7063791,460.512563 35.3569933,459.507538 C35.3569933,459.507538 33.7063791,460.512563 35.3569933,459.507538 L35.3569933,459.507538 L35.3569933,459.507538 Z M37,467.5 L37,469.375 L38.75,469.375 L38.75,473.125 L37,473.125 L37,475 L44,475 L44,473.125 L42.25,473.125 L42.25,467.5 L37,467.5 L37,467.5 L37,467.5 L37,467.5 Z M39,465.5 L42.5,465.5 L42.5,463.5 L39,463.5 L39,463.5 L39,465.5 L39,465.5 Z" id="Fill-88-Copy" stroke="#3A5868" stroke-width="0.5" fill="#FFFFFF"></path>
        </g>
    </g>
</svg>