<?xml version="1.0" encoding="UTF-8"?>
<svg width="384px" height="512px" viewBox="0 0 384 512" version="1.1" xmlns="http://www.w3.org/2000/svg" xmlns:xlink="http://www.w3.org/1999/xlink" style="background: #FFFFFF;">
    <!-- Generator: Sketch 48.2 (47327) - http://www.bohemiancoding.com/sketch -->
    <title>T03</title>
    <desc>Created with Sketch.</desc>
    <defs></defs>
    <g id="Page-1" stroke="none" stroke-width="1" fill="none" fill-rule="evenodd">
        <g id="Artboard" transform="translate(-560.000000, -798.000000)"></g>
        <g id="T03">
            <g id="StatusBar-Light-iPhone6">
                <rect id="Background" fill="#FFFFFF" x="0" y="0" width="384" height="20.5"></rect>
                <path d="M352.5,6.5 C352.5,5.67157288 353.171573,5 354,5 L374.5,5 C375.328427,5 376,5.67157288 376,6.5 L376,14 C376,14.8284271 375.328427,15.5 374.5,15.5 L354,15.5 C353.171573,15.5 352.5,14.8284271 352.5,14 L352.5,6.5 Z M353,7 L353,13.5 C353,14.3284271 353.671573,15 354.5,15 L374,15 C374.828427,15 375.5,14.3284271 375.5,13.5 L375.5,7 C375.5,6.17157288 374.828427,5.5 374,5.5 L354.5,5.5 C353.671573,5.5 353,6.17157288 353,7 Z M353.5,7.5 C353.5,6.67157288 354.171573,6 355,6 L364.5,6 L364.5,14.5 L355,14.5 C354.171573,14.5 353.5,13.8284271 353.5,13 L353.5,7.5 Z M379,10 C379,11.0178721 378.130764,11.8599457 377,12 L377,8 C378.130764,8.14005431 379,8.98212794 379,10 Z" id="battery-@2x" fill="#000000"></path>
                <text id="49%" font-family="HelveticaNeue, Helvetica Neue" font-size="12" font-weight="normal" line-spacing="12" fill="#000000">
                    <tspan x="324" y="16">49%</tspan>
                </text>
                <path d="M316,11.5 L317.5,13 L316,14.5 L316,11.5 Z M316,9 L316,6 L317.5,7.5 L316,9 Z M319,7.64722653 L315.028486,3.5 L315.028486,9.20243648 L312,6.09201658 L311,7.12882321 L314.45349,10.2504999 L311,13.349663 L312,14.3864696 L315.028486,11.2760497 L315.028486,17 L319,12.8312597 L316.5,10.2504998 L319,7.64722653 Z" id="bluetooth-@2x" fill="#535353"></path>
                <text id="9:49-AM" font-family="HelveticaNeue, Helvetica Neue" font-size="12" font-weight="normal" letter-spacing="0.599999905" fill="#000000">
                    <tspan x="167.192" y="14">9:49 AM</tspan>
                </text>
                <path d="M79.7455746,7.06231003 C81.766171,7.06231003 83.607668,7.79635258 85.0196385,9 L86,7.93262411 C84.3277104,6.50101317 82.1436336,5.5 79.7455746,5.5 C77.35116,5.5 75.170207,6.49797366 73.5,7.92502533 L74.478279,8.99392097 C75.8892082,7.79381966 77.7275813,7.06231003 79.7455746,7.06231003 L79.7455746,7.06231003 Z M82.9518386,11 L84,9.95755423 C82.8592299,9.07591623 81.3753869,8.5 79.7473691,8.5 C78.1225084,8.5 76.6397177,9.07451384 75.5,9.95334705 L76.5465829,10.9971952 C77.4084747,10.3394727 78.5250402,9.9407255 79.7473691,9.9407255 C80.9712765,9.9407255 82.0894206,10.3408751 82.9518386,11 Z M82,12.2681206 C81.3907337,11.8142533 80.6062141,11.5 79.7486265,11.5 C78.8926871,11.5 78.1092663,11.8137668 77.5,12.2656883 L79.7486265,14.5 L82,12.2681206 L82,12.2681206 Z" id="wifi-@2x" fill="#0C0000"></path>
                <text id="Yext" font-family="HelveticaNeue, Helvetica Neue" font-size="12" font-weight="normal" fill="#000000">
                    <tspan x="45" y="13.5">Yext</tspan>
                </text>
                <path d="M8,13 C6.34314567,13 5,11.6568543 5,10 C5,8.34314567 6.34314567,7 8,7 C9.65685433,7 11,8.34314567 11,10 C11,11.6568543 9.65685433,13 8,13 Z M15,13 C13.3431457,13 12,11.6568543 12,10 C12,8.34314567 13.3431457,7 15,7 C16.6568543,7 18,8.34314567 18,10 C18,11.6568543 16.6568543,13 15,13 Z M22.5,13 C20.8431457,13 19.5,11.6568543 19.5,10 C19.5,8.34314567 20.8431457,7 22.5,7 C24.1568543,7 25.5,8.34314567 25.5,10 C25.5,11.6568543 24.1568543,13 22.5,13 Z M29.5,13 C27.8431457,13 26.5,11.6568543 26.5,10 C26.5,8.34314567 27.8431457,7 29.5,7 C31.1568543,7 32.5,8.34314567 32.5,10 C32.5,11.6568543 31.1568543,13 29.5,13 Z M29.5,12.5 C30.8807119,12.5 32,11.3807119 32,10 C32,8.61928806 30.8807119,7.5 29.5,7.5 C28.1192881,7.5 27,8.61928806 27,10 C27,11.3807119 28.1192881,12.5 29.5,12.5 Z M37,13 C35.3431457,13 34,11.6568543 34,10 C34,8.34314567 35.3431457,7 37,7 C38.6568543,7 40,8.34314567 40,10 C40,11.6568543 38.6568543,13 37,13 Z M37,12.5 C38.3807119,12.5 39.5,11.3807119 39.5,10 C39.5,8.61928806 38.3807119,7.5 37,7.5 C35.6192881,7.5 34.5,8.61928806 34.5,10 C34.5,11.3807119 35.6192881,12.5 37,12.5 Z" id="signal-@2x" fill="#000000"></path>
            </g>
            <g id="Group" transform="translate(193.000000, 87.500000) rotate(1.000000) translate(-193.000000, -87.500000) translate(163.500000, 58.500000)">
                <path d="M43,16 L43,11.5 C45.48175,11.5 47.5,13.51825 47.5,16 L43,16 Z M38.5,42.125 C38.5,44.5378125 36.48175,46.5 34,46.5 L34,42.125 C34,39.7078125 31.98625,37.75 29.5,37.75 L20.5,37.75 L20.5,15.875 C20.5,13.4578125 22.51375,11.5 25,11.5 L38.5,11.5 L38.5,42.125 Z M29.5,46.5 L16,46.5 C13.51825,46.5 11.5,44.48175 11.5,42 L27.25,42 C28.492,42 29.5,43.008 29.5,44.25 L29.5,46.5 Z M25,6.5 C20.02975,6.5 16,10.484975 16,15.4 L16,37.65 L9.25,37.65 C8.008,37.65 7,38.6468 7,39.875 L7,42.1 C7,47.015025 11.02975,51 16,51 L34,51 C38.97025,51 43,47.015025 43,42.1 L43,19.85 L49.75,19.85 C50.992,19.85 52,18.8532 52,17.625 L52,15.4 C52,10.484975 47.97025,6.5 43,6.5 L25,6.5 Z" id="script-[#1603]-copy-3" fill-opacity="0.174860145" fill="#78A9C2" opacity="0.757699275" transform="translate(29.500000, 28.750000) rotate(19.000000) translate(-29.500000, -28.750000) "></path>
                <g id="Group-2" transform="translate(28.600582, 25.429572) rotate(200.000000) translate(-28.600582, -25.429572) translate(18.100582, 7.429572)" font-family="GurmukhiMN-Bold, Gurmukhi MN" font-weight="bold">
                    <text id="T" fill="#3A5868" style="mix-blend-mode: darken;" transform="translate(11.500000, 18.000000) scale(1, -1) translate(-11.500000, -18.000000) " font-size="24.60672" letter-spacing="0.877283216">
                        <tspan x="2" y="26.5">T</tspan>
                    </text>
                    <text id="T" fill="#78A9C2" style="mix-blend-mode: darken;" font-size="18.25" letter-spacing="0.650652111">
                        <tspan x="-1.91846539e-13" y="21.5">T</tspan>
                    </text>
                </g>
            </g>
            <g id="Group-6" transform="translate(50.500000, 376.500000)">
                <g id="Group-8" transform="translate(19.500000, 34.500000)">
                    <polygon id="Triangle-Copy" fill="#FFFFFF" transform="translate(128.250000, 18.750000) scale(1, -1) translate(-128.250000, -18.750000) " points="128.25 0.5 256.5 37 0 37"></polygon>
                    <path d="M95.8132296,49.0212103 C115.889109,39.2930314 125.070986,23.1192946 123.358862,0.5 C121.387143,23.9620117 129.623135,40.1446796 148.066839,49.0480037 C166.510544,57.9513278 202.65493,62.5930188 256.5,62.9730766 L0,62.9730766 C43.7996072,63.4000113 75.7373504,58.7493892 95.8132296,49.0212103 Z" id="Triangle" fill-opacity="0.5" fill="#AFE6E1" transform="translate(128.250000, 31.750000) scale(1, -1) translate(-128.250000, -31.750000) "></path>
                </g>
                <g id="Group-3" fill="#3A5868">
                    <path d="M69.5,6.5 L69.5,3.25 C69.5,2.94666667 69.6120455,2.69027778 69.8369091,2.48011111 C70.0602273,2.27138889 70.3345455,2.16666667 70.6590909,2.16666667 L74.1363636,2.16666667 L74.1363636,0 L76.4545455,0 L76.4545455,2.16666667 L88.0454545,2.16666667 L88.0454545,0 L90.3636364,0 L90.3636364,2.16666667 L93.8409091,2.16666667 C94.1654545,2.16666667 94.4405455,2.27138889 94.6638636,2.48011111 C94.8879545,2.69027778 95,2.94666667 95,3.25 L95,6.5 L69.5,6.5 L69.5,6.5 L69.5,6.5 L69.5,6.5 Z M95,8.5 L95,24.90625 C95,25.1979167 94.8879545,25.453125 94.6638636,25.6711458 C94.4405455,25.890625 94.1654545,26 93.8409091,26 L70.6590909,26 C70.3345455,26 70.0602273,25.890625 69.8369091,25.6711458 C69.6120455,25.453125 69.5,25.1979167 69.5,24.90625 L69.5,8.5 L95,8.5 L95,8.5 L95,8.5 L95,8.5 Z M72,15 L74.5,15 L74.5,13 L72,13 L72,13 L72,15 L72,15 Z M72,19.5 L74.5,19.5 L74.5,17.5 L72,17.5 L72,17.5 L72,19.5 L72,19.5 Z M72,23.5 L74.5,23.5 L74.5,21.5 L72,21.5 L72,21.5 L72,23.5 L72,23.5 Z M76.5,15 L79,15 L79,13 L76.5,13 L76.5,13 L76.5,15 L76.5,15 Z M76.5,19.5 L79,19.5 L79,17.5 L76.5,17.5 L76.5,17.5 L76.5,19.5 L76.5,19.5 Z M76.5,23.5 L79,23.5 L79,21.5 L76.5,21.5 L76.5,21.5 L76.5,23.5 L76.5,23.5 Z M81,15 L83.5,15 L83.5,13 L81,13 L81,13 L81,15 L81,15 Z M81,19.5 L83.5,19.5 L83.5,17.5 L81,17.5 L81,17.5 L81,19.5 L81,19.5 Z M81,23.5 L83.5,23.5 L83.5,21.5 L81,21.5 L81,21.5 L81,23.5 L81,23.5 Z M85.5,15 L88,15 L88,13 L85.5,13 L85.5,13 L85.5,15 L85.5,15 Z M85.5,19.5 L88,19.5 L88,17.5 L85.5,17.5 L85.5,17.5 L85.5,19.5 L85.5,19.5 Z M85.5,23.5 L88,23.5 L88,21.5 L85.5,21.5 L85.5,21.5 L85.5,23.5 L85.5,23.5 Z M90.5,15 L93,15 L93,13 L90.5,13 L90.5,13 L90.5,15 L90.5,15 Z M90.5,19.5 L93,19.5 L93,17.5 L90.5,17.5 L90.5,17.5 L90.5,19.5 L90.5,19.5 Z M90.5,23.5 L93,23.5 L93,21.5 L90.5,21.5 L90.5,21.5 L90.5,23.5 L90.5,23.5 Z" id="Fill-192"></path>
                    <path d="M134.483827,0.5 L141.017145,0.5 C141.634377,0.5 142.229498,0.729814263 142.686532,1.14465748 L143.873873,2.22238924 C144.216649,2.53352166 144.662989,2.70588235 145.125913,2.70588235 L160.016173,2.70588235 C161.387953,2.70588235 162.5,3.8179298 162.5,5.18970985 L162.5,23.0161725 C162.5,24.3879525 161.387953,25.5 160.016173,25.5 L134.483827,25.5 C133.112047,25.5 132,24.3879525 132,23.0161725 L132,2.9838275 C132,1.61204745 133.112047,0.5 134.483827,0.5 Z M133.5,6.5 L133.5,8 L161,8 L161,6.5 L133.5,6.5 Z" id="Rectangle-193"></path>
                    <path d="M199.5,4.375 L199.5,2.125 C199.5,1.81 199.60875,1.54375 199.82625,1.32625 C200.04375,1.1095 200.31,1 200.625,1 L202.875,1 C203.19,1 203.45625,1.1095 203.6745,1.32625 C203.89125,1.54375 204,1.81 204,2.125 L204,4.375 C204,4.675 203.89125,4.9375 203.6745,5.1625 C203.45625,5.3875 203.19,5.5 202.875,5.5 L200.625,5.5 C200.31,5.5 200.04375,5.3875 199.82625,5.1625 C199.60875,4.9375 199.5,4.675 199.5,4.375 C199.5,4.375 199.5,4.675 199.5,4.375 L199.5,4.375 L199.5,4.375 Z M199.5,10.875 L199.5,8.625 C199.5,8.31 199.60875,8.04375 199.82625,7.82625 C200.04375,7.6095 200.31,7.5 200.625,7.5 L202.875,7.5 C203.19,7.5 203.45625,7.6095 203.6745,7.82625 C203.89125,8.04375 204,8.31 204,8.625 L204,10.875 C204,11.175 203.89125,11.4375 203.6745,11.6625 C203.45625,11.8875 203.19,12 202.875,12 L200.625,12 C200.31,12 200.04375,11.8875 199.82625,11.6625 C199.60875,11.4375 199.5,11.175 199.5,10.875 C199.5,10.875 199.5,11.175 199.5,10.875 L199.5,10.875 L199.5,10.875 Z M199.5,17.875 L199.5,15.625 C199.5,15.31 199.60875,15.04375 199.82625,14.82625 C200.04375,14.6095 200.31,14.5 200.625,14.5 L202.875,14.5 C203.19,14.5 203.45625,14.6095 203.6745,14.82625 C203.89125,15.04375 204,15.31 204,15.625 L204,17.875 C204,18.175 203.89125,18.4375 203.6745,18.6625 C203.45625,18.8875 203.19,19 202.875,19 L200.625,19 C200.31,19 200.04375,18.8875 199.82625,18.6625 C199.60875,18.4375 199.5,18.175 199.5,17.875 C199.5,17.875 199.5,18.175 199.5,17.875 L199.5,17.875 L199.5,17.875 Z M199.5,24.375 L199.5,22.125 C199.5,21.81 199.60875,21.54375 199.82625,21.32625 C200.04375,21.1095 200.31,21 200.625,21 L202.875,21 C203.19,21 203.45625,21.1095 203.6745,21.32625 C203.89125,21.54375 204,21.81 204,22.125 L204,24.375 C204,24.675 203.89125,24.9375 203.6745,25.1625 C203.45625,25.3875 203.19,25.5 202.875,25.5 L200.625,25.5 C200.31,25.5 200.04375,25.3875 199.82625,25.1625 C199.60875,24.9375 199.5,24.675 199.5,24.375 C199.5,24.375 199.5,24.675 199.5,24.375 L199.5,24.375 L199.5,24.375 Z M206.5,4.375 L206.5,2.125 C206.5,1.81 206.612778,1.54375 206.838333,1.32625 C207.063889,1.1095 207.34,1 207.666667,1 L226.333333,1 C226.66,1 226.936111,1.1095 227.162444,1.32625 C227.387222,1.54375 227.5,1.81 227.5,2.125 L227.5,4.375 C227.5,4.675 227.387222,4.9375 227.162444,5.1625 C226.936111,5.3875 226.66,5.5 226.333333,5.5 L207.666667,5.5 C207.34,5.5 207.063889,5.3875 206.838333,5.1625 C206.612778,4.9375 206.5,4.675 206.5,4.375 C206.5,4.375 206.5,4.675 206.5,4.375 L206.5,4.375 L206.5,4.375 Z M206.5,10.875 L206.5,8.625 C206.5,8.31 206.612778,8.04375 206.838333,7.82625 C207.063889,7.6095 207.34,7.5 207.666667,7.5 L226.333333,7.5 C226.66,7.5 226.936111,7.6095 227.162444,7.82625 C227.387222,8.04375 227.5,8.31 227.5,8.625 L227.5,10.875 C227.5,11.175 227.387222,11.4375 227.162444,11.6625 C226.936111,11.8875 226.66,12 226.333333,12 L207.666667,12 C207.34,12 207.063889,11.8875 206.838333,11.6625 C206.612778,11.4375 206.5,11.175 206.5,10.875 C206.5,10.875 206.5,11.175 206.5,10.875 L206.5,10.875 L206.5,10.875 Z M206.5,17.875 L206.5,15.625 C206.5,15.31 206.612778,15.04375 206.838333,14.82625 C207.063889,14.6095 207.34,14.5 207.666667,14.5 L226.333333,14.5 C226.66,14.5 226.936111,14.6095 227.162444,14.82625 C227.387222,15.04375 227.5,15.31 227.5,15.625 L227.5,17.875 C227.5,18.175 227.387222,18.4375 227.162444,18.6625 C226.936111,18.8875 226.66,19 226.333333,19 L207.666667,19 C207.34,19 207.063889,18.8875 206.838333,18.6625 C206.612778,18.4375 206.5,18.175 206.5,17.875 C206.5,17.875 206.5,18.175 206.5,17.875 L206.5,17.875 L206.5,17.875 Z M206.5,24.375 L206.5,22.125 C206.5,21.81 206.612778,21.54375 206.838333,21.32625 C207.063889,21.1095 207.34,21 207.666667,21 L226.333333,21 C226.66,21 226.936111,21.1095 227.162444,21.32625 C227.387222,21.54375 227.5,21.81 227.5,22.125 L227.5,24.375 C227.5,24.675 227.387222,24.9375 227.162444,25.1625 C226.936111,25.3875 226.66,25.5 226.333333,25.5 L207.666667,25.5 C207.34,25.5 207.063889,25.3875 206.838333,25.1625 C206.612778,24.9375 206.5,24.675 206.5,24.375 L206.5,24.375 Z" id="Fill-59"></path>
                    <path d="M276.166667,11.2083333 L285.5,11.2083333 L285.5,24.9895833 C285.5,25.1393056 285.445556,25.2618056 285.336667,25.3570833 C285.228556,25.4523611 285.087778,25.5 284.916667,25.5 L265.083333,25.5 C264.912222,25.5 264.772222,25.4523611 264.663333,25.3570833 C264.555222,25.2618056 264.5,25.1393056 264.5,24.9895833 L264.5,1.51041667 C264.5,1.36069444 264.555222,1.23819444 264.663333,1.14291667 C264.772222,1.04763889 264.912222,1 265.083333,1 L276.166667,1 L276.166667,11.2083333 L276.166667,11.2083333 L276.166667,11.2083333 L276.166667,11.2083333 Z M285.5,9 L278.5,9 L278.5,3 L285.5,9 L285.5,9 Z" id="Fill-28" stroke="#3A5868" stroke-width="0.99362875"></path>
                    <g id="Group-5" transform="translate(0.000000, 0.500000)" stroke="#3A5868" stroke-width="1.18546313">
                        <path d="M21.5,25.5 L0,25.5 L0,22.64 L7.16666667,17.5 L7.16666667,15.5 C6.72472222,15.5 6.31622222,15.0033333 5.93997222,14.01 C5.563125,13.0166667 5.375,12.18 5.375,11.5 L5.375,7.5 C5.375,5.84733333 5.90055556,4.43333333 6.95226389,3.26 C8.003375,2.08666667 9.26888889,1.5 10.75,1.5 C12.2311111,1.5 13.4972222,2.08666667 14.5483333,3.26 C15.5994444,4.43333333 16.125,5.84733333 16.125,7.5 L16.125,11.5 C16.125,12.18 15.9374722,13.0166667 15.560625,14.01 C15.184375,15.0033333 14.775875,15.5 14.3333333,15.5 L14.3333333,17.5 L21.5,22.64 L21.5,25.5 Z" id="Fill-14"></path>
                        <path d="M32.5,20.6995833 L32.5,23.5 L10,23.5 L10,20.6995833 L17.5,15.6666667 L17.5,13.7083333 C17.0375,13.7083333 16.61,13.2220139 16.21625,12.249375 C15.821875,11.2767361 15.625,10.4575 15.625,9.79166667 L15.625,5.875 C15.625,4.25676389 16.175,2.87222222 17.275625,1.72333333 C18.375625,0.574444444 19.7,0 21.25,0 C22.8,0 24.125,0.574444444 25.225,1.72333333 C26.325,2.87222222 26.875,4.25676389 26.875,5.875 L26.875,9.79166667 C26.875,10.4575 26.67875,11.2767361 26.284375,12.249375 C25.890625,13.2220139 25.463125,13.7083333 25,13.7083333 L25,15.6666667 L32.5,20.6995833" id="Fill-14"></path>
                    </g>
                </g>
            </g>
            <path d="M35.3569933,459.507538 C37.0076075,458.502513 38.8052764,458 40.75,458 C42.6953238,458 44.4923925,458.502513 46.1436069,459.507538 C47.7936209,460.512563 49.0997069,461.878769 50.059464,463.606156 C51.0198213,465.333543 51.5,467.214824 51.5,469.25 C51.5,471.285176 51.0198213,473.166457 50.059464,474.893844 C49.0997069,476.621231 47.7936209,477.987437 46.1436069,478.992462 C44.4923925,479.997487 42.6953238,480.5 40.75,480.5 C38.8052764,480.5 37.0076075,479.997487 35.3569933,478.992462 C33.7063791,477.987437 32.4008934,476.621231 31.4411362,474.893844 C30.4801787,473.166457 30,471.285176 30,469.25 C30,467.214824 30.4801787,465.333543 31.4411362,463.606156 C32.4008934,461.878769 33.7063791,460.512563 35.3569933,459.507538 C35.3569933,459.507538 33.7063791,460.512563 35.3569933,459.507538 L35.3569933,459.507538 L35.3569933,459.507538 Z M37,467.5 L37,469.375 L38.75,469.375 L38.75,473.125 L37,473.125 L37,475 L44,475 L44,473.125 L42.25,473.125 L42.25,467.5 L37,467.5 L37,467.5 L37,467.5 L37,467.5 Z M39,465.5 L42.5,465.5 L42.5,463.5 L39,463.5 L39,463.5 L39,465.5 L39,465.5 Z" id="Fill-88-Copy" stroke="#3A5868" stroke-width="0.5" fill="#FFFFFF"></path>
            <g id="Group-7" transform="translate(123.500000, 154.000000)" fill="#78A9C2" font-family="Roboto-MediumItalic, Roboto" font-style="italic" font-weight="500">
                <text id="Go-ahead,-get-starte" font-size="10">
                    <tspan x="39.3901367" y="37.5">Go ahead, get </tspan>
                    <tspan x="52.6054688" y="50.5">started!</tspan>
                </text>
                <text id="Welcome,-Kathryn!" font-size="15" letter-spacing="1">
                    <tspan x="0.0388183594" y="16">Welcome, Kathryn</tspan>
                    <tspan x="134.984131" y="16">!</tspan>
                </text>
            </g>
            <g id="circle-check-copy-3" transform="translate(180.500000, 456.000000)">
                <ellipse id="Oval-3" stroke="#78A9C2" stroke-width="0.75" fill="#78A9C2" cx="12.75" cy="13.25" rx="12.75" ry="13.25"></ellipse>
                <polygon id="Fill-2" fill="#3A5868" points="14.5454545 15.3181818 14.5454545 21.5 10.4545455 21.5 10.4545455 15.3181818 5 15.3181818 5 10.6818182 10.4545455 10.6818182 10.4545455 4.5 14.5454545 4.5 14.5454545 10.6818182 20 10.6818182 20 15.3181818"></polygon>
            </g>
        </g>
    </g>
</svg>