<?xml version="1.0" encoding="UTF-8"?>
<svg width="384px" height="512px" viewBox="0 0 384 512" version="1.1" xmlns="http://www.w3.org/2000/svg" xmlns:xlink="http://www.w3.org/1999/xlink" style="background: #FFFFFF;">
    <!-- Generator: Sketch 48.2 (47327) - http://www.bohemiancoding.com/sketch -->
    <title>T04</title>
    <desc>Created with Sketch.</desc>
    <defs>
        <rect id="path-1" x="0" y="0" width="72" height="20.5"></rect>
        <rect id="path-2" x="0" y="268" width="385" height="201"></rect>
        <rect id="path-3" x="0" y="44" width="337.5" height="37"></rect>
        <filter x="0.0%" y="0.0%" width="100.0%" height="100.0%" filterUnits="objectBoundingBox" id="filter-4">
            <feGaussianBlur stdDeviation="0" in="SourceGraphic"></feGaussianBlur>
        </filter>
        <rect id="path-5" x="0" y="89" width="337.5" height="37"></rect>
        <filter x="0.0%" y="0.0%" width="100.0%" height="100.0%" filterUnits="objectBoundingBox" id="filter-6">
            <feGaussianBlur stdDeviation="0" in="SourceGraphic"></feGaussianBlur>
        </filter>
        <rect id="path-7" x="0" y="0" width="337.5" height="37"></rect>
        <filter x="0.0%" y="0.0%" width="100.0%" height="100.0%" filterUnits="objectBoundingBox" id="filter-8">
            <feGaussianBlur stdDeviation="0" in="SourceGraphic"></feGaussianBlur>
        </filter>
        <rect id="path-9" x="0" y="25" width="337.5" height="10.5" rx="1.25961454"></rect>
        <rect id="path-10" x="0" y="25" width="73.5" height="10.5" rx="1.25961454"></rect>
        <rect id="path-11" x="60.5" y="22.5" width="24" height="17" rx="3.77884362"></rect>
        <rect id="path-12" x="0" y="0" width="385.5" height="30.5"></rect>
        <path d="M35,103 L362,103" id="path-13"></path>
    </defs>
    <g id="Page-1" stroke="none" stroke-width="1" fill="none" fill-rule="evenodd">
        <g id="Artboard" transform="translate(-165.000000, -1370.000000)"></g>
        <g id="T04">
            <g id="StatusBar-Light-iPhone6" transform="translate(-0.500000, 0.000000)">
                <rect id="Background" fill="#FFFFFF" x="0" y="0" width="385.5" height="20.5"></rect>
                <path d="M353.459763,6.5 C353.459763,5.67157288 354.131335,5 354.959763,5 L375.862797,5 C376.691224,5 377.362797,5.67157288 377.362797,6.5 L377.362797,14 C377.362797,14.8284271 376.691224,15.5 375.862797,15.5 L354.959763,15.5 C354.131335,15.5 353.459763,14.8284271 353.459763,14 L353.459763,6.5 Z M353.968338,7 L353.968338,13.5 C353.968338,14.3284271 354.639911,15 355.468338,15 L375.354222,15 C376.182649,15 376.854222,14.3284271 376.854222,13.5 L376.854222,7 C376.854222,6.17157288 376.182649,5.5 375.354222,5.5 L355.468338,5.5 C354.639911,5.5 353.968338,6.17157288 353.968338,7 Z M354.476913,7.5 C354.476913,6.67157288 355.148486,6 355.976913,6 L365.665567,6 L365.665567,14.5 L355.976913,14.5 C355.148486,14.5 354.476913,13.8284271 354.476913,13 L354.476913,7.5 Z M380.414248,10 C380.414248,11.0178721 379.530104,11.8599457 378.379947,12 L378.379947,8 C379.530104,8.14005431 380.414248,8.98212794 380.414248,10 Z" id="battery-@2x" fill="#000000"></path>
                <text id="49%" font-family="HelveticaNeue, Helvetica Neue" font-size="12" font-weight="normal" line-spacing="12" fill="#000000">
                    <tspan x="325.488127" y="16">49%</tspan>
                </text>
                <path d="M316.842348,11.5 L318.368074,13 L316.842348,14.5 L316.842348,11.5 Z M316.842348,9 L316.842348,6 L318.368074,7.5 L316.842348,9 Z M319.893799,7.64722653 L315.854173,3.5 L315.854173,9.20243648 L312.773747,6.09201658 L311.756596,7.12882321 L315.269315,10.2504999 L311.756596,13.349663 L312.773747,14.3864696 L315.854173,11.2760497 L315.854173,17 L319.893799,12.8312597 L317.350923,10.2504998 L319.893799,7.64722653 Z" id="bluetooth-@2x" fill="#535353"></path>
                <text id="9:49-AM" font-family="HelveticaNeue, Helvetica Neue" font-size="12" font-weight="normal" letter-spacing="0.599999905" fill="#000000">
                    <tspan x="168.192" y="14">9:49 AM</tspan>
                </text>
                <path d="M80.35056,7.06231003 C82.3236005,7.06231003 84.1217566,7.79635258 85.5004955,9 L86.4577836,7.93262411 C84.8248525,6.50101317 82.6921793,5.5 80.35056,5.5 C78.0124994,5.5 75.8828765,6.49797366 74.2519789,7.92502533 L75.2072335,8.99392097 C76.5849556,7.79381966 78.3800615,7.06231003 80.35056,7.06231003 L80.35056,7.06231003 Z M83.420059,11 L84.4234828,9.95755423 C83.3314031,9.07591623 81.9108934,8.5 80.3523626,8.5 C78.7968542,8.5 77.377352,9.07451384 76.2862797,9.95334705 L77.2881923,10.9971952 C78.1132969,10.3394727 79.1822052,9.9407255 80.3523626,9.9407255 C81.5240312,9.9407255 82.5944507,10.3408751 83.420059,11 Z M82.3891821,12.2681206 C81.8383239,11.8142533 81.1290133,11.5 80.3536395,11.5 C79.5797558,11.5 78.8714386,11.8137668 78.3205805,12.2656883 L80.3536395,14.5 L82.3891821,12.2681206 L82.3891821,12.2681206 Z" id="wifi-@2x" fill="#0C0000"></path>
                <text id="Yext" font-family="HelveticaNeue, Helvetica Neue" font-size="12" font-weight="normal" fill="#000000">
                    <tspan x="45.2631926" y="13.5">Yext</tspan>
                </text>
                <path d="M8.13720317,13 C6.45193313,13 5.08575198,11.6568543 5.08575198,10 C5.08575198,8.34314567 6.45193313,7 8.13720317,7 C9.82247321,7 11.1886544,8.34314567 11.1886544,10 C11.1886544,11.6568543 9.82247321,13 8.13720317,13 Z M15.2572559,13 C13.5719859,13 12.2058047,11.6568543 12.2058047,10 C12.2058047,8.34314567 13.5719859,7 15.2572559,7 C16.942526,7 18.3087071,8.34314567 18.3087071,10 C18.3087071,11.6568543 16.942526,13 15.2572559,13 Z M22.3773087,13 C20.6920387,13 19.3258575,11.6568543 19.3258575,10 C19.3258575,8.34314567 20.6920387,7 22.3773087,7 C24.0625787,7 25.4287599,8.34314567 25.4287599,10 C25.4287599,11.6568543 24.0625787,13 22.3773087,13 Z M30.0059367,13 C28.3206666,13 26.9544855,11.6568543 26.9544855,10 C26.9544855,8.34314567 28.3206666,7 30.0059367,7 C31.6912067,7 33.0573879,8.34314567 33.0573879,10 C33.0573879,11.6568543 31.6912067,13 30.0059367,13 Z M30.0059367,12.5 C31.4103284,12.5 32.5488127,11.3807119 32.5488127,10 C32.5488127,8.61928806 31.4103284,7.5 30.0059367,7.5 C28.601545,7.5 27.4630607,8.61928806 27.4630607,10 C27.4630607,11.3807119 28.601545,12.5 30.0059367,12.5 Z M37.1259894,13 C35.4407194,13 34.0745383,11.6568543 34.0745383,10 C34.0745383,8.34314567 35.4407194,7 37.1259894,7 C38.8112595,7 40.1774406,8.34314567 40.1774406,10 C40.1774406,11.6568543 38.8112595,13 37.1259894,13 Z M37.1259894,12.5 C38.5303811,12.5 39.6688654,11.3807119 39.6688654,10 C39.6688654,8.61928806 38.5303811,7.5 37.1259894,7.5 C35.7215977,7.5 34.5831135,8.61928806 34.5831135,10 C34.5831135,11.3807119 35.7215977,12.5 37.1259894,12.5 Z" id="signal-@2x" fill="#000000"></path>
            </g>
            <path d="M0.5,114 L386,114" id="Line-4" stroke="#000000" stroke-width="1.5" stroke-linecap="square"></path>
            <text id="project-title-copy-2" font-family="Roboto-Regular, Roboto" font-size="17.5" font-weight="normal" letter-spacing="0.912500083" fill="#302F2E">
                <tspan x="36" y="98">Project </tspan>
            </text>
            <g id="Group-5" transform="translate(291.500000, 80.000000)">
                <g id="Rectangle-157-Copy">
                    <use fill="#FFFFFF" fill-rule="evenodd" xlink:href="#path-1"></use>
                    <rect stroke="#3A5868" stroke-width="0.825" x="0.4125" y="0.4125" width="71.175" height="19.675"></rect>
                </g>
                <rect id="Combined-Shape" stroke="#3A5868" stroke-width="1.65" fill="#3A5868" x="34.5" y="0" width="36.5" height="20.5"></rect>
                <text id="Work" opacity="0.713994565" font-family="Roboto-Regular, Roboto" font-size="9.9" font-weight="normal" fill="#302F2E">
                    <tspan x="6" y="14.5">Work </tspan>
                </text>
            </g>
            <text id="Due-Date/Time" opacity="0.713994565" font-family="Roboto-Regular, Roboto" font-size="13" font-weight="normal" fill="#302F2E">
                <tspan x="40" y="154">Due Date/Time</tspan>
            </text>
            <path d="M0.5,130 L384.5,130" id="Line-4" stroke="#3A5868" stroke-width="1.01" stroke-linecap="square"></path>
            <g id="circle-check" transform="translate(15.000000, 137.000000)">
                <ellipse id="Oval-3" stroke="#78A9C2" stroke-width="1.01" fill="#78A9C2" cx="10" cy="10.5" rx="10" ry="10.5"></ellipse>
                <polygon id="Fill-2" fill="#3A5868" points="11.6363636 12.0909091 11.6363636 17 8.36363636 17 8.36363636 12.0909091 4 12.0909091 4 8.40909091 8.36363636 8.40909091 8.36363636 3.5 11.6363636 3.5 11.6363636 8.40909091 16 8.40909091 16 12.0909091"></polygon>
            </g>
            <g id="Rectangle-4" opacity="0.15772192">
                <use fill="#78A9C2" fill-rule="evenodd" xlink:href="#path-2"></use>
                <rect stroke="#000000" stroke-width="0.94" x="0.47" y="268.47" width="384.06" height="200.06"></rect>
            </g>
            <path d="M0.5,164 L385,164" id="Line-4-Copy-4" stroke="#3A5868" stroke-width="1.01" stroke-linecap="square"></path>
            <path d="M0,470.5 L384,470.5 L0,470.5 Z" id="Line-2" stroke="#3A5868" stroke-width="3.21099997" fill="#4D5B69" opacity="0.849999964"></path>
            <g id="options1" transform="translate(25.000000, 285.000000)">
                <rect id="Rectangle-2-Copy-6" stroke="#78A9C2" stroke-width="0.5" fill="#FFFFFF" x="0" y="135" width="337.5" height="37"></rect>
                <path d="M19.6148038,162.736292 L24.2360735,157.912594 L28.8396861,153.221422 C29.9472078,152.078306 30.5438935,150.872382 30.6291343,149.603021 C30.7265524,148.372601 30.4166411,147.269682 29.6981829,146.296778 C28.9785069,145.322617 28.0414668,144.730332 26.8846272,144.515527 C26.6045503,144.46528 26.3122961,144.440785 26.0078646,144.440785 C25.3502926,144.440785 24.695765,144.607855 24.0448905,144.940113 C23.3927983,145.27237 22.8819623,145.612164 22.509947,145.956983 C22.1385406,146.303059 21.6368376,146.802387 21.0030113,147.454968 L14.6464822,154.01281 C14.402937,154.264672 14.1350373,154.520931 13.8427831,154.784727 C13.3800473,155.236949 13.0390841,155.576743 12.8198934,155.802854 C12.6013116,156.028337 12.3455892,156.34238 12.0527261,156.744983 C11.7604719,157.146957 11.5692889,157.542023 11.4773506,157.932065 C11.3860212,158.32085 11.3701907,158.736014 11.4322948,159.175046 C11.5418901,159.966434 11.8700672,160.570024 12.4180439,160.984561 C12.9660205,161.399097 13.5748834,161.606366 14.2446327,161.606366 C15.1335726,161.606366 15.8946512,161.279761 16.5278687,160.625924 L26.5193095,150.319038 C26.9582997,149.868073 27.0794634,149.397009 26.8846272,148.905846 C26.7025772,148.45488 26.379271,148.227513 25.9165352,148.227513 C25.588358,148.227513 25.2833177,148.372601 25.0032408,148.660892 C24.7718728,148.86188 24.5344163,149.10118 24.2908711,149.37691 L17.4052402,156.405188 L16.144285,155.142736 L16.2721463,155.011466 L23.3599197,147.549181 C23.7733376,147.122082 24.1837113,146.802387 24.5922583,146.588838 C25.0001965,146.375288 25.4842425,146.268514 26.0450052,146.268514 C26.1546006,146.268514 26.330562,146.281076 26.5741071,146.305571 C27.6706693,146.519748 28.3830389,147.172957 28.7112161,148.265826 C28.8944838,148.855599 28.9121408,149.459189 28.7660137,150.074085 C28.6198866,150.689609 28.3343299,151.217201 27.9081258,151.657489 L20.7107571,159.081461 C20.5031348,159.29501 20.1566918,159.678143 19.6696014,160.231486 C19.1952972,160.771012 18.8324149,161.173615 18.5827811,161.436782 C18.3331473,161.700578 18.0134942,161.986357 17.6244308,162.293491 C17.2341497,162.601253 16.8383888,162.856256 16.4365392,163.057872 C15.7552216,163.408343 15.0300659,163.584835 14.2628986,163.584835 C13.4104904,163.584835 12.6250573,163.383848 11.906599,162.981245 C11.1887496,162.57927 10.6158096,162.020902 10.1896055,161.304884 C9.60570595,160.324443 9.39260393,159.238483 9.55029943,158.04512 C9.70921265,156.851757 10.2017828,155.828606 11.0304452,154.973153 L20.3819711,145.326385 C21.2465564,144.434504 21.9217854,143.837194 22.4094847,143.536341 C23.5060468,142.846075 24.7048979,142.5 26.0078646,142.5 C27.0191859,142.5 27.9440488,142.707268 28.7848885,143.121805 C29.746283,143.573398 30.5378049,144.220955 31.1588451,145.062589 C31.7804941,145.904224 32.1884323,146.870848 32.3826596,147.963717 C32.589673,149.131956 32.522698,150.281353 32.1823437,151.412535 C31.8407715,152.54309 31.2617429,153.529812 30.4464754,154.370819 L21.0030113,164 L19.742665,162.868818 L19.6148038,162.736292" id="Fill-194-Copy" stroke="#3A5868" stroke-width="0.854601" fill="#78A9C2" transform="translate(21.000000, 153.250000) scale(-1, 1) translate(-21.000000, -153.250000) "></path>
                <g id="Rectangle-2-Copy-5" filter="url(#filter-4)">
                    <use fill="#FFFFFF" fill-rule="evenodd" xlink:href="#path-3"></use>
                    <rect stroke="#78A9C2" stroke-width="0.5" x="0.25" y="44.25" width="337" height="36.5"></rect>
                </g>
                <g id="Group-3-Copy" transform="translate(8.500000, 55.500000)" fill="#78A9C2" stroke="#3A5868" stroke-width="0.89958">
                    <path d="M24.5,14.1529167 L24.5,16 L9.5,16 L9.5,14.1529167 L14.5,10.8333333 L14.5,9.54166667 C14.1916667,9.54166667 13.9066667,9.22090278 13.6441667,8.579375 C13.38125,7.93784722 13.25,7.3975 13.25,6.95833333 L13.25,4.375 C13.25,3.30765278 13.6166667,2.39444444 14.3504167,1.63666667 C15.08375,0.878888889 15.9666667,0.5 17,0.5 C18.0333333,0.5 18.9166667,0.878888889 19.65,1.63666667 C20.3833333,2.39444444 20.75,3.30765278 20.75,4.375 L20.75,6.95833333 C20.75,7.3975 20.6191667,7.93784722 20.35625,8.579375 C20.09375,9.22090278 19.80875,9.54166667 19.5,9.54166667 L19.5,10.8333333 L24.5,14.1529167" id="Fill-14"></path>
                    <path d="M15,16.5 L0,16.5 L0,14.53375 L5,11 L5,9.625 C4.69166667,9.625 4.40666667,9.28354167 4.14416667,8.600625 C3.88125,7.91770833 3.75,7.3425 3.75,6.875 L3.75,4.125 C3.75,2.98879167 4.11666667,2.01666667 4.85041667,1.21 C5.58375,0.403333333 6.46666667,0 7.5,0 C8.53333333,0 9.41666667,0.403333333 10.15,1.21 C10.8833333,2.01666667 11.25,2.98879167 11.25,4.125 L11.25,6.875 C11.25,7.3425 11.1191667,7.91770833 10.85625,8.600625 C10.59375,9.28354167 10.30875,9.625 10,9.625 L10,11 L15,14.53375 L15,16.5 Z" id="Fill-14"></path>
                </g>
                <g id="Rectangle-2-Copy-4" filter="url(#filter-6)">
                    <use fill="#FFFFFF" fill-rule="evenodd" xlink:href="#path-5"></use>
                    <rect stroke="#78A9C2" stroke-width="0.5" x="0.25" y="89.25" width="337" height="36.5"></rect>
                </g>
                <g id="Rectangle-2-Copy-3" filter="url(#filter-8)">
                    <use fill="#FFFFFF" fill-rule="evenodd" xlink:href="#path-7"></use>
                    <rect stroke="#9B9B9B" stroke-width="0.5" x="0.25" y="0.25" width="337" height="36.5"></rect>
                </g>
                <text id="Attachments-Copy" opacity="0.713994565" font-family="Roboto-Regular, Roboto" font-size="13" font-weight="normal" fill="#302F2E">
                    <tspan x="37" y="159.5">Attachments</tspan>
                </text>
                <text id="Assign-Copy" opacity="0.713994565" font-family="Roboto-Regular, Roboto" font-size="13" font-weight="normal" fill="#302F2E">
                    <tspan x="37" y="70">Assign</tspan>
                </text>
                <text id="Note-Copy" opacity="0.713994565" font-family="Roboto-Regular, Roboto" font-size="13" font-weight="normal" fill="#302F2E">
                    <tspan x="37" y="114.5">Note</tspan>
                </text>
                <text id="project-title-copy-3" opacity="0.713994565" font-family="Roboto-Regular, Roboto" font-size="13" font-weight="normal" fill="#302F2E">
                    <tspan x="37" y="25.5">Alerts</tspan>
                </text>
                <path d="M21.6111111,105.75 L28.5,105.75 L28.5,117.5625 C28.5,117.690833 28.4598148,117.795833 28.3794444,117.8775 C28.2996481,117.959167 28.1957407,118 28.0694444,118 L13.4305556,118 C13.3042593,118 13.2009259,117.959167 13.1205556,117.8775 C13.0407593,117.795833 13,117.690833 13,117.5625 L13,97.4375 C13,97.3091667 13.0407593,97.2041667 13.1205556,97.1225 C13.2009259,97.0408333 13.3042593,97 13.4305556,97 L21.6111111,97 L21.6111111,105.75 L21.6111111,105.75 L21.6111111,105.75 L21.6111111,105.75 Z M28.5,103.5 L23.5,103.5 L23.5,98.5 L28.5,103.5 L28.5,103.5 Z" id="Fill-28-Copy" stroke="#3A5868" stroke-width="0.89958" fill="#78A9C2"></path>
                <path d="M317.249697,146.69 L317.249697,146.69 C317.525765,146.436667 317.972698,146.436667 318.248059,146.69 L324.086428,152.061318 C324.637857,152.568634 324.637857,153.391643 324.086428,153.898959 L318.205696,159.309901 C317.932453,159.560636 317.491168,159.563884 317.214395,159.316397 L317.214395,159.316397 C316.931267,159.063713 316.928442,158.647337 317.206628,158.390755 L322.588886,153.439711 C322.864953,153.185728 322.864953,152.774549 322.588886,152.520566 L317.249697,147.608496 C316.97363,147.355163 316.97363,146.943983 317.249697,146.69" id="arrow_left-[#335]-copy-31" fill="#9B9B9B"></path>
                <path d="M316.78299,57.1900001 L316.78299,57.1900001 C317.095867,56.9366666 317.602391,56.9366666 317.914467,57.1900001 L324.531285,62.5613177 C325.156238,63.0686341 325.156238,63.8916429 324.531285,64.3989593 L317.866455,69.8099009 C317.55678,70.060636 317.056657,70.0638839 316.742981,69.8163966 L316.742981,69.8163966 C316.422102,69.5637128 316.418901,69.1473366 316.734178,68.8907553 L322.83407,63.9397113 C323.146947,63.6857283 323.146947,63.2745487 322.83407,63.0205657 L316.78299,58.108496 C316.470114,57.8551626 316.470114,57.443983 316.78299,57.1900001" id="arrow_left-[#335]-copy-30" fill="#9B9B9B"></path>
                <path d="M316.78299,101.69 L316.78299,101.69 C317.095867,101.436667 317.602391,101.436667 317.914467,101.69 L324.531285,107.061318 C325.156238,107.568634 325.156238,108.391643 324.531285,108.898959 L317.866455,114.309901 C317.55678,114.560636 317.056657,114.563884 316.742981,114.316397 L316.742981,114.316397 C316.422102,114.063713 316.418901,113.647337 316.734178,113.390755 L322.83407,108.439711 C323.146947,108.185728 323.146947,107.774549 322.83407,107.520566 L316.78299,102.608496 C316.470114,102.355163 316.470114,101.943983 316.78299,101.69" id="arrow_left-[#335]-copy-29" fill="#9B9B9B"></path>
                <path d="M27.9657467,22.3 L28.2404702,22.3 C28.4559397,22.3 28.636934,22.3894167 28.7818372,22.5676333 C28.9272791,22.7470833 29,22.966 29,23.225 C29,23.4716667 28.9305111,23.7177167 28.790456,23.9643833 C28.6498622,24.2116667 28.483412,24.37755 28.2889509,24.4645 C28.0519345,24.5755 27.7125701,24.7173333 27.2713964,24.8893833 C26.8291454,25.0632833 25.9268671,25.2908333 24.5640229,25.5738833 C23.2011787,25.8581667 21.8464147,26 20.4997307,26 C19.1530467,26 17.830603,25.8735833 16.5323996,25.62075 C15.2341963,25.3679167 14.2726639,25.1113833 13.6478025,24.8523833 L12.7105105,24.4823833 C12.516588,24.3966667 12.3490605,24.2270833 12.209544,23.97425 C12.0694889,23.7214167 12,23.4716667 12,23.225 C12,22.966 12.0727209,22.7470833 12.2176241,22.5676333 C12.363066,22.3894167 12.5435217,22.3 12.7589911,22.3 L13.0342533,22.3 L14.9406192,19.0988833 L15.9592509,13.05 C16.1203143,12.0997167 16.5297063,11.2363833 17.1868881,10.4593833 C17.8446085,9.68238333 18.6197598,9.17055 19.513958,8.92388333 L19.2230742,8.3325 C19.1584334,8.09878333 19.1745936,7.90083333 19.2720935,7.73988333 C19.3690548,7.57955 19.5247315,7.5 19.7402009,7.5 L21.2597991,7.5 C21.4752685,7.5 21.6309452,7.56536667 21.7279065,7.69425 C21.8248677,7.82375 21.8415666,8.00566667 21.7763871,8.23938333 L21.4855033,8.92388333 C22.3802402,9.15821667 23.1553915,9.6682 23.8131119,10.45075 C24.4692164,11.2339167 24.879147,12.0997167 25.0407491,13.05 L26.0593808,19.0988833 L27.9657467,22.3 L27.9657467,22.3 L27.9657467,22.3 L27.9657467,22.3 Z M20.7579675,27.6090579 C20.1433333,27.6090579 19.5571545,27.5733111 19,27.5 C19.1365854,28.0943653 19.3636585,28.5760376 19.6823577,28.9450167 C20.0010569,29.3152075 20.3595935,29.5 20.7579675,29.5 C21.1563415,29.5 21.514878,29.3152075 21.8341463,28.9450167 C22.1522764,28.5760376 22.3742276,28.0943653 22.5,27.5 C21.9530894,27.5733111 21.3726016,27.6090579 20.7579675,27.6090579 L20.7579675,27.6090579 Z" id="Fill-197-Copy" stroke="#3A5868" stroke-width="0.8995" fill="#78A9C2"></path>
                <path d="M316.799637,11.2265385 L316.799637,11.2265385 C317.130918,10.9244872 317.667237,10.9244872 317.997671,11.2265385 L325.003714,17.6308019 C325.665429,18.2356791 325.665429,19.2169588 325.003714,19.821836 L317.946835,26.2733434 C317.618943,26.5722968 317.089402,26.5761692 316.757274,26.2810883 L316.757274,26.2810883 C316.41752,25.9798114 316.414131,25.4833629 316.747954,25.1774391 L323.206663,19.2742711 C323.537944,18.9714453 323.537944,18.4811927 323.206663,18.1783668 L316.799637,12.3216683 C316.468356,12.019617 316.468356,11.5293644 316.799637,11.2265385" id="arrow_left-[#335]-copy-31" fill="#9B9B9B"></path>
            </g>
            <g id="Slide-button" transform="translate(25.000000, 187.000000)">
                <g id="Rectangle-2">
                    <use fill="#FFFFFF" fill-rule="evenodd" xlink:href="#path-9"></use>
                    <rect stroke="#B9B9B9" stroke-width="1.25961454" x="0.62980727" y="25.6298073" width="336.240385" height="9.24038546" rx="1.25961454"></rect>
                </g>
                <g id="Rectangle-2">
                    <use fill="#78A9C2" fill-rule="evenodd" xlink:href="#path-10"></use>
                    <rect stroke="#3A5868" stroke-width="0.65604924" x="0.32802462" y="25.3280246" width="72.8439508" height="9.84395076" rx="1.25961454"></rect>
                </g>
                <g id="Combined-Shape">
                    <use fill="#78A9C2" fill-rule="evenodd" xlink:href="#path-11"></use>
                    <rect stroke="#3A5868" stroke-width="1.25961454" x="61.1298073" y="23.1298073" width="22.7403855" height="15.7403855" rx="3.77884362"></rect>
                </g>
                <g id="SLIDE-NUMBERS" transform="translate(5.500000, 42.000000)" fill="#000000" font-family="Futura-Medium, Futura" font-size="12.9090931" font-weight="400">
                    <text id="10">
                        <tspan x="314.458065" y="13">10</tspan>
                    </text>
                    <text id="0">
                        <tspan x="0.270967742" y="13">0</tspan>
                    </text>
                    <text id="2">
                        <tspan x="63.2677419" y="13">2</tspan>
                    </text>
                    <text id="4">
                        <tspan x="127.332258" y="13">4</tspan>
                    </text>
                    <text id="6">
                        <tspan x="191.930645" y="13">6</tspan>
                    </text>
                    <text id="8">
                        <tspan x="250.656452" y="13">8</tspan>
                    </text>
                </g>
                <text id="Priority" opacity="0.713994565" font-family="Roboto-Regular, Roboto" font-size="13.65" font-weight="normal" fill="#302F2E">
                    <tspan x="1.5" y="14">Priority</tspan>
                </text>
            </g>
            <g id="bottom-menu-copy-3" transform="translate(80.500000, 479.500000)">
                <path d="M18.439875,10.409159 L18.5,10.409159 L18.5,24.4647729 L18.5,24.5 L10.40625,24.5 L10.40625,19.803053 L8.09375,19.803053 L8.09375,24.5 L0,24.5 L0,10.3927197 L9.217625,1 L18.439875,10.409159 Z" id="home-[#1392]-copy-3" stroke="#3A5868" stroke-width="0.731502768" fill="#78A9C2" transform="translate(9.250000, 12.750000) scale(-1, 1) translate(-9.250000, -12.750000) "></path>
                <g id="Group-6" transform="translate(100.000000, 0.000000)">
                    <ellipse id="Oval-3" stroke="#78A9C2" stroke-width="0.609870246" fill="#78A9C2" cx="12.5" cy="13" rx="12.5" ry="13"></ellipse>
                    <polygon id="Fill-2" fill="#3A5868" points="14.8636364 15.6363636 14.8636364 22 10.6363636 22 10.6363636 15.6363636 5 15.6363636 5 10.8636364 10.6363636 10.8636364 10.6363636 4.5 14.8636364 4.5 14.8636364 10.8636364 20.5 10.8636364 20.5 15.6363636"></polygon>
                </g>
                <path d="M220.363636,4.66666667 L224.613636,4.66666667 C224.716667,4.66666667 224.806818,4.7125 224.884606,4.80416667 C224.961364,4.89583333 225,5.00277778 225,5.125 L225,6.04166667 C225,6.17611111 224.963939,6.28611111 224.891818,6.37166667 C224.820212,6.45722222 224.72697,6.5 224.613636,6.5 L208.386364,6.5 C208.27303,6.5 208.180303,6.45722222 208.108182,6.37166667 C208.036576,6.28611111 208,6.17611111 208,6.04166667 L208,5.125 C208,5.00277778 208.039152,4.89583333 208.115909,4.80416667 C208.193182,4.7125 208.283333,4.66666667 208.386364,4.66666667 L212.636364,4.66666667 L212.636364,2.83333333 C212.636364,2.33222222 212.788333,1.90138889 213.092273,1.54083333 C213.396212,1.18088889 213.759394,1 214.181818,1 L218.818182,1 C219.241121,1 219.604303,1.18088889 219.908242,1.54083333 C220.211667,1.90138889 220.363636,2.33222222 220.363636,2.83333333 L220.363636,4.66666667 L220.363636,4.66666667 L220.363636,4.66666667 L220.363636,4.66666667 Z M209.5,8 L223.5,8 L223.5,22.6503885 C223.5,23.1509434 223.347037,23.5843507 223.04163,23.9506104 C222.735704,24.3168701 222.370148,24.5 221.944444,24.5 L211.055556,24.5 C210.63037,24.5 210.264815,24.3168701 209.958889,23.9506104 C209.652963,23.5843507 209.5,23.1509434 209.5,22.6503885 L209.5,8 L209.5,8 L209.5,8 L209.5,8 Z M211,22.5 L212.5,22.5 L212.5,10 L211,10 L211,10 L211,22.5 L211,22.5 Z M214,5 L218.5,5 L218.5,3 L214,3 L214,3 L214,5 L214,5 Z M214,22.5 L215.5,22.5 L215.5,10 L214,10 L214,10 L214,22.5 L214,22.5 Z M217.5,22.5 L219,22.5 L219,10 L217.5,10 L217.5,10 L217.5,22.5 L217.5,22.5 Z M220.5,22.5 L222,22.5 L222,10 L220.5,10 L220.5,10 L220.5,22.5 L220.5,22.5 Z" id="Fill-26" stroke="#3A5868" stroke-width="0.768077906" fill="#78A9C2"></path>
            </g>
            <g id="Group-3" transform="translate(-0.500000, 30.000000)">
                <g id="Rectangle-12">
                    <use fill="#3A5868" fill-rule="evenodd" xlink:href="#path-12"></use>
                    <rect stroke="#3A5868" stroke-width="1.5" x="0.75" y="0.75" width="384" height="29"></rect>
                </g>
                <g id="Group-2" transform="translate(23.500000, 6.000000)">
                    <polygon id="Rectangle-43-Copy" stroke="#FFFFFF" stroke-width="2.76950002" fill="#FFFFFF" points="0.700026602 9.52485255 10.5547588 2.77540755 10.1526416 2.5 0.176157593 9.3328321 0.29393498 9.4134971 0 9.61481134 10.0529288 16.5 10.4686157 16.2152987"></polygon>
                    <g id="Group" transform="translate(282.465450, 0.000000)">
                        <rect id="Rectangle-3" fill="#AFE6E1" x="0" y="0" width="58.3024772" height="20"></rect>
                        <text id="SAVE" font-family="Roboto-Black, Roboto" font-size="8.5" font-weight="700" letter-spacing="0.566666722" fill="#302F2E">
                            <tspan x="17.6525424" y="14">SAVE</tspan>
                        </text>
                    </g>
                </g>
            </g>
            <g id="Group-2" transform="translate(147.500000, 35.500000)" fill="#FFFFFF" font-family="Roboto-Black, Roboto" font-size="18" font-weight="700" letter-spacing="1.73571432">
                <text id="PROJECT">
                    <tspan x="0" y="19">PROJECT</tspan>
                </text>
            </g>
            <g id="Line-4" opacity="0.299999982" stroke-linecap="square">
                <use stroke="#000000" stroke-width="1" xlink:href="#path-13"></use>
                <use stroke="#979797" stroke-width="0.5" xlink:href="#path-13"></use>
            </g>
        </g>
    </g>
</svg>