<?xml version="1.0" encoding="UTF-8"?>
<svg width="384px" height="512px" viewBox="0 0 384 512" version="1.1" xmlns="http://www.w3.org/2000/svg" xmlns:xlink="http://www.w3.org/1999/xlink" style="background: #FFFFFF;">
    <!-- Generator: Sketch 48.2 (47327) - http://www.bohemiancoding.com/sketch -->
    <title>T05</title>
    <desc>Created with Sketch.</desc>
    <defs>
        <rect id="path-1" x="-1" y="268" width="385" height="201"></rect>
        <rect id="path-2" x="0" y="44" width="335" height="37"></rect>
        <filter x="0.0%" y="0.0%" width="100.0%" height="100.0%" filterUnits="objectBoundingBox" id="filter-3">
            <feGaussianBlur stdDeviation="0" in="SourceGraphic"></feGaussianBlur>
        </filter>
        <rect id="path-4" x="0" y="89" width="335" height="37"></rect>
        <filter x="0.0%" y="0.0%" width="100.0%" height="100.0%" filterUnits="objectBoundingBox" id="filter-5">
            <feGaussianBlur stdDeviation="0" in="SourceGraphic"></feGaussianBlur>
        </filter>
        <rect id="path-6" x="0" y="0" width="335" height="37"></rect>
        <filter x="0.0%" y="0.0%" width="100.0%" height="100.0%" filterUnits="objectBoundingBox" id="filter-7">
            <feGaussianBlur stdDeviation="0" in="SourceGraphic"></feGaussianBlur>
        </filter>
        <rect id="path-8" x="0" y="0" width="71.5" height="20.5"></rect>
        <rect id="path-9" x="0" y="3" width="337.5" height="10.5" rx="1.25961454"></rect>
        <rect id="path-10" x="0" y="3" width="247.5" height="10.5" rx="1.25961454"></rect>
        <rect id="path-11" x="246" y="0" width="24" height="17" rx="3.77884362"></rect>
        <rect id="path-12" x="0" y="0" width="385.5" height="30.5"></rect>
        <path d="M34,103 L364,103" id="path-13"></path>
        <rect id="path-14" x="14" y="187" width="156" height="24.5" rx="2.1"></rect>
    </defs>
    <g id="Page-1" stroke="none" stroke-width="1" fill="none" fill-rule="evenodd">
        <g id="Artboard" transform="translate(-560.000000, -1370.000000)"></g>
        <g id="T05">
            <g id="StatusBar-Light-iPhone6" transform="translate(-0.500000, 0.000000)">
                <rect id="Background" fill="#FFFFFF" x="0" y="0" width="385.5" height="20.5"></rect>
                <path d="M353.909731,6.5 C353.909731,5.67157288 354.581304,5 355.409731,5 L376.046554,5 C376.874981,5 377.546554,5.67157288 377.546554,6.5 L377.546554,14 C377.546554,14.8284271 376.874981,15.5 376.046554,15.5 L355.409731,15.5 C354.581304,15.5 353.909731,14.8284271 353.909731,14 L353.909731,6.5 Z M354.412642,7 L354.412642,13.5 C354.412642,14.3284271 355.084215,15 355.912642,15 L375.543643,15 C376.37207,15 377.043643,14.3284271 377.043643,13.5 L377.043643,7 C377.043643,6.17157288 376.37207,5.5 375.543643,5.5 L355.912642,5.5 C355.084215,5.5 354.412642,6.17157288 354.412642,7 Z M354.915553,7.5 C354.915553,6.67157288 355.587126,6 356.415553,6 L365.979598,6 L365.979598,14.5 L356.415553,14.5 C355.587126,14.5 354.915553,13.8284271 354.915553,13 L354.915553,7.5 Z M380.56402,10 C380.56402,11.0178721 379.689723,11.8599457 378.552376,12 L378.552376,8 C379.689723,8.14005431 380.56402,8.98212794 380.56402,10 Z" id="battery-@2x" fill="#000000"></path>
                <text id="49%" font-family="HelveticaNeue, Helvetica Neue" font-size="12" font-weight="normal" line-spacing="12" fill="#000000">
                    <tspan x="325.774648" y="16">49%</tspan>
                </text>
                <path d="M317.877081,11.5 L319.357875,13 L317.877081,14.5 L317.877081,11.5 Z M317.877081,9 L317.877081,6 L319.357875,7.5 L317.877081,9 Z M320.838668,7.64722653 L316.918006,3.5 L316.918006,9.20243648 L313.928297,6.09201658 L312.941101,7.12882321 L316.350373,10.2504999 L312.941101,13.349663 L313.928297,14.3864696 L316.918006,11.2760497 L316.918006,17 L320.838668,12.8312597 L318.370679,10.2504998 L320.838668,7.64722653 Z" id="bluetooth-@2x" fill="#535353"></path>
                <text id="9:49-AM" font-family="HelveticaNeue, Helvetica Neue" font-size="12" font-weight="normal" letter-spacing="0.599999905" fill="#000000">
                    <tspan x="170.65999" y="14">9:49 AM</tspan>
                </text>
                <path d="M83.9074577,7.06231003 C85.8223933,7.06231003 87.5675948,7.79635258 88.9057306,9 L89.8348271,7.93262411 C88.2499848,6.50101317 86.1801176,5.5 83.9074577,5.5 C81.6382517,5.5 79.571345,6.49797366 77.9884763,7.92502533 L78.9155992,8.99392097 C80.2527482,7.79381966 81.9949892,7.06231003 83.9074577,7.06231003 L83.9074577,7.06231003 Z M86.8865618,11 L87.8604353,9.95755423 C86.8005167,9.07591623 85.4218402,8.5 83.9092073,8.5 C82.3995077,8.5 81.021809,9.07451384 79.9628681,9.95334705 L80.935275,10.9971952 C81.7360807,10.3394727 82.7735103,9.9407255 83.9092073,9.9407255 C85.0463709,9.9407255 86.0852672,10.3408751 86.8865618,11 Z M85.8860435,12.2681206 C85.3514078,11.8142533 84.662986,11.5 83.9104465,11.5 C83.1593533,11.5 82.4718956,11.8137668 81.9372599,12.2656883 L83.9104465,14.5 L85.8860435,12.2681206 L85.8860435,12.2681206 Z" id="wifi-@2x" fill="#0C0000"></path>
                <text id="Yext" font-family="HelveticaNeue, Helvetica Neue" font-size="12" font-weight="normal" fill="#000000">
                    <tspan x="49.3597951" y="13.5">Yext</tspan>
                </text>
                <path d="M12.8764683,13 C11.2171236,13 9.87195903,11.6568543 9.87195903,10 C9.87195903,8.34314567 11.2171236,7 12.8764683,7 C14.535813,7 15.8809776,8.34314567 15.8809776,10 C15.8809776,11.6568543 14.535813,13 12.8764683,13 Z M19.8869899,13 C18.2276452,13 16.8824807,11.6568543 16.8824807,10 C16.8824807,8.34314567 18.2276452,7 19.8869899,7 C21.5463347,7 22.8914992,8.34314567 22.8914992,10 C22.8914992,11.6568543 21.5463347,13 19.8869899,13 Z M26.8975116,13 C25.2381668,13 23.8930023,11.6568543 23.8930023,10 C23.8930023,8.34314567 25.2381668,7 26.8975116,7 C28.5568563,7 29.9020208,8.34314567 29.9020208,10 C29.9020208,11.6568543 28.5568563,13 26.8975116,13 Z M34.4087847,13 C32.74944,13 31.4042755,11.6568543 31.4042755,10 C31.4042755,8.34314567 32.74944,7 34.4087847,7 C36.0681295,7 37.413294,8.34314567 37.413294,10 C37.413294,11.6568543 36.0681295,13 34.4087847,13 Z M34.4087847,12.5 C35.791572,12.5 36.9125424,11.3807119 36.9125424,10 C36.9125424,8.61928806 35.791572,7.5 34.4087847,7.5 C33.0259974,7.5 31.905027,8.61928806 31.905027,10 C31.905027,11.3807119 33.0259974,12.5 34.4087847,12.5 Z M41.4193064,13 C39.7599616,13 38.4147971,11.6568543 38.4147971,10 C38.4147971,8.34314567 39.7599616,7 41.4193064,7 C43.0786511,7 44.4238156,8.34314567 44.4238156,10 C44.4238156,11.6568543 43.0786511,13 41.4193064,13 Z M41.4193064,12.5 C42.8020936,12.5 43.9230641,11.3807119 43.9230641,10 C43.9230641,8.61928806 42.8020936,7.5 41.4193064,7.5 C40.0365191,7.5 38.9155486,8.61928806 38.9155486,10 C38.9155486,11.3807119 40.0365191,12.5 41.4193064,12.5 Z" id="signal-@2x" fill="#000000"></path>
            </g>
            <g id="Rectangle-4-Copy-2" opacity="0.15772192">
                <use fill="#78A9C2" fill-rule="evenodd" xlink:href="#path-1"></use>
                <rect stroke="#000000" stroke-width="0.94" x="-0.53" y="268.47" width="384.06" height="200.06"></rect>
            </g>
            <g id="options1-copy" transform="translate(24.000000, 287.500000)">
                <rect id="Rectangle-2-Copy-6" stroke="#78A9C2" stroke-width="0.5" fill="#FFFFFF" x="0" y="135" width="335" height="37"></rect>
                <path d="M22.2750252,157.195729 L26.5784023,152.722751 C27.6136943,151.632804 28.1714657,150.482969 28.2511473,149.272648 C28.342212,148.099457 28.0525124,147.047837 27.3809101,146.120183 C26.7081695,145.191332 25.8322407,144.626596 24.7508472,144.421781 C24.4890361,144.373872 24.215842,144.350516 23.9312647,144.350516 C23.3165779,144.350516 22.7047368,144.509816 22.0963107,144.826619 C21.4867462,145.143423 21.0092256,145.467413 20.6614722,145.796194 C20.314288,146.126172 19.8453047,146.602276 19.2528149,147.224504 L13.3108421,153.47733 C13.0831803,153.717478 12.8327523,153.961818 12.5595581,154.213345 C12.1270007,154.644533 11.8082742,154.968523 11.6033786,155.184117 C11.3990522,155.399112 11.1600073,155.698548 10.886244,156.082425 C10.6130498,156.465704 10.4343353,156.842394 10.348393,157.214294 C10.2630198,157.584996 10.2482218,157.980851 10.3062755,158.399462 C10.4087233,159.154042 10.7154976,159.729558 11.2277367,160.124814 C11.7399757,160.52007 12.3091302,160.717697 12.9352001,160.717697 C13.7661657,160.717697 14.4776088,160.406284 15.0695294,159.782858 L24.4093545,149.955362 C24.8197149,149.525372 24.9329766,149.076217 24.7508472,148.607899 C24.58067,148.177909 24.278449,147.961117 23.8458916,147.961117 C23.5391173,147.961117 23.2539709,148.099457 22.9921598,148.374339 C22.7758811,148.565978 22.5539109,148.794149 22.3262491,149.057054 L15.889681,155.758435 L14.7109621,154.554702 L14.8304845,154.429538 L21.4560119,147.314335 C21.8424678,146.907102 22.2260779,146.602276 22.6079806,146.398659 C22.9893141,146.195043 23.4417919,146.093234 23.9659832,146.093234 C24.068431,146.093234 24.2329166,146.105212 24.4605784,146.128568 C25.4856256,146.332783 26.1515364,146.95561 26.4583107,147.997648 C26.6296262,148.559989 26.6461316,149.135506 26.5095346,149.721802 C26.3729375,150.308697 26.106004,150.81175 25.7075959,151.231559 L18.9796207,158.31023 C18.7855391,158.513847 18.4616901,158.879159 18.0063666,159.406766 C17.5629952,159.921197 17.2237791,160.305074 16.9904258,160.556002 C16.7570725,160.807528 16.4582664,161.080015 16.0945766,161.372864 C15.7297486,161.666311 15.3597982,161.909453 14.9841562,162.101691 C14.3472724,162.435862 13.6694094,162.604145 12.9522747,162.604145 C12.1554585,162.604145 11.4212492,162.412506 10.7496469,162.028629 C10.0786137,161.645351 9.54303938,161.112953 9.14463124,160.430239 C8.59881209,159.495399 8.39960802,158.459949 8.54701903,157.322091 C8.69556835,156.184234 9.15601433,155.208671 9.93063358,154.393006 L18.6722773,145.194926 C19.4804767,144.344527 20.111669,143.774999 20.5675617,143.488139 C21.592609,142.829979 22.7132741,142.5 23.9312647,142.5 C24.8766303,142.5 25.741176,142.697628 26.5271783,143.092884 C27.4258733,143.523473 28.1657741,144.14091 28.7463117,144.943399 C29.3274184,145.745888 29.7087519,146.667553 29.8903122,147.709591 C30.0838247,148.823493 30.0212177,149.91943 29.7030604,150.997999 C29.3837647,152.075969 28.8424988,153.016798 28.0804009,153.818688 L19.2528149,163 L18.0746651,161.921431 L17.9551427,161.795069 L22.2750252,157.195729 Z" id="Fill-194-Copy" stroke="#3A5868" stroke-width="0.854601" fill="#78A9C2" transform="translate(19.250000, 152.750000) scale(-1, 1) translate(-19.250000, -152.750000) "></path>
                <g id="Rectangle-2-Copy-5" filter="url(#filter-3)">
                    <use fill="#FFFFFF" fill-rule="evenodd" xlink:href="#path-2"></use>
                    <rect stroke="#78A9C2" stroke-width="0.5" x="0.25" y="44.25" width="334.5" height="36.5"></rect>
                </g>
                <g id="Group-3-Copy" transform="translate(13.000000, 55.500000)" fill="#78A9C2" stroke="#3A5868" stroke-width="0.89958">
                    <path d="M23.5,14.1529167 L23.5,16 L9,16 L9,14.1529167 L13.8333333,10.8333333 L13.8333333,9.54166667 C13.5352778,9.54166667 13.2597778,9.22090278 13.0060278,8.579375 C12.751875,7.93784722 12.625,7.3975 12.625,6.95833333 L12.625,4.375 C12.625,3.30765278 12.9794444,2.39444444 13.6887361,1.63666667 C14.397625,0.878888889 15.2511111,0.5 16.25,0.5 C17.2488889,0.5 18.1027778,0.878888889 18.8116667,1.63666667 C19.5205556,2.39444444 19.875,3.30765278 19.875,4.375 L19.875,6.95833333 C19.875,7.3975 19.7485278,7.93784722 19.494375,8.579375 C19.240625,9.22090278 18.965125,9.54166667 18.6666667,9.54166667 L18.6666667,10.8333333 L23.5,14.1529167" id="Fill-14"></path>
                    <path d="M14.5,16.5 L0,16.5 L0,14.53375 L4.83333333,11 L4.83333333,9.625 C4.53527778,9.625 4.25977778,9.28354167 4.00602778,8.600625 C3.751875,7.91770833 3.625,7.3425 3.625,6.875 L3.625,4.125 C3.625,2.98879167 3.97944444,2.01666667 4.68873611,1.21 C5.397625,0.403333333 6.25111111,0 7.25,0 C8.24888889,0 9.10277778,0.403333333 9.81166667,1.21 C10.5205556,2.01666667 10.875,2.98879167 10.875,4.125 L10.875,6.875 C10.875,7.3425 10.7485278,7.91770833 10.494375,8.600625 C10.240625,9.28354167 9.965125,9.625 9.66666667,9.625 L9.66666667,11 L14.5,14.53375 L14.5,16.5 Z" id="Fill-14"></path>
                </g>
                <g id="Rectangle-2-Copy-4" filter="url(#filter-5)">
                    <use fill="#FFFFFF" fill-rule="evenodd" xlink:href="#path-4"></use>
                    <rect stroke="#78A9C2" stroke-width="0.5" x="0.25" y="89.25" width="334.5" height="36.5"></rect>
                </g>
                <g id="Rectangle-2-Copy-3" filter="url(#filter-7)">
                    <use fill="#FFFFFF" fill-rule="evenodd" xlink:href="#path-6"></use>
                    <rect stroke="#9B9B9B" stroke-width="0.5" x="0.25" y="0.25" width="334.5" height="36.5"></rect>
                </g>
                <path d="M314.78299,12.1900001 L314.78299,12.1900001 C315.095867,11.9366666 315.602391,11.9366666 315.914467,12.1900001 L322.531285,17.5613177 C323.156238,18.0686341 323.156238,18.8916429 322.531285,19.3989593 L315.866455,24.8099009 C315.55678,25.060636 315.056657,25.0638839 314.742981,24.8163966 L314.742981,24.8163966 C314.422102,24.5637128 314.418901,24.1473366 314.734178,23.8907553 L320.83407,18.9397113 C321.146947,18.6857283 321.146947,18.2745487 320.83407,18.0205657 L314.78299,13.108496 C314.470114,12.8551626 314.470114,12.443983 314.78299,12.1900001" id="arrow_left-[#335]-copy-34" fill="#9B9B9B"></path>
                <text id="Attachments-Copy" opacity="0.713994565" font-family="Roboto-Regular, Roboto" font-size="13" font-weight="normal" fill="#302F2E">
                    <tspan x="37" y="159.5">Attachments</tspan>
                </text>
                <text id="Assign-Copy" opacity="0.713994565" font-family="Roboto-Regular, Roboto" font-size="13" font-weight="normal" fill="#302F2E">
                    <tspan x="48.5" y="70">Assign</tspan>
                </text>
                <path d="M315.249697,147.19 L315.249697,147.19 C315.525765,146.936667 315.972698,146.936667 316.248059,147.19 L322.086428,152.561318 C322.637857,153.068634 322.637857,153.891643 322.086428,154.398959 L316.205696,159.809901 C315.932453,160.060636 315.491168,160.063884 315.214395,159.816397 L315.214395,159.816397 C314.931267,159.563713 314.928442,159.147337 315.206628,158.890755 L320.588886,153.939711 C320.864953,153.685728 320.864953,153.274549 320.588886,153.020566 L315.249697,148.108496 C314.97363,147.855163 314.97363,147.443983 315.249697,147.19" id="arrow_left-[#335]-copy-32" fill="#9B9B9B"></path>
                <path d="M314.78299,57.1900001 L314.78299,57.1900001 C315.095867,56.9366666 315.602391,56.9366666 315.914467,57.1900001 L322.531285,62.5613177 C323.156238,63.0686341 323.156238,63.8916429 322.531285,64.3989593 L315.866455,69.8099009 C315.55678,70.060636 315.056657,70.0638839 314.742981,69.8163966 L314.742981,69.8163966 C314.422102,69.5637128 314.418901,69.1473366 314.734178,68.8907553 L320.83407,63.9397113 C321.146947,63.6857283 321.146947,63.2745487 320.83407,63.0205657 L314.78299,58.108496 C314.470114,57.8551626 314.470114,57.443983 314.78299,57.1900001" id="arrow_left-[#335]-copy-33" fill="#9B9B9B"></path>
                <path d="M314.78299,101.69 L314.78299,101.69 C315.095867,101.436667 315.602391,101.436667 315.914467,101.69 L322.531285,107.061318 C323.156238,107.568634 323.156238,108.391643 322.531285,108.898959 L315.866455,114.309901 C315.55678,114.560636 315.056657,114.563884 314.742981,114.316397 L314.742981,114.316397 C314.422102,114.063713 314.418901,113.647337 314.734178,113.390755 L320.83407,108.439711 C321.146947,108.185728 321.146947,107.774549 320.83407,107.520566 L314.78299,102.608496 C314.470114,102.355163 314.470114,101.943983 314.78299,101.69" id="arrow_left-[#335]-copy-34" fill="#9B9B9B"></path>
            </g>
            <text id="Note-Copy" opacity="0.713994565" font-family="Roboto-Regular, Roboto" font-size="13" font-weight="normal" fill="#302F2E">
                <tspan x="61.5" y="402.5">Note</tspan>
            </text>
            <path d="M43.6111111,393.75 L50.5,393.75 L50.5,405.5625 C50.5,405.690833 50.4598148,405.795833 50.3794444,405.8775 C50.2996481,405.959167 50.1957407,406 50.0694444,406 L35.4305556,406 C35.3042593,406 35.2009259,405.959167 35.1205556,405.8775 C35.0407593,405.795833 35,405.690833 35,405.5625 L35,385.4375 C35,385.309167 35.0407593,385.204167 35.1205556,385.1225 C35.2009259,385.040833 35.3042593,385 35.4305556,385 L43.6111111,385 L43.6111111,393.75 L43.6111111,393.75 L43.6111111,393.75 L43.6111111,393.75 Z M50.5,391.5 L45.5,391.5 L45.5,386.5 L50.5,391.5 L50.5,391.5 Z" id="Fill-28-Copy" stroke="#3A5868" stroke-width="0.89958" fill="#78A9C2"></path>
            <text id="project-title-copy-4" font-family="Roboto-Regular, Roboto" font-size="17.5" font-weight="normal" letter-spacing="0.912500083" fill="#302F2E">
                <tspan x="34.5" y="100.5">SweetTooth </tspan>
            </text>
            <g id="Group-5" transform="translate(293.000000, 80.000000)">
                <g id="Rectangle-157-Copy">
                    <use fill="#FFFFFF" fill-rule="evenodd" xlink:href="#path-8"></use>
                    <rect stroke="#3A5868" stroke-width="0.825" x="0.4125" y="0.4125" width="70.675" height="19.675"></rect>
                </g>
                <rect id="Combined-Shape" stroke="#3A5868" stroke-width="1.65" fill="#3A5868" x="34" y="0" width="36.5" height="20.5"></rect>
                <text id="Work" opacity="0.713994565" font-family="Roboto-Regular, Roboto" font-size="9.9" font-weight="normal" fill="#302F2E">
                    <tspan x="6" y="14.5">Work </tspan>
                </text>
            </g>
            <path d="M-0.5,470.5 L385,470.5 L-0.5,470.5 Z" id="Line-2-Copy" stroke="#3A5868" stroke-width="3.21099997" fill="#4D5B69" opacity="0.849999964"></path>
            <g id="bottom-menu-copy-3" transform="translate(80.000000, 479.500000)">
                <path d="M18.439875,10.409159 L18.5,10.409159 L18.5,24.4647729 L18.5,24.5 L10.40625,24.5 L10.40625,19.803053 L8.09375,19.803053 L8.09375,24.5 L0,24.5 L0,10.3927197 L9.217625,1 L18.439875,10.409159 Z" id="home-[#1392]-copy-3" stroke="#3A5868" stroke-width="0.731502768" fill="#78A9C2" transform="translate(9.250000, 12.750000) scale(-1, 1) translate(-9.250000, -12.750000) "></path>
                <g id="Group-6" transform="translate(100.000000, 0.000000)">
                    <ellipse id="Oval-3" stroke="#78A9C2" stroke-width="0.609870246" fill="#78A9C2" cx="12.5" cy="13" rx="12.5" ry="13"></ellipse>
                    <polygon id="Fill-2" fill="#3A5868" points="14.8636364 15.6363636 14.8636364 22 10.6363636 22 10.6363636 15.6363636 5 15.6363636 5 10.8636364 10.6363636 10.8636364 10.6363636 4.5 14.8636364 4.5 14.8636364 10.8636364 20.5 10.8636364 20.5 15.6363636"></polygon>
                </g>
                <path d="M220.363636,4.66666667 L224.613636,4.66666667 C224.716667,4.66666667 224.806818,4.7125 224.884606,4.80416667 C224.961364,4.89583333 225,5.00277778 225,5.125 L225,6.04166667 C225,6.17611111 224.963939,6.28611111 224.891818,6.37166667 C224.820212,6.45722222 224.72697,6.5 224.613636,6.5 L208.386364,6.5 C208.27303,6.5 208.180303,6.45722222 208.108182,6.37166667 C208.036576,6.28611111 208,6.17611111 208,6.04166667 L208,5.125 C208,5.00277778 208.039152,4.89583333 208.115909,4.80416667 C208.193182,4.7125 208.283333,4.66666667 208.386364,4.66666667 L212.636364,4.66666667 L212.636364,2.83333333 C212.636364,2.33222222 212.788333,1.90138889 213.092273,1.54083333 C213.396212,1.18088889 213.759394,1 214.181818,1 L218.818182,1 C219.241121,1 219.604303,1.18088889 219.908242,1.54083333 C220.211667,1.90138889 220.363636,2.33222222 220.363636,2.83333333 L220.363636,4.66666667 L220.363636,4.66666667 L220.363636,4.66666667 L220.363636,4.66666667 Z M209.5,8 L223.5,8 L223.5,22.6503885 C223.5,23.1509434 223.347037,23.5843507 223.04163,23.9506104 C222.735704,24.3168701 222.370148,24.5 221.944444,24.5 L211.055556,24.5 C210.63037,24.5 210.264815,24.3168701 209.958889,23.9506104 C209.652963,23.5843507 209.5,23.1509434 209.5,22.6503885 L209.5,8 L209.5,8 L209.5,8 L209.5,8 Z M211,22.5 L212.5,22.5 L212.5,10 L211,10 L211,10 L211,22.5 L211,22.5 Z M214,5 L218.5,5 L218.5,3 L214,3 L214,3 L214,5 L214,5 Z M214,22.5 L215.5,22.5 L215.5,10 L214,10 L214,10 L214,22.5 L214,22.5 Z M217.5,22.5 L219,22.5 L219,10 L217.5,10 L217.5,10 L217.5,22.5 L217.5,22.5 Z M220.5,22.5 L222,22.5 L222,10 L220.5,10 L220.5,10 L220.5,22.5 L220.5,22.5 Z" id="Fill-26" stroke="#3A5868" stroke-width="0.768077906" fill="#78A9C2"></path>
            </g>
            <g id="Group-3" transform="translate(-1.000000, 129.500000)">
                <g id="circle-check-copy" transform="translate(18.000000, 7.500000)">
                    <ellipse id="Oval-3" stroke="#78A9C2" stroke-width="1.01" fill="#78A9C2" cx="10" cy="10.5" rx="10" ry="10.5"></ellipse>
                    <polygon id="Fill-2" fill="#3A5868" points="11.6363636 12.0909091 11.6363636 17 8.36363636 17 8.36363636 12.0909091 4 12.0909091 4 8.40909091 8.36363636 8.40909091 8.36363636 3.5 11.6363636 3.5 11.6363636 8.40909091 16 8.40909091 16 12.0909091"></polygon>
                </g>
                <polyline id="Line-4-Copy-5" stroke="#3A5868" stroke-width="1.01" stroke-linecap="square" points="0 34.5 27.6745865 34.5 385.5 34.5"></polyline>
                <g id="Slide-button-Copy" transform="translate(22.000000, 82.000000)">
                    <g id="Rectangle-2">
                        <use fill="#FFFFFF" fill-rule="evenodd" xlink:href="#path-9"></use>
                        <rect stroke="#B9B9B9" stroke-width="1.25961454" x="0.62980727" y="3.62980727" width="336.240385" height="9.24038546" rx="1.25961454"></rect>
                    </g>
                    <g id="Rectangle-2">
                        <use fill="#78A9C2" fill-rule="evenodd" xlink:href="#path-10"></use>
                        <rect stroke="#3A5868" stroke-width="0.65604924" x="0.32802462" y="3.32802462" width="246.843951" height="9.84395076" rx="1.25961454"></rect>
                    </g>
                    <g id="Combined-Shape">
                        <use fill="#78A9C2" fill-rule="evenodd" xlink:href="#path-11"></use>
                        <rect stroke="#3A5868" stroke-width="1.25961454" x="246.629807" y="0.62980727" width="22.7403855" height="15.7403855" rx="3.77884362"></rect>
                    </g>
                    <g id="SLIDE-NUMBERS" transform="translate(5.500000, 20.000000)" fill="#000000" font-family="Futura-Medium, Futura" font-size="12.9090931" font-weight="400">
                        <text id="10">
                            <tspan x="314.458065" y="13">10</tspan>
                        </text>
                        <text id="0">
                            <tspan x="0.270967742" y="13">0</tspan>
                        </text>
                        <text id="2">
                            <tspan x="63.2677419" y="13">2</tspan>
                        </text>
                        <text id="4">
                            <tspan x="127.332258" y="13">4</tspan>
                        </text>
                        <text id="6">
                            <tspan x="191.930645" y="13">6</tspan>
                        </text>
                        <text id="8">
                            <tspan x="250.656452" y="13">8</tspan>
                        </text>
                    </g>
                </g>
                <text id="Due-Date/Time-Copy" opacity="0.713994565" font-family="Roboto-Regular, Roboto" font-size="13" font-weight="normal" fill="#302F2E">
                    <tspan x="42.5" y="24.5">Due Date/Time</tspan>
                </text>
                <path d="M0,0.5 L385,0.5" id="Line-4-Copy" stroke="#3A5868" stroke-width="1.01" stroke-linecap="square"></path>
            </g>
            <path d="M-0.5,114 L385,114" id="Line-4" stroke="#000000" stroke-width="1.5" stroke-linecap="square"></path>
            <g id="Group-3-Copy-2" transform="translate(-0.500000, 30.000000)">
                <g id="Rectangle-12">
                    <use fill="#3A5868" fill-rule="evenodd" xlink:href="#path-12"></use>
                    <rect stroke="#3A5868" stroke-width="1.5" x="0.75" y="0.75" width="384" height="29"></rect>
                </g>
                <g id="Group-2" transform="translate(27.000000, 5.500000)">
                    <polygon id="Rectangle-43-Copy" stroke="#FFFFFF" stroke-width="2.76950002" fill="#FFFFFF" points="0.700503341 10.0248526 10.5619469 3.27540755 10.1595559 3 0.176277561 9.8328321 0.294135159 9.9134971 0 10.1148113 10.0597752 17 10.4757451 16.7152987"></polygon>
                    <g id="Group" transform="translate(279.660004, 0.000000)">
                        <rect id="Rectangle-3" fill="#AFE6E1" x="0" y="0" width="58.3421829" height="20"></rect>
                        <text id="SAVE" font-family="Roboto-Black, Roboto" font-size="8.5" font-weight="700" letter-spacing="0.566666722" fill="#302F2E">
                            <tspan x="17.5" y="14">SAVE</tspan>
                        </text>
                    </g>
                </g>
            </g>
            <g id="Group-2-Copy" transform="translate(146.500000, 35.500000)" fill="#FFFFFF" font-family="Roboto-Black, Roboto" font-size="18" font-weight="700" letter-spacing="1.73571432">
                <text id="PROJECT">
                    <tspan x="0" y="19">PROJECT</tspan>
                </text>
            </g>
            <g id="Line-4-Copy" opacity="0.300000012" stroke-linecap="square">
                <use stroke="#000000" stroke-width="1" xlink:href="#path-13"></use>
                <use stroke="#979797" stroke-width="0.5" xlink:href="#path-13"></use>
            </g>
            <g id="Group-7" transform="translate(11.000000, 156.500000)">
                <path d="M9.98959236,5.76040764 L15.75,6.21724894e-15 L21.5104076,5.76040764 L68.75,5.76040764 L177.9,5.76040764 C179.059798,5.76040764 180,6.70060967 180,7.86040764 L180,214.160408 C180,215.320206 179.059798,216.260408 177.9,216.260408 L2.1,216.260408 C0.940202025,216.260408 1.02645768e-14,215.320206 -5.32907052e-15,214.160408 L0,7.86040764 C-1.42034288e-16,6.70060967 0.940202025,5.76040764 2.1,5.76040764 L9.98959236,5.76040764 Z" id="Drop-Down" stroke="#3A5868" stroke-width="2.8" fill="#FFFFFF"></path>
                <g id="Group-4" transform="translate(56.500000, 94.500000)">
                    <rect id="Rectangle-2" fill="#3A5868" x="0.5" y="0" width="23.5" height="22" rx="2.1"></rect>
                    <polygon id="Triangle" stroke="#FFFFFF" stroke-width="0.7" fill="#FFFFFF" stroke-linejoin="round" points="22 16.5 22 21 18 21"></polygon>
                </g>
                <g id="Adjust-Time-Button-Backgrounf" opacity="0.38">
                    <use fill="#AFE6E1" fill-rule="evenodd" xlink:href="#path-14"></use>
                    <rect stroke="#3A5868" stroke-width="1.4" x="14.7" y="187.7" width="154.6" height="23.1" rx="2.1"></rect>
                </g>
                <text id="7-14-21-28-4-11" font-family="Roboto-Regular, Roboto" font-size="9.8" font-weight="normal" line-spacing="22.4">
                    <tspan x="161.998535" y="65" fill="#212121">7</tspan>
                    <tspan x="159.24707" y="87.4" fill="#212121">14</tspan>
                    <tspan x="159.24707" y="109.8" fill="#212121">21</tspan>
                    <tspan x="159.24707" y="132.2" fill="#212121">28</tspan>
                    <tspan x="161.998535" y="154.6" fill="#9B9B9B">4</tspan>
                    <tspan x="159.24707" y="177" fill="#9B9B9B">11</tspan>
                </text>
                <text id="Sa" font-family="Roboto-Bold, Roboto" font-size="8.4" font-weight="bold" fill="#212121">
                    <tspan x="161" y="43">Sa</tspan>
                </text>
                <polygon id="Rectangle-43-Copy" stroke="#000000" stroke-width="1.77744" fill="#000000" points="143.90253 18.9505698 143.941585 18.9044755 140.633344 15 140.5 15.1573757 143.767868 19.0142015 140.528565 22.8373135 140.666409 23 144 19.0656065"></polygon>
                <polygon id="Rectangle-43" stroke="#000000" stroke-width="1.77744" fill="#000000" points="45.2321316 19.5142015 48.5 15.6573757 48.3666564 15.5 45.0584146 19.4044755 45.09747 19.4505698 45 19.5656065 48.3335912 23.5 48.4714346 23.3373135"></polygon>
                <path d="M85.2340604,191.342282 C86.689877,190.447427 88.2785235,190 90,190 C91.7220078,190 93.310123,190.447427 94.7664709,191.342282 C96.2217562,192.237136 97.3747204,193.450783 98.2253635,194.983221 C99.0749441,196.516219 99.5,198.187919 99.5,200 C99.5,201.812081 99.0749441,203.48434 98.2253635,205.016779 C97.3747204,206.549217 96.2217562,207.762864 94.7664709,208.657718 C93.310123,209.552573 91.7220078,210 90,210 C88.2785235,210 86.689877,209.552573 85.2340604,208.657718 C83.7777125,207.762864 82.6247483,206.549217 81.7751678,205.016779 C80.9250559,203.48434 80.5,201.812081 80.5,200 C80.5,198.187919 80.9250559,196.516219 81.7751678,194.983221 C82.6247483,193.450783 83.7777125,192.237136 85.2340604,191.342282 C85.2340604,191.342282 83.7777125,192.237136 85.2340604,191.342282 L85.2340604,191.342282 L85.2340604,191.342282 Z M94.5929147,195.054348 C93.3211755,193.684783 91.7898551,193 90,193 C88.2101449,193 86.6793478,193.684783 85.4076087,195.054348 C84.1358696,196.423913 83.5,198.072464 83.5,200 C83.5,201.927536 84.1358696,203.576087 85.4076087,204.945652 C86.6793478,206.315217 88.2101449,207 90,207 C91.7898551,207 93.3211755,206.315217 94.5929147,204.945652 C95.8641304,203.576087 96.5,201.927536 96.5,200 C96.5,198.072464 95.8641304,196.423913 94.5929147,195.054348 C94.5929147,195.054348 95.8641304,196.423913 94.5929147,195.054348 L94.5929147,195.054348 L94.5929147,195.054348 Z M93.5,199.875 L93.5,201.5 L88.5,201.5 L88.5,195 L90.1666667,195 L90.1666667,199.875 L93.5,199.875 Z" id="Fill-29" stroke="#979797" stroke-width="0.7" fill="#231F20"></path>
                <text id="1-8-15-22-29-5" font-family="Roboto-Regular, Roboto" font-size="9.8" font-weight="normal" line-spacing="22.4">
                    <tspan x="15.9985352" y="65" fill="#212121">1</tspan>
                    <tspan x="15.9985352" y="87.4" fill="#212121">8</tspan>
                    <tspan x="13.2470703" y="109.8" fill="#212121">15</tspan>
                    <tspan x="13.2470703" y="132.2" fill="#212121">22</tspan>
                    <tspan x="13.2470703" y="154.6" fill="#212121">29</tspan>
                    <tspan x="24.2529297" y="154.6" font-family="Roboto-Light, Roboto" font-weight="300" fill="#4A4A4A"></tspan>
                    <tspan x="15.9985352" y="177" fill="#9B9B9B">5</tspan>
                </text>
                <text id="2-9-16-23-30-6" font-family="Roboto-Regular, Roboto" font-size="9.8" font-weight="normal" line-spacing="22.4">
                    <tspan x="40.4985352" y="65" fill="#212121">2</tspan>
                    <tspan x="40.4985352" y="87.4" fill="#212121">9</tspan>
                    <tspan x="37.7470703" y="109.8" fill="#212121">16</tspan>
                    <tspan x="37.7470703" y="132.2" fill="#212121">23</tspan>
                    <tspan x="37.7470703" y="154.6" fill="#212121">30</tspan>
                    <tspan x="48.7529297" y="154.6" font-family="Roboto-Light, Roboto" font-weight="300" fill="#4A4A4A"></tspan>
                    <tspan x="40.4985352" y="177" fill="#9B9B9B">6</tspan>
                </text>
                <text id="3-10-17-24-31-7" font-family="Roboto-Regular, Roboto" font-size="9.8" font-weight="normal" line-spacing="22.4">
                    <tspan x="65.4985352" y="65" fill="#212121">3</tspan>
                    <tspan x="62.7470703" y="87.4" fill="#212121">10</tspan>
                    <tspan x="62.7470703" y="109.8" fill="#FFFFFF">17</tspan>
                    <tspan x="73.7529297" y="109.8" fill="#212121"></tspan>
                    <tspan x="62.7470703" y="132.2" fill="#212121">24</tspan>
                    <tspan x="62.7470703" y="154.6" fill="#212121">31</tspan>
                    <tspan x="73.7529297" y="154.6" fill="#9B9B9B"></tspan>
                    <tspan x="65.4985352" y="177" fill="#9B9B9B">7</tspan>
                </text>
                <text id="4-11-18-25-1-8" font-family="Roboto-Regular, Roboto" font-size="9.8" font-weight="normal" line-spacing="22.4">
                    <tspan x="89.4985352" y="65" fill="#212121">4</tspan>
                    <tspan x="86.7470703" y="87.4" fill="#212121">11</tspan>
                    <tspan x="86.7470703" y="109.8" fill="#212121">18</tspan>
                    <tspan x="86.7470703" y="132.2" fill="#212121">25</tspan>
                    <tspan x="89.4985352" y="154.6" fill="#9B9B9B">1</tspan>
                    <tspan x="89.4985352" y="177" fill="#9B9B9B">8</tspan>
                </text>
                <text id="5-12-19-26-2-9" font-family="Roboto-Regular, Roboto" font-size="9.8" font-weight="normal" line-spacing="22.4">
                    <tspan x="113.998535" y="65" fill="#212121">5</tspan>
                    <tspan x="111.24707" y="87.4" fill="#212121">12</tspan>
                    <tspan x="111.24707" y="109.8" fill="#212121">19</tspan>
                    <tspan x="111.24707" y="132.2" fill="#212121">26</tspan>
                    <tspan x="113.998535" y="154.6" fill="#9B9B9B">2</tspan>
                    <tspan x="113.998535" y="177" fill="#9B9B9B">9</tspan>
                </text>
                <text id="6-13-20-27-3-10" font-family="Roboto-Regular, Roboto" font-size="9.8" font-weight="normal" line-spacing="22.4">
                    <tspan x="137.998535" y="65" fill="#212121">6</tspan>
                    <tspan x="135.24707" y="87.4" fill="#212121">13</tspan>
                    <tspan x="135.24707" y="109.8" fill="#000000">20</tspan>
                    <tspan x="146.25293" y="109.8" fill="#212121"></tspan>
                    <tspan x="135.24707" y="132.2" fill="#212121">27</tspan>
                    <tspan x="137.998535" y="154.6" fill="#9B9B9B">3</tspan>
                    <tspan x="135.24707" y="177" fill="#9B9B9B">10</tspan>
                </text>
                <text id="Su" font-family="Roboto-Bold, Roboto" font-size="8.4" font-weight="bold" fill="#212121">
                    <tspan x="13.5" y="43">Su</tspan>
                </text>
                <text id="Mo" font-family="Roboto-Bold, Roboto" font-size="8.4" font-weight="bold" fill="#212121">
                    <tspan x="39" y="43">Mo</tspan>
                </text>
                <text id="Tu" font-family="Roboto-Bold, Roboto" font-size="8.4" font-weight="bold" fill="#212121">
                    <tspan x="62" y="43">Tu</tspan>
                </text>
                <text id="We" font-family="Roboto-Bold, Roboto" font-size="8.4" font-weight="bold" fill="#212121">
                    <tspan x="88" y="43">We</tspan>
                </text>
                <text id="Th" font-family="Roboto-Bold, Roboto" font-size="8.4" font-weight="bold" fill="#212121">
                    <tspan x="114.5" y="43">Th</tspan>
                </text>
                <text id="Fr" font-family="Roboto-Bold, Roboto" font-size="8.4" font-weight="bold" fill="#212121">
                    <tspan x="137.5" y="43">Fr</tspan>
                </text>
                <text id="September-2018" font-family="Roboto-Bold, Roboto" font-size="9.8" font-weight="bold" letter-spacing="0.349999994" fill="#212121">
                    <tspan x="56" y="23">September 2018</tspan>
                </text>
            </g>
        </g>
    </g>
</svg>