<?xml version="1.0" encoding="UTF-8"?>
<svg width="384px" height="512px" viewBox="0 0 384 512" version="1.1" xmlns="http://www.w3.org/2000/svg" xmlns:xlink="http://www.w3.org/1999/xlink" style="background: #FFFFFF;">
    <!-- Generator: Sketch 48.2 (47327) - http://www.bohemiancoding.com/sketch -->
    <title>T06</title>
    <desc>Created with Sketch.</desc>
    <defs>
        <rect id="path-1" x="-0.5" y="268.5" width="385.5" height="201.5"></rect>
        <rect id="path-2" x="0" y="44" width="335.5" height="37.5"></rect>
        <filter x="0.0%" y="0.0%" width="100.0%" height="100.0%" filterUnits="objectBoundingBox" id="filter-3">
            <feGaussianBlur stdDeviation="0" in="SourceGraphic"></feGaussianBlur>
        </filter>
        <rect id="path-4" x="0" y="89.5" width="335.5" height="37.5"></rect>
        <filter x="0.0%" y="0.0%" width="100.0%" height="100.0%" filterUnits="objectBoundingBox" id="filter-5">
            <feGaussianBlur stdDeviation="0" in="SourceGraphic"></feGaussianBlur>
        </filter>
        <rect id="path-6" x="0" y="0" width="335.5" height="37.5"></rect>
        <filter x="0.0%" y="0.0%" width="100.0%" height="100.0%" filterUnits="objectBoundingBox" id="filter-7">
            <feGaussianBlur stdDeviation="0" in="SourceGraphic"></feGaussianBlur>
        </filter>
        <rect id="path-8" x="0" y="25" width="337.5" height="10.5" rx="1.25961454"></rect>
        <rect id="path-9" x="0" y="25" width="247.5" height="10.5" rx="1.25961454"></rect>
        <rect id="path-10" x="246" y="22" width="24" height="17" rx="3.77884362"></rect>
        <rect id="path-11" x="0" y="0" width="71.5" height="20.5"></rect>
        <rect id="path-12" x="0" y="0" width="157.5" height="24" rx="2.1"></rect>
        <rect id="path-13" x="0" y="0" width="385.5" height="30.5"></rect>
        <path d="M29,103 L359,103" id="path-14"></path>
    </defs>
    <g id="Page-1" stroke="none" stroke-width="1" fill="none" fill-rule="evenodd">
        <g id="Artboard" transform="translate(-165.000000, -1941.000000)"></g>
        <g id="T06">
            <g id="StatusBar-Light-iPhone6" transform="translate(-0.500000, 0.000000)">
                <rect id="Background" fill="#FFFFFF" x="0" y="0" width="385.5" height="20.5"></rect>
                <path d="M353.586071,6.5 C353.586071,5.67157288 354.257644,5 355.086071,5 L375.894875,5 C376.723302,5 377.394875,5.67157288 377.394875,6.5 L377.394875,14 C377.394875,14.8284271 376.723302,15.5 375.894875,15.5 L355.086071,15.5 C354.257644,15.5 353.586071,14.8284271 353.586071,14 L353.586071,6.5 Z M354.092641,7 L354.092641,13.5 C354.092641,14.3284271 354.764214,15 355.592641,15 L375.388305,15 C376.216732,15 376.888305,14.3284271 376.888305,13.5 L376.888305,7 C376.888305,6.17157288 376.216732,5.5 375.388305,5.5 L355.592641,5.5 C354.764214,5.5 354.092641,6.17157288 354.092641,7 Z M354.599212,7.5 C354.599212,6.67157288 355.270784,6 356.099212,6 L365.743758,6 L365.743758,14.5 L356.099212,14.5 C355.270784,14.5 354.599212,13.8284271 354.599212,13 L354.599212,7.5 Z M380.434297,10 C380.434297,11.0178721 379.553638,11.8599457 378.408016,12 L378.408016,8 C379.553638,8.14005431 380.434297,8.98212794 380.434297,10 Z" id="battery-@2x" fill="#000000"></path>
                <text id="49%" font-family="HelveticaNeue, Helvetica Neue" font-size="12" font-weight="normal" line-spacing="12" fill="#000000">
                    <tspan x="325.218134" y="16">49%</tspan>
                </text>
                <path d="M317.113009,11.5 L318.63272,13 L317.113009,14.5 L317.113009,11.5 Z M317.113009,9 L317.113009,6 L318.63272,7.5 L317.113009,9 Z M320.152431,7.64722653 L316.128729,3.5 L316.128729,9.20243648 L313.060447,6.09201658 L312.047306,7.12882321 L315.546177,10.2504999 L312.047306,13.349663 L313.060447,14.3864696 L316.128729,11.2760497 L316.128729,17 L320.152431,12.8312597 L317.61958,10.2504998 L320.152431,7.64722653 Z" id="bluetooth-@2x" fill="#535353"></path>
                <text id="9:49-AM" font-family="HelveticaNeue, Helvetica Neue" font-size="12" font-weight="normal" letter-spacing="0.599999905" fill="#000000">
                    <tspan x="167.938715" y="14">9:49 AM</tspan>
                </text>
                <path d="M80.0338035,7.06231003 C81.9990659,7.06231003 83.7901334,7.79635258 85.1634371,9 L86.1169514,7.93262411 C84.4904575,6.50101317 82.3661917,5.5 80.0338035,5.5 C77.70496,5.5 75.5837325,6.49797366 73.9592641,7.92502533 L74.9107529,8.99392097 C76.2830438,7.79381966 78.0710731,7.06231003 80.0338035,7.06231003 L80.0338035,7.06231003 Z M83.091202,11 L84.0906702,9.95755423 C83.0028956,9.07591623 81.5879858,8.5 80.035599,8.5 C78.4862227,8.5 77.0723164,9.07451384 75.9855453,9.95334705 L76.9835083,10.9971952 C77.8053601,10.3394727 78.8700546,9.9407255 80.035599,9.9407255 C81.2026487,9.9407255 82.2688484,10.3408751 83.091202,11 Z M82.064389,12.2681206 C81.5157024,11.8142533 80.809188,11.5 80.0368709,11.5 C79.266038,11.5 78.5605131,11.8137668 78.0118265,12.2656883 L80.0368709,14.5 L82.064389,12.2681206 L82.064389,12.2681206 Z" id="wifi-@2x" fill="#0C0000"></path>
                <text id="Yext" font-family="HelveticaNeue, Helvetica Neue" font-size="12" font-weight="normal" fill="#000000">
                    <tspan x="45.0847569" y="13.5">Yext</tspan>
                </text>
                <path d="M8.10512484,13 C6.42649844,13 5.06570302,11.6568543 5.06570302,10 C5.06570302,8.34314567 6.42649844,7 8.10512484,7 C9.78375123,7 11.1445466,8.34314567 11.1445466,10 C11.1445466,11.6568543 9.78375123,13 8.10512484,13 Z M15.1971091,13 C13.5184827,13 12.1576873,11.6568543 12.1576873,10 C12.1576873,8.34314567 13.5184827,7 15.1971091,7 C16.8757355,7 18.2365309,8.34314567 18.2365309,10 C18.2365309,11.6568543 16.8757355,13 15.1971091,13 Z M22.2890933,13 C20.6104669,13 19.2496715,11.6568543 19.2496715,10 C19.2496715,8.34314567 20.6104669,7 22.2890933,7 C23.9677197,7 25.3285151,8.34314567 25.3285151,10 C25.3285151,11.6568543 23.9677197,13 22.2890933,13 Z M29.8876478,13 C28.2090214,13 26.848226,11.6568543 26.848226,10 C26.848226,8.34314567 28.2090214,7 29.8876478,7 C31.5662742,7 32.9270696,8.34314567 32.9270696,10 C32.9270696,11.6568543 31.5662742,13 29.8876478,13 Z M29.8876478,12.5 C31.2865032,12.5 32.4204993,11.3807119 32.4204993,10 C32.4204993,8.61928806 31.2865032,7.5 29.8876478,7.5 C28.4887925,7.5 27.3547963,8.61928806 27.3547963,10 C27.3547963,11.3807119 28.4887925,12.5 29.8876478,12.5 Z M36.9796321,13 C35.3010057,13 33.9402102,11.6568543 33.9402102,10 C33.9402102,8.34314567 35.3010057,7 36.9796321,7 C38.6582585,7 40.0190539,8.34314567 40.0190539,10 C40.0190539,11.6568543 38.6582585,13 36.9796321,13 Z M36.9796321,12.5 C38.3784874,12.5 39.5124836,11.3807119 39.5124836,10 C39.5124836,8.61928806 38.3784874,7.5 36.9796321,7.5 C35.5807767,7.5 34.4467806,8.61928806 34.4467806,10 C34.4467806,11.3807119 35.5807767,12.5 36.9796321,12.5 Z" id="signal-@2x" fill="#000000"></path>
            </g>
            <g id="Rectangle-4-Copy" opacity="0.15772192">
                <use fill="#78A9C2" fill-rule="evenodd" xlink:href="#path-1"></use>
                <rect stroke="#000000" stroke-width="0.94" x="-0.03" y="268.97" width="384.56" height="200.56"></rect>
            </g>
            <g id="options1-copy-2" transform="translate(23.500000, 284.500000)">
                <rect id="Rectangle-2-Copy-6" stroke="#78A9C2" stroke-width="0.5" fill="#FFFFFF" x="0" y="135" width="335.5" height="37.5"></rect>
                <path d="M16.8949167,163.236292 L21.415724,158.412594 L25.9192582,153.721422 C27.0027033,152.578306 27.5864175,151.372382 27.6698053,150.103021 C27.7651056,148.872601 27.4619315,147.769682 26.7590919,146.796778 C26.0550611,145.822617 25.1383915,145.230332 24.0067006,145.015527 C23.7327122,144.96528 23.4468114,144.940785 23.148998,144.940785 C22.5057211,144.940785 21.8654223,145.107855 21.2286972,145.440113 C20.5907809,145.77237 20.0910501,146.112164 19.7271221,146.456983 C19.3637898,146.803059 18.8729933,147.302387 18.2529458,147.954968 L12.0346022,154.51281 C11.7963514,154.764672 11.5342757,155.020931 11.2483748,155.284727 C10.7956984,155.736949 10.4621474,156.076743 10.2477218,156.302854 C10.0338918,156.528337 9.78372854,156.84238 9.49723205,157.244983 C9.21133119,157.646957 9.02430438,158.042023 8.93436474,158.432065 C8.84502072,158.82085 8.82953442,159.236014 8.89028836,159.675046 C8.99750118,160.466434 9.31854402,161.070024 9.85460812,161.484561 C10.3906722,161.899097 10.986299,162.106366 11.6414885,162.106366 C12.5111036,162.106366 13.2556371,161.779761 13.8750889,161.125924 L23.6493245,150.819038 C24.0787714,150.368073 24.1973011,149.897009 24.0067006,149.405846 C23.8286082,148.95488 23.5123303,148.727513 23.059654,148.727513 C22.7386111,148.727513 22.4402021,148.872601 22.1662138,149.160892 C21.9398756,149.36188 21.7075812,149.60118 21.4693305,149.87691 L14.7333871,156.905188 L13.4998441,155.642736 L13.6249257,155.511466 L20.5586171,148.049181 C20.9630477,147.622082 21.3645001,147.302387 21.7641657,147.088838 C22.1632357,146.875288 22.636759,146.768514 23.1853312,146.768514 C23.292544,146.768514 23.4646802,146.781076 23.7029309,146.805571 C24.7756547,147.019748 25.4725381,147.672957 25.7935809,148.765826 C25.9728646,149.355599 25.9901378,149.959189 25.8471873,150.574085 C25.7042369,151.189609 25.4248879,151.717201 25.0079492,152.157489 L17.9670449,159.581461 C17.7639362,159.79501 17.4250246,160.178143 16.9485231,160.731486 C16.4845299,161.271012 16.1295363,161.673615 15.8853293,161.936782 C15.6411224,162.200578 15.3284183,162.486357 14.9478128,162.793491 C14.566016,163.101253 14.1788586,163.356256 13.7857449,163.557872 C13.1192385,163.908343 12.409847,164.084835 11.6593573,164.084835 C10.8254798,164.084835 10.0571212,163.883848 9.35428162,163.481245 C8.65203764,163.07927 8.09155284,162.520902 7.67461409,161.804884 C7.103408,160.824443 6.89493862,159.738483 7.04920596,158.54512 C7.20466455,157.351757 7.68652662,156.328606 8.49717468,155.473153 L17.6454065,145.826385 C18.4911965,144.934504 19.1517466,144.337194 19.6288437,144.036341 C20.7015675,143.346075 21.8743567,143 23.148998,143 C24.1383341,143 25.0430912,143.207268 25.8656518,143.621805 C26.8061465,144.073398 27.5804613,144.720955 28.1880006,145.562589 C28.7961355,146.404224 29.1952055,147.370848 29.3852104,148.463717 C29.5877235,149.631956 29.5222046,150.781353 29.1892492,151.912535 C28.8551026,153.04309 28.2886615,154.029812 27.4911173,154.870819 L18.2529458,164.5 L17.0199984,163.368818 L16.8949167,163.236292" id="Fill-194-Copy" stroke="#3A5868" stroke-width="0.854601" fill="#78A9C2" transform="translate(18.250000, 153.750000) scale(-1, 1) translate(-18.250000, -153.750000) "></path>
                <g id="Rectangle-2-Copy-5" filter="url(#filter-3)">
                    <use fill="#FFFFFF" fill-rule="evenodd" xlink:href="#path-2"></use>
                    <rect stroke="#78A9C2" stroke-width="0.5" x="0.25" y="44.25" width="335" height="37"></rect>
                </g>
                <g id="Group-3-Copy" transform="translate(6.000000, 56.000000)" fill="#78A9C2" stroke="#3A5868" stroke-width="0.89958">
                    <path d="M23.5,14.1529167 L23.5,16 L9,16 L9,14.1529167 L13.8333333,10.8333333 L13.8333333,9.54166667 C13.5352778,9.54166667 13.2597778,9.22090278 13.0060278,8.579375 C12.751875,7.93784722 12.625,7.3975 12.625,6.95833333 L12.625,4.375 C12.625,3.30765278 12.9794444,2.39444444 13.6887361,1.63666667 C14.397625,0.878888889 15.2511111,0.5 16.25,0.5 C17.2488889,0.5 18.1027778,0.878888889 18.8116667,1.63666667 C19.5205556,2.39444444 19.875,3.30765278 19.875,4.375 L19.875,6.95833333 C19.875,7.3975 19.7485278,7.93784722 19.494375,8.579375 C19.240625,9.22090278 18.965125,9.54166667 18.6666667,9.54166667 L18.6666667,10.8333333 L23.5,14.1529167" id="Fill-14"></path>
                    <path d="M14.5,16.5 L0,16.5 L0,14.53375 L4.83333333,11 L4.83333333,9.625 C4.53527778,9.625 4.25977778,9.28354167 4.00602778,8.600625 C3.751875,7.91770833 3.625,7.3425 3.625,6.875 L3.625,4.125 C3.625,2.98879167 3.97944444,2.01666667 4.68873611,1.21 C5.397625,0.403333333 6.25111111,0 7.25,0 C8.24888889,0 9.10277778,0.403333333 9.81166667,1.21 C10.5205556,2.01666667 10.875,2.98879167 10.875,4.125 L10.875,6.875 C10.875,7.3425 10.7485278,7.91770833 10.494375,8.600625 C10.240625,9.28354167 9.965125,9.625 9.66666667,9.625 L9.66666667,11 L14.5,14.53375 L14.5,16.5 Z" id="Fill-14"></path>
                </g>
                <text id="Assign-Copy" opacity="0.713994565" font-family="Roboto-Regular, Roboto" font-size="13" font-weight="normal" fill="#302F2E">
                    <tspan x="37.5" y="71">Assign</tspan>
                </text>
                <g id="Rectangle-2-Copy-4" filter="url(#filter-5)">
                    <use fill="#FFFFFF" fill-rule="evenodd" xlink:href="#path-4"></use>
                    <rect stroke="#78A9C2" stroke-width="0.5" x="0.25" y="89.75" width="335" height="37"></rect>
                </g>
                <g id="Rectangle-2-Copy-3" filter="url(#filter-7)">
                    <use fill="#FFFFFF" fill-rule="evenodd" xlink:href="#path-6"></use>
                    <rect stroke="#9B9B9B" stroke-width="0.5" x="0.25" y="0.25" width="335" height="37"></rect>
                </g>
                <text id="Attachments-Copy" opacity="0.713994565" font-family="Roboto-Regular, Roboto" font-size="13" font-weight="normal" fill="#302F2E">
                    <tspan x="37" y="160">Attachments</tspan>
                </text>
                <text id="Note-Copy" opacity="0.713994565" font-family="Roboto-Regular, Roboto" font-size="13" font-weight="normal" fill="#302F2E">
                    <tspan x="37.5" y="113.5">Note</tspan>
                </text>
                <path d="M19.1111111,104.75 L26,104.75 L26,116.5625 C26,116.690833 25.9598148,116.795833 25.8794444,116.8775 C25.7996481,116.959167 25.6957407,117 25.5694444,117 L10.9305556,117 C10.8042593,117 10.7009259,116.959167 10.6205556,116.8775 C10.5407593,116.795833 10.5,116.690833 10.5,116.5625 L10.5,96.4375 C10.5,96.3091667 10.5407593,96.2041667 10.6205556,96.1225 C10.7009259,96.0408333 10.8042593,96 10.9305556,96 L19.1111111,96 L19.1111111,104.75 L19.1111111,104.75 L19.1111111,104.75 L19.1111111,104.75 Z M26,102.5 L21,102.5 L21,97.5 L26,102.5 L26,102.5 Z" id="Fill-28-Copy" stroke="#3A5868" stroke-width="0.89958" fill="#78A9C2"></path>
                <path d="M315.249697,147.197308 L315.249697,147.197308 C315.525765,146.934231 315.972698,146.934231 316.248059,147.197308 L322.086428,152.775215 C322.637857,153.302043 322.637857,154.156706 322.086428,154.683535 L316.205696,160.302589 C315.932453,160.562968 315.491168,160.566341 315.214395,160.309335 L315.214395,160.309335 C314.931267,160.046933 314.928442,159.614542 315.206628,159.348092 L320.588886,154.206623 C320.864953,153.942872 320.864953,153.515877 320.588886,153.252126 L315.249697,148.15113 C314.97363,147.888053 314.97363,147.461059 315.249697,147.197308" id="arrow_left-[#335]-copy-35" fill="#9B9B9B"></path>
                <path d="M314.78299,57.1973077 L314.78299,57.1973077 C315.095867,56.9342308 315.602391,56.9342308 315.914467,57.1973077 L322.531285,62.7752146 C323.156238,63.3020431 323.156238,64.1567061 322.531285,64.6835346 L315.866455,70.3025894 C315.55678,70.5629682 315.056657,70.5663409 314.742981,70.3093349 L314.742981,70.3093349 C314.422102,70.0469325 314.418901,69.6145419 314.734178,69.3480921 L320.83407,64.2066232 C321.146947,63.9428717 321.146947,63.5158775 320.83407,63.2521259 L314.78299,58.1511305 C314.470114,57.8880535 314.470114,57.4610593 314.78299,57.1973077" id="arrow_left-[#335]-copy-36" fill="#9B9B9B"></path>
                <path d="M314.78299,100.197308 L314.78299,100.197308 C315.095867,99.9342308 315.602391,99.9342308 315.914467,100.197308 L322.531285,105.775215 C323.156238,106.302043 323.156238,107.156706 322.531285,107.683535 L315.866455,113.302589 C315.55678,113.562968 315.056657,113.566341 314.742981,113.309335 L314.742981,113.309335 C314.422102,113.046933 314.418901,112.614542 314.734178,112.348092 L320.83407,107.206623 C321.146947,106.942872 321.146947,106.515877 320.83407,106.252126 L314.78299,101.15113 C314.470114,100.888053 314.470114,100.461059 314.78299,100.197308" id="arrow_left-[#335]-copy-37" fill="#9B9B9B"></path>
            </g>
            <path d="M338.78299,296.697308 L338.78299,296.697308 C339.095867,296.434231 339.602391,296.434231 339.914467,296.697308 L346.531285,302.275215 C347.156238,302.802043 347.156238,303.656706 346.531285,304.183535 L339.866455,309.802589 C339.55678,310.062968 339.056657,310.066341 338.742981,309.809335 L338.742981,309.809335 C338.422102,309.546933 338.418901,309.114542 338.734178,308.848092 L344.83407,303.706623 C345.146947,303.442872 345.146947,303.015877 344.83407,302.752126 L338.78299,297.65113 C338.470114,297.388053 338.470114,296.961059 338.78299,296.697308" id="arrow_left-[#335]-copy-34" fill="#9B9B9B"></path>
            <path d="M-1,116 L384.5,116" id="Line-4" stroke="#000000" stroke-width="1.5" stroke-linecap="square"></path>
            <text id="January-20,-2018-/-T" opacity="0.713994565" font-family="Roboto-Regular, Roboto" font-size="13.13" font-weight="normal" fill="#302F2E">
                <tspan x="39.5" y="153">January 20, 2018  /  Time</tspan>
            </text>
            <path d="M-2,130 L383.5,130" id="Line-4" stroke="#3A5868" stroke-width="1.01" stroke-linecap="square"></path>
            <path d="M0.5,164 L386,164" id="Line-4-Copy-4" stroke="#3A5868" stroke-width="1.01" stroke-linecap="square"></path>
            <g id="Group-3" transform="translate(17.500000, 136.000000)">
                <ellipse id="Oval-3" stroke="#78A9C2" stroke-width="1.01" fill="#78A9C2" cx="10.25" cy="10.5" rx="10.25" ry="10.5"></ellipse>
                <polygon id="Fill-2" fill="#3A5868" points="12.1363636 12.5909091 12.1363636 17.5 8.86363636 17.5 8.86363636 12.5909091 4.5 12.5909091 4.5 8.90909091 8.86363636 8.90909091 8.86363636 4 12.1363636 4 12.1363636 8.90909091 16.5 8.90909091 16.5 12.5909091"></polygon>
            </g>
            <g id="Slide-button-Copy-2" transform="translate(22.500000, 187.000000)">
                <g id="Rectangle-2">
                    <use fill="#FFFFFF" fill-rule="evenodd" xlink:href="#path-8"></use>
                    <rect stroke="#B9B9B9" stroke-width="1.25961454" x="0.62980727" y="25.6298073" width="336.240385" height="9.24038546" rx="1.25961454"></rect>
                </g>
                <g id="Rectangle-2">
                    <use fill="#78A9C2" fill-rule="evenodd" xlink:href="#path-9"></use>
                    <rect stroke="#3A5868" stroke-width="0.65604924" x="0.32802462" y="25.3280246" width="246.843951" height="9.84395076" rx="1.25961454"></rect>
                </g>
                <g id="Combined-Shape">
                    <use fill="#78A9C2" fill-rule="evenodd" xlink:href="#path-10"></use>
                    <rect stroke="#3A5868" stroke-width="1.25961454" x="246.629807" y="22.6298073" width="22.7403855" height="15.7403855" rx="3.77884362"></rect>
                </g>
                <g id="SLIDE-NUMBERS" transform="translate(5.500000, 42.000000)" fill="#000000" font-family="Futura-Medium, Futura" font-size="12.9090931" font-weight="400">
                    <text id="10">
                        <tspan x="314.458065" y="13">10</tspan>
                    </text>
                    <text id="0">
                        <tspan x="0.270967742" y="13">0</tspan>
                    </text>
                    <text id="2">
                        <tspan x="63.2677419" y="13">2</tspan>
                    </text>
                    <text id="4">
                        <tspan x="127.332258" y="13">4</tspan>
                    </text>
                    <text id="6">
                        <tspan x="191.930645" y="13">6</tspan>
                    </text>
                    <text id="8">
                        <tspan x="250.656452" y="13">8</tspan>
                    </text>
                </g>
                <text id="Priority" opacity="0.713994565" font-family="Roboto-Regular, Roboto" font-size="13.65" font-weight="normal" fill="#302F2E">
                    <tspan x="1.5" y="14">Priority</tspan>
                </text>
            </g>
            <text id="project-title-copy-5" font-family="Roboto-Regular, Roboto" font-size="17.5" font-weight="normal" letter-spacing="0.912500083" fill="#302F2E">
                <tspan x="32" y="100.5">SweetTooth</tspan>
            </text>
            <g id="Group-5" transform="translate(294.000000, 82.500000)">
                <g id="Rectangle-157-Copy">
                    <use fill="#FFFFFF" fill-rule="evenodd" xlink:href="#path-11"></use>
                    <rect stroke="#3A5868" stroke-width="0.825" x="0.4125" y="0.4125" width="70.675" height="19.675"></rect>
                </g>
                <rect id="Combined-Shape" stroke="#3A5868" stroke-width="1.65" fill="#3A5868" x="34" y="0" width="36.5" height="20.5"></rect>
                <text id="Work" opacity="0.713994565" font-family="Roboto-Regular, Roboto" font-size="9.9" font-weight="normal" fill="#302F2E">
                    <tspan x="6" y="14.5">Work </tspan>
                </text>
            </g>
            <g id="Time-Group" transform="translate(11.000000, 155.500000)">
                <path d="M10.5324856,6.5 L16.8232233,0.209262274 L23.113961,6.5 L175.9,6.5 C177.059798,6.5 178,7.44020203 178,8.6 L178,167.4 C178,168.559798 177.059798,169.5 175.9,169.5 L2.1,169.5 C0.940202025,169.5 -5.18703623e-15,168.559798 -5.32907052e-15,167.4 L0,8.6 C-1.42034288e-16,7.44020203 0.940202025,6.5 2.1,6.5 L10.5324856,6.5 Z" id="Drop-Down" stroke="#3A5868" stroke-width="2.8" fill="#FFFFFF"></path>
                <g id="AM-PM-Button" transform="translate(139.000000, 86.500000)">
                    <g id="PM">
                        <rect id="PM-Background" fill="#3A5868" x="0" y="0" width="24" height="21.5" rx="2.1"></rect>
                        <text font-family="Roboto-Bold, Roboto" font-size="9.8" font-weight="bold" letter-spacing="0.349999994" fill="#FFFFFF">
                            <tspan x="4" y="15">PM</tspan>
                        </text>
                    </g>
                </g>
                <g id="Time-Selection" transform="translate(11.500000, 18.000000)">
                    <g id="Minute-Arrows" transform="translate(93.500000, 36.500000)">
                        <text id="00" font-family="Roboto-Bold, Roboto" font-size="9.8" font-weight="bold" letter-spacing="0.349999994" fill="#212121">
                            <tspan x="0" y="46.5">00</tspan>
                        </text>
                        <polygon id="Rectangle-43" stroke="#000000" stroke-width="1.77744" fill="#000000" transform="translate(5.750000, 88.500000) rotate(-90.000000) translate(-5.750000, -88.500000) " points="3.36477824 88.519527 8.5 83.2163916 8.29045998 83 3.09179431 88.3686538 3.15316716 88.4320334 3 88.5902089 8.23850044 94 8.45511151 93.7763061"></polygon>
                        <polygon id="Rectangle-43-Copy-2" stroke="#000000" stroke-width="1.77744" fill="#000000" transform="translate(5.750000, 3.000000) rotate(90.000000) translate(-5.750000, -3.000000) " points="3.36477824 3.019527 8.5 -2.28360836 8.29045998 -2.5 3.09179431 2.86865379 3.15316716 2.93203343 3 3.09020891 8.23850044 8.5 8.45511151 8.27630609"></polygon>
                    </g>
                    <text id=":" font-family="Roboto-Black, Roboto" font-size="9.8" font-weight="700" letter-spacing="0.349999994" fill="#212121">
                        <tspan x="61" y="83.5">:</tspan>
                    </text>
                    <g id="Hour-Arrows">
                        <text id="12" font-family="Roboto-Bold, Roboto" font-size="11.2" font-weight="bold" letter-spacing="0.400000006" fill="#212121">
                            <tspan x="19" y="84">12</tspan>
                        </text>
                        <g id="Group-34">
                            <polygon id="Rectangle-43" stroke="#000000" stroke-width="1.77744" fill="#000000" transform="translate(25.750000, 126.000000) rotate(-90.000000) translate(-25.750000, -126.000000) " points="23.3647782 126.019527 28.5 120.716392 28.29046 120.5 23.0917943 125.868654 23.1531672 125.932033 23 126.090209 28.2385004 131.5 28.4551115 131.276306"></polygon>
                            <polygon id="Rectangle-43" stroke="#000000" stroke-width="1.77744" fill="#000000" transform="translate(25.750000, 40.000000) rotate(90.000000) translate(-25.750000, -40.000000) " points="23.3647782 40.019527 28.5 34.7163916 28.29046 34.5 23.0917943 39.8686538 23.1531672 39.9320334 23 40.0902089 28.2385004 45.5 28.4551115 45.2763061"></polygon>
                            <g id="Adjust-Time-Button-Backgrounf" opacity="0.38">
                                <use fill="#AFE6E1" fill-rule="evenodd" xlink:href="#path-12"></use>
                                <rect stroke="#3A5868" stroke-width="1.4" x="0.7" y="0.7" width="156.1" height="22.6" rx="2.1"></rect>
                            </g>
                            <path d="M70.5,6.5 L70.5,4.25 C70.5,4.04 70.5725,3.8625 70.718,3.717 C70.8625,3.5725 71.04,3.5 71.25,3.5 L73.5,3.5 L73.5,2 L75,2 L75,3.5 L82.5,3.5 L82.5,2 L84,2 L84,3.5 L86.25,3.5 C86.46,3.5 86.638,3.5725 86.7825,3.717 C86.9275,3.8625 87,4.04 87,4.25 L87,6.5 L70.5,6.5 L70.5,6.5 L70.5,6.5 L70.5,6.5 Z M87,8 L87,19.71875 C87,19.9270833 86.9275,20.109375 86.7825,20.2651042 C86.638,20.421875 86.46,20.5 86.25,20.5 L71.25,20.5 C71.04,20.5 70.8625,20.421875 70.718,20.2651042 C70.5725,20.109375 70.5,19.9270833 70.5,19.71875 L70.5,8 L87,8 L87,8 L87,8 L87,8 Z M72,13 L73.5,13 L73.5,11 L72,11 L72,11 L72,13 L72,13 Z M72,16.5 L73.5,16.5 L73.5,14.5 L72,14.5 L72,14.5 L72,16.5 L72,16.5 Z M72,19.5 L73.5,19.5 L73.5,17.5 L72,17.5 L72,17.5 L72,19.5 L72,19.5 Z M75,13 L76.5,13 L76.5,11 L75,11 L75,11 L75,13 L75,13 Z M75,16.5 L76.5,16.5 L76.5,14.5 L75,14.5 L75,14.5 L75,16.5 L75,16.5 Z M75,19.5 L76.5,19.5 L76.5,17.5 L75,17.5 L75,17.5 L75,19.5 L75,19.5 Z M78,13 L79.5,13 L79.5,11 L78,11 L78,11 L78,13 L78,13 Z M78,16.5 L79.5,16.5 L79.5,14.5 L78,14.5 L78,14.5 L78,16.5 L78,16.5 Z M78,19.5 L79.5,19.5 L79.5,17.5 L78,17.5 L78,17.5 L78,19.5 L78,19.5 Z M81,13 L82.5,13 L82.5,11 L81,11 L81,11 L81,13 L81,13 Z M81,16.5 L82.5,16.5 L82.5,14.5 L81,14.5 L81,14.5 L81,16.5 L81,16.5 Z M81,19.5 L82.5,19.5 L82.5,17.5 L81,17.5 L81,17.5 L81,19.5 L81,19.5 Z M84,13 L85.5,13 L85.5,11 L84,11 L84,11 L84,13 L84,13 Z M84,16.5 L85.5,16.5 L85.5,14.5 L84,14.5 L84,14.5 L84,16.5 L84,16.5 Z M84,19.5 L85.5,19.5 L85.5,17.5 L84,17.5 L84,17.5 L84,19.5 L84,19.5 Z" id="Fill-192" fill="#000000"></path>
                        </g>
                    </g>
                </g>
            </g>
            <path d="M-2.5,468 L383,468 L-2.5,468 Z" id="Line-2-Copy-2" stroke="#3A5868" stroke-width="3.21099997" fill="#4D5B69" opacity="0.849999964"></path>
            <g id="bottom-menu-copy-3" transform="translate(78.500000, 480.500000)">
                <path d="M18.439875,10.409159 L18.5,10.409159 L18.5,24.4647729 L18.5,24.5 L10.40625,24.5 L10.40625,19.803053 L8.09375,19.803053 L8.09375,24.5 L0,24.5 L0,10.3927197 L9.217625,1 L18.439875,10.409159 Z" id="home-[#1392]-copy-3" stroke="#3A5868" stroke-width="0.731502768" fill="#78A9C2" transform="translate(9.250000, 12.750000) scale(-1, 1) translate(-9.250000, -12.750000) "></path>
                <g id="Group-6" transform="translate(100.500000, 0.000000)">
                    <ellipse id="Oval-3" stroke="#78A9C2" stroke-width="0.609870246" fill="#78A9C2" cx="12.5" cy="13" rx="12.5" ry="13"></ellipse>
                    <polygon id="Fill-2" fill="#3A5868" points="14.8636364 15.6363636 14.8636364 22 10.6363636 22 10.6363636 15.6363636 5 15.6363636 5 10.8636364 10.6363636 10.8636364 10.6363636 4.5 14.8636364 4.5 14.8636364 10.8636364 20.5 10.8636364 20.5 15.6363636"></polygon>
                </g>
                <path d="M220.863636,4.66666667 L225.113636,4.66666667 C225.216667,4.66666667 225.306818,4.7125 225.384606,4.80416667 C225.461364,4.89583333 225.5,5.00277778 225.5,5.125 L225.5,6.04166667 C225.5,6.17611111 225.463939,6.28611111 225.391818,6.37166667 C225.320212,6.45722222 225.22697,6.5 225.113636,6.5 L208.886364,6.5 C208.77303,6.5 208.680303,6.45722222 208.608182,6.37166667 C208.536576,6.28611111 208.5,6.17611111 208.5,6.04166667 L208.5,5.125 C208.5,5.00277778 208.539152,4.89583333 208.615909,4.80416667 C208.693182,4.7125 208.783333,4.66666667 208.886364,4.66666667 L213.136364,4.66666667 L213.136364,2.83333333 C213.136364,2.33222222 213.288333,1.90138889 213.592273,1.54083333 C213.896212,1.18088889 214.259394,1 214.681818,1 L219.318182,1 C219.741121,1 220.104303,1.18088889 220.408242,1.54083333 C220.711667,1.90138889 220.863636,2.33222222 220.863636,2.83333333 L220.863636,4.66666667 L220.863636,4.66666667 L220.863636,4.66666667 L220.863636,4.66666667 Z M210,8 L224,8 L224,22.6503885 C224,23.1509434 223.847037,23.5843507 223.54163,23.9506104 C223.235704,24.3168701 222.870148,24.5 222.444444,24.5 L211.555556,24.5 C211.13037,24.5 210.764815,24.3168701 210.458889,23.9506104 C210.152963,23.5843507 210,23.1509434 210,22.6503885 L210,8 L210,8 L210,8 L210,8 Z M211.5,22.5 L213,22.5 L213,10 L211.5,10 L211.5,10 L211.5,22.5 L211.5,22.5 Z M214.5,5 L219,5 L219,3 L214.5,3 L214.5,3 L214.5,5 L214.5,5 Z M214.5,22.5 L216,22.5 L216,10 L214.5,10 L214.5,10 L214.5,22.5 L214.5,22.5 Z M218,22.5 L219.5,22.5 L219.5,10 L218,10 L218,10 L218,22.5 L218,22.5 Z M221,22.5 L222.5,22.5 L222.5,10 L221,10 L221,10 L221,22.5 L221,22.5 Z" id="Fill-26" stroke="#3A5868" stroke-width="0.768077906" fill="#78A9C2"></path>
            </g>
            <g id="Group-3-Copy-3" transform="translate(-0.500000, 28.500000)">
                <g id="Rectangle-12">
                    <use fill="#3A5868" fill-rule="evenodd" xlink:href="#path-13"></use>
                    <rect stroke="#3A5868" stroke-width="1.5" x="0.75" y="0.75" width="384" height="29"></rect>
                </g>
                <g id="Group-2" transform="translate(25.500000, 6.000000)">
                    <polygon id="Rectangle-43-Copy" stroke="#FFFFFF" stroke-width="2.76950002" fill="#FFFFFF" points="0.700503341 9.52485255 10.5619469 2.77540755 10.1595559 2.5 0.176277561 9.3328321 0.294135159 9.4134971 0 9.61481134 10.0597752 16.5 10.4757451 16.2152987"></polygon>
                    <g id="Group" transform="translate(279.157817, 0.000000)">
                        <rect id="Rectangle-3" fill="#AFE6E1" x="0" y="0" width="58.3421829" height="20"></rect>
                        <text id="SAVE" font-family="Roboto-Black, Roboto" font-size="8.5" font-weight="700" letter-spacing="0.566666722" fill="#302F2E">
                            <tspan x="17.6725664" y="14">SAVE</tspan>
                        </text>
                    </g>
                </g>
            </g>
            <g id="Group-2-Copy-2" transform="translate(146.500000, 35.500000)" fill="#FFFFFF" font-family="Roboto-Black, Roboto" font-size="18" font-weight="700" letter-spacing="1.73571432">
                <text id="PROJECT">
                    <tspan x="0" y="19">PROJECT</tspan>
                </text>
            </g>
            <g id="Line-4-Copy-2" opacity="0.300000012" stroke-linecap="square">
                <use stroke="#000000" stroke-width="1" xlink:href="#path-14"></use>
                <use stroke="#979797" stroke-width="0.5" xlink:href="#path-14"></use>
            </g>
        </g>
    </g>
</svg>