<?xml version="1.0" encoding="UTF-8"?>
<svg width="384px" height="512px" viewBox="0 0 384 512" version="1.1" xmlns="http://www.w3.org/2000/svg" xmlns:xlink="http://www.w3.org/1999/xlink" style="background: #FFFFFF;">
    <!-- Generator: Sketch 48.2 (47327) - http://www.bohemiancoding.com/sketch -->
    <title>T07</title>
    <desc>Created with Sketch.</desc>
    <defs>
        <rect id="path-1" x="354.924282" y="0.5" width="29.075718" height="43.5"></rect>
    </defs>
    <g id="Page-1" stroke="none" stroke-width="1" fill="none" fill-rule="evenodd">
        <g id="Artboard" transform="translate(-560.000000, -1941.000000)"></g>
        <g id="T07">
            <g id="StatusBar-Light-iPhone6">
                <rect id="Background" fill="#FFFFFF" x="0" y="0" width="383" height="20.5"></rect>
                <path d="M351.5,6.5 C351.5,5.67157288 352.171573,5 353,5 L373.5,5 C374.328427,5 375,5.67157288 375,6.5 L375,14 C375,14.8284271 374.328427,15.5 373.5,15.5 L353,15.5 C352.171573,15.5 351.5,14.8284271 351.5,14 L351.5,6.5 Z M352,7 L352,13.5 C352,14.3284271 352.671573,15 353.5,15 L373,15 C373.828427,15 374.5,14.3284271 374.5,13.5 L374.5,7 C374.5,6.17157288 373.828427,5.5 373,5.5 L353.5,5.5 C352.671573,5.5 352,6.17157288 352,7 Z M352.5,7.5 C352.5,6.67157288 353.171573,6 354,6 L363.5,6 L363.5,14.5 L354,14.5 C353.171573,14.5 352.5,13.8284271 352.5,13 L352.5,7.5 Z M378,10 C378,11.0178721 377.130764,11.8599457 376,12 L376,8 C377.130764,8.14005431 378,8.98212794 378,10 Z" id="battery-@2x" fill="#000000"></path>
                <text id="49%" font-family="HelveticaNeue, Helvetica Neue" font-size="12" font-weight="normal" line-spacing="12" fill="#000000">
                    <tspan x="323.5" y="16">49%</tspan>
                </text>
                <path d="M315,11.5 L316.5,13 L315,14.5 L315,11.5 Z M315,9 L315,6 L316.5,7.5 L315,9 Z M318,7.64722653 L314.028486,3.5 L314.028486,9.20243648 L311,6.09201658 L310,7.12882321 L313.45349,10.2504999 L310,13.349663 L311,14.3864696 L314.028486,11.2760497 L314.028486,17 L318,12.8312597 L315.5,10.2504998 L318,7.64722653 Z" id="bluetooth-@2x" fill="#535353"></path>
                <text id="9:49-AM" font-family="HelveticaNeue, Helvetica Neue" font-size="12" font-weight="normal" letter-spacing="0.599999905" fill="#000000">
                    <tspan x="166.692" y="14">9:49 AM</tspan>
                </text>
                <path d="M79.7455746,7.06231003 C81.766171,7.06231003 83.607668,7.79635258 85.0196385,9 L86,7.93262411 C84.3277104,6.50101317 82.1436336,5.5 79.7455746,5.5 C77.35116,5.5 75.170207,6.49797366 73.5,7.92502533 L74.478279,8.99392097 C75.8892082,7.79381966 77.7275813,7.06231003 79.7455746,7.06231003 L79.7455746,7.06231003 Z M82.9518386,11 L84,9.95755423 C82.8592299,9.07591623 81.3753869,8.5 79.7473691,8.5 C78.1225084,8.5 76.6397177,9.07451384 75.5,9.95334705 L76.5465829,10.9971952 C77.4084747,10.3394727 78.5250402,9.9407255 79.7473691,9.9407255 C80.9712765,9.9407255 82.0894206,10.3408751 82.9518386,11 Z M82,12.2681206 C81.3907337,11.8142533 80.6062141,11.5 79.7486265,11.5 C78.8926871,11.5 78.1092663,11.8137668 77.5,12.2656883 L79.7486265,14.5 L82,12.2681206 L82,12.2681206 Z" id="wifi-@2x" fill="#0C0000"></path>
                <text id="Yext" font-family="HelveticaNeue, Helvetica Neue" font-size="12" font-weight="normal" fill="#000000">
                    <tspan x="45" y="13.5">Yext</tspan>
                </text>
                <path d="M8,13 C6.34314567,13 5,11.6568543 5,10 C5,8.34314567 6.34314567,7 8,7 C9.65685433,7 11,8.34314567 11,10 C11,11.6568543 9.65685433,13 8,13 Z M15,13 C13.3431457,13 12,11.6568543 12,10 C12,8.34314567 13.3431457,7 15,7 C16.6568543,7 18,8.34314567 18,10 C18,11.6568543 16.6568543,13 15,13 Z M22,13 C20.3431457,13 19,11.6568543 19,10 C19,8.34314567 20.3431457,7 22,7 C23.6568543,7 25,8.34314567 25,10 C25,11.6568543 23.6568543,13 22,13 Z M29.5,13 C27.8431457,13 26.5,11.6568543 26.5,10 C26.5,8.34314567 27.8431457,7 29.5,7 C31.1568543,7 32.5,8.34314567 32.5,10 C32.5,11.6568543 31.1568543,13 29.5,13 Z M29.5,12.5 C30.8807119,12.5 32,11.3807119 32,10 C32,8.61928806 30.8807119,7.5 29.5,7.5 C28.1192881,7.5 27,8.61928806 27,10 C27,11.3807119 28.1192881,12.5 29.5,12.5 Z M36.5,13 C34.8431457,13 33.5,11.6568543 33.5,10 C33.5,8.34314567 34.8431457,7 36.5,7 C38.1568543,7 39.5,8.34314567 39.5,10 C39.5,11.6568543 38.1568543,13 36.5,13 Z M36.5,12.5 C37.8807119,12.5 39,11.3807119 39,10 C39,8.61928806 37.8807119,7.5 36.5,7.5 C35.1192881,7.5 34,8.61928806 34,10 C34,11.3807119 35.1192881,12.5 36.5,12.5 Z" id="signal-@2x" fill="#000000"></path>
            </g>
            <g id="circle-check-copy-3" transform="translate(174.500000, 456.000000)">
                <ellipse id="Oval-3" stroke="#78A9C2" stroke-width="0.75" fill="#78A9C2" cx="12.75" cy="13.25" rx="12.75" ry="13.25"></ellipse>
                <polygon id="Fill-2" fill="#3A5868" points="15.0454545 15.3181818 15.0454545 21.5 10.9545455 21.5 10.9545455 15.3181818 5.5 15.3181818 5.5 10.6818182 10.9545455 10.6818182 10.9545455 4.5 15.0454545 4.5 15.0454545 10.6818182 20.5 10.6818182 20.5 15.3181818"></polygon>
            </g>
            <path d="M35.3569933,459.507538 C37.0076075,458.502513 38.8052764,458 40.75,458 C42.6953238,458 44.4923925,458.502513 46.1436069,459.507538 C47.7936209,460.512563 49.0997069,461.878769 50.059464,463.606156 C51.0198213,465.333543 51.5,467.214824 51.5,469.25 C51.5,471.285176 51.0198213,473.166457 50.059464,474.893844 C49.0997069,476.621231 47.7936209,477.987437 46.1436069,478.992462 C44.4923925,479.997487 42.6953238,480.5 40.75,480.5 C38.8052764,480.5 37.0076075,479.997487 35.3569933,478.992462 C33.7063791,477.987437 32.4008934,476.621231 31.4411362,474.893844 C30.4801787,473.166457 30,471.285176 30,469.25 C30,467.214824 30.4801787,465.333543 31.4411362,463.606156 C32.4008934,461.878769 33.7063791,460.512563 35.3569933,459.507538 C35.3569933,459.507538 33.7063791,460.512563 35.3569933,459.507538 L35.3569933,459.507538 L35.3569933,459.507538 Z M37,467.5 L37,469.375 L38.75,469.375 L38.75,473.125 L37,473.125 L37,475 L44,475 L44,473.125 L42.25,473.125 L42.25,467.5 L37,467.5 L37,467.5 L37,467.5 L37,467.5 Z M39,465.5 L42.5,465.5 L42.5,463.5 L39,463.5 L39,463.5 L39,465.5 L39,465.5 Z" id="Fill-88-Copy" stroke="#3A5868" stroke-width="0.5" fill="#FFFFFF"></path>
            <g id="Group" transform="translate(186.495713, 45.492200) rotate(1.000000) translate(-186.495713, -45.492200) translate(165.995713, 24.992200)">
                <path d="M30,11 L30,8 C31.6545,8 33,9.3455 33,11 L30,11 Z M27,29.875 C27,31.5984375 25.5984375,33 23.875,33 L23.875,29.875 C23.875,28.1484375 22.4765625,26.75 20.75,26.75 L14.5,26.75 L14.5,11.125 C14.5,9.3984375 15.8984375,8 17.625,8 L27,8 L27,29.875 Z M21,32.5 L11.625,32.5 C9.9015625,32.5 8.5,31.1545 8.5,29.5 L19.4375,29.5 C20.3,29.5 21,30.172 21,31 L21,32.5 Z M17.6,4.5 C14.120825,4.5 11.3,7.320825 11.3,10.8 L11.3,26.55 L6.575,26.55 C5.7056,26.55 5,27.2556 5,28.125 L5,29.7 C5,33.179175 7.820825,36 11.3,36 L23.9,36 C27.379175,36 30.2,33.179175 30.2,29.7 L30.2,13.95 L34.925,13.95 C35.7944,13.95 36.5,13.2444 36.5,12.375 L36.5,10.8 C36.5,7.320825 33.679175,4.5 30.2,4.5 L17.6,4.5 Z" id="script-[#1603]-copy-3" fill-opacity="0.174860145" fill="#78A9C2" opacity="0.757699275" transform="translate(20.750000, 20.250000) rotate(19.000000) translate(-20.750000, -20.250000) "></path>
                <g id="Group-2" transform="translate(20.500000, 18.500000) rotate(200.000000) translate(-20.500000, -18.500000) translate(12.500000, 6.000000)" font-family="GurmukhiMN-Bold, Gurmukhi MN" font-weight="bold">
                    <text id="T" fill="#3A5868" style="mix-blend-mode: darken;" transform="translate(9.000000, 12.500000) scale(1, -1) translate(-9.000000, -12.500000) " font-size="17.224704" letter-spacing="0.614098251">
                        <tspan x="2" y="18.5">T</tspan>
                    </text>
                    <text id="T" fill="#78A9C2" style="mix-blend-mode: darken;" font-size="12.775" letter-spacing="0.455456465">
                        <tspan x="0" y="15">T</tspan>
                    </text>
                </g>
            </g>
            <g id="Group-7" transform="translate(-0.500000, 72.500000)">
                <g id="Group-4">
                    <rect id="Rectangle-2-Copy-9" stroke="#4D5B69" stroke-width="0.508725" fill="#FFFFFF" x="0" y="0" width="354.422977" height="43.5"></rect>
                    <text id="SweetTooth" font-family="Roboto-Regular, Roboto" font-size="13.22685" font-weight="normal" letter-spacing="0.689685762" fill="#000000">
                        <tspan x="13.3002387" y="28.5">SweetTooth</tspan>
                    </text>
                </g>
                <g id="Group-6" transform="translate(263.686684, 13.000000)" fill="#3A5868" fill-opacity="0.2">
                    <path d="M8.37502967,8.125 L14.9280798,8.125 L14.9280798,19.09375 C14.9280798,19.2129167 14.8898536,19.3104167 14.8134014,19.38625 C14.7374952,19.4620833 14.6386534,19.5 14.5185141,19.5 L0.593282696,19.5 C0.473143445,19.5 0.374847694,19.4620833 0.298395443,19.38625 C0.222489279,19.3104167 0.183717066,19.2129167 0.183717066,19.09375 L0.183717066,0.40625 C0.183717066,0.287083333 0.222489279,0.189583333 0.298395443,0.11375 C0.374847694,0.0379166667 0.473143445,0 0.593282696,0 L8.37502967,0 L8.37502967,8.125 L8.37502967,8.125 L8.37502967,8.125 L8.37502967,8.125 Z M14.375674,6.03954892 L9.8005342,5.95968956 L9.88779623,0.960451081 L14.375674,6.03954892 L14.375674,6.03954892 Z" id="Fill-28"></path>
                    <path d="M48.4354557,15.6038147 L48.2905312,15.6509588 L46.8990833,16.0044928 L40.307617,7.16159501 C39.7406221,6.39201449 39.4203957,5.59825876 39.3476518,4.78187597 C39.2761538,3.96544666 39.4583661,3.21651258 39.894978,2.53485114 C40.303942,1.89733257 40.8814885,1.40174819 41.6278835,1.04730068 C42.373722,0.692677093 43.234268,0.510542901 44.208566,0.50191804 C45.0648359,0.481952306 45.9540019,0.617845706 46.8782899,0.910302531 C48.0691246,1.2870982 49.0915107,1.85345259 49.9475167,2.60869792 C50.3295293,2.94069511 50.8201484,3.51509494 51.4214425,4.33122962 L57.925158,13.1587032 C58.5013358,13.9413267 58.7348291,14.733203 58.6273317,15.536631 C58.5187215,16.3397068 58.0939703,16.9673817 57.3526791,17.4208518 C56.8115129,17.7520847 56.1696264,17.9408178 55.4284227,17.9883769 C54.6865296,18.0361585 53.9261242,17.9365991 53.1470735,17.6900972 C52.4459279,17.4682456 51.8205564,17.1465167 51.2720965,16.7270334 C50.9475286,16.4828523 50.6398319,16.206545 50.3483169,15.8983341 C50.0577818,15.590874 49.8261611,15.317041 49.6538782,15.0774098 C49.4814623,14.8381772 49.235074,14.4776904 48.9158506,13.9980722 C48.5878678,13.5059858 48.3523805,13.1626117 48.2078522,12.9670231 L43.2021575,6.17338792 C42.9058779,5.77066934 42.7566312,5.35320843 42.7534376,4.92025439 C42.7501109,4.48769901 42.8940789,4.10968326 43.1864789,3.78833004 C43.7178651,3.18954747 44.5072679,2.98093579 45.5548202,3.16209634 C45.7825938,3.2169773 45.9460725,3.25988893 46.0462362,3.29158202 C46.5587402,3.45374502 46.9785166,3.66149674 47.3061218,3.91501328 C47.6342835,4.16870588 47.9416345,4.49030194 48.2290217,4.88095092 L53.1264386,11.6672118 L53.2154954,11.7875091 L51.7956902,12.2241892 L46.991104,5.77186536 C46.8269131,5.52642014 46.6605717,5.3058585 46.491681,5.11137647 C46.2967625,4.84739348 46.0487009,4.66708827 45.7487664,4.57218506 C45.3258531,4.43836978 44.9822177,4.48919369 44.7203277,4.72279299 C44.4382387,4.97820964 44.4492115,5.31225061 44.7549155,5.7254441 L51.7036734,15.1569723 C52.1439248,15.7551034 52.7703363,16.1825027 53.5827749,16.4395689 C54.1948861,16.633249 54.7952469,16.6777606 55.3838573,16.5731039 C55.9724676,16.4684472 56.4002327,16.1802285 56.6679993,15.7095974 C56.8177384,15.4488865 56.8911954,15.1807878 56.890064,14.9076001 C56.8886421,14.6334391 56.7975806,14.3273888 56.6156092,13.9877251 C56.4332143,13.6474867 56.2660083,13.3742011 56.1139909,13.1678685 C55.9615502,12.9609611 55.7218928,12.6466799 55.3947527,12.2258222 C55.1835172,11.9738659 54.9929442,11.7337365 54.8236986,11.5034408 L50.4030496,5.50272801 C49.9619757,4.90521817 49.6091982,4.44319159 49.3430477,4.11612005 C49.0760748,3.78966978 48.6811637,3.42626429 48.1555565,3.02679396 C47.6310623,2.62767577 47.0682455,2.33235136 46.4672636,2.14219279 C46.1890312,2.05415642 45.9167404,1.98518963 45.6501251,1.93608977 C44.5473498,1.7378967 43.5655143,1.84286654 42.7014616,2.25308571 C41.838788,2.66285969 41.3219674,3.27330316 41.150419,4.08246931 C40.9594942,4.91283153 41.2494347,5.8508292 42.019551,6.8966849 L45.233468,11.205637 L48.4354557,15.6038147 Z" id="Fill-194"></path>
                </g>
                <g id="Rectangle-4-Copy-2">
                    <use fill="#302F2E" fill-rule="evenodd" xlink:href="#path-1"></use>
                    <rect stroke="#302F2E" stroke-width="0.508725" x="354.669919" y="0.2456375" width="29.584443" height="44.008725"></rect>
                </g>
            </g>
            <g id="Group-11" transform="translate(206.000000, 76.500000)">
                <path d="M10.5,12.5 L10.5,10 C10.5,9.76666667 10.5768939,9.56944444 10.7312121,9.40777778 C10.8844697,9.24722222 11.0727273,9.16666667 11.2954545,9.16666667 L13.6818182,9.16666667 L13.6818182,7.5 L15.2727273,7.5 L15.2727273,9.16666667 L23.2272727,9.16666667 L23.2272727,7.5 L24.8181818,7.5 L24.8181818,9.16666667 L27.2045455,9.16666667 C27.4272727,9.16666667 27.6160606,9.24722222 27.7693182,9.40777778 C27.9231061,9.56944444 28,9.76666667 28,10 L28,12.5 L10.5,12.5 L10.5,12.5 L10.5,12.5 L10.5,12.5 Z M28,14 L28,26.65625 C28,26.88125 27.9231061,27.078125 27.7693182,27.2463125 C27.6160606,27.415625 27.4272727,27.5 27.2045455,27.5 L11.2954545,27.5 C11.0727273,27.5 10.8844697,27.415625 10.7312121,27.2463125 C10.5768939,27.078125 10.5,26.88125 10.5,26.65625 L10.5,14 L28,14 L28,14 L28,14 L28,14 Z M12,19 L13.5,19 L13.5,17.5 L12,17.5 L12,17.5 L12,19 L12,19 Z M12,22.5 L13.5,22.5 L13.5,21 L12,21 L12,21 L12,22.5 L12,22.5 Z M12,25.5 L13.5,25.5 L13.5,24 L12,24 L12,24 L12,25.5 L12,25.5 Z M15.5,19 L17,19 L17,17.5 L15.5,17.5 L15.5,17.5 L15.5,19 L15.5,19 Z M15.5,22.5 L17,22.5 L17,21 L15.5,21 L15.5,21 L15.5,22.5 L15.5,22.5 Z M15.5,25.5 L17,25.5 L17,24 L15.5,24 L15.5,24 L15.5,25.5 L15.5,25.5 Z M18.5,19 L20,19 L20,17.5 L18.5,17.5 L18.5,17.5 L18.5,19 L18.5,19 Z M18.5,22.5 L20,22.5 L20,21 L18.5,21 L18.5,21 L18.5,22.5 L18.5,22.5 Z M18.5,25.5 L20,25.5 L20,24 L18.5,24 L18.5,24 L18.5,25.5 L18.5,25.5 Z M21.5,19 L23,19 L23,17.5 L21.5,17.5 L21.5,17.5 L21.5,19 L21.5,19 Z M21.5,22.5 L23,22.5 L23,21 L21.5,21 L21.5,21 L21.5,22.5 L21.5,22.5 Z M21.5,25.5 L23,25.5 L23,24 L21.5,24 L21.5,24 L21.5,25.5 L21.5,25.5 Z M25,19 L26.5,19 L26.5,17.5 L25,17.5 L25,17.5 L25,19 L25,19 Z M25,22.5 L26.5,22.5 L26.5,21 L25,21 L25,21 L25,22.5 L25,22.5 Z M25,25.5 L26.5,25.5 L26.5,24 L25,24 L25,24 L25,25.5 L25,25.5 Z" id="Fill-192" fill="#3A5868"></path>
                <ellipse id="Oval-4-Copy" fill="#AFE6E1" cx="8.5" cy="8.25" rx="8" ry="8.25"></ellipse>
                <text id="3" font-family="Roboto-Bold, Roboto" font-size="9" font-weight="bold" letter-spacing="1.63636363" fill="#3A5868">
                    <tspan x="6.10003108" y="12.5">3</tspan>
                </text>
            </g>
            <g id="Group-5" transform="translate(165.000000, 77.000000)">
                <path d="M10.5,11.125 L10.5,9.375 C10.5,9.13 10.5725,8.92291667 10.7175,8.75375 C10.8625,8.58516667 11.04,8.5 11.25,8.5 L12.75,8.5 C12.96,8.5 13.1375,8.58516667 13.283,8.75375 C13.4275,8.92291667 13.5,9.13 13.5,9.375 L13.5,11.125 C13.5,11.3583333 13.4275,11.5625 13.283,11.7375 C13.1375,11.9125 12.96,12 12.75,12 L11.25,12 C11.04,12 10.8625,11.9125 10.7175,11.7375 C10.5725,11.5625 10.5,11.3583333 10.5,11.125 C10.5,11.125 10.5,11.3583333 10.5,11.125 L10.5,11.125 L10.5,11.125 Z M10.5,16.125 L10.5,14.375 C10.5,14.13 10.5725,13.9229167 10.7175,13.75375 C10.8625,13.5851667 11.04,13.5 11.25,13.5 L12.75,13.5 C12.96,13.5 13.1375,13.5851667 13.283,13.75375 C13.4275,13.9229167 13.5,14.13 13.5,14.375 L13.5,16.125 C13.5,16.3583333 13.4275,16.5625 13.283,16.7375 C13.1375,16.9125 12.96,17 12.75,17 L11.25,17 C11.04,17 10.8625,16.9125 10.7175,16.7375 C10.5725,16.5625 10.5,16.3583333 10.5,16.125 C10.5,16.125 10.5,16.3583333 10.5,16.125 L10.5,16.125 L10.5,16.125 Z M10.5,21.125 L10.5,19.375 C10.5,19.13 10.5725,18.9229167 10.7175,18.75375 C10.8625,18.5851667 11.04,18.5 11.25,18.5 L12.75,18.5 C12.96,18.5 13.1375,18.5851667 13.283,18.75375 C13.4275,18.9229167 13.5,19.13 13.5,19.375 L13.5,21.125 C13.5,21.3583333 13.4275,21.5625 13.283,21.7375 C13.1375,21.9125 12.96,22 12.75,22 L11.25,22 C11.04,22 10.8625,21.9125 10.7175,21.7375 C10.5725,21.5625 10.5,21.3583333 10.5,21.125 C10.5,21.125 10.5,21.3583333 10.5,21.125 L10.5,21.125 L10.5,21.125 Z M10.5,26.125 L10.5,24.375 C10.5,24.13 10.5725,23.9229167 10.7175,23.75375 C10.8625,23.5851667 11.04,23.5 11.25,23.5 L12.75,23.5 C12.96,23.5 13.1375,23.5851667 13.283,23.75375 C13.4275,23.9229167 13.5,24.13 13.5,24.375 L13.5,26.125 C13.5,26.3583333 13.4275,26.5625 13.283,26.7375 C13.1375,26.9125 12.96,27 12.75,27 L11.25,27 C11.04,27 10.8625,26.9125 10.7175,26.7375 C10.5725,26.5625 10.5,26.3583333 10.5,26.125 C10.5,26.125 10.5,26.3583333 10.5,26.125 L10.5,26.125 L10.5,26.125 Z M15,11.125 L15,9.375 C15,9.13 15.0725,8.92291667 15.2175,8.75375 C15.3625,8.58516667 15.54,8.5 15.75,8.5 L27.75,8.5 C27.96,8.5 28.1375,8.58516667 28.283,8.75375 C28.4275,8.92291667 28.5,9.13 28.5,9.375 L28.5,11.125 C28.5,11.3583333 28.4275,11.5625 28.283,11.7375 C28.1375,11.9125 27.96,12 27.75,12 L15.75,12 C15.54,12 15.3625,11.9125 15.2175,11.7375 C15.0725,11.5625 15,11.3583333 15,11.125 C15,11.125 15,11.3583333 15,11.125 L15,11.125 L15,11.125 Z M15,16.125 L15,14.375 C15,14.13 15.0725,13.9229167 15.2175,13.75375 C15.3625,13.5851667 15.54,13.5 15.75,13.5 L27.75,13.5 C27.96,13.5 28.1375,13.5851667 28.283,13.75375 C28.4275,13.9229167 28.5,14.13 28.5,14.375 L28.5,16.125 C28.5,16.3583333 28.4275,16.5625 28.283,16.7375 C28.1375,16.9125 27.96,17 27.75,17 L15.75,17 C15.54,17 15.3625,16.9125 15.2175,16.7375 C15.0725,16.5625 15,16.3583333 15,16.125 C15,16.125 15,16.3583333 15,16.125 L15,16.125 L15,16.125 Z M15,21.125 L15,19.375 C15,19.13 15.0725,18.9229167 15.2175,18.75375 C15.3625,18.5851667 15.54,18.5 15.75,18.5 L27.75,18.5 C27.96,18.5 28.1375,18.5851667 28.283,18.75375 C28.4275,18.9229167 28.5,19.13 28.5,19.375 L28.5,21.125 C28.5,21.3583333 28.4275,21.5625 28.283,21.7375 C28.1375,21.9125 27.96,22 27.75,22 L15.75,22 C15.54,22 15.3625,21.9125 15.2175,21.7375 C15.0725,21.5625 15,21.3583333 15,21.125 C15,21.125 15,21.3583333 15,21.125 L15,21.125 L15,21.125 Z M15,26.125 L15,24.375 C15,24.13 15.0725,23.9229167 15.2175,23.75375 C15.3625,23.5851667 15.54,23.5 15.75,23.5 L27.75,23.5 C27.96,23.5 28.1375,23.5851667 28.283,23.75375 C28.4275,23.9229167 28.5,24.13 28.5,24.375 L28.5,26.125 C28.5,26.3583333 28.4275,26.5625 28.283,26.7375 C28.1375,26.9125 27.96,27 27.75,27 L15.75,27 C15.54,27 15.3625,26.9125 15.2175,26.7375 C15.0725,26.5625 15,26.3583333 15,26.125 L15,26.125 Z" id="Fill-59" fill="#3A5868"></path>
                <ellipse id="Oval-4" fill="#AFE6E1" cx="8.5" cy="8.25" rx="8" ry="8.25"></ellipse>
                <text id="2" font-family="Roboto-Bold, Roboto" font-size="9" font-weight="bold" letter-spacing="1.63636363" fill="#3A5868">
                    <tspan x="6.10003108" y="12.5">2</tspan>
                </text>
            </g>
            <g id="Group-10" transform="translate(127.500000, 76.500000)">
                <path d="M23.9657467,20.7 L24.2404702,20.7 C24.4559397,20.7 24.636934,20.77975 24.7818372,20.9387 C24.9272791,21.09875 25,21.294 25,21.525 C25,21.745 24.9305111,21.96445 24.790456,22.18445 C24.6498622,22.405 24.483412,22.55295 24.2889509,22.6305 C24.0519345,22.7295 23.7125701,22.856 23.2713964,23.00945 C22.8291454,23.16455 21.9268671,23.3675 20.5640229,23.61995 C19.2011787,23.8735 17.8464147,24 16.4997307,24 C15.1530467,24 13.830603,23.88725 12.5323996,23.66175 C11.2341963,23.43625 10.2726639,23.20745 9.64780253,22.97645 L8.71051047,22.64645 C8.51658798,22.57 8.34906049,22.41875 8.20954403,22.19325 C8.06948889,21.96775 8,21.745 8,21.525 C8,21.294 8.07272094,21.09875 8.21762413,20.9387 C8.363066,20.77975 8.54352166,20.7 8.7589911,20.7 L9.0342533,20.7 L10.9406192,17.84495 L11.9592509,12.45 C12.1203143,11.60245 12.5297063,10.83245 13.1868881,10.13945 C13.8446085,9.44645 14.6197598,8.98995 15.513958,8.76995 L15.2230742,8.2425 C15.1584334,8.03405 15.1745936,7.8575 15.2720935,7.71395 C15.3690548,7.57095 15.5247315,7.5 15.7402009,7.5 L17.2597991,7.5 C17.4752685,7.5 17.6309452,7.5583 17.7279065,7.67325 C17.8248677,7.78875 17.8415666,7.951 17.7763871,8.15945 L17.4855033,8.76995 C18.3802402,8.97895 19.1553915,9.4338 19.8131119,10.13175 C20.4692164,10.83025 20.879147,11.60245 21.0407491,12.45 L22.0593808,17.84495 L23.9657467,20.7 L23.9657467,20.7 L23.9657467,20.7 L23.9657467,20.7 Z M16.7579675,25.6090579 C16.1433333,25.6090579 15.5571545,25.5733111 15,25.5 C15.1365854,26.0943653 15.3636585,26.5760376 15.6823577,26.9450167 C16.0010569,27.3152075 16.3595935,27.5 16.7579675,27.5 C17.1563415,27.5 17.514878,27.3152075 17.8341463,26.9450167 C18.1522764,26.5760376 18.3742276,26.0943653 18.5,25.5 C17.9530894,25.5733111 17.3726016,25.6090579 16.7579675,25.6090579 L16.7579675,25.6090579 Z" id="Fill-197" fill="#3A5868"></path>
                <g id="Group-9">
                    <ellipse id="Oval-4" fill="#AFE6E1" cx="8" cy="8.25" rx="8" ry="8.25"></ellipse>
                    <text id="2" font-family="Roboto-Bold, Roboto" font-size="9" font-weight="bold" letter-spacing="1.63636363" fill="#3A5868">
                        <tspan x="5.60003108" y="12.5">2</tspan>
                    </text>
                </g>
            </g>
            <text id="8" font-family="Roboto-Black, Roboto" font-size="14" font-weight="700" letter-spacing="0.730102122" fill="#D7F2F0">
                <tspan x="365" y="101">8</tspan>
            </text>
        </g>
    </g>
</svg>