<?xml version="1.0" encoding="UTF-8"?>
<svg width="384px" height="512px" viewBox="0 0 384 512" version="1.1" xmlns="http://www.w3.org/2000/svg" xmlns:xlink="http://www.w3.org/1999/xlink" style="background: #FFFFFF;">
    <!-- Generator: Sketch 48.2 (47327) - http://www.bohemiancoding.com/sketch -->
    <title>T08</title>
    <desc>Created with Sketch.</desc>
    <defs>
        <rect id="path-1" x="31" y="48.5" width="11.5" height="12"></rect>
        <rect id="path-2" x="31.5" y="15.5" width="11.5" height="12"></rect>
        <rect id="path-3" x="48" y="15.5" width="11.5" height="12"></rect>
        <rect id="path-4" x="64.5" y="15.5" width="11.5" height="12"></rect>
    </defs>
    <g id="Page-1" stroke="none" stroke-width="1" fill="none" fill-rule="evenodd">
        <g id="Artboard" transform="translate(-165.000000, -2512.000000)"></g>
        <g id="T08">
            <g id="StatusBar-Light-iPhone6-Copy">
                <rect id="Background" fill="#FFFFFF" x="0" y="0" width="383" height="20.5"></rect>
                <path d="M351.458824,6.5 C351.458824,5.67157288 352.130396,5 352.958824,5 L373.489542,5 C374.31797,5 374.989542,5.67157288 374.989542,6.5 L374.989542,14 C374.989542,14.8284271 374.31797,15.5 373.489542,15.5 L352.958824,15.5 C352.130396,15.5 351.458824,14.8284271 351.458824,14 L351.458824,6.5 Z M351.959477,7 L351.959477,13.5 C351.959477,14.3284271 352.63105,15 353.459477,15 L372.988889,15 C373.817316,15 374.488889,14.3284271 374.488889,13.5 L374.488889,7 C374.488889,6.17157288 373.817316,5.5 372.988889,5.5 L353.459477,5.5 C352.63105,5.5 351.959477,6.17157288 351.959477,7 Z M352.460131,7.5 C352.460131,6.67157288 353.131704,6 353.960131,6 L363.47451,6 L363.47451,14.5 L353.960131,14.5 C353.131704,14.5 352.460131,13.8284271 352.460131,13 L352.460131,7.5 Z M377.993464,10 C377.993464,11.0178721 377.123091,11.8599457 375.99085,12 L375.99085,8 C377.123091,8.14005431 377.993464,8.98212794 377.993464,10 Z" id="battery-@2x" fill="#000000"></path>
                <text id="49%" font-family="HelveticaNeue, Helvetica Neue" font-size="12" font-weight="normal" line-spacing="12" fill="#000000">
                    <tspan x="323.422222" y="16">49%</tspan>
                </text>
                <path d="M314.911111,11.5 L316.413072,13 L314.911111,14.5 L314.911111,11.5 Z M314.911111,9 L314.911111,6 L316.413072,7.5 L314.911111,9 Z M317.915033,7.64722653 L313.938327,3.5 L313.938327,9.20243648 L310.905882,6.09201658 L309.904575,7.12882321 L313.36258,10.2504999 L309.904575,13.349663 L310.905882,14.3864696 L313.938327,11.2760497 L313.938327,17 L317.915033,12.8312597 L315.411765,10.2504998 L317.915033,7.64722653 Z" id="bluetooth-@2x-copy" fill="#535353"></path>
                <text id="9:49-AM" font-family="HelveticaNeue, Helvetica Neue" font-size="12" font-weight="normal" letter-spacing="0.599999905" fill="#000000">
                    <tspan x="166.942" y="14">9:49 AM</tspan>
                </text>
                <path d="M79.5996676,7.06231003 C81.5419758,7.06231003 83.3121238,7.79635258 84.6693874,9 L85.6117647,7.93262411 C84.0042682,6.50101317 81.9048136,5.5 79.5996676,5.5 C77.2980248,5.5 75.2015731,6.49797366 73.5960784,7.92502533 L74.5364539,8.99392097 C75.8927165,7.79381966 77.6598617,7.06231003 79.5996676,7.06231003 L79.5996676,7.06231003 Z M82.6213559,11 L83.6091503,9.95755423 C82.5340809,9.07591623 81.1356972,8.5 79.6014422,8.5 C78.0701624,8.5 76.6727705,9.07451384 75.5986928,9.95334705 L76.5849996,10.9971952 C77.3972523,10.3394727 78.4495112,9.9407255 79.6014422,9.9407255 C80.7548608,9.9407255 81.8086074,10.3408751 82.6213559,11 Z M81.6065359,12.2681206 C81.064258,11.8142533 80.3659957,11.5 79.6026991,11.5 C78.8408695,11.5 78.1435851,11.8137668 77.6013072,12.2656883 L79.6026991,14.5 L81.6065359,12.2681206 L81.6065359,12.2681206 Z" id="wifi-@2x" fill="#0C0000"></path>
                <text id="Yext" font-family="HelveticaNeue, Helvetica Neue" font-size="12" font-weight="normal" fill="#000000">
                    <tspan x="45.0588235" y="13.5">Yext</tspan>
                </text>
                <path d="M8.01045752,13 C6.35143736,13 5.00653595,11.6568543 5.00653595,10 C5.00653595,8.34314567 6.35143736,7 8.01045752,7 C9.66947767,7 11.0143791,8.34314567 11.0143791,10 C11.0143791,11.6568543 9.66947767,13 8.01045752,13 Z M15.0196078,13 C13.3605877,13 12.0156863,11.6568543 12.0156863,10 C12.0156863,8.34314567 13.3605877,7 15.0196078,7 C16.678628,7 18.0235294,8.34314567 18.0235294,10 C18.0235294,11.6568543 16.678628,13 15.0196078,13 Z M22.0287582,13 C20.369738,13 19.0248366,11.6568543 19.0248366,10 C19.0248366,8.34314567 20.369738,7 22.0287582,7 C23.6877783,7 25.0326797,8.34314567 25.0326797,10 C25.0326797,11.6568543 23.6877783,13 22.0287582,13 Z M29.5385621,13 C27.8795419,13 26.5346405,11.6568543 26.5346405,10 C26.5346405,8.34314567 27.8795419,7 29.5385621,7 C31.1975822,7 32.5424837,8.34314567 32.5424837,10 C32.5424837,11.6568543 31.1975822,13 29.5385621,13 Z M29.5385621,12.5 C30.9210789,12.5 32.0418301,11.3807119 32.0418301,10 C32.0418301,8.61928806 30.9210789,7.5 29.5385621,7.5 C28.1560453,7.5 27.0352941,8.61928806 27.0352941,10 C27.0352941,11.3807119 28.1560453,12.5 29.5385621,12.5 Z M36.5477124,13 C34.8886923,13 33.5437908,11.6568543 33.5437908,10 C33.5437908,8.34314567 34.8886923,7 36.5477124,7 C38.2067326,7 39.551634,8.34314567 39.551634,10 C39.551634,11.6568543 38.2067326,13 36.5477124,13 Z M36.5477124,12.5 C37.9302292,12.5 39.0509804,11.3807119 39.0509804,10 C39.0509804,8.61928806 37.9302292,7.5 36.5477124,7.5 C35.1651956,7.5 34.0444444,8.61928806 34.0444444,10 C34.0444444,11.3807119 35.1651956,12.5 36.5477124,12.5 Z" id="signal-@2x" fill="#000000"></path>
            </g>
            <rect id="Rectangle-12" stroke="#3A5868" stroke-width="1.5" x="0.25" y="38.25" width="383" height="29.5"></rect>
            <g id="Group-2" transform="translate(28.000000, 38.000000)">
                <text id="SweetTooth" font-family="Roboto-Black, Roboto" font-size="18" font-weight="700" letter-spacing="1.73571444" fill="#3A5868">
                    <tspan x="107" y="22.5">SweetTooth</tspan>
                </text>
                <rect id="Rectangle" fill="#000000" x="298.5" y="0" width="57.7569832" height="31"></rect>
                <polygon id="Rectangle-43-Copy" stroke="#3A5868" stroke-width="2.76950002" fill="#FFFFFF" points="0.700374243 15.3820484 10.5600004 8.28941132 10.1576836 8 0.176245075 15.1802642 0.294080952 15.2650308 0 15.4765814 10.0579212 22.7118644 10.4738145 22.4126867"></polygon>
            </g>
            <path d="M26.5,215.5 L364,215.5 L26.5,215.5 Z" id="Line-2" stroke="#3A5868" stroke-width="3.21099997" fill="#4D5B69" opacity="0.849999964" transform="translate(195.250000, 215.750000) scale(1, -1) translate(-195.250000, -215.750000) "></path>
            <path d="M26.5,354.5 L364,354.5 L26.5,354.5 Z" id="Line-2-Copy" stroke="#3A5868" stroke-width="3.21099997" fill="#4D5B69" opacity="0.849999964" transform="translate(195.250000, 354.750000) scale(1, -1) translate(-195.250000, -354.750000) "></path>
            <g id="Group-4" transform="translate(28.000000, 87.000000)">
                <text id="Alerts" font-family="Roboto-Regular, Roboto" font-size="10.5" font-weight="normal" letter-spacing="0.699999809" fill="#302F2E">
                    <tspan x="19" y="14">Alerts</tspan>
                </text>
                <path d="M13.6178428,11.2 L13.8521658,11.2 C14.0359485,11.2 14.1903261,11.2676667 14.31392,11.4025333 C14.4379733,11.5383333 14.5,11.704 14.5,11.9 C14.5,12.0866667 14.4407301,12.2728667 14.3212713,12.4595333 C14.201353,12.6466667 14.0593808,12.7722 13.8935169,12.838 C13.6913559,12.922 13.401898,13.0293333 13.0256028,13.1595333 C12.6483887,13.2911333 11.8787984,13.4633333 10.7163725,13.6775333 C9.55394658,13.8926667 8.3984125,14 7.24977027,14 C6.10112805,14 4.97316138,13.9043333 3.86587027,13.713 C2.75857917,13.5216667 1.93844862,13.3275333 1.40547863,13.1315333 L0.606023638,12.8515333 C0.440619158,12.7866667 0.297728065,12.6583333 0.17872873,12.467 C0.0592699388,12.2756667 0,12.0866667 0,11.9 C0,11.704 0.0620266802,11.5383333 0.185620584,11.4025333 C0.309673944,11.2676667 0.463592002,11.2 0.647374758,11.2 L0.882157229,11.2 L2.50817516,8.77753333 L3.37700814,4.2 C3.51438575,3.48086667 3.86357299,2.82753333 4.4241104,2.23953333 C4.98510726,1.65153333 5.64626572,1.2642 6.40896416,1.07753333 L6.16085744,0.63 C6.10572261,0.453133333 6.11950632,0.303333333 6.20266802,0.181533333 C6.28537026,0.0602 6.4181533,0 6.60193606,0 L7.89806394,0 C8.0818467,0 8.21462974,0.0494666667 8.29733198,0.147 C8.38003422,0.245 8.39427739,0.382666667 8.3386831,0.559533333 L8.09057638,1.07753333 C8.85373428,1.25486667 9.51489274,1.6408 10.0758896,2.233 C10.6355081,2.82566667 10.9851548,3.48086667 11.1229919,4.2 L11.9918248,8.77753333 L13.6178428,11.2 L13.6178428,11.2 L13.6178428,11.2 L13.6178428,11.2 Z M7.50682927,15.5817934 C6.98,15.5817934 6.47756098,15.5549833 6,15.5 C6.11707317,15.945774 6.31170732,16.3070282 6.58487805,16.5837625 C6.85804878,16.8614056 7.16536585,17 7.50682927,17 C7.84829268,17 8.15560976,16.8614056 8.42926829,16.5837625 C8.70195122,16.3070282 8.89219512,15.945774 9,15.5 C8.53121951,15.5549833 8.03365854,15.5817934 7.50682927,15.5817934 L7.50682927,15.5817934 Z" id="Fill-197" fill="#3A5868"></path>
            </g>
            <g id="Group-8" transform="translate(27.500000, 225.000000)">
                <text id="Tasks" font-family="Roboto-Regular, Roboto" font-size="10.5" font-weight="normal" fill="#302F2E">
                    <tspan x="19.5" y="13.5">Tasks</tspan>
                </text>
                <path d="M0,1.875 L0,0.625 C0,0.45 0.0604166667,0.302083333 0.18125,0.18125 C0.302083333,0.0608333333 0.45,0 0.625,0 L1.875,0 C2.05,0 2.19791667,0.0608333333 2.31916667,0.18125 C2.43958333,0.302083333 2.5,0.45 2.5,0.625 L2.5,1.875 C2.5,2.04166667 2.43958333,2.1875 2.31916667,2.3125 C2.19791667,2.4375 2.05,2.5 1.875,2.5 L0.625,2.5 C0.45,2.5 0.302083333,2.4375 0.18125,2.3125 C0.0604166667,2.1875 0,2.04166667 0,1.875 C0,1.875 0,2.04166667 0,1.875 L0,1.875 L0,1.875 Z M0,5.875 L0,4.625 C0,4.45 0.0604166667,4.30208333 0.18125,4.18125 C0.302083333,4.06083333 0.45,4 0.625,4 L1.875,4 C2.05,4 2.19791667,4.06083333 2.31916667,4.18125 C2.43958333,4.30208333 2.5,4.45 2.5,4.625 L2.5,5.875 C2.5,6.04166667 2.43958333,6.1875 2.31916667,6.3125 C2.19791667,6.4375 2.05,6.5 1.875,6.5 L0.625,6.5 C0.45,6.5 0.302083333,6.4375 0.18125,6.3125 C0.0604166667,6.1875 0,6.04166667 0,5.875 C0,5.875 0,6.04166667 0,5.875 L0,5.875 L0,5.875 Z M0,9.875 L0,8.625 C0,8.45 0.0604166667,8.30208333 0.18125,8.18125 C0.302083333,8.06083333 0.45,8 0.625,8 L1.875,8 C2.05,8 2.19791667,8.06083333 2.31916667,8.18125 C2.43958333,8.30208333 2.5,8.45 2.5,8.625 L2.5,9.875 C2.5,10.0416667 2.43958333,10.1875 2.31916667,10.3125 C2.19791667,10.4375 2.05,10.5 1.875,10.5 L0.625,10.5 C0.45,10.5 0.302083333,10.4375 0.18125,10.3125 C0.0604166667,10.1875 0,10.0416667 0,9.875 C0,9.875 0,10.0416667 0,9.875 L0,9.875 L0,9.875 Z M0,14.375 L0,13.125 C0,12.95 0.0604166667,12.8020833 0.18125,12.68125 C0.302083333,12.5608333 0.45,12.5 0.625,12.5 L1.875,12.5 C2.05,12.5 2.19791667,12.5608333 2.31916667,12.68125 C2.43958333,12.8020833 2.5,12.95 2.5,13.125 L2.5,14.375 C2.5,14.5416667 2.43958333,14.6875 2.31916667,14.8125 C2.19791667,14.9375 2.05,15 1.875,15 L0.625,15 C0.45,15 0.302083333,14.9375 0.18125,14.8125 C0.0604166667,14.6875 0,14.5416667 0,14.375 C0,14.375 0,14.5416667 0,14.375 L0,14.375 L0,14.375 Z M4,1.875 L4,0.625 C4,0.45 4.06444444,0.302083333 4.19333333,0.18125 C4.32222222,0.0608333333 4.48,0 4.66666667,0 L15.3333333,0 C15.52,0 15.6777778,0.0608333333 15.8071111,0.18125 C15.9355556,0.302083333 16,0.45 16,0.625 L16,1.875 C16,2.04166667 15.9355556,2.1875 15.8071111,2.3125 C15.6777778,2.4375 15.52,2.5 15.3333333,2.5 L4.66666667,2.5 C4.48,2.5 4.32222222,2.4375 4.19333333,2.3125 C4.06444444,2.1875 4,2.04166667 4,1.875 C4,1.875 4,2.04166667 4,1.875 L4,1.875 L4,1.875 Z M4,5.875 L4,4.625 C4,4.45 4.06444444,4.30208333 4.19333333,4.18125 C4.32222222,4.06083333 4.48,4 4.66666667,4 L15.3333333,4 C15.52,4 15.6777778,4.06083333 15.8071111,4.18125 C15.9355556,4.30208333 16,4.45 16,4.625 L16,5.875 C16,6.04166667 15.9355556,6.1875 15.8071111,6.3125 C15.6777778,6.4375 15.52,6.5 15.3333333,6.5 L4.66666667,6.5 C4.48,6.5 4.32222222,6.4375 4.19333333,6.3125 C4.06444444,6.1875 4,6.04166667 4,5.875 C4,5.875 4,6.04166667 4,5.875 L4,5.875 L4,5.875 Z M4,9.875 L4,8.625 C4,8.45 4.06444444,8.30208333 4.19333333,8.18125 C4.32222222,8.06083333 4.48,8 4.66666667,8 L15.3333333,8 C15.52,8 15.6777778,8.06083333 15.8071111,8.18125 C15.9355556,8.30208333 16,8.45 16,8.625 L16,9.875 C16,10.0416667 15.9355556,10.1875 15.8071111,10.3125 C15.6777778,10.4375 15.52,10.5 15.3333333,10.5 L4.66666667,10.5 C4.48,10.5 4.32222222,10.4375 4.19333333,10.3125 C4.06444444,10.1875 4,10.0416667 4,9.875 C4,9.875 4,10.0416667 4,9.875 L4,9.875 L4,9.875 Z M4,14.375 L4,13.125 C4,12.95 4.06444444,12.8020833 4.19333333,12.68125 C4.32222222,12.5608333 4.48,12.5 4.66666667,12.5 L15.3333333,12.5 C15.52,12.5 15.6777778,12.5608333 15.8071111,12.68125 C15.9355556,12.8020833 16,12.95 16,13.125 L16,14.375 C16,14.5416667 15.9355556,14.6875 15.8071111,14.8125 C15.6777778,14.9375 15.52,15 15.3333333,15 L4.66666667,15 C4.48,15 4.32222222,14.9375 4.19333333,14.8125 C4.06444444,14.6875 4,14.5416667 4,14.375 L4,14.375 Z" id="task-icon" fill="#3A5868"></path>
            </g>
            <text id="Calendar" font-family="Roboto-Regular, Roboto" font-size="10.5" font-weight="normal" fill="#302F2E">
                <tspan x="47" y="377">Calendar</tspan>
            </text>
            <path d="M28,366 L28,363.75 C28,363.54 28.0681061,363.3625 28.2047879,363.217 C28.3405303,363.0725 28.5072727,363 28.7045455,363 L30.8181818,363 L30.8181818,361.5 L32.2272727,361.5 L32.2272727,363 L39.2727273,363 L39.2727273,361.5 L40.6818182,361.5 L40.6818182,363 L42.7954545,363 C42.9927273,363 43.1599394,363.0725 43.2956818,363.217 C43.4318939,363.3625 43.5,363.54 43.5,363.75 L43.5,366 L28,366 L28,366 L28,366 L28,366 Z M43.5,367.5 L43.5,378.75 C43.5,378.95 43.4318939,379.125 43.2956818,379.2745 C43.1599394,379.425 42.9927273,379.5 42.7954545,379.5 L28.7045455,379.5 C28.5072727,379.5 28.3405303,379.425 28.2047879,379.2745 C28.0681061,379.125 28,378.95 28,378.75 L28,367.5 L43.5,367.5 L43.5,367.5 L43.5,367.5 L43.5,367.5 Z M29.5,372 L31,372 L31,370.5 L29.5,370.5 L29.5,370.5 L29.5,372 L29.5,372 Z M29.5,375 L31,375 L31,373.5 L29.5,373.5 L29.5,373.5 L29.5,375 L29.5,375 Z M29.5,378 L31,378 L31,376.5 L29.5,376.5 L29.5,376.5 L29.5,378 L29.5,378 Z M32,372 L33.5,372 L33.5,370.5 L32,370.5 L32,370.5 L32,372 L32,372 Z M32,375 L33.5,375 L33.5,373.5 L32,373.5 L32,373.5 L32,375 L32,375 Z M32,378 L33.5,378 L33.5,376.5 L32,376.5 L32,376.5 L32,378 L32,378 Z M35,372 L36.5,372 L36.5,370.5 L35,370.5 L35,370.5 L35,372 L35,372 Z M35,375 L36.5,375 L36.5,373.5 L35,373.5 L35,373.5 L35,375 L35,375 Z M35,378 L36.5,378 L36.5,376.5 L35,376.5 L35,376.5 L35,378 L35,378 Z M38,372 L39.5,372 L39.5,370.5 L38,370.5 L38,370.5 L38,372 L38,372 Z M38,375 L39.5,375 L39.5,373.5 L38,373.5 L38,373.5 L38,375 L38,375 Z M38,378 L39.5,378 L39.5,376.5 L38,376.5 L38,376.5 L38,378 L38,378 Z M40.5,372 L42,372 L42,370.5 L40.5,370.5 L40.5,370.5 L40.5,372 L40.5,372 Z M40.5,375 L42,375 L42,373.5 L40.5,373.5 L40.5,373.5 L40.5,375 L40.5,375 Z M40.5,378 L42,378 L42,376.5 L40.5,376.5 L40.5,376.5 L40.5,378 L40.5,378 Z" id="Fill-192" fill="#3A5868"></path>
            <path d="M44.5,421.5 L357,421.5" id="Line-Copy-22" stroke="#979797" stroke-width="0.5" opacity="0.501415308" stroke-linecap="square"></path>
            <text id="TODAY" stroke="#78A9C2" stroke-width="0.5" font-family="Roboto-Bold, Roboto" font-size="10.5" font-weight="bold" fill="#3A5868">
                <tspan x="28" y="401">TODAY</tspan>
            </text>
            <path d="M45,441.25 L357.5,441.25" id="Line-Copy-23" stroke="#979797" stroke-width="0.5" opacity="0.501415308" stroke-linecap="square"></path>
            <path d="M44.5,461 L357,461" id="Line-Copy-23" stroke="#979797" stroke-width="0.5" opacity="0.501415308" stroke-linecap="square"></path>
            <g id="Group-6" transform="translate(179.000000, 476.500000)">
                <ellipse id="Oval-3" stroke="#78A9C2" stroke-width="0.609870246" fill="#78A9C2" cx="12.5" cy="13.25" rx="12.5" ry="13.25"></ellipse>
                <polygon id="Fill-2" fill="#3A5868" points="14.8636364 15.9545455 14.8636364 22.5 10.6363636 22.5 10.6363636 15.9545455 5 15.9545455 5 11.0454545 10.6363636 11.0454545 10.6363636 4.5 14.8636364 4.5 14.8636364 11.0454545 20.5 11.0454545 20.5 15.9545455"></polygon>
            </g>
            <g id="Group-5" transform="translate(28.000000, 112.000000)">
                <path d="M15.5,31 L328,31" id="Line-Copy-22" stroke="#979797" stroke-width="0.5" opacity="0.501415308" stroke-linecap="square"></path>
                <path d="M16,65 L328.5,65" id="Line-Copy-23" stroke="#979797" stroke-width="0.5" opacity="0.501415308" stroke-linecap="square"></path>
                <text id="TODAY" stroke="#78A9C2" stroke-width="0.5" font-family="Roboto-Bold, Roboto" font-size="10.5" font-weight="bold" fill="#3A5868">
                    <tspan x="0" y="11">TODAY</tspan>
                </text>
                <path d="M16,49 L328.5,49" id="Line-Copy-23" stroke="#979797" stroke-width="0.5" opacity="0.501415308" stroke-linecap="square"></path>
                <path d="M16,81.5 L328.5,81.5" id="Line-Copy-23" stroke="#979797" stroke-width="0.5" opacity="0.501415308" stroke-linecap="square"></path>
                <text id="11:00-AM-Initial-mtg" opacity="0.900000036" font-family="Roboto-Regular, Roboto" font-size="9" font-weight="normal" letter-spacing="0.314999998" fill="#4A4A4A">
                    <tspan x="19" y="27.5">11:00 AM   Initial mtg w/Bob Corkly (Wine of Wonders)</tspan>
                </text>
                <text id="SweetTooth-brouchure" opacity="0.900000036" font-family="Roboto-Regular, Roboto" font-size="9" font-weight="normal" letter-spacing="0.314999998" fill="#4A4A4A">
                    <tspan x="66.5" y="46.5">SweetTooth brouchure edits due</tspan>
                </text>
            </g>
            <text id="9:00-AM" opacity="0.900000036" font-family="Roboto-Regular, Roboto" font-size="9" font-weight="normal" letter-spacing="0.314999998" fill="#4A4A4A">
                <tspan x="49" y="419">9:00 </tspan>
                <tspan x="70.1438476" y="419" font-size="7.5">AM</tspan>
            </text>
            <text id="Weekly-check-in-meet" opacity="0.900000036" font-family="Roboto-Regular, Roboto" font-size="9" font-weight="normal" letter-spacing="0.314999998" fill="#4A4A4A">
                <tspan x="96" y="419">Weekly check-in meeting w/SweetTooth team</tspan>
            </text>
            <text id="11:30-AM" opacity="0.900000036" font-family="Roboto-Regular, Roboto" font-size="9" font-weight="normal" letter-spacing="0.314999998" fill="#4A4A4A">
                <tspan x="43.5" y="439">11:30 </tspan>
                <tspan x="70.0125586" y="439" font-size="7.5">AM</tspan>
            </text>
            <text id="5:30-PM" opacity="0.900000036" font-family="Roboto-Regular, Roboto" font-size="9" font-weight="normal" letter-spacing="0.314999998" fill="#4A4A4A">
                <tspan x="48.5" y="459">5:30 </tspan>
                <tspan x="69.6438476" y="459" font-size="7.5">PM</tspan>
            </text>
            <text id="Pick-up-JT-at-airpor" opacity="0.900000036" font-family="Roboto-Regular, Roboto" font-size="9" font-weight="normal" letter-spacing="0.314999998" fill="#4A4A4A">
                <tspan x="96.5" y="459">Pick up JT at airport</tspan>
            </text>
            <text id="Lunch-with-Mary" opacity="0.900000036" font-family="Roboto-Regular, Roboto" font-size="9" font-weight="normal" letter-spacing="0.314999998" fill="#4A4A4A">
                <tspan x="96.5" y="439">Lunch with Mary</tspan>
            </text>
            <text id="September-17,-2017" opacity="0.900000036" font-family="Roboto-Regular, Roboto" font-size="5.5" font-weight="normal" letter-spacing="0.465000004" fill="#000000">
                <tspan x="163.55397" y="31">September 17, 201</tspan>
                <tspan x="217.357651" y="31">7</tspan>
            </text>
            <g id="Group-7" transform="translate(26.500000, 260.000000)">
                <g id="Task-date-block" transform="translate(280.500000, 1.000000)">
                    <text id="/-/-copy-3" font-family="Roboto-Medium, Roboto" font-size="11.41371" font-weight="400" letter-spacing="0.583367407" fill="#302F2E">
                        <tspan x="15" y="22.5">/   </tspan>
                        <tspan x="30.374525" y="22.5">/</tspan>
                    </text>
                    <text id="9" font-family="Roboto-Medium, Roboto" font-size="6.975045" font-weight="400" letter-spacing="0.406877637" fill="#302F2E">
                        <tspan x="5.5" y="21"> 9</tspan>
                    </text>
                    <text id="17" font-family="Roboto-Medium, Roboto" font-size="6.975045" font-weight="400" letter-spacing="0.406877637" fill="#302F2E">
                        <tspan x="20.5" y="21">17</tspan>
                    </text>
                    <text id="Due" font-family="Roboto-Medium, Roboto" font-size="6.975045" font-weight="400" letter-spacing="0.244126573" fill="#4A4A4A">
                        <tspan x="0" y="7">Due</tspan>
                    </text>
                    <text id="17-copy-2" font-family="Roboto-Medium, Roboto" font-size="6.975045" font-weight="400" letter-spacing="0.406877637" fill="#302F2E">
                        <tspan x="37" y="21">17</tspan>
                    </text>
                    <rect id="Rectangle-6" stroke="#302F2E" stroke-width="0.634095" opacity="0.211956522" x="0.3170475" y="10.3170475" width="49.365905" height="15.865905"></rect>
                </g>
                <path d="M17.5,28.5 L330,28.5" id="Line-Copy-22" stroke="#979797" stroke-width="0.5" opacity="0.501415308" stroke-linecap="square"></path>
                <path d="M17.5,61.5 L330,61.5" id="Line-Copy-23" stroke="#979797" stroke-width="0.5" opacity="0.501415308" stroke-linecap="square"></path>
                <g id="Task-date-block" transform="translate(280.000000, 34.000000)">
                    <text id="/-/-copy-3" font-family="Roboto-Medium, Roboto" font-size="11.41371" font-weight="400" letter-spacing="0.583367407" fill="#302F2E">
                        <tspan x="15" y="23">/   </tspan>
                        <tspan x="30.374525" y="23">/</tspan>
                    </text>
                    <text id="9" font-family="Roboto-Medium, Roboto" font-size="6.975045" font-weight="400" letter-spacing="0.406877637" fill="#302F2E">
                        <tspan x="5.5" y="21"> 9</tspan>
                    </text>
                    <text id="22" font-family="Roboto-Medium, Roboto" font-size="6.975045" font-weight="400" letter-spacing="0.406877637" fill="#302F2E">
                        <tspan x="20.5" y="21">22</tspan>
                    </text>
                    <text id="Due" font-family="Roboto-Medium, Roboto" font-size="6.975045" font-weight="400" letter-spacing="0.244126573" fill="#4A4A4A">
                        <tspan x="0" y="7">Due</tspan>
                    </text>
                    <text id="17-copy-2" font-family="Roboto-Medium, Roboto" font-size="6.975045" font-weight="400" letter-spacing="0.406877637" fill="#302F2E">
                        <tspan x="37" y="21">17</tspan>
                    </text>
                    <rect id="Rectangle-6" stroke="#302F2E" stroke-width="0.634095" opacity="0.211956522" x="0.3170475" y="10.3170475" width="49.365905" height="15.865905"></rect>
                </g>
                <text id="Agenda-for-Sept.-27" font-family="Roboto-MediumItalic, Roboto" font-size="9" font-style="italic" font-weight="500" letter-spacing="0.314999998" fill="#4A4A4A">
                    <tspan x="20.5" y="44">Agenda for Sept. 27 mtg  </tspan>
                </text>
                <text id="Review-SweetTooth-br" font-family="Roboto-MediumItalic, Roboto" font-size="9" font-style="italic" font-weight="500" letter-spacing="0.314999998" fill="#4A4A4A">
                    <tspan x="20.5" y="10.5">Review SweetTooth brochure edits</tspan>
                </text>
                <path d="M255.497176,24.9249083 L258.008736,22.3207525 L260.510699,19.7881432 C261.112613,19.1710125 261.436899,18.5199735 261.483225,17.8346872 C261.53617,17.1704241 261.36774,16.5749947 260.977273,16.0497554 C260.586145,15.523838 260.076884,15.204083 259.448167,15.0881167 C259.295951,15.06099 259.137117,15.0477658 258.971666,15.0477658 C258.614289,15.0477658 258.258568,15.1379618 257.904832,15.3173366 C257.550434,15.4967114 257.272806,15.6801552 257.070623,15.8663117 C256.868772,16.0531463 256.596107,16.3227171 256.251637,16.6750241 L252.797001,20.2153875 C252.66464,20.3513597 252.519042,20.4897054 252.360208,20.6321202 C252.108721,20.8762598 251.923415,21.0597036 251.80429,21.1817734 C251.685495,21.3035041 251.546516,21.4730455 251.387351,21.6903976 C251.228517,21.9074106 251.124614,22.1206936 251.074647,22.3312641 C251.025012,22.5411563 251.016408,22.76529 251.05016,23.0023089 C251.109723,23.4295532 251.28808,23.7554118 251.585893,23.9792064 C251.883707,24.203001 252.214611,24.3148984 252.578605,24.3148984 C253.061724,24.3148984 253.475354,24.1385753 253.819494,23.7855901 L259.249625,18.2212416 C259.488206,17.9777802 259.554056,17.7234681 259.448167,17.4583053 C259.349227,17.2148439 259.173517,17.0920959 258.92203,17.0920959 C258.743673,17.0920959 258.57789,17.1704241 258.425674,17.3260631 C258.299931,17.4345695 258.170878,17.5637601 258.038517,17.7126174 L254.296326,21.5069538 L253.611024,20.8253974 L253.680514,20.7545291 L257.532565,16.7258865 C257.757249,16.4953102 257.980278,16.3227171 258.202314,16.2074289 C258.42402,16.0921408 258.687088,16.0344967 258.991851,16.0344967 C259.051413,16.0344967 259.147045,16.0412784 259.279406,16.0545026 C259.875364,16.1701298 260.262521,16.5227759 260.440878,17.11278 C260.54048,17.4311787 260.550077,17.7570373 260.47066,18.0889993 C260.391243,18.4213005 260.236049,18.70613 260.004416,18.943827 L256.092803,22.9517856 C255.979965,23.0670737 255.79168,23.2739142 255.526957,23.5726461 C255.269183,23.8639183 255.071965,24.0812703 254.936294,24.223346 C254.800624,24.3657608 254.626899,24.5200434 254.415452,24.6858549 C254.203342,24.8520055 253.988255,24.9896731 253.769858,25.0985187 C253.399577,25.2877269 253.005471,25.3830091 252.588532,25.3830091 C252.125267,25.3830091 251.698401,25.2745026 251.307934,25.0571506 C250.917799,24.8401376 250.606418,24.538693 250.374786,24.1521386 C250.057449,23.6228304 249.941633,23.0365563 250.027337,22.392299 C250.113703,21.7480417 250.381404,21.1956758 250.831764,20.7338451 L255.914115,15.5258725 C256.383998,15.044375 256.75097,14.7219073 257.016024,14.5594866 C257.611982,14.1868346 258.263531,14 258.971666,14 C259.521297,14 260.02394,14.1118973 260.480918,14.335692 C261.003415,14.5794925 261.43359,14.9290868 261.771111,15.3834578 C262.108964,15.8378287 262.33067,16.3596771 262.436228,16.9496812 C262.548735,17.5803751 262.512336,18.2008966 262.327361,18.8115847 C262.141724,19.4219338 261.827034,19.9546328 261.383954,20.4086647 L256.251637,25.6071429 L255.566666,24.9964548 L255.497176,24.9249083" id="Fill-194-Copy" stroke="#3A5868" stroke-width="0.5127606" fill="#78A9C2" transform="translate(256.250000, 19.803571) scale(-1, 1) translate(-256.250000, -19.803571) "></path>
                <g id="Group-3">
                    <g id="Group-6" fill="#D7F2F0" stroke="#78A9C2" stroke-width="0.609870246">
                        <ellipse id="Oval-3" cx="6.75" cy="7" rx="6.75" ry="7"></ellipse>
                    </g>
                    <text id="10" font-family="Roboto-Medium, Roboto" font-size="6" font-weight="400" letter-spacing="0.350000024" fill="#302F2E">
                        <tspan x="1.5" y="9"> 10</tspan>
                    </text>
                </g>
                <g id="Group-6" transform="translate(0.000000, 33.500000)">
                    <ellipse id="Oval-3" stroke="#78A9C2" stroke-width="0.609870246" fill="#D7F2F0" cx="6.75" cy="7" rx="6.75" ry="7"></ellipse>
                    <text id="6" font-family="Roboto-Medium, Roboto" font-size="6" font-weight="400" letter-spacing="0.349999994" fill="#302F2E">
                        <tspan x="5" y="9.5">6</tspan>
                    </text>
                </g>
                <g id="Rectangle-7">
                    <use fill-opacity="0.61" fill="#78A9C2" fill-rule="evenodd" xlink:href="#path-1"></use>
                    <rect stroke="#979797" stroke-width="0.5" x="31.25" y="48.75" width="11" height="11.5"></rect>
                </g>
                <text id="KF" stroke="#4A4A4A" font-family="Roboto-Regular, Roboto" font-size="6" font-weight="normal" letter-spacing="0.314999998" fill="#4A4A4A">
                    <tspan x="33.1459375" y="57">KF</tspan>
                </text>
                <g id="Rectangle-7">
                    <use fill-opacity="0.61" fill="#78A9C2" fill-rule="evenodd" xlink:href="#path-2"></use>
                    <rect stroke="#979797" stroke-width="0.5" x="31.75" y="15.75" width="11" height="11.5"></rect>
                </g>
                <text id="KF" stroke="#4A4A4A" font-family="Roboto-Regular, Roboto" font-size="6" font-weight="normal" letter-spacing="0.314999998" fill="#4A4A4A">
                    <tspan x="33.5" y="24">KF</tspan>
                </text>
                <g id="Rectangle-7">
                    <use fill-opacity="0.61" fill="#78A9C2" fill-rule="evenodd" xlink:href="#path-3"></use>
                    <rect stroke="#979797" stroke-width="0.5" x="48.25" y="15.75" width="11" height="11.5"></rect>
                </g>
                <text id="LM" stroke="#4A4A4A" font-family="Roboto-Regular, Roboto" font-size="6" font-weight="normal" letter-spacing="0.314999998" fill="#4A4A4A">
                    <tspan x="49" y="24">LM</tspan>
                </text>
                <g id="Rectangle-7">
                    <use fill-opacity="0.61" fill="#78A9C2" fill-rule="evenodd" xlink:href="#path-4"></use>
                    <rect stroke="#979797" stroke-width="0.5" x="64.75" y="15.75" width="11" height="11.5"></rect>
                </g>
                <text id="AB" stroke="#4A4A4A" font-family="Roboto-Regular, Roboto" font-size="6" font-weight="normal" letter-spacing="0.314999998" fill="#4A4A4A">
                    <tspan x="66" y="24">AB</tspan>
                </text>
                <g id="Group" transform="translate(66.000000, 18.500000)"></g>
            </g>
        </g>
    </g>
</svg>