<?xml version="1.0" encoding="UTF-8"?>
<svg width="384px" height="512px" viewBox="0 0 384 512" version="1.1" xmlns="http://www.w3.org/2000/svg" xmlns:xlink="http://www.w3.org/1999/xlink" style="background: #FFFFFF;">
    <!-- Generator: Sketch 48.2 (47327) - http://www.bohemiancoding.com/sketch -->
    <title>T09</title>
    <desc>Created with Sketch.</desc>
    <defs>
        <rect id="path-1" x="31.5" y="15.5" width="11.5" height="12"></rect>
        <rect id="path-2" x="31" y="48.5" width="11.5" height="12"></rect>
        <rect id="path-3" x="48" y="15.5" width="11.5" height="12"></rect>
        <rect id="path-4" x="65" y="15.5" width="11.5" height="12"></rect>
        <rect id="path-5" x="27" y="359.5" width="330.5" height="115.5"></rect>
    </defs>
    <g id="Page-1" stroke="none" stroke-width="1" fill="none" fill-rule="evenodd">
        <g id="Artboard" transform="translate(-560.000000, -2512.000000)"></g>
        <g id="T09">
            <g id="StatusBar-Light-iPhone6-Copy" transform="translate(1.500000, 0.000000)">
                <rect id="Background" fill="#FFFFFF" x="0" y="0" width="381" height="20.5"></rect>
                <path d="M349.5,6.5 C349.5,5.67157288 350.171573,5 351,5 L371.5,5 C372.328427,5 373,5.67157288 373,6.5 L373,14 C373,14.8284271 372.328427,15.5 371.5,15.5 L351,15.5 C350.171573,15.5 349.5,14.8284271 349.5,14 L349.5,6.5 Z M350,7 L350,13.5 C350,14.3284271 350.671573,15 351.5,15 L371,15 C371.828427,15 372.5,14.3284271 372.5,13.5 L372.5,7 C372.5,6.17157288 371.828427,5.5 371,5.5 L351.5,5.5 C350.671573,5.5 350,6.17157288 350,7 Z M350.5,7.5 C350.5,6.67157288 351.171573,6 352,6 L361.5,6 L361.5,14.5 L352,14.5 C351.171573,14.5 350.5,13.8284271 350.5,13 L350.5,7.5 Z M376,10 C376,11.0178721 375.130764,11.8599457 374,12 L374,8 C375.130764,8.14005431 376,8.98212794 376,10 Z" id="battery-@2x" fill="#000000"></path>
                <text id="49%" font-family="HelveticaNeue, Helvetica Neue" font-size="12" font-weight="normal" line-spacing="12" fill="#000000">
                    <tspan x="321.5" y="16">49%</tspan>
                </text>
                <path d="M313.5,11.5 L315,13 L313.5,14.5 L313.5,11.5 Z M313.5,9 L313.5,6 L315,7.5 L313.5,9 Z M316.5,7.64722653 L312.528486,3.5 L312.528486,9.20243648 L309.5,6.09201658 L308.5,7.12882321 L311.95349,10.2504999 L308.5,13.349663 L309.5,14.3864696 L312.528486,11.2760497 L312.528486,17 L316.5,12.8312597 L314,10.2504998 L316.5,7.64722653 Z" id="bluetooth-@2x-copy" fill="#535353"></path>
                <text id="9:49-AM" font-family="HelveticaNeue, Helvetica Neue" font-size="12" font-weight="normal" letter-spacing="0.599999905" fill="#000000">
                    <tspan x="166.192" y="14">9:49 AM</tspan>
                </text>
                <path d="M78.9957516,7.06231003 C80.9355242,7.06231003 82.7033612,7.79635258 84.0588529,9 L85,7.93262411 C83.394602,6.50101317 81.2978883,5.5 78.9957516,5.5 C76.6971136,5.5 74.6033987,6.49797366 73,7.92502533 L73.9391478,8.99392097 C75.2936399,7.79381966 77.0584781,7.06231003 78.9957516,7.06231003 L78.9957516,7.06231003 Z M82.0134951,11 L83,9.95755423 C81.926334,9.07591623 80.5297759,8.5 78.9975238,8.5 C77.4682432,8.5 76.0726755,9.07451384 75,9.95334705 L75.9850192,10.9971952 C76.7962115,10.3394727 77.8470967,9.9407255 78.9975238,9.9407255 C80.1494367,9.9407255 81.2018076,10.3408751 82.0134951,11 Z M81,12.2681206 C80.45843,11.8142533 79.7610792,11.5 78.9987791,11.5 C78.2379441,11.5 77.54157,11.8137668 77,12.2656883 L78.9987791,14.5 L81,12.2681206 L81,12.2681206 Z" id="wifi-@2x" fill="#0C0000"></path>
                <text id="Yext" font-family="HelveticaNeue, Helvetica Neue" font-size="12" font-weight="normal" fill="#000000">
                    <tspan x="44.5" y="13.5">Yext</tspan>
                </text>
                <path d="M8,13 C6.34314567,13 5,11.6568543 5,10 C5,8.34314567 6.34314567,7 8,7 C9.65685433,7 11,8.34314567 11,10 C11,11.6568543 9.65685433,13 8,13 Z M15,13 C13.3431457,13 12,11.6568543 12,10 C12,8.34314567 13.3431457,7 15,7 C16.6568543,7 18,8.34314567 18,10 C18,11.6568543 16.6568543,13 15,13 Z M22,13 C20.3431457,13 19,11.6568543 19,10 C19,8.34314567 20.3431457,7 22,7 C23.6568543,7 25,8.34314567 25,10 C25,11.6568543 23.6568543,13 22,13 Z M29.5,13 C27.8431457,13 26.5,11.6568543 26.5,10 C26.5,8.34314567 27.8431457,7 29.5,7 C31.1568543,7 32.5,8.34314567 32.5,10 C32.5,11.6568543 31.1568543,13 29.5,13 Z M29.5,12.5 C30.8807119,12.5 32,11.3807119 32,10 C32,8.61928806 30.8807119,7.5 29.5,7.5 C28.1192881,7.5 27,8.61928806 27,10 C27,11.3807119 28.1192881,12.5 29.5,12.5 Z M36.5,13 C34.8431457,13 33.5,11.6568543 33.5,10 C33.5,8.34314567 34.8431457,7 36.5,7 C38.1568543,7 39.5,8.34314567 39.5,10 C39.5,11.6568543 38.1568543,13 36.5,13 Z M36.5,12.5 C37.8807119,12.5 39,11.3807119 39,10 C39,8.61928806 37.8807119,7.5 36.5,7.5 C35.1192881,7.5 34,8.61928806 34,10 C34,11.3807119 35.1192881,12.5 36.5,12.5 Z" id="signal-@2x" fill="#000000"></path>
            </g>
            <rect id="Rectangle-12" stroke="#3A5868" stroke-width="1.5" x="0.75" y="38.25" width="383" height="29.5"></rect>
            <g id="Group-2" transform="translate(327.500000, 38.000000)" fill="#000000">
                <rect id="Rectangle" x="0" y="0" width="56.5" height="29.5"></rect>
            </g>
            <text id="SweetTooth" font-family="Roboto-Black, Roboto" font-size="18" font-weight="700" letter-spacing="1.73571444" fill="#3A5868">
                <tspan x="135" y="61.5">SweetTooth</tspan>
            </text>
            <path d="M26.5,215.5 L364,215.5 L26.5,215.5 Z" id="Line-2" stroke="#3A5868" stroke-width="3.21099997" fill="#4D5B69" opacity="0.849999964" transform="translate(195.250000, 215.750000) scale(1, -1) translate(-195.250000, -215.750000) "></path>
            <path d="M26.5,354.5 L364,354.5 L26.5,354.5 Z" id="Line-2-Copy" stroke="#3A5868" stroke-width="3.21099997" fill="#4D5B69" opacity="0.849999964" transform="translate(195.250000, 354.750000) scale(1, -1) translate(-195.250000, -354.750000) "></path>
            <g id="Group-4" transform="translate(28.000000, 87.000000)">
                <text id="Alerts" font-family="Roboto-Regular, Roboto" font-size="10.5" font-weight="normal" letter-spacing="0.699999809" fill="#302F2E">
                    <tspan x="19" y="14">Alerts</tspan>
                </text>
                <path d="M13.6178428,11.2 L13.8521658,11.2 C14.0359485,11.2 14.1903261,11.2676667 14.31392,11.4025333 C14.4379733,11.5383333 14.5,11.704 14.5,11.9 C14.5,12.0866667 14.4407301,12.2728667 14.3212713,12.4595333 C14.201353,12.6466667 14.0593808,12.7722 13.8935169,12.838 C13.6913559,12.922 13.401898,13.0293333 13.0256028,13.1595333 C12.6483887,13.2911333 11.8787984,13.4633333 10.7163725,13.6775333 C9.55394658,13.8926667 8.3984125,14 7.24977027,14 C6.10112805,14 4.97316138,13.9043333 3.86587027,13.713 C2.75857917,13.5216667 1.93844862,13.3275333 1.40547863,13.1315333 L0.606023638,12.8515333 C0.440619158,12.7866667 0.297728065,12.6583333 0.17872873,12.467 C0.0592699388,12.2756667 0,12.0866667 0,11.9 C0,11.704 0.0620266802,11.5383333 0.185620584,11.4025333 C0.309673944,11.2676667 0.463592002,11.2 0.647374758,11.2 L0.882157229,11.2 L2.50817516,8.77753333 L3.37700814,4.2 C3.51438575,3.48086667 3.86357299,2.82753333 4.4241104,2.23953333 C4.98510726,1.65153333 5.64626572,1.2642 6.40896416,1.07753333 L6.16085744,0.63 C6.10572261,0.453133333 6.11950632,0.303333333 6.20266802,0.181533333 C6.28537026,0.0602 6.4181533,0 6.60193606,0 L7.89806394,0 C8.0818467,0 8.21462974,0.0494666667 8.29733198,0.147 C8.38003422,0.245 8.39427739,0.382666667 8.3386831,0.559533333 L8.09057638,1.07753333 C8.85373428,1.25486667 9.51489274,1.6408 10.0758896,2.233 C10.6355081,2.82566667 10.9851548,3.48086667 11.1229919,4.2 L11.9918248,8.77753333 L13.6178428,11.2 L13.6178428,11.2 L13.6178428,11.2 L13.6178428,11.2 Z M7.50682927,15.5817934 C6.98,15.5817934 6.47756098,15.5549833 6,15.5 C6.11707317,15.945774 6.31170732,16.3070282 6.58487805,16.5837625 C6.85804878,16.8614056 7.16536585,17 7.50682927,17 C7.84829268,17 8.15560976,16.8614056 8.42926829,16.5837625 C8.70195122,16.3070282 8.89219512,15.945774 9,15.5 C8.53121951,15.5549833 8.03365854,15.5817934 7.50682927,15.5817934 L7.50682927,15.5817934 Z" id="Fill-197" fill="#3A5868"></path>
            </g>
            <g id="Group-10" transform="translate(27.500000, 225.000000)">
                <text id="Tasks" font-family="Roboto-Regular, Roboto" font-size="10.5" font-weight="normal" fill="#302F2E">
                    <tspan x="19.5" y="13.5">Tasks</tspan>
                </text>
                <path d="M0,1.875 L0,0.625 C0,0.45 0.0604166667,0.302083333 0.18125,0.18125 C0.302083333,0.0608333333 0.45,0 0.625,0 L1.875,0 C2.05,0 2.19791667,0.0608333333 2.31916667,0.18125 C2.43958333,0.302083333 2.5,0.45 2.5,0.625 L2.5,1.875 C2.5,2.04166667 2.43958333,2.1875 2.31916667,2.3125 C2.19791667,2.4375 2.05,2.5 1.875,2.5 L0.625,2.5 C0.45,2.5 0.302083333,2.4375 0.18125,2.3125 C0.0604166667,2.1875 0,2.04166667 0,1.875 C0,1.875 0,2.04166667 0,1.875 L0,1.875 L0,1.875 Z M0,5.875 L0,4.625 C0,4.45 0.0604166667,4.30208333 0.18125,4.18125 C0.302083333,4.06083333 0.45,4 0.625,4 L1.875,4 C2.05,4 2.19791667,4.06083333 2.31916667,4.18125 C2.43958333,4.30208333 2.5,4.45 2.5,4.625 L2.5,5.875 C2.5,6.04166667 2.43958333,6.1875 2.31916667,6.3125 C2.19791667,6.4375 2.05,6.5 1.875,6.5 L0.625,6.5 C0.45,6.5 0.302083333,6.4375 0.18125,6.3125 C0.0604166667,6.1875 0,6.04166667 0,5.875 C0,5.875 0,6.04166667 0,5.875 L0,5.875 L0,5.875 Z M0,9.875 L0,8.625 C0,8.45 0.0604166667,8.30208333 0.18125,8.18125 C0.302083333,8.06083333 0.45,8 0.625,8 L1.875,8 C2.05,8 2.19791667,8.06083333 2.31916667,8.18125 C2.43958333,8.30208333 2.5,8.45 2.5,8.625 L2.5,9.875 C2.5,10.0416667 2.43958333,10.1875 2.31916667,10.3125 C2.19791667,10.4375 2.05,10.5 1.875,10.5 L0.625,10.5 C0.45,10.5 0.302083333,10.4375 0.18125,10.3125 C0.0604166667,10.1875 0,10.0416667 0,9.875 C0,9.875 0,10.0416667 0,9.875 L0,9.875 L0,9.875 Z M0,14.375 L0,13.125 C0,12.95 0.0604166667,12.8020833 0.18125,12.68125 C0.302083333,12.5608333 0.45,12.5 0.625,12.5 L1.875,12.5 C2.05,12.5 2.19791667,12.5608333 2.31916667,12.68125 C2.43958333,12.8020833 2.5,12.95 2.5,13.125 L2.5,14.375 C2.5,14.5416667 2.43958333,14.6875 2.31916667,14.8125 C2.19791667,14.9375 2.05,15 1.875,15 L0.625,15 C0.45,15 0.302083333,14.9375 0.18125,14.8125 C0.0604166667,14.6875 0,14.5416667 0,14.375 C0,14.375 0,14.5416667 0,14.375 L0,14.375 L0,14.375 Z M4,1.875 L4,0.625 C4,0.45 4.06444444,0.302083333 4.19333333,0.18125 C4.32222222,0.0608333333 4.48,0 4.66666667,0 L15.3333333,0 C15.52,0 15.6777778,0.0608333333 15.8071111,0.18125 C15.9355556,0.302083333 16,0.45 16,0.625 L16,1.875 C16,2.04166667 15.9355556,2.1875 15.8071111,2.3125 C15.6777778,2.4375 15.52,2.5 15.3333333,2.5 L4.66666667,2.5 C4.48,2.5 4.32222222,2.4375 4.19333333,2.3125 C4.06444444,2.1875 4,2.04166667 4,1.875 C4,1.875 4,2.04166667 4,1.875 L4,1.875 L4,1.875 Z M4,5.875 L4,4.625 C4,4.45 4.06444444,4.30208333 4.19333333,4.18125 C4.32222222,4.06083333 4.48,4 4.66666667,4 L15.3333333,4 C15.52,4 15.6777778,4.06083333 15.8071111,4.18125 C15.9355556,4.30208333 16,4.45 16,4.625 L16,5.875 C16,6.04166667 15.9355556,6.1875 15.8071111,6.3125 C15.6777778,6.4375 15.52,6.5 15.3333333,6.5 L4.66666667,6.5 C4.48,6.5 4.32222222,6.4375 4.19333333,6.3125 C4.06444444,6.1875 4,6.04166667 4,5.875 C4,5.875 4,6.04166667 4,5.875 L4,5.875 L4,5.875 Z M4,9.875 L4,8.625 C4,8.45 4.06444444,8.30208333 4.19333333,8.18125 C4.32222222,8.06083333 4.48,8 4.66666667,8 L15.3333333,8 C15.52,8 15.6777778,8.06083333 15.8071111,8.18125 C15.9355556,8.30208333 16,8.45 16,8.625 L16,9.875 C16,10.0416667 15.9355556,10.1875 15.8071111,10.3125 C15.6777778,10.4375 15.52,10.5 15.3333333,10.5 L4.66666667,10.5 C4.48,10.5 4.32222222,10.4375 4.19333333,10.3125 C4.06444444,10.1875 4,10.0416667 4,9.875 C4,9.875 4,10.0416667 4,9.875 L4,9.875 L4,9.875 Z M4,14.375 L4,13.125 C4,12.95 4.06444444,12.8020833 4.19333333,12.68125 C4.32222222,12.5608333 4.48,12.5 4.66666667,12.5 L15.3333333,12.5 C15.52,12.5 15.6777778,12.5608333 15.8071111,12.68125 C15.9355556,12.8020833 16,12.95 16,13.125 L16,14.375 C16,14.5416667 15.9355556,14.6875 15.8071111,14.8125 C15.6777778,14.9375 15.52,15 15.3333333,15 L4.66666667,15 C4.48,15 4.32222222,14.9375 4.19333333,14.8125 C4.06444444,14.6875 4,14.5416667 4,14.375 L4,14.375 Z" id="task-icon" fill="#3A5868"></path>
            </g>
            <path d="M28,366 L28,363.75 C28,363.54 28.0681061,363.3625 28.2047879,363.217 C28.3405303,363.0725 28.5072727,363 28.7045455,363 L30.8181818,363 L30.8181818,361.5 L32.2272727,361.5 L32.2272727,363 L39.2727273,363 L39.2727273,361.5 L40.6818182,361.5 L40.6818182,363 L42.7954545,363 C42.9927273,363 43.1599394,363.0725 43.2956818,363.217 C43.4318939,363.3625 43.5,363.54 43.5,363.75 L43.5,366 L28,366 L28,366 L28,366 L28,366 Z M43.5,367.5 L43.5,378.75 C43.5,378.95 43.4318939,379.125 43.2956818,379.2745 C43.1599394,379.425 42.9927273,379.5 42.7954545,379.5 L28.7045455,379.5 C28.5072727,379.5 28.3405303,379.425 28.2047879,379.2745 C28.0681061,379.125 28,378.95 28,378.75 L28,367.5 L43.5,367.5 L43.5,367.5 L43.5,367.5 L43.5,367.5 Z M29.5,372 L31,372 L31,370.5 L29.5,370.5 L29.5,370.5 L29.5,372 L29.5,372 Z M29.5,375 L31,375 L31,373.5 L29.5,373.5 L29.5,373.5 L29.5,375 L29.5,375 Z M29.5,378 L31,378 L31,376.5 L29.5,376.5 L29.5,376.5 L29.5,378 L29.5,378 Z M32,372 L33.5,372 L33.5,370.5 L32,370.5 L32,370.5 L32,372 L32,372 Z M32,375 L33.5,375 L33.5,373.5 L32,373.5 L32,373.5 L32,375 L32,375 Z M32,378 L33.5,378 L33.5,376.5 L32,376.5 L32,376.5 L32,378 L32,378 Z M35,372 L36.5,372 L36.5,370.5 L35,370.5 L35,370.5 L35,372 L35,372 Z M35,375 L36.5,375 L36.5,373.5 L35,373.5 L35,373.5 L35,375 L35,375 Z M35,378 L36.5,378 L36.5,376.5 L35,376.5 L35,376.5 L35,378 L35,378 Z M38,372 L39.5,372 L39.5,370.5 L38,370.5 L38,370.5 L38,372 L38,372 Z M38,375 L39.5,375 L39.5,373.5 L38,373.5 L38,373.5 L38,375 L38,375 Z M38,378 L39.5,378 L39.5,376.5 L38,376.5 L38,376.5 L38,378 L38,378 Z M40.5,372 L42,372 L42,370.5 L40.5,370.5 L40.5,370.5 L40.5,372 L40.5,372 Z M40.5,375 L42,375 L42,373.5 L40.5,373.5 L40.5,373.5 L40.5,375 L40.5,375 Z M40.5,378 L42,378 L42,376.5 L40.5,376.5 L40.5,376.5 L40.5,378 L40.5,378 Z" id="Fill-192" fill="#3A5868"></path>
            <path d="M44.5,421.5 L357,421.5" id="Line-Copy-22" stroke="#979797" stroke-width="0.5" opacity="0.501415308" stroke-linecap="square"></path>
            <text id="TODAY" stroke="#78A9C2" stroke-width="0.5" font-family="Roboto-Bold, Roboto" font-size="10.5" font-weight="bold" fill="#3A5868">
                <tspan x="28" y="401">TODA</tspan>
                <tspan x="28" y="415">Y</tspan>
            </text>
            <path d="M45,440.5 L357.5,440.5" id="Line-Copy-23" stroke="#979797" stroke-width="0.5" opacity="0.501415308" stroke-linecap="square"></path>
            <path d="M44.5,461 L357,461" id="Line-Copy-23" stroke="#979797" stroke-width="0.5" opacity="0.501415308" stroke-linecap="square"></path>
            <g id="Group-9" transform="translate(28.000000, 112.000000)">
                <path d="M15.5,31 L328,31" id="Line-Copy-22" stroke="#979797" stroke-width="0.5" opacity="0.501415308" stroke-linecap="square"></path>
                <path d="M16,65 L328.5,65" id="Line-Copy-23" stroke="#979797" stroke-width="0.5" opacity="0.501415308" stroke-linecap="square"></path>
                <text id="TODAY" stroke="#78A9C2" stroke-width="0.5" font-family="Roboto-Bold, Roboto" font-size="10.5" font-weight="bold" fill="#3A5868">
                    <tspan x="0" y="11">TODAY</tspan>
                </text>
                <path d="M16,49 L328.5,49" id="Line-Copy-23" stroke="#979797" stroke-width="0.5" opacity="0.501415308" stroke-linecap="square"></path>
                <path d="M16,81.5 L328.5,81.5" id="Line-Copy-23" stroke="#979797" stroke-width="0.5" opacity="0.501415308" stroke-linecap="square"></path>
                <text id="11:00-AM-Initial-mtg" opacity="0.900000036" font-family="Roboto-Regular, Roboto" font-size="9" font-weight="normal" letter-spacing="0.314999998" fill="#4A4A4A">
                    <tspan x="19" y="27.5">11:00 AM   Initial mtg w/Bob Corkly (Wine of Wonders)</tspan>
                </text>
                <text id="SweetTooth-brouchure" opacity="0.900000036" font-family="Roboto-Regular, Roboto" font-size="9" font-weight="normal" letter-spacing="0.314999998" fill="#4A4A4A">
                    <tspan x="66.5" y="46.5">SweetTooth brouchure edits due</tspan>
                </text>
            </g>
            <text id="9:00-AM" opacity="0.900000036" font-family="Roboto-Regular, Roboto" font-size="9" font-weight="normal" letter-spacing="0.314999998" fill="#4A4A4A">
                <tspan x="49" y="418.5">9:00 </tspan>
                <tspan x="49" y="429.5" font-size="7.5">AM</tspan>
            </text>
            <text id="Weekly-check-in-meet" opacity="0.900000036" font-family="Roboto-Regular, Roboto" font-size="9" font-weight="normal" letter-spacing="0.314999998" fill="#4A4A4A">
                <tspan x="96" y="418.5">Weekly check-in meeting w/SweetTooth </tspan>
                <tspan x="96" y="429.5">team</tspan>
            </text>
            <text id="11:30-AM" opacity="0.900000036" font-family="Roboto-Regular, Roboto" font-size="9" font-weight="normal" letter-spacing="0.314999998" fill="#4A4A4A">
                <tspan x="43.5" y="437">11:30 </tspan>
                <tspan x="43.5" y="448" font-size="7.5">AM</tspan>
            </text>
            <text id="5:30-PM" opacity="0.900000036" font-family="Roboto-Regular, Roboto" font-size="9" font-weight="normal" letter-spacing="0.314999998" fill="#4A4A4A">
                <tspan x="48.5" y="459">5:30 </tspan>
                <tspan x="48.5" y="470" font-size="7.5">PM</tspan>
            </text>
            <text id="Pick-up-JT-at-airpor" opacity="0.900000036" font-family="Roboto-Regular, Roboto" font-size="9" font-weight="normal" letter-spacing="0.314999998" fill="#4A4A4A">
                <tspan x="96.5" y="458.5">Pick up JT at </tspan>
                <tspan x="96.5" y="469.5">airport</tspan>
            </text>
            <text id="Lunch-with-Mary" opacity="0.900000036" font-family="Roboto-Regular, Roboto" font-size="9" font-weight="normal" letter-spacing="0.314999998" fill="#4A4A4A">
                <tspan x="96.5" y="437.5">Lunch with </tspan>
                <tspan x="96.5" y="448.5">Mary</tspan>
            </text>
            <text id="September-17,-2017" opacity="0.900000036" font-family="Roboto-Regular, Roboto" font-size="5.5" font-weight="normal" letter-spacing="0.465000004" fill="#000000">
                <tspan x="163.5" y="31">September 17, 201</tspan>
                <tspan x="217.303682" y="31">7</tspan>
            </text>
            <g id="Group-11" transform="translate(26.500000, 260.000000)">
                <g id="Task-date-block" transform="translate(280.500000, 1.000000)">
                    <text id="/-/-copy-3" font-family="Roboto-Medium, Roboto" font-size="11.41371" font-weight="400" letter-spacing="0.583367407" fill="#302F2E">
                        <tspan x="15" y="22.5">/   </tspan>
                        <tspan x="30.374525" y="22.5">/</tspan>
                    </text>
                    <text id="9" font-family="Roboto-Medium, Roboto" font-size="6.975045" font-weight="400" letter-spacing="0.406877637" fill="#302F2E">
                        <tspan x="5.5" y="21"> 9</tspan>
                    </text>
                    <text id="17" font-family="Roboto-Medium, Roboto" font-size="6.975045" font-weight="400" letter-spacing="0.406877637" fill="#302F2E">
                        <tspan x="20.5" y="21">17</tspan>
                    </text>
                    <text id="Due" font-family="Roboto-Medium, Roboto" font-size="6.975045" font-weight="400" letter-spacing="0.244126573" fill="#4A4A4A">
                        <tspan x="0" y="7">Due</tspan>
                    </text>
                    <text id="17-copy-2" font-family="Roboto-Medium, Roboto" font-size="6.975045" font-weight="400" letter-spacing="0.406877637" fill="#302F2E">
                        <tspan x="37" y="21">17</tspan>
                    </text>
                    <rect id="Rectangle-6" stroke="#302F2E" stroke-width="0.634095" opacity="0.211956522" x="0.3170475" y="10.3170475" width="49.365905" height="15.865905"></rect>
                </g>
                <path d="M17.5,28.5 L330,28.5" id="Line-Copy-22" stroke="#979797" stroke-width="0.5" opacity="0.501415308" stroke-linecap="square"></path>
                <path d="M17.5,61.5 L330,61.5" id="Line-Copy-23" stroke="#979797" stroke-width="0.5" opacity="0.501415308" stroke-linecap="square"></path>
                <g id="Task-date-block" transform="translate(280.000000, 33.500000)">
                    <text id="/-/-copy-3" font-family="Roboto-Medium, Roboto" font-size="11.41371" font-weight="400" letter-spacing="0.583367407" fill="#302F2E">
                        <tspan x="15" y="23">/   </tspan>
                        <tspan x="30.374525" y="23">/</tspan>
                    </text>
                    <text id="9" font-family="Roboto-Medium, Roboto" font-size="6.975045" font-weight="400" letter-spacing="0.406877637" fill="#302F2E">
                        <tspan x="5.5" y="21"> 9</tspan>
                    </text>
                    <text id="22" font-family="Roboto-Medium, Roboto" font-size="6.975045" font-weight="400" letter-spacing="0.406877637" fill="#302F2E">
                        <tspan x="20.5" y="21">22</tspan>
                    </text>
                    <text id="Due" font-family="Roboto-Medium, Roboto" font-size="6.975045" font-weight="400" letter-spacing="0.244126573" fill="#4A4A4A">
                        <tspan x="0" y="7">Due</tspan>
                    </text>
                    <text id="17-copy-2" font-family="Roboto-Medium, Roboto" font-size="6.975045" font-weight="400" letter-spacing="0.406877637" fill="#302F2E">
                        <tspan x="37" y="21">17</tspan>
                    </text>
                    <rect id="Rectangle-6" stroke="#302F2E" stroke-width="0.634095" opacity="0.211956522" x="0.3170475" y="10.3170475" width="49.365905" height="15.865905"></rect>
                </g>
                <text id="Agenda-for-Sept.-27" font-family="Roboto-MediumItalic, Roboto" font-size="9" font-style="italic" font-weight="500" letter-spacing="0.314999998" fill="#4A4A4A">
                    <tspan x="20.5" y="44">Agenda for Sept. 27 mtg  </tspan>
                </text>
                <text id="Review-SweetTooth-br" font-family="Roboto-MediumItalic, Roboto" font-size="9" font-style="italic" font-weight="500" letter-spacing="0.314999998" fill="#4A4A4A">
                    <tspan x="20.5" y="10.5">Review SweetTooth brochure edits</tspan>
                </text>
                <path d="M255.497176,24.9249083 L258.008736,22.3207525 L260.510699,19.7881432 C261.112613,19.1710125 261.436899,18.5199735 261.483225,17.8346872 C261.53617,17.1704241 261.36774,16.5749947 260.977273,16.0497554 C260.586145,15.523838 260.076884,15.204083 259.448167,15.0881167 C259.295951,15.06099 259.137117,15.0477658 258.971666,15.0477658 C258.614289,15.0477658 258.258568,15.1379618 257.904832,15.3173366 C257.550434,15.4967114 257.272806,15.6801552 257.070623,15.8663117 C256.868772,16.0531463 256.596107,16.3227171 256.251637,16.6750241 L252.797001,20.2153875 C252.66464,20.3513597 252.519042,20.4897054 252.360208,20.6321202 C252.108721,20.8762598 251.923415,21.0597036 251.80429,21.1817734 C251.685495,21.3035041 251.546516,21.4730455 251.387351,21.6903976 C251.228517,21.9074106 251.124614,22.1206936 251.074647,22.3312641 C251.025012,22.5411563 251.016408,22.76529 251.05016,23.0023089 C251.109723,23.4295532 251.28808,23.7554118 251.585893,23.9792064 C251.883707,24.203001 252.214611,24.3148984 252.578605,24.3148984 C253.061724,24.3148984 253.475354,24.1385753 253.819494,23.7855901 L259.249625,18.2212416 C259.488206,17.9777802 259.554056,17.7234681 259.448167,17.4583053 C259.349227,17.2148439 259.173517,17.0920959 258.92203,17.0920959 C258.743673,17.0920959 258.57789,17.1704241 258.425674,17.3260631 C258.299931,17.4345695 258.170878,17.5637601 258.038517,17.7126174 L254.296326,21.5069538 L253.611024,20.8253974 L253.680514,20.7545291 L257.532565,16.7258865 C257.757249,16.4953102 257.980278,16.3227171 258.202314,16.2074289 C258.42402,16.0921408 258.687088,16.0344967 258.991851,16.0344967 C259.051413,16.0344967 259.147045,16.0412784 259.279406,16.0545026 C259.875364,16.1701298 260.262521,16.5227759 260.440878,17.11278 C260.54048,17.4311787 260.550077,17.7570373 260.47066,18.0889993 C260.391243,18.4213005 260.236049,18.70613 260.004416,18.943827 L256.092803,22.9517856 C255.979965,23.0670737 255.79168,23.2739142 255.526957,23.5726461 C255.269183,23.8639183 255.071965,24.0812703 254.936294,24.223346 C254.800624,24.3657608 254.626899,24.5200434 254.415452,24.6858549 C254.203342,24.8520055 253.988255,24.9896731 253.769858,25.0985187 C253.399577,25.2877269 253.005471,25.3830091 252.588532,25.3830091 C252.125267,25.3830091 251.698401,25.2745026 251.307934,25.0571506 C250.917799,24.8401376 250.606418,24.538693 250.374786,24.1521386 C250.057449,23.6228304 249.941633,23.0365563 250.027337,22.392299 C250.113703,21.7480417 250.381404,21.1956758 250.831764,20.7338451 L255.914115,15.5258725 C256.383998,15.044375 256.75097,14.7219073 257.016024,14.5594866 C257.611982,14.1868346 258.263531,14 258.971666,14 C259.521297,14 260.02394,14.1118973 260.480918,14.335692 C261.003415,14.5794925 261.43359,14.9290868 261.771111,15.3834578 C262.108964,15.8378287 262.33067,16.3596771 262.436228,16.9496812 C262.548735,17.5803751 262.512336,18.2008966 262.327361,18.8115847 C262.141724,19.4219338 261.827034,19.9546328 261.383954,20.4086647 L256.251637,25.6071429 L255.566666,24.9964548 L255.497176,24.9249083" id="Fill-194-Copy" stroke="#3A5868" stroke-width="0.5127606" fill="#78A9C2" transform="translate(256.250000, 19.803571) scale(-1, 1) translate(-256.250000, -19.803571) "></path>
                <g id="Group-7">
                    <g id="Group-6" fill="#D7F2F0" stroke="#78A9C2" stroke-width="0.609870246">
                        <ellipse id="Oval-3" cx="6.75" cy="7" rx="6.75" ry="7"></ellipse>
                    </g>
                    <text id="10" font-family="Roboto-Medium, Roboto" font-size="6" font-weight="400" letter-spacing="0.350000024" fill="#302F2E">
                        <tspan x="1.5" y="9"> 10</tspan>
                    </text>
                </g>
                <g id="Group-6" transform="translate(0.000000, 33.500000)">
                    <ellipse id="Oval-3" stroke="#78A9C2" stroke-width="0.609870246" fill="#D7F2F0" cx="6.75" cy="7" rx="6.75" ry="7"></ellipse>
                    <text id="6" font-family="Roboto-Medium, Roboto" font-size="6" font-weight="400" letter-spacing="0.349999994" fill="#302F2E">
                        <tspan x="5" y="9.5">6</tspan>
                    </text>
                </g>
                <g id="Rectangle-7">
                    <use fill-opacity="0.614158741" fill="#78A9C2" fill-rule="evenodd" xlink:href="#path-1"></use>
                    <rect stroke="#979797" stroke-width="0.5" x="31.75" y="15.75" width="11" height="11.5"></rect>
                </g>
                <g id="Rectangle-7">
                    <use fill="#ACCAD9" fill-rule="evenodd" xlink:href="#path-2"></use>
                    <rect stroke="#979797" stroke-width="0.5" x="31.25" y="48.75" width="11" height="11.5"></rect>
                </g>
                <text id="KF" stroke="#4A4A4A" font-family="Roboto-Regular, Roboto" font-size="6" font-weight="normal" letter-spacing="0.314999998" fill="#4A4A4A">
                    <tspan x="33.1459375" y="57">KF</tspan>
                </text>
                <text id="KF" stroke="#4A4A4A" font-family="Roboto-Regular, Roboto" font-size="6" font-weight="normal" letter-spacing="0.314999998" fill="#4A4A4A">
                    <tspan x="33.5" y="24">KF</tspan>
                </text>
                <g id="Rectangle-7">
                    <use fill="#ACCAD9" fill-rule="evenodd" xlink:href="#path-3"></use>
                    <rect stroke="#979797" stroke-width="0.5" x="48.25" y="15.75" width="11" height="11.5"></rect>
                </g>
                <text id="LM" stroke="#4A4A4A" font-family="Roboto-Regular, Roboto" font-size="6" font-weight="normal" letter-spacing="0.314999998" fill="#4A4A4A">
                    <tspan x="49" y="24">LM</tspan>
                </text>
                <g id="Rectangle-7">
                    <use fill="#ACCAD9" fill-rule="evenodd" xlink:href="#path-4"></use>
                    <rect stroke="#979797" stroke-width="0.5" x="65.25" y="15.75" width="11" height="11.5"></rect>
                </g>
                <text id="AB" stroke="#4A4A4A" font-family="Roboto-Regular, Roboto" font-size="6" font-weight="normal" letter-spacing="0.314999998" fill="#4A4A4A">
                    <tspan x="66.5" y="24">AB</tspan>
                </text>
                <g id="Group" transform="translate(66.500000, 18.000000)"></g>
            </g>
            <g id="Rectangle-2">
                <use fill="#FFFFFF" fill-rule="evenodd" xlink:href="#path-5"></use>
                <rect stroke-opacity="0.151551178" stroke="#979797" stroke-width="2.5" x="28.25" y="360.75" width="328" height="113"></rect>
            </g>
            <g id="Group-6" transform="translate(52.500000, 383.500000)">
                <g id="Group-8" transform="translate(16.500000, 34.500000)">
                    <polygon id="Triangle-Copy" fill="#FFFFFF" transform="translate(127.250000, 18.500000) scale(1, -1) translate(-127.250000, -18.500000) " points="127.25 0.5 254.5 36.5 0 36.5"></polygon>
                    <path d="M95.0661479,48.6330406 C114.98549,38.9826871 124.095774,22.9383403 122.397,0.5 C120.440654,23.7743156 128.612429,39.8275222 146.912322,48.6596197 C165.212216,57.4917172 201.074775,62.0962747 254.5,62.473292 L0,62.473292 C43.4580898,62.8968112 75.1468057,58.2833941 95.0661479,48.6330406 Z" id="Triangle" fill-opacity="0.5" fill="#AFE6E1" transform="translate(127.250000, 31.500000) scale(1, -1) translate(-127.250000, -31.500000) "></path>
                </g>
                <g id="Group-3" fill="#3A5868">
                    <path d="M63.5,6.5 L63.5,3.25 C63.5,2.94666667 63.6098485,2.69027778 63.830303,2.48011111 C64.0492424,2.27138889 64.3181818,2.16666667 64.6363636,2.16666667 L68.0454545,2.16666667 L68.0454545,0 L70.3181818,0 L70.3181818,2.16666667 L81.6818182,2.16666667 L81.6818182,0 L83.9545455,0 L83.9545455,2.16666667 L87.3636364,2.16666667 C87.6818182,2.16666667 87.9515152,2.27138889 88.1704545,2.48011111 C88.3901515,2.69027778 88.5,2.94666667 88.5,3.25 L88.5,6.5 L63.5,6.5 L63.5,6.5 L63.5,6.5 L63.5,6.5 Z M88.5,8.5 L88.5,24.90625 C88.5,25.1979167 88.3901515,25.453125 88.1704545,25.6711458 C87.9515152,25.890625 87.6818182,26 87.3636364,26 L64.6363636,26 C64.3181818,26 64.0492424,25.890625 63.830303,25.6711458 C63.6098485,25.453125 63.5,25.1979167 63.5,24.90625 L63.5,8.5 L88.5,8.5 L88.5,8.5 L88.5,8.5 L88.5,8.5 Z M66,15 L68.5,15 L68.5,13 L66,13 L66,13 L66,15 L66,15 Z M66,19.5 L68.5,19.5 L68.5,17.5 L66,17.5 L66,17.5 L66,19.5 L66,19.5 Z M66,23.5 L68.5,23.5 L68.5,21.5 L66,21.5 L66,21.5 L66,23.5 L66,23.5 Z M70.5,15 L73,15 L73,13 L70.5,13 L70.5,13 L70.5,15 L70.5,15 Z M70.5,19.5 L73,19.5 L73,17.5 L70.5,17.5 L70.5,17.5 L70.5,19.5 L70.5,19.5 Z M70.5,23.5 L73,23.5 L73,21.5 L70.5,21.5 L70.5,21.5 L70.5,23.5 L70.5,23.5 Z M75,15 L77.5,15 L77.5,13 L75,13 L75,13 L75,15 L75,15 Z M75,19.5 L77.5,19.5 L77.5,17.5 L75,17.5 L75,17.5 L75,19.5 L75,19.5 Z M75,23.5 L77.5,23.5 L77.5,21.5 L75,21.5 L75,21.5 L75,23.5 L75,23.5 Z M79.5,15 L82,15 L82,13 L79.5,13 L79.5,13 L79.5,15 L79.5,15 Z M79.5,19.5 L82,19.5 L82,17.5 L79.5,17.5 L79.5,17.5 L79.5,19.5 L79.5,19.5 Z M79.5,23.5 L82,23.5 L82,21.5 L79.5,21.5 L79.5,21.5 L79.5,23.5 L79.5,23.5 Z M84,15 L86.5,15 L86.5,13 L84,13 L84,13 L84,15 L84,15 Z M84,19.5 L86.5,19.5 L86.5,17.5 L84,17.5 L84,17.5 L84,19.5 L84,19.5 Z M84,23.5 L86.5,23.5 L86.5,21.5 L84,21.5 L84,21.5 L84,23.5 L84,23.5 Z" id="Fill-192"></path>
                    <path d="M129.983827,0.5 L136.341832,0.5 C136.966119,0.5 137.567514,0.735086174 138.026303,1.15846243 L139.168,2.21203553 C139.512091,2.52956772 139.963137,2.70588235 140.431353,2.70588235 L155.016173,2.70588235 C156.387953,2.70588235 157.5,3.8179298 157.5,5.18970985 L157.5,23.0161725 C157.5,24.3879525 156.387953,25.5 155.016173,25.5 L129.983827,25.5 C128.612047,25.5 127.5,24.3879525 127.5,23.0161725 L127.5,2.9838275 C127.5,1.61204745 128.612047,0.5 129.983827,0.5 Z M129,6.5 L129,8 L156,8 L156,6.5 L129,6.5 Z" id="Rectangle-193"></path>
                    <path d="M195,4.375 L195,2.125 C195,1.81 195.10875,1.54375 195.32625,1.32625 C195.54375,1.1095 195.81,1 196.125,1 L198.375,1 C198.69,1 198.95625,1.1095 199.1745,1.32625 C199.39125,1.54375 199.5,1.81 199.5,2.125 L199.5,4.375 C199.5,4.675 199.39125,4.9375 199.1745,5.1625 C198.95625,5.3875 198.69,5.5 198.375,5.5 L196.125,5.5 C195.81,5.5 195.54375,5.3875 195.32625,5.1625 C195.10875,4.9375 195,4.675 195,4.375 C195,4.375 195,4.675 195,4.375 L195,4.375 L195,4.375 Z M195,10.875 L195,8.625 C195,8.31 195.10875,8.04375 195.32625,7.82625 C195.54375,7.6095 195.81,7.5 196.125,7.5 L198.375,7.5 C198.69,7.5 198.95625,7.6095 199.1745,7.82625 C199.39125,8.04375 199.5,8.31 199.5,8.625 L199.5,10.875 C199.5,11.175 199.39125,11.4375 199.1745,11.6625 C198.95625,11.8875 198.69,12 198.375,12 L196.125,12 C195.81,12 195.54375,11.8875 195.32625,11.6625 C195.10875,11.4375 195,11.175 195,10.875 C195,10.875 195,11.175 195,10.875 L195,10.875 L195,10.875 Z M195,17.875 L195,15.625 C195,15.31 195.10875,15.04375 195.32625,14.82625 C195.54375,14.6095 195.81,14.5 196.125,14.5 L198.375,14.5 C198.69,14.5 198.95625,14.6095 199.1745,14.82625 C199.39125,15.04375 199.5,15.31 199.5,15.625 L199.5,17.875 C199.5,18.175 199.39125,18.4375 199.1745,18.6625 C198.95625,18.8875 198.69,19 198.375,19 L196.125,19 C195.81,19 195.54375,18.8875 195.32625,18.6625 C195.10875,18.4375 195,18.175 195,17.875 C195,17.875 195,18.175 195,17.875 L195,17.875 L195,17.875 Z M195,24.375 L195,22.125 C195,21.81 195.10875,21.54375 195.32625,21.32625 C195.54375,21.1095 195.81,21 196.125,21 L198.375,21 C198.69,21 198.95625,21.1095 199.1745,21.32625 C199.39125,21.54375 199.5,21.81 199.5,22.125 L199.5,24.375 C199.5,24.675 199.39125,24.9375 199.1745,25.1625 C198.95625,25.3875 198.69,25.5 198.375,25.5 L196.125,25.5 C195.81,25.5 195.54375,25.3875 195.32625,25.1625 C195.10875,24.9375 195,24.675 195,24.375 C195,24.375 195,24.675 195,24.375 L195,24.375 L195,24.375 Z M202,4.375 L202,2.125 C202,1.81 202.110093,1.54375 202.330278,1.32625 C202.550463,1.1095 202.82,1 203.138889,1 L221.361111,1 C221.68,1 221.949537,1.1095 222.170481,1.32625 C222.389907,1.54375 222.5,1.81 222.5,2.125 L222.5,4.375 C222.5,4.675 222.389907,4.9375 222.170481,5.1625 C221.949537,5.3875 221.68,5.5 221.361111,5.5 L203.138889,5.5 C202.82,5.5 202.550463,5.3875 202.330278,5.1625 C202.110093,4.9375 202,4.675 202,4.375 C202,4.375 202,4.675 202,4.375 L202,4.375 L202,4.375 Z M202,10.875 L202,8.625 C202,8.31 202.110093,8.04375 202.330278,7.82625 C202.550463,7.6095 202.82,7.5 203.138889,7.5 L221.361111,7.5 C221.68,7.5 221.949537,7.6095 222.170481,7.82625 C222.389907,8.04375 222.5,8.31 222.5,8.625 L222.5,10.875 C222.5,11.175 222.389907,11.4375 222.170481,11.6625 C221.949537,11.8875 221.68,12 221.361111,12 L203.138889,12 C202.82,12 202.550463,11.8875 202.330278,11.6625 C202.110093,11.4375 202,11.175 202,10.875 C202,10.875 202,11.175 202,10.875 L202,10.875 L202,10.875 Z M202,17.875 L202,15.625 C202,15.31 202.110093,15.04375 202.330278,14.82625 C202.550463,14.6095 202.82,14.5 203.138889,14.5 L221.361111,14.5 C221.68,14.5 221.949537,14.6095 222.170481,14.82625 C222.389907,15.04375 222.5,15.31 222.5,15.625 L222.5,17.875 C222.5,18.175 222.389907,18.4375 222.170481,18.6625 C221.949537,18.8875 221.68,19 221.361111,19 L203.138889,19 C202.82,19 202.550463,18.8875 202.330278,18.6625 C202.110093,18.4375 202,18.175 202,17.875 C202,17.875 202,18.175 202,17.875 L202,17.875 L202,17.875 Z M202,24.375 L202,22.125 C202,21.81 202.110093,21.54375 202.330278,21.32625 C202.550463,21.1095 202.82,21 203.138889,21 L221.361111,21 C221.68,21 221.949537,21.1095 222.170481,21.32625 C222.389907,21.54375 222.5,21.81 222.5,22.125 L222.5,24.375 C222.5,24.675 222.389907,24.9375 222.170481,25.1625 C221.949537,25.3875 221.68,25.5 221.361111,25.5 L203.138889,25.5 C202.82,25.5 202.550463,25.3875 202.330278,25.1625 C202.110093,24.9375 202,24.675 202,24.375 L202,24.375 Z" id="Fill-59"></path>
                    <path d="M270.388889,11.2083333 L279.5,11.2083333 L279.5,24.9895833 C279.5,25.1393056 279.446852,25.2618056 279.340556,25.3570833 C279.235019,25.4523611 279.097593,25.5 278.930556,25.5 L259.569444,25.5 C259.402407,25.5 259.265741,25.4523611 259.159444,25.3570833 C259.053907,25.2618056 259,25.1393056 259,24.9895833 L259,1.51041667 C259,1.36069444 259.053907,1.23819444 259.159444,1.14291667 C259.265741,1.04763889 259.402407,1 259.569444,1 L270.388889,1 L270.388889,11.2083333 L270.388889,11.2083333 L270.388889,11.2083333 L270.388889,11.2083333 Z M279.5,9 L272.5,9 L272.5,3 L279.5,9 L279.5,9 Z" id="Fill-28" stroke="#3A5868" stroke-width="0.99362875"></path>
                    <g id="Group-5" transform="translate(0.000000, 0.500000)" stroke="#3A5868" stroke-width="1.18546313">
                        <path d="M21,25.5 L0,25.5 L0,22.64 L7,17.5 L7,15.5 C6.56833333,15.5 6.16933333,15.0033333 5.80183333,14.01 C5.43375,13.0166667 5.25,12.18 5.25,11.5 L5.25,7.5 C5.25,5.84733333 5.76333333,4.43333333 6.79058333,3.26 C7.81725,2.08666667 9.05333333,1.5 10.5,1.5 C11.9466667,1.5 13.1833333,2.08666667 14.21,3.26 C15.2366667,4.43333333 15.75,5.84733333 15.75,7.5 L15.75,11.5 C15.75,12.18 15.5668333,13.0166667 15.19875,14.01 C14.83125,15.0033333 14.43225,15.5 14,15.5 L14,17.5 L21,22.64 L21,25.5 Z" id="Fill-14"></path>
                        <path d="M32,20.6995833 L32,23.5 L10,23.5 L10,20.6995833 L17.3333333,15.6666667 L17.3333333,13.7083333 C16.8811111,13.7083333 16.4631111,13.2220139 16.0781111,12.249375 C15.6925,11.2767361 15.5,10.4575 15.5,9.79166667 L15.5,5.875 C15.5,4.25676389 16.0377778,2.87222222 17.1139444,1.72333333 C18.1895,0.574444444 19.4844444,0 21,0 C22.5155556,0 23.8111111,0.574444444 24.8866667,1.72333333 C25.9622222,2.87222222 26.5,4.25676389 26.5,5.875 L26.5,9.79166667 C26.5,10.4575 26.3081111,11.2767361 25.9225,12.249375 C25.5375,13.2220139 25.1195,13.7083333 24.6666667,13.7083333 L24.6666667,15.6666667 L32,20.6995833" id="Fill-14"></path>
                    </g>
                </g>
            </g>
            <g id="Group-6" transform="translate(179.500000, 476.500000)">
                <ellipse id="Oval-3" stroke="#78A9C2" stroke-width="0.609870246" fill="#78A9C2" cx="12.5" cy="13.25" rx="12.5" ry="13.25"></ellipse>
                <polygon id="Fill-2" fill="#3A5868" points="14.8636364 15.9545455 14.8636364 22.5 10.6363636 22.5 10.6363636 15.9545455 5 15.9545455 5 11.0454545 10.6363636 11.0454545 10.6363636 4.5 14.8636364 4.5 14.8636364 11.0454545 20.5 11.0454545 20.5 15.9545455"></polygon>
            </g>
            <polygon id="Rectangle-43-Copy" stroke="#3A5868" stroke-width="2.76950002" fill="#FFFFFF" points="28.7003742 53.0248526 38.5600004 46.2754075 38.1576836 46 28.1762451 52.8328321 28.294081 52.9134971 28 53.1148113 38.0579212 60 38.4738145 59.7152987"></polygon>
        </g>
    </g>
</svg>