<?xml version="1.0" encoding="UTF-8"?>
<svg width="384px" height="512px" viewBox="0 0 384 512" version="1.1" xmlns="http://www.w3.org/2000/svg" xmlns:xlink="http://www.w3.org/1999/xlink" style="background: #FFFFFF;">
    <!-- Generator: Sketch 48.2 (47327) - http://www.bohemiancoding.com/sketch -->
    <title>T10</title>
    <desc>Created with Sketch.</desc>
    <defs>
        <rect id="path-1" x="-2.5" y="240" width="387.5" height="231.5"></rect>
        <rect id="path-2" x="0" y="44" width="339" height="37.5"></rect>
        <filter x="0.0%" y="0.0%" width="100.0%" height="100.0%" filterUnits="objectBoundingBox" id="filter-3">
            <feGaussianBlur stdDeviation="0" in="SourceGraphic"></feGaussianBlur>
        </filter>
        <rect id="path-4" x="0" y="0" width="339" height="37.5"></rect>
        <filter x="0.0%" y="0.0%" width="100.0%" height="100.0%" filterUnits="objectBoundingBox" id="filter-5">
            <feGaussianBlur stdDeviation="0" in="SourceGraphic"></feGaussianBlur>
        </filter>
        <rect id="path-6" x="0" y="89.5" width="339" height="37.5"></rect>
        <filter x="0.0%" y="0.0%" width="100.0%" height="100.0%" filterUnits="objectBoundingBox" id="filter-7">
            <feGaussianBlur stdDeviation="0" in="SourceGraphic"></feGaussianBlur>
        </filter>
        <rect id="path-8" x="0" y="0" width="385.5" height="30.5"></rect>
        <rect id="path-9" x="0" y="0" width="72" height="20.5"></rect>
        <path d="M0,21.5 L327,21.5" id="path-10"></path>
    </defs>
    <g id="Page-1" stroke="none" stroke-width="1" fill="none" fill-rule="evenodd">
        <g id="Artboard" transform="translate(-165.000000, -3084.000000)"></g>
        <g id="T10">
            <g id="StatusBar-Light-iPhone6" transform="translate(1.000000, 0.000000)">
                <rect id="Background" fill="#FFFFFF" x="0" y="0" width="383" height="20.5"></rect>
                <path d="M351.5,6.5 C351.5,5.67157288 352.171573,5 353,5 L373.5,5 C374.328427,5 375,5.67157288 375,6.5 L375,14 C375,14.8284271 374.328427,15.5 373.5,15.5 L353,15.5 C352.171573,15.5 351.5,14.8284271 351.5,14 L351.5,6.5 Z M352,7 L352,13.5 C352,14.3284271 352.671573,15 353.5,15 L373,15 C373.828427,15 374.5,14.3284271 374.5,13.5 L374.5,7 C374.5,6.17157288 373.828427,5.5 373,5.5 L353.5,5.5 C352.671573,5.5 352,6.17157288 352,7 Z M352.5,7.5 C352.5,6.67157288 353.171573,6 354,6 L363.5,6 L363.5,14.5 L354,14.5 C353.171573,14.5 352.5,13.8284271 352.5,13 L352.5,7.5 Z M378,10 C378,11.0178721 377.130764,11.8599457 376,12 L376,8 C377.130764,8.14005431 378,8.98212794 378,10 Z" id="battery-@2x" fill="#000000"></path>
                <text id="49%" font-family="HelveticaNeue, Helvetica Neue" font-size="12" font-weight="normal" line-spacing="12" fill="#000000">
                    <tspan x="323.5" y="16">49%</tspan>
                </text>
                <path d="M315,11.5 L316.5,13 L315,14.5 L315,11.5 Z M315,9 L315,6 L316.5,7.5 L315,9 Z M318,7.64722653 L314.028486,3.5 L314.028486,9.20243648 L311,6.09201658 L310,7.12882321 L313.45349,10.2504999 L310,13.349663 L311,14.3864696 L314.028486,11.2760497 L314.028486,17 L318,12.8312597 L315.5,10.2504998 L318,7.64722653 Z" id="bluetooth-@2x" fill="#535353"></path>
                <text id="9:49-AM" font-family="HelveticaNeue, Helvetica Neue" font-size="12" font-weight="normal" letter-spacing="0.599999905" fill="#000000">
                    <tspan x="166.692" y="14">9:49 AM</tspan>
                </text>
                <path d="M79.7455746,7.06231003 C81.766171,7.06231003 83.607668,7.79635258 85.0196385,9 L86,7.93262411 C84.3277104,6.50101317 82.1436336,5.5 79.7455746,5.5 C77.35116,5.5 75.170207,6.49797366 73.5,7.92502533 L74.478279,8.99392097 C75.8892082,7.79381966 77.7275813,7.06231003 79.7455746,7.06231003 L79.7455746,7.06231003 Z M82.9518386,11 L84,9.95755423 C82.8592299,9.07591623 81.3753869,8.5 79.7473691,8.5 C78.1225084,8.5 76.6397177,9.07451384 75.5,9.95334705 L76.5465829,10.9971952 C77.4084747,10.3394727 78.5250402,9.9407255 79.7473691,9.9407255 C80.9712765,9.9407255 82.0894206,10.3408751 82.9518386,11 Z M82,12.2681206 C81.3907337,11.8142533 80.6062141,11.5 79.7486265,11.5 C78.8926871,11.5 78.1092663,11.8137668 77.5,12.2656883 L79.7486265,14.5 L82,12.2681206 L82,12.2681206 Z" id="wifi-@2x" fill="#0C0000"></path>
                <text id="Yext" font-family="HelveticaNeue, Helvetica Neue" font-size="12" font-weight="normal" fill="#000000">
                    <tspan x="45" y="13.5">Yext</tspan>
                </text>
                <path d="M8,13 C6.34314567,13 5,11.6568543 5,10 C5,8.34314567 6.34314567,7 8,7 C9.65685433,7 11,8.34314567 11,10 C11,11.6568543 9.65685433,13 8,13 Z M15,13 C13.3431457,13 12,11.6568543 12,10 C12,8.34314567 13.3431457,7 15,7 C16.6568543,7 18,8.34314567 18,10 C18,11.6568543 16.6568543,13 15,13 Z M22,13 C20.3431457,13 19,11.6568543 19,10 C19,8.34314567 20.3431457,7 22,7 C23.6568543,7 25,8.34314567 25,10 C25,11.6568543 23.6568543,13 22,13 Z M29.5,13 C27.8431457,13 26.5,11.6568543 26.5,10 C26.5,8.34314567 27.8431457,7 29.5,7 C31.1568543,7 32.5,8.34314567 32.5,10 C32.5,11.6568543 31.1568543,13 29.5,13 Z M29.5,12.5 C30.8807119,12.5 32,11.3807119 32,10 C32,8.61928806 30.8807119,7.5 29.5,7.5 C28.1192881,7.5 27,8.61928806 27,10 C27,11.3807119 28.1192881,12.5 29.5,12.5 Z M36.5,13 C34.8431457,13 33.5,11.6568543 33.5,10 C33.5,8.34314567 34.8431457,7 36.5,7 C38.1568543,7 39.5,8.34314567 39.5,10 C39.5,11.6568543 38.1568543,13 36.5,13 Z M36.5,12.5 C37.8807119,12.5 39,11.3807119 39,10 C39,8.61928806 37.8807119,7.5 36.5,7.5 C35.1192881,7.5 34,8.61928806 34,10 C34,11.3807119 35.1192881,12.5 36.5,12.5 Z" id="signal-@2x" fill="#000000"></path>
            </g>
            <path d="M0.5,114 L386,114" id="Line-4" stroke="#000000" stroke-width="1.5" stroke-linecap="square"></path>
            <g id="Rectangle-4" opacity="0.15772192">
                <use fill="#78A9C2" fill-rule="evenodd" xlink:href="#path-1"></use>
                <rect stroke="#000000" stroke-width="0.94" x="-2.03" y="240.47" width="386.56" height="230.56"></rect>
            </g>
            <g id="Group-10" transform="translate(0.000000, 129.000000)">
                <text id="Due-Date/Time" opacity="0.713994565" font-family="Roboto-Regular, Roboto" font-size="13.13" font-weight="normal" fill="#302F2E">
                    <tspan x="47" y="24.5">Due Date/Time</tspan>
                </text>
                <path d="M0.5,0.5 L385.5,0.5" id="Line-4" stroke="#3A5868" stroke-width="1.01" stroke-linecap="square"></path>
                <g id="circle-check" transform="translate(20.000000, 7.500000)">
                    <ellipse id="Oval-3" stroke="#78A9C2" stroke-width="1.01" fill="#78A9C2" cx="10.25" cy="10.5" rx="10.25" ry="10.5"></ellipse>
                    <polygon id="Fill-2" fill="#3A5868" points="12.1363636 12.0909091 12.1363636 17 8.86363636 17 8.86363636 12.0909091 4.5 12.0909091 4.5 8.40909091 8.86363636 8.40909091 8.86363636 3.5 12.1363636 3.5 12.1363636 8.40909091 16.5 8.40909091 16.5 12.0909091"></polygon>
                </g>
                <path d="M0,33.5 L385,33.5" id="Line-4-Copy-4" stroke="#3A5868" stroke-width="1.01" stroke-linecap="square"></path>
                <g id="Group-9" transform="translate(0.000000, 54.000000)">
                    <g id="circle-check" transform="translate(20.000000, 6.000000)">
                        <ellipse id="Oval-3" stroke="#78A9C2" stroke-width="1.01" fill="#78A9C2" cx="10.25" cy="10.5" rx="10.25" ry="10.5"></ellipse>
                        <polygon id="Fill-2" fill="#3A5868" points="12.1363636 12.0909091 12.1363636 17 8.86363636 17 8.86363636 12.0909091 4.5 12.0909091 4.5 8.40909091 8.86363636 8.40909091 8.86363636 3.5 12.1363636 3.5 12.1363636 8.40909091 16.5 8.40909091 16.5 12.0909091"></polygon>
                    </g>
                    <g id="Group-8" stroke="#3A5868" stroke-linecap="square" stroke-width="1.01">
                        <path d="M0,35.5 L384,35.5" id="Line-4"></path>
                        <path d="M0,0.5 L384,0.5" id="Line-4-Copy-3"></path>
                    </g>
                    <text id="project-title-copy-2" opacity="0.713994565" font-family="Roboto-Regular, Roboto" font-size="13.13" font-weight="normal" fill="#302F2E">
                        <tspan x="46.5" y="24">Alerts/Reminders </tspan>
                    </text>
                </g>
            </g>
            <path d="M-1,470.5 L384.5,470.5 L-1,470.5 Z" id="Line-2" stroke="#3A5868" stroke-width="3.21099997" fill="#4D5B69" opacity="0.849999964"></path>
            <g id="option1-copy" transform="translate(23.000000, 272.000000)">
                <rect id="Rectangle-2-Copy-6" stroke="#78A9C2" stroke-width="0.5" fill="#FFFFFF" x="0" y="135.5" width="339" height="37.5"></rect>
                <path d="M18.1148038,164.236292 L22.7360735,159.412594 L27.3396861,154.721422 C28.4472078,153.578306 29.0438935,152.372382 29.1291343,151.103021 C29.2265524,149.872601 28.9166411,148.769682 28.1981829,147.796778 C27.4785069,146.822617 26.5414668,146.230332 25.3846272,146.015527 C25.1045503,145.96528 24.8122961,145.940785 24.5078646,145.940785 C23.8502926,145.940785 23.195765,146.107855 22.5448905,146.440113 C21.8927983,146.77237 21.3819623,147.112164 21.009947,147.456983 C20.6385406,147.803059 20.1368376,148.302387 19.5030113,148.954968 L13.1464822,155.51281 C12.902937,155.764672 12.6350373,156.020931 12.3427831,156.284727 C11.8800473,156.736949 11.5390841,157.076743 11.3198934,157.302854 C11.1013116,157.528337 10.8455892,157.84238 10.5527261,158.244983 C10.2604719,158.646957 10.0692889,159.042023 9.97735062,159.432065 C9.88602118,159.82085 9.87019075,160.236014 9.93229476,160.675046 C10.0418901,161.466434 10.3700672,162.070024 10.9180439,162.484561 C11.4660205,162.899097 12.0748834,163.106366 12.7446327,163.106366 C13.6335726,163.106366 14.3946512,162.779761 15.0278687,162.125924 L25.0193095,151.819038 C25.4582997,151.368073 25.5794634,150.897009 25.3846272,150.405846 C25.2025772,149.95488 24.879271,149.727513 24.4165352,149.727513 C24.088358,149.727513 23.7833177,149.872601 23.5032408,150.160892 C23.2718728,150.36188 23.0344163,150.60118 22.7908711,150.87691 L15.9052402,157.905188 L14.644285,156.642736 L14.7721463,156.511466 L21.8599197,149.049181 C22.2733376,148.622082 22.6837113,148.302387 23.0922583,148.088838 C23.5001965,147.875288 23.9842425,147.768514 24.5450052,147.768514 C24.6546006,147.768514 24.830562,147.781076 25.0741071,147.805571 C26.1706693,148.019748 26.8830389,148.672957 27.2112161,149.765826 C27.3944838,150.355599 27.4121408,150.959189 27.2660137,151.574085 C27.1198866,152.189609 26.8343299,152.717201 26.4081258,153.157489 L19.2107571,160.581461 C19.0031348,160.79501 18.6566918,161.178143 18.1696014,161.731486 C17.6952972,162.271012 17.3324149,162.673615 17.0827811,162.936782 C16.8331473,163.200578 16.5134942,163.486357 16.1244308,163.793491 C15.7341497,164.101253 15.3383888,164.356256 14.9365392,164.557872 C14.2552216,164.908343 13.5300659,165.084835 12.7628986,165.084835 C11.9104904,165.084835 11.1250573,164.883848 10.406599,164.481245 C9.68874959,164.07927 9.11580957,163.520902 8.68960551,162.804884 C8.10570595,161.824443 7.89260393,160.738483 8.05029943,159.54512 C8.20921265,158.351757 8.70178277,157.328606 9.53044523,156.473153 L18.8819711,146.826385 C19.7465564,145.934504 20.4217854,145.337194 20.9094847,145.036341 C22.0060468,144.346075 23.2048979,144 24.5078646,144 C25.5191859,144 26.4440488,144.207268 27.2848885,144.621805 C28.246283,145.073398 29.0378049,145.720955 29.6588451,146.562589 C30.2804941,147.404224 30.6884323,148.370848 30.8826596,149.463717 C31.089673,150.631956 31.022698,151.781353 30.6823437,152.912535 C30.3407715,154.04309 29.7617429,155.029812 28.9464754,155.870819 L19.5030113,165.5 L18.242665,164.368818 L18.1148038,164.236292" id="Fill-194-Copy" stroke="#3A5868" stroke-width="0.854601" fill="#78A9C2" transform="translate(19.500000, 154.750000) scale(-1, 1) translate(-19.500000, -154.750000) "></path>
                <g id="Rectangle-2-Copy-5" filter="url(#filter-3)">
                    <use fill="#FFFFFF" fill-rule="evenodd" xlink:href="#path-2"></use>
                    <rect stroke="#78A9C2" stroke-width="0.5" x="0.25" y="44.25" width="338.5" height="37"></rect>
                </g>
                <path d="M310,2.5 L310,34.5" id="Line-Copy" stroke="#000000" stroke-width="2.84267288" opacity="0.131963315" stroke-linecap="square"></path>
                <g id="Rectangle-2-Copy-3" filter="url(#filter-5)">
                    <use fill="#FFFFFF" fill-rule="evenodd" xlink:href="#path-4"></use>
                    <rect stroke="#9B9B9B" stroke-width="0.5" x="0.25" y="0.25" width="338.5" height="37"></rect>
                </g>
                <g id="Rectangle-2-Copy-4" filter="url(#filter-7)">
                    <use fill="#FFFFFF" fill-rule="evenodd" xlink:href="#path-6"></use>
                    <rect stroke="#78A9C2" stroke-width="0.5" x="0.25" y="89.75" width="338.5" height="37"></rect>
                </g>
                <text id="Attachments-Copy" opacity="0.713994565" font-family="Roboto-Regular, Roboto" font-size="13" font-weight="normal" fill="#302F2E">
                    <tspan x="41.5" y="161">Attachments</tspan>
                </text>
                <text id="project-title-copy-3" opacity="0.713994565" font-family="Roboto-Regular, Roboto" font-size="13" font-weight="normal" fill="#302F2E">
                    <tspan x="41.5" y="25.5">Project A</tspan>
                </text>
                <text id="Assign-Copy" opacity="0.713994565" font-family="Roboto-Regular, Roboto" font-size="13" font-weight="normal" fill="#302F2E">
                    <tspan x="41.5" y="70.5">Assign</tspan>
                </text>
                <text id="Note-Copy" opacity="0.713994565" font-family="Roboto-Regular, Roboto" font-size="13" font-weight="normal" fill="#302F2E">
                    <tspan x="41.5" y="115">Note</tspan>
                </text>
                <path d="M11.29916,10.5 L15.5199627,10.5 C15.9614373,10.5 16.3875022,10.662318 16.7170692,10.9560618 L17.4550613,11.613836 C17.7022366,11.8341439 18.0217853,11.9558824 18.3528912,11.9558824 L28.20084,11.9558824 C29.1944886,11.9558824 30,12.7613937 30,13.7550424 L30,25.20084 C30,26.1944886 29.1944886,27 28.20084,27 L11.29916,27 C10.3055114,27 9.5,26.1944886 9.5,25.20084 L9.5,12.29916 C9.5,11.3055114 10.3055114,10.5 11.29916,10.5 Z M10.5,14.5 L10.5,15.5 L29,15.5 L29,14.5 L10.5,14.5 Z" id="Rectangle-193-Copy" stroke="#3A5868" stroke-width="0.89958" fill="#78A9C2"></path>
                <path d="M20.6111111,106.75 L27.5,106.75 L27.5,118.5625 C27.5,118.690833 27.4598148,118.795833 27.3794444,118.8775 C27.2996481,118.959167 27.1957407,119 27.0694444,119 L12.4305556,119 C12.3042593,119 12.2009259,118.959167 12.1205556,118.8775 C12.0407593,118.795833 12,118.690833 12,118.5625 L12,98.4375 C12,98.3091667 12.0407593,98.2041667 12.1205556,98.1225 C12.2009259,98.0408333 12.3042593,98 12.4305556,98 L20.6111111,98 L20.6111111,106.75 L20.6111111,106.75 L20.6111111,106.75 L20.6111111,106.75 Z M27.5,104.5 L22.5,104.5 L22.5,99.5 L27.5,104.5 L27.5,104.5 Z" id="Fill-28-Copy" stroke="#3A5868" stroke-width="0.89958" fill="#78A9C2"></path>
                <path d="M317.249697,148.197308 L317.249697,148.197308 C317.525765,147.934231 317.972698,147.934231 318.248059,148.197308 L324.086428,153.775215 C324.637857,154.302043 324.637857,155.156706 324.086428,155.683535 L318.205696,161.302589 C317.932453,161.562968 317.491168,161.566341 317.214395,161.309335 L317.214395,161.309335 C316.931267,161.046933 316.928442,160.614542 317.206628,160.348092 L322.588886,155.206623 C322.864953,154.942872 322.864953,154.515877 322.588886,154.252126 L317.249697,149.15113 C316.97363,148.888053 316.97363,148.461059 317.249697,148.197308" id="arrow_left-[#335]-copy-35" fill="#9B9B9B"></path>
                <path d="M316.78299,56.6973077 L316.78299,56.6973077 C317.095867,56.4342308 317.602391,56.4342308 317.914467,56.6973077 L324.531285,62.2752146 C325.156238,62.8020431 325.156238,63.6567061 324.531285,64.1835346 L317.866455,69.8025894 C317.55678,70.0629682 317.056657,70.0663409 316.742981,69.8093349 L316.742981,69.8093349 C316.422102,69.5469325 316.418901,69.1145419 316.734178,68.8480921 L322.83407,63.7066232 C323.146947,63.4428717 323.146947,63.0158775 322.83407,62.7521259 L316.78299,57.6511305 C316.470114,57.3880535 316.470114,56.9610593 316.78299,56.6973077" id="arrow_left-[#335]-copy-36" fill="#9B9B9B"></path>
                <path d="M316.78299,102.197308 L316.78299,102.197308 C317.095867,101.934231 317.602391,101.934231 317.914467,102.197308 L324.531285,107.775215 C325.156238,108.302043 325.156238,109.156706 324.531285,109.683535 L317.866455,115.302589 C317.55678,115.562968 317.056657,115.566341 316.742981,115.309335 L316.742981,115.309335 C316.422102,115.046933 316.418901,114.614542 316.734178,114.348092 L322.83407,109.206623 C323.146947,108.942872 323.146947,108.515877 322.83407,108.252126 L316.78299,103.15113 C316.470114,102.888053 316.470114,102.461059 316.78299,102.197308" id="arrow_left-[#335]-copy-37" fill="#9B9B9B"></path>
            </g>
            <g id="Group-3-Copy" transform="translate(32.500000, 327.500000)" fill="#78A9C2" stroke="#3A5868" stroke-width="0.89958">
                <path d="M24.5,14.1529167 L24.5,16 L9.5,16 L9.5,14.1529167 L14.5,10.8333333 L14.5,9.54166667 C14.1916667,9.54166667 13.9066667,9.22090278 13.6441667,8.579375 C13.38125,7.93784722 13.25,7.3975 13.25,6.95833333 L13.25,4.375 C13.25,3.30765278 13.6166667,2.39444444 14.3504167,1.63666667 C15.08375,0.878888889 15.9666667,0.5 17,0.5 C18.0333333,0.5 18.9166667,0.878888889 19.65,1.63666667 C20.3833333,2.39444444 20.75,3.30765278 20.75,4.375 L20.75,6.95833333 C20.75,7.3975 20.6191667,7.93784722 20.35625,8.579375 C20.09375,9.22090278 19.80875,9.54166667 19.5,9.54166667 L19.5,10.8333333 L24.5,14.1529167" id="Fill-14"></path>
                <path d="M15,16.5 L0,16.5 L0,14.53375 L5,11 L5,9.625 C4.69166667,9.625 4.40666667,9.28354167 4.14416667,8.600625 C3.88125,7.91770833 3.75,7.3425 3.75,6.875 L3.75,4.125 C3.75,2.98879167 4.11666667,2.01666667 4.85041667,1.21 C5.58375,0.403333333 6.46666667,0 7.5,0 C8.53333333,0 9.41666667,0.403333333 10.15,1.21 C10.8833333,2.01666667 11.25,2.98879167 11.25,4.125 L11.25,6.875 C11.25,7.3425 11.1191667,7.91770833 10.85625,8.600625 C10.59375,9.28354167 10.30875,9.625 10,9.625 L10,11 L15,14.53375 L15,16.5 Z" id="Fill-14"></path>
            </g>
            <g id="dp-arrows" transform="translate(335.000000, 283.000000)" fill="#000000">
                <polyline id="Path-2-copy" points="6.75 16 13.5 10 0 10"></polyline>
                <polygon id="Path-2" points="6.75 0 0 6 13.5 6"></polygon>
            </g>
            <g id="bottom-menu-copy-2" transform="translate(79.000000, 481.500000)">
                <path d="M18.439875,10.409159 L18.5,10.409159 L18.5,24.4647729 L18.5,24.5 L10.40625,24.5 L10.40625,19.803053 L8.09375,19.803053 L8.09375,24.5 L0,24.5 L0,10.3927197 L9.217625,1 L18.439875,10.409159 Z" id="home-[#1392]-copy-2" stroke="#3A5868" stroke-width="0.731502768" fill="#78A9C2" transform="translate(9.250000, 12.750000) scale(-1, 1) translate(-9.250000, -12.750000) "></path>
                <g id="Group-6" transform="translate(100.500000, 0.000000)">
                    <ellipse id="Oval-3" stroke="#78A9C2" stroke-width="0.609870246" fill="#78A9C2" cx="12.75" cy="13" rx="12.75" ry="13"></ellipse>
                    <polygon id="Fill-2" fill="#3A5868" points="14.8636364 15.6363636 14.8636364 22 10.6363636 22 10.6363636 15.6363636 5 15.6363636 5 10.8636364 10.6363636 10.8636364 10.6363636 4.5 14.8636364 4.5 14.8636364 10.8636364 20.5 10.8636364 20.5 15.6363636"></polygon>
                </g>
                <path d="M221.363636,4.66666667 L225.613636,4.66666667 C225.716667,4.66666667 225.806818,4.7125 225.884606,4.80416667 C225.961364,4.89583333 226,5.00277778 226,5.125 L226,6.04166667 C226,6.17611111 225.963939,6.28611111 225.891818,6.37166667 C225.820212,6.45722222 225.72697,6.5 225.613636,6.5 L209.386364,6.5 C209.27303,6.5 209.180303,6.45722222 209.108182,6.37166667 C209.036576,6.28611111 209,6.17611111 209,6.04166667 L209,5.125 C209,5.00277778 209.039152,4.89583333 209.115909,4.80416667 C209.193182,4.7125 209.283333,4.66666667 209.386364,4.66666667 L213.636364,4.66666667 L213.636364,2.83333333 C213.636364,2.33222222 213.788333,1.90138889 214.092273,1.54083333 C214.396212,1.18088889 214.759394,1 215.181818,1 L219.818182,1 C220.241121,1 220.604303,1.18088889 220.908242,1.54083333 C221.211667,1.90138889 221.363636,2.33222222 221.363636,2.83333333 L221.363636,4.66666667 L221.363636,4.66666667 L221.363636,4.66666667 L221.363636,4.66666667 Z M210.5,8 L224.5,8 L224.5,22.6503885 C224.5,23.1509434 224.347037,23.5843507 224.04163,23.9506104 C223.735704,24.3168701 223.370148,24.5 222.944444,24.5 L212.055556,24.5 C211.63037,24.5 211.264815,24.3168701 210.958889,23.9506104 C210.652963,23.5843507 210.5,23.1509434 210.5,22.6503885 L210.5,8 L210.5,8 L210.5,8 L210.5,8 Z M212,22.5 L213.5,22.5 L213.5,10 L212,10 L212,10 L212,22.5 L212,22.5 Z M215,5 L219.5,5 L219.5,3 L215,3 L215,3 L215,5 L215,5 Z M215,22.5 L216.5,22.5 L216.5,10 L215,10 L215,10 L215,22.5 L215,22.5 Z M218.5,22.5 L220,22.5 L220,10 L218.5,10 L218.5,10 L218.5,22.5 L218.5,22.5 Z M221.5,22.5 L223,22.5 L223,10 L221.5,10 L221.5,10 L221.5,22.5 L221.5,22.5 Z" id="Fill-26" stroke="#3A5868" stroke-width="0.768077906" fill="#78A9C2"></path>
            </g>
            <g id="Group-4" transform="translate(-1.000000, 30.500000)">
                <g id="Group-3">
                    <g id="Rectangle-12">
                        <use fill="#3A5868" fill-rule="evenodd" xlink:href="#path-8"></use>
                        <rect stroke="#3A5868" stroke-width="1.5" x="0.75" y="0.75" width="384" height="29"></rect>
                    </g>
                    <g id="Group-2" transform="translate(23.500000, 6.000000)">
                        <polygon id="Rectangle-43-Copy" stroke="#FFFFFF" stroke-width="2.76950002" fill="#FFFFFF" points="0.700026602 9.52485255 10.5547588 2.77540755 10.1526416 2.5 0.176157593 9.3328321 0.29393498 9.4134971 0 9.61481134 10.0529288 16.5 10.4686157 16.2152987"></polygon>
                        <g id="Group" transform="translate(282.465450, 0.000000)">
                            <rect id="Rectangle-3" fill="#AFE6E1" x="0" y="0" width="58.3024772" height="20"></rect>
                            <text id="SAVE" font-family="Roboto-Black, Roboto" font-size="8.5" font-weight="700" letter-spacing="0.566666722" fill="#302F2E">
                                <tspan x="17.6525424" y="14">SAVE</tspan>
                            </text>
                        </g>
                    </g>
                </g>
                <g id="Group-2" transform="translate(167.500000, 5.000000)" fill="#FFFFFF" font-family="Roboto-Black, Roboto" font-size="18" font-weight="700" letter-spacing="1.73571432">
                    <text id="TASK">
                        <tspan x="0" y="19">TASK</tspan>
                    </text>
                </g>
                <g id="Group-7" transform="translate(32.500000, 50.500000)">
                    <g id="Group-11">
                        <text id="project-title-copy-2" font-family="Roboto-Regular, Roboto" font-size="17.5" font-weight="normal" letter-spacing="0.912500083" fill="#302F2E">
                            <tspan x="1" y="18">Project </tspan>
                        </text>
                        <g id="Group-5" transform="translate(259.500000, 0.000000)">
                            <g id="Rectangle-157-Copy">
                                <use fill="#FFFFFF" fill-rule="evenodd" xlink:href="#path-9"></use>
                                <rect stroke="#3A5868" stroke-width="0.825" x="0.4125" y="0.4125" width="71.175" height="19.675"></rect>
                            </g>
                            <rect id="Combined-Shape" stroke="#3A5868" stroke-width="1.65" fill="#3A5868" x="34.5" y="0" width="36.5" height="20.5"></rect>
                            <text id="Work" opacity="0.713994565" font-family="Roboto-Regular, Roboto" font-size="9.9" font-weight="normal" fill="#302F2E">
                                <tspan x="6" y="14.5">Work </tspan>
                            </text>
                        </g>
                        <g id="Line-4" opacity="0.299999982" stroke-linecap="square">
                            <use stroke="#000000" stroke-width="1" xlink:href="#path-10"></use>
                            <use stroke="#979797" stroke-width="0.5" xlink:href="#path-10"></use>
                        </g>
                    </g>
                </g>
            </g>
        </g>
    </g>
</svg>