<?xml version="1.0" encoding="UTF-8"?>
<svg width="384px" height="512px" viewBox="0 0 384 512" version="1.1" xmlns="http://www.w3.org/2000/svg" xmlns:xlink="http://www.w3.org/1999/xlink" style="background: #FFFFFF;">
    <!-- Generator: Sketch 48.2 (47327) - http://www.bohemiancoding.com/sketch -->
    <title>T11</title>
    <desc>Created with Sketch.</desc>
    <defs>
        <rect id="path-1" x="-0.5" y="240" width="386" height="231.5"></rect>
        <rect id="path-2" x="0" y="44" width="336" height="37.5"></rect>
        <filter x="0.0%" y="0.0%" width="100.0%" height="100.0%" filterUnits="objectBoundingBox" id="filter-3">
            <feGaussianBlur stdDeviation="0" in="SourceGraphic"></feGaussianBlur>
        </filter>
        <rect id="path-4" x="0" y="0" width="336" height="37.5"></rect>
        <filter x="0.0%" y="0.0%" width="100.0%" height="100.0%" filterUnits="objectBoundingBox" id="filter-5">
            <feGaussianBlur stdDeviation="0" in="SourceGraphic"></feGaussianBlur>
        </filter>
        <rect id="path-6" x="0" y="90" width="336" height="37.5"></rect>
        <filter x="0.0%" y="0.0%" width="100.0%" height="100.0%" filterUnits="objectBoundingBox" id="filter-7">
            <feGaussianBlur stdDeviation="0" in="SourceGraphic"></feGaussianBlur>
        </filter>
        <rect id="path-8" x="14" y="187" width="156" height="24.5" rx="2.1"></rect>
        <rect id="path-9" x="0" y="0" width="73" height="21.5"></rect>
        <path d="M1.5,22.5 L315,22.5" id="path-10"></path>
        <rect id="path-11" x="0" y="0" width="385.5" height="30.5"></rect>
    </defs>
    <g id="Page-1" stroke="none" stroke-width="1" fill="none" fill-rule="evenodd">
        <g id="Artboard" transform="translate(-560.000000, -3084.000000)"></g>
        <g id="T11">
            <g id="Rectangle-4-Copy" opacity="0.15772192">
                <use fill="#78A9C2" fill-rule="evenodd" xlink:href="#path-1"></use>
                <rect stroke="#000000" stroke-width="0.94" x="-0.03" y="240.47" width="385.06" height="230.56"></rect>
            </g>
            <g id="StatusBar-Light-iPhone6" transform="translate(0.500000, 0.000000)">
                <rect id="Background" fill="#FFFFFF" x="0" y="0" width="382.5" height="20.5"></rect>
                <path d="M351,6.5 C351,5.67157288 351.671573,5 352.5,5 L373,5 C373.828427,5 374.5,5.67157288 374.5,6.5 L374.5,14 C374.5,14.8284271 373.828427,15.5 373,15.5 L352.5,15.5 C351.671573,15.5 351,14.8284271 351,14 L351,6.5 Z M351.5,7 L351.5,13.5 C351.5,14.3284271 352.171573,15 353,15 L372.5,15 C373.328427,15 374,14.3284271 374,13.5 L374,7 C374,6.17157288 373.328427,5.5 372.5,5.5 L353,5.5 C352.171573,5.5 351.5,6.17157288 351.5,7 Z M352,7.5 C352,6.67157288 352.671573,6 353.5,6 L363,6 L363,14.5 L353.5,14.5 C352.671573,14.5 352,13.8284271 352,13 L352,7.5 Z M377.5,10 C377.5,11.0178721 376.630764,11.8599457 375.5,12 L375.5,8 C376.630764,8.14005431 377.5,8.98212794 377.5,10 Z" id="battery-@2x" fill="#000000"></path>
                <text id="49%" font-family="HelveticaNeue, Helvetica Neue" font-size="12" font-weight="normal" line-spacing="12" fill="#000000">
                    <tspan x="323" y="16">49%</tspan>
                </text>
                <path d="M314.5,11.5 L316,13 L314.5,14.5 L314.5,11.5 Z M314.5,9 L314.5,6 L316,7.5 L314.5,9 Z M317.5,7.64722653 L313.528486,3.5 L313.528486,9.20243648 L310.5,6.09201658 L309.5,7.12882321 L312.95349,10.2504999 L309.5,13.349663 L310.5,14.3864696 L313.528486,11.2760497 L313.528486,17 L317.5,12.8312597 L315,10.2504998 L317.5,7.64722653 Z" id="bluetooth-@2x" fill="#535353"></path>
                <text id="9:49-AM" font-family="HelveticaNeue, Helvetica Neue" font-size="12" font-weight="normal" letter-spacing="0.599999905" fill="#000000">
                    <tspan x="166.692" y="14">9:49 AM</tspan>
                </text>
                <path d="M79.4957516,7.06231003 C81.4355242,7.06231003 83.2033612,7.79635258 84.5588529,9 L85.5,7.93262411 C83.894602,6.50101317 81.7978883,5.5 79.4957516,5.5 C77.1971136,5.5 75.1033987,6.49797366 73.5,7.92502533 L74.4391478,8.99392097 C75.7936399,7.79381966 77.5584781,7.06231003 79.4957516,7.06231003 L79.4957516,7.06231003 Z M82.5134951,11 L83.5,9.95755423 C82.426334,9.07591623 81.0297759,8.5 79.4975238,8.5 C77.9682432,8.5 76.5726755,9.07451384 75.5,9.95334705 L76.4850192,10.9971952 C77.2962115,10.3394727 78.3470967,9.9407255 79.4975238,9.9407255 C80.6494367,9.9407255 81.7018076,10.3408751 82.5134951,11 Z M81.5,12.2681206 C80.95843,11.8142533 80.2610792,11.5 79.4987791,11.5 C78.7379441,11.5 78.04157,11.8137668 77.5,12.2656883 L79.4987791,14.5 L81.5,12.2681206 L81.5,12.2681206 Z" id="wifi-@2x" fill="#0C0000"></path>
                <text id="Yext" font-family="HelveticaNeue, Helvetica Neue" font-size="12" font-weight="normal" fill="#000000">
                    <tspan x="45" y="13.5">Yext</tspan>
                </text>
                <path d="M8,13 C6.34314567,13 5,11.6568543 5,10 C5,8.34314567 6.34314567,7 8,7 C9.65685433,7 11,8.34314567 11,10 C11,11.6568543 9.65685433,13 8,13 Z M15,13 C13.3431457,13 12,11.6568543 12,10 C12,8.34314567 13.3431457,7 15,7 C16.6568543,7 18,8.34314567 18,10 C18,11.6568543 16.6568543,13 15,13 Z M22,13 C20.3431457,13 19,11.6568543 19,10 C19,8.34314567 20.3431457,7 22,7 C23.6568543,7 25,8.34314567 25,10 C25,11.6568543 23.6568543,13 22,13 Z M29.5,13 C27.8431457,13 26.5,11.6568543 26.5,10 C26.5,8.34314567 27.8431457,7 29.5,7 C31.1568543,7 32.5,8.34314567 32.5,10 C32.5,11.6568543 31.1568543,13 29.5,13 Z M29.5,12.5 C30.8807119,12.5 32,11.3807119 32,10 C32,8.61928806 30.8807119,7.5 29.5,7.5 C28.1192881,7.5 27,8.61928806 27,10 C27,11.3807119 28.1192881,12.5 29.5,12.5 Z M36.5,13 C34.8431457,13 33.5,11.6568543 33.5,10 C33.5,8.34314567 34.8431457,7 36.5,7 C38.1568543,7 39.5,8.34314567 39.5,10 C39.5,11.6568543 38.1568543,13 36.5,13 Z M36.5,12.5 C37.8807119,12.5 39,11.3807119 39,10 C39,8.61928806 37.8807119,7.5 36.5,7.5 C35.1192881,7.5 34,8.61928806 34,10 C34,11.3807119 35.1192881,12.5 36.5,12.5 Z" id="signal-@2x" fill="#000000"></path>
            </g>
            <path d="M1,114 L385.755005,114" id="Line-4" stroke="#000000" stroke-width="1.5" stroke-linecap="square"></path>
            <text id="Due-Date/Time" opacity="0.713994565" font-family="Roboto-Regular, Roboto" font-size="13.13" font-weight="normal" fill="#302F2E">
                <tspan x="46" y="153.5">Due Date/Time</tspan>
            </text>
            <g id="circle-check" transform="translate(30.500000, 178.000000)">
                <ellipse id="Oval-3" stroke="#78A9C2" stroke-width="1.01" fill="#78A9C2" cx="11.5" cy="11.25" rx="11.5" ry="11.25"></ellipse>
                <polygon id="Fill-2" fill="#3A5868" points="13.5909091 13.2272727 13.5909091 18.5 9.90909091 18.5 9.90909091 13.2272727 5 13.2272727 5 9.27272727 9.90909091 9.27272727 9.90909091 4 13.5909091 4 13.5909091 9.27272727 18.5 9.27272727 18.5 13.2272727"></polygon>
            </g>
            <path d="M1,129.5 L385.5,129.5" id="Line-4" stroke="#3A5868" stroke-width="1.01" stroke-linecap="square"></path>
            <g id="circle-check" transform="translate(21.000000, 136.500000)">
                <ellipse id="Oval-3" stroke="#78A9C2" stroke-width="1.01" fill="#78A9C2" cx="10.25" cy="10.5" rx="10.25" ry="10.5"></ellipse>
                <polygon id="Fill-2" fill="#3A5868" points="12.1363636 12.0909091 12.1363636 17 8.86363636 17 8.86363636 12.0909091 4.5 12.0909091 4.5 8.40909091 8.86363636 8.40909091 8.86363636 3.5 12.1363636 3.5 12.1363636 8.40909091 16.5 8.40909091 16.5 12.0909091"></polygon>
            </g>
            <g id="option1-copy-2" transform="translate(24.500000, 272.000000)">
                <rect id="Rectangle-2-Copy-6" stroke="#78A9C2" stroke-width="0.5" fill="#FFFFFF" x="0" y="136" width="336" height="37.5"></rect>
                <path d="M18.1148038,164.236292 L22.7360735,159.412594 L27.3396861,154.721422 C28.4472078,153.578306 29.0438935,152.372382 29.1291343,151.103021 C29.2265524,149.872601 28.9166411,148.769682 28.1981829,147.796778 C27.4785069,146.822617 26.5414668,146.230332 25.3846272,146.015527 C25.1045503,145.96528 24.8122961,145.940785 24.5078646,145.940785 C23.8502926,145.940785 23.195765,146.107855 22.5448905,146.440113 C21.8927983,146.77237 21.3819623,147.112164 21.009947,147.456983 C20.6385406,147.803059 20.1368376,148.302387 19.5030113,148.954968 L13.1464822,155.51281 C12.902937,155.764672 12.6350373,156.020931 12.3427831,156.284727 C11.8800473,156.736949 11.5390841,157.076743 11.3198934,157.302854 C11.1013116,157.528337 10.8455892,157.84238 10.5527261,158.244983 C10.2604719,158.646957 10.0692889,159.042023 9.97735062,159.432065 C9.88602118,159.82085 9.87019075,160.236014 9.93229476,160.675046 C10.0418901,161.466434 10.3700672,162.070024 10.9180439,162.484561 C11.4660205,162.899097 12.0748834,163.106366 12.7446327,163.106366 C13.6335726,163.106366 14.3946512,162.779761 15.0278687,162.125924 L25.0193095,151.819038 C25.4582997,151.368073 25.5794634,150.897009 25.3846272,150.405846 C25.2025772,149.95488 24.879271,149.727513 24.4165352,149.727513 C24.088358,149.727513 23.7833177,149.872601 23.5032408,150.160892 C23.2718728,150.36188 23.0344163,150.60118 22.7908711,150.87691 L15.9052402,157.905188 L14.644285,156.642736 L14.7721463,156.511466 L21.8599197,149.049181 C22.2733376,148.622082 22.6837113,148.302387 23.0922583,148.088838 C23.5001965,147.875288 23.9842425,147.768514 24.5450052,147.768514 C24.6546006,147.768514 24.830562,147.781076 25.0741071,147.805571 C26.1706693,148.019748 26.8830389,148.672957 27.2112161,149.765826 C27.3944838,150.355599 27.4121408,150.959189 27.2660137,151.574085 C27.1198866,152.189609 26.8343299,152.717201 26.4081258,153.157489 L19.2107571,160.581461 C19.0031348,160.79501 18.6566918,161.178143 18.1696014,161.731486 C17.6952972,162.271012 17.3324149,162.673615 17.0827811,162.936782 C16.8331473,163.200578 16.5134942,163.486357 16.1244308,163.793491 C15.7341497,164.101253 15.3383888,164.356256 14.9365392,164.557872 C14.2552216,164.908343 13.5300659,165.084835 12.7628986,165.084835 C11.9104904,165.084835 11.1250573,164.883848 10.406599,164.481245 C9.68874959,164.07927 9.11580957,163.520902 8.68960551,162.804884 C8.10570595,161.824443 7.89260393,160.738483 8.05029943,159.54512 C8.20921265,158.351757 8.70178277,157.328606 9.53044523,156.473153 L18.8819711,146.826385 C19.7465564,145.934504 20.4217854,145.337194 20.9094847,145.036341 C22.0060468,144.346075 23.2048979,144 24.5078646,144 C25.5191859,144 26.4440488,144.207268 27.2848885,144.621805 C28.246283,145.073398 29.0378049,145.720955 29.6588451,146.562589 C30.2804941,147.404224 30.6884323,148.370848 30.8826596,149.463717 C31.089673,150.631956 31.022698,151.781353 30.6823437,152.912535 C30.3407715,154.04309 29.7617429,155.029812 28.9464754,155.870819 L19.5030113,165.5 L18.242665,164.368818 L18.1148038,164.236292" id="Fill-194-Copy" stroke="#3A5868" stroke-width="0.854601" fill="#78A9C2" transform="translate(19.500000, 154.750000) scale(-1, 1) translate(-19.500000, -154.750000) "></path>
                <g id="Rectangle-2-Copy-5" filter="url(#filter-3)">
                    <use fill="#FFFFFF" fill-rule="evenodd" xlink:href="#path-2"></use>
                    <rect stroke="#78A9C2" stroke-width="0.5" x="0.25" y="44.25" width="335.5" height="37"></rect>
                </g>
                <path d="M27,70.1529167 L27,72 L12,72 L12,70.1529167 L17,66.8333333 L17,65.5416667 C16.6916667,65.5416667 16.4066667,65.2209028 16.1441667,64.579375 C15.88125,63.9378472 15.75,63.3975 15.75,62.9583333 L15.75,60.375 C15.75,59.3076528 16.1166667,58.3944444 16.8504167,57.6366667 C17.58375,56.8788889 18.4666667,56.5 19.5,56.5 C20.5333333,56.5 21.4166667,56.8788889 22.15,57.6366667 C22.8833333,58.3944444 23.25,59.3076528 23.25,60.375 L23.25,62.9583333 C23.25,63.3975 23.1191667,63.9378472 22.85625,64.579375 C22.59375,65.2209028 22.30875,65.5416667 22,65.5416667 L22,66.8333333 L27,70.1529167" id="Fill-14" stroke="#3A5868" stroke-width="0.89958" fill="#78A9C2"></path>
                <path d="M27,72.5 L12,72.5 L12,70.53375 L17,67 L17,65.625 C16.6916667,65.625 16.4066667,65.2835417 16.1441667,64.600625 C15.88125,63.9177083 15.75,63.3425 15.75,62.875 L15.75,60.125 C15.75,58.9887917 16.1166667,58.0166667 16.8504167,57.21 C17.58375,56.4033333 18.4666667,56 19.5,56 C20.5333333,56 21.4166667,56.4033333 22.15,57.21 C22.8833333,58.0166667 23.25,58.9887917 23.25,60.125 L23.25,62.875 C23.25,63.3425 23.1191667,63.9177083 22.85625,64.600625 C22.59375,65.2835417 22.30875,65.625 22,65.625 L22,67 L27,70.53375 L27,72.5 Z" id="Fill-14" stroke="#3A5868" stroke-width="0.89958" fill="#78A9C2"></path>
                <path d="M307,2.5 L307,35" id="Line-Copy" stroke="#000000" stroke-width="2.84267288" opacity="0.131963315" stroke-linecap="square"></path>
                <g id="Rectangle-2-Copy-3" filter="url(#filter-5)">
                    <use fill="#FFFFFF" fill-rule="evenodd" xlink:href="#path-4"></use>
                    <rect stroke="#9B9B9B" stroke-width="0.5" x="0.25" y="0.25" width="335.5" height="37"></rect>
                </g>
                <g id="Rectangle-2-Copy-4" filter="url(#filter-7)">
                    <use fill="#FFFFFF" fill-rule="evenodd" xlink:href="#path-6"></use>
                    <rect stroke="#78A9C2" stroke-width="0.5" x="0.25" y="90.25" width="335.5" height="37"></rect>
                </g>
                <text id="Attachments-Copy" opacity="0.713994565" font-family="Roboto-Regular, Roboto" font-size="13" font-weight="normal" fill="#302F2E">
                    <tspan x="43" y="161.5">Attachments</tspan>
                </text>
                <path d="M313.749697,148.697308 L313.749697,148.697308 C314.025765,148.434231 314.472698,148.434231 314.748059,148.697308 L320.586428,154.275215 C321.137857,154.802043 321.137857,155.656706 320.586428,156.183535 L314.705696,161.802589 C314.432453,162.062968 313.991168,162.066341 313.714395,161.809335 L313.714395,161.809335 C313.431267,161.546933 313.428442,161.114542 313.706628,160.848092 L319.088886,155.706623 C319.364953,155.442872 319.364953,155.015877 319.088886,154.752126 L313.749697,149.65113 C313.47363,149.388053 313.47363,148.961059 313.749697,148.697308" id="arrow_left-[#335]-copy-38" fill="#9B9B9B"></path>
                <path d="M313.28299,58.1973077 L313.28299,58.1973077 C313.595867,57.9342308 314.102391,57.9342308 314.414467,58.1973077 L321.031285,63.7752146 C321.656238,64.3020431 321.656238,65.1567061 321.031285,65.6835346 L314.366455,71.3025894 C314.05678,71.5629682 313.556657,71.5663409 313.242981,71.3093349 L313.242981,71.3093349 C312.922102,71.0469325 312.918901,70.6145419 313.234178,70.3480921 L319.33407,65.2066232 C319.646947,64.9428717 319.646947,64.5158775 319.33407,64.2521259 L313.28299,59.1511305 C312.970114,58.8880535 312.970114,58.4610593 313.28299,58.1973077" id="arrow_left-[#335]-copy-39" fill="#9B9B9B"></path>
                <path d="M313.28299,100.697308 L313.28299,100.697308 C313.595867,100.434231 314.102391,100.434231 314.414467,100.697308 L321.031285,106.275215 C321.656238,106.802043 321.656238,107.656706 321.031285,108.183535 L314.366455,113.802589 C314.05678,114.062968 313.556657,114.066341 313.242981,113.809335 L313.242981,113.809335 C312.922102,113.546933 312.918901,113.114542 313.234178,112.848092 L319.33407,107.706623 C319.646947,107.442872 319.646947,107.015877 319.33407,106.752126 L313.28299,101.65113 C312.970114,101.388053 312.970114,100.961059 313.28299,100.697308" id="arrow_left-[#335]-copy-40" fill="#9B9B9B"></path>
            </g>
            <text id="Note-Copy" opacity="0.713994565" font-family="Roboto-Regular, Roboto" font-size="13" font-weight="normal" fill="#302F2E">
                <tspan x="67.5" y="387.5">Note</tspan>
            </text>
            <path d="M45.6111111,377.75 L52.5,377.75 L52.5,389.5625 C52.5,389.690833 52.4598148,389.795833 52.3794444,389.8775 C52.2996481,389.959167 52.1957407,390 52.0694444,390 L37.4305556,390 C37.3042593,390 37.2009259,389.959167 37.1205556,389.8775 C37.0407593,389.795833 37,389.690833 37,389.5625 L37,369.4375 C37,369.309167 37.0407593,369.204167 37.1205556,369.1225 C37.2009259,369.040833 37.3042593,369 37.4305556,369 L45.6111111,369 L45.6111111,377.75 L45.6111111,377.75 L45.6111111,377.75 L45.6111111,377.75 Z M52.5,375.5 L47.5,375.5 L47.5,370.5 L52.5,375.5 L52.5,375.5 Z" id="Fill-28-Copy" stroke="#3A5868" stroke-width="0.89958" fill="#78A9C2"></path>
            <g id="dp-arrows" transform="translate(333.000000, 283.000000)" fill="#000000">
                <polyline id="Path-2-copy" points="6.75 16 13.5 10 0 10"></polyline>
                <polygon id="Path-2" points="6.75 0 0 6 13.5 6"></polygon>
            </g>
            <path d="M0.5,218.5 L387,218.5" id="Line-4" stroke="#3A5868" stroke-width="1.01" stroke-linecap="square"></path>
            <path d="M0.5,183.5 L385,183.5" id="Line-4-Copy-3" stroke="#3A5868" stroke-width="1.01" stroke-linecap="square"></path>
            <path d="M0.5,162.5 L385,162.5" id="Line-4-Copy-4" stroke="#3A5868" stroke-width="1.01" stroke-linecap="square"></path>
            <g id="calendar" transform="translate(15.000000, 156.000000)">
                <path d="M9.98959236,6 L15.75,0.23959236 L21.5104076,6 L68.75,6 L177.9,6 C179.059798,6 180,6.94020203 180,8.1 L180,214.4 C180,215.559798 179.059798,216.5 177.9,216.5 L2.1,216.5 C0.940202025,216.5 1.02645768e-14,215.559798 -5.32907052e-15,214.4 L0,8.1 C-1.42034288e-16,6.94020203 0.940202025,6 2.1,6 L9.98959236,6 Z" id="Drop-Down" stroke="#3A5868" stroke-width="2.8" fill="#FFFFFF"></path>
                <g id="Group-4" transform="translate(56.500000, 94.500000)">
                    <rect id="Rectangle-2" fill="#3A5868" x="0.5" y="0" width="23.5" height="22" rx="2.1"></rect>
                    <polygon id="Triangle" stroke="#FFFFFF" stroke-width="0.7" fill="#FFFFFF" stroke-linejoin="round" points="22 16.5 22 21 18 21"></polygon>
                </g>
                <g id="Adjust-Time-Button-Backgrounf" opacity="0.38">
                    <use fill="#AFE6E1" fill-rule="evenodd" xlink:href="#path-8"></use>
                    <rect stroke="#3A5868" stroke-width="1.4" x="14.7" y="187.7" width="154.6" height="23.1" rx="2.1"></rect>
                </g>
                <text id="7-14-21-28-4-11" font-family="Roboto-Regular, Roboto" font-size="9.8" font-weight="normal" line-spacing="22.4">
                    <tspan x="161.998535" y="65" fill="#212121">7</tspan>
                    <tspan x="159.24707" y="87.4" fill="#212121">14</tspan>
                    <tspan x="159.24707" y="109.8" fill="#212121">21</tspan>
                    <tspan x="159.24707" y="132.2" fill="#212121">28</tspan>
                    <tspan x="161.998535" y="154.6" fill="#9B9B9B">4</tspan>
                    <tspan x="159.24707" y="177" fill="#9B9B9B">11</tspan>
                </text>
                <text id="Sa" font-family="Roboto-Bold, Roboto" font-size="8.4" font-weight="bold" fill="#212121">
                    <tspan x="161" y="43">Sa</tspan>
                </text>
                <polygon id="Rectangle-43-Copy" stroke="#000000" stroke-width="1.77744" fill="#000000" points="143.90253 18.9505698 143.941585 18.9044755 140.633344 15 140.5 15.1573757 143.767868 19.0142015 140.528565 22.8373135 140.666409 23 144 19.0656065"></polygon>
                <polygon id="Rectangle-43" stroke="#000000" stroke-width="1.77744" fill="#000000" points="45.2321316 19.5142015 48.5 15.6573757 48.3666564 15.5 45.0584146 19.4044755 45.09747 19.4505698 45 19.5656065 48.3335912 23.5 48.4714346 23.3373135"></polygon>
                <path d="M85.2340604,191.342282 C86.689877,190.447427 88.2785235,190 90,190 C91.7220078,190 93.310123,190.447427 94.7664709,191.342282 C96.2217562,192.237136 97.3747204,193.450783 98.2253635,194.983221 C99.0749441,196.516219 99.5,198.187919 99.5,200 C99.5,201.812081 99.0749441,203.48434 98.2253635,205.016779 C97.3747204,206.549217 96.2217562,207.762864 94.7664709,208.657718 C93.310123,209.552573 91.7220078,210 90,210 C88.2785235,210 86.689877,209.552573 85.2340604,208.657718 C83.7777125,207.762864 82.6247483,206.549217 81.7751678,205.016779 C80.9250559,203.48434 80.5,201.812081 80.5,200 C80.5,198.187919 80.9250559,196.516219 81.7751678,194.983221 C82.6247483,193.450783 83.7777125,192.237136 85.2340604,191.342282 C85.2340604,191.342282 83.7777125,192.237136 85.2340604,191.342282 L85.2340604,191.342282 L85.2340604,191.342282 Z M94.5929147,195.054348 C93.3211755,193.684783 91.7898551,193 90,193 C88.2101449,193 86.6793478,193.684783 85.4076087,195.054348 C84.1358696,196.423913 83.5,198.072464 83.5,200 C83.5,201.927536 84.1358696,203.576087 85.4076087,204.945652 C86.6793478,206.315217 88.2101449,207 90,207 C91.7898551,207 93.3211755,206.315217 94.5929147,204.945652 C95.8641304,203.576087 96.5,201.927536 96.5,200 C96.5,198.072464 95.8641304,196.423913 94.5929147,195.054348 C94.5929147,195.054348 95.8641304,196.423913 94.5929147,195.054348 L94.5929147,195.054348 L94.5929147,195.054348 Z M93.5,199.875 L93.5,201.5 L88.5,201.5 L88.5,195 L90.1666667,195 L90.1666667,199.875 L93.5,199.875 Z" id="Fill-29" stroke="#979797" stroke-width="0.7" fill="#231F20"></path>
                <text id="1-8-15-22-29-5" font-family="Roboto-Regular, Roboto" font-size="9.8" font-weight="normal" line-spacing="22.4">
                    <tspan x="15.9985352" y="65" fill="#212121">1</tspan>
                    <tspan x="15.9985352" y="87.4" fill="#212121">8</tspan>
                    <tspan x="13.2470703" y="109.8" fill="#212121">15</tspan>
                    <tspan x="13.2470703" y="132.2" fill="#212121">22</tspan>
                    <tspan x="13.2470703" y="154.6" fill="#212121">29</tspan>
                    <tspan x="24.2529297" y="154.6" font-family="Roboto-Light, Roboto" font-weight="300" fill="#4A4A4A"></tspan>
                    <tspan x="15.9985352" y="177" fill="#9B9B9B">5</tspan>
                </text>
                <text id="2-9-16-23-30-6" font-family="Roboto-Regular, Roboto" font-size="9.8" font-weight="normal" line-spacing="22.4">
                    <tspan x="40.4985352" y="65" fill="#212121">2</tspan>
                    <tspan x="40.4985352" y="87.4" fill="#212121">9</tspan>
                    <tspan x="37.7470703" y="109.8" fill="#212121">16</tspan>
                    <tspan x="37.7470703" y="132.2" fill="#212121">23</tspan>
                    <tspan x="37.7470703" y="154.6" fill="#212121">30</tspan>
                    <tspan x="48.7529297" y="154.6" font-family="Roboto-Light, Roboto" font-weight="300" fill="#4A4A4A"></tspan>
                    <tspan x="40.4985352" y="177" fill="#9B9B9B">6</tspan>
                </text>
                <text id="3-10-17-24-31-7" font-family="Roboto-Regular, Roboto" font-size="9.8" font-weight="normal" line-spacing="22.4">
                    <tspan x="65.4985352" y="65" fill="#212121">3</tspan>
                    <tspan x="62.7470703" y="87.4" fill="#212121">10</tspan>
                    <tspan x="62.7470703" y="109.8" fill="#FFFFFF">17</tspan>
                    <tspan x="73.7529297" y="109.8" fill="#212121"></tspan>
                    <tspan x="62.7470703" y="132.2" fill="#212121">24</tspan>
                    <tspan x="62.7470703" y="154.6" fill="#212121">31</tspan>
                    <tspan x="73.7529297" y="154.6" fill="#9B9B9B"></tspan>
                    <tspan x="65.4985352" y="177" fill="#9B9B9B">7</tspan>
                </text>
                <text id="4-11-18-25-1-8" font-family="Roboto-Regular, Roboto" font-size="9.8" font-weight="normal" line-spacing="22.4">
                    <tspan x="89.4985352" y="65" fill="#212121">4</tspan>
                    <tspan x="86.7470703" y="87.4" fill="#212121">11</tspan>
                    <tspan x="86.7470703" y="109.8" fill="#212121">18</tspan>
                    <tspan x="86.7470703" y="132.2" fill="#212121">25</tspan>
                    <tspan x="89.4985352" y="154.6" fill="#9B9B9B">1</tspan>
                    <tspan x="89.4985352" y="177" fill="#9B9B9B">8</tspan>
                </text>
                <text id="5-12-19-26-2-9" font-family="Roboto-Regular, Roboto" font-size="9.8" font-weight="normal" line-spacing="22.4">
                    <tspan x="113.998535" y="65" fill="#212121">5</tspan>
                    <tspan x="111.24707" y="87.4" fill="#212121">12</tspan>
                    <tspan x="111.24707" y="109.8" fill="#212121">19</tspan>
                    <tspan x="111.24707" y="132.2" fill="#212121">26</tspan>
                    <tspan x="113.998535" y="154.6" fill="#9B9B9B">2</tspan>
                    <tspan x="113.998535" y="177" fill="#9B9B9B">9</tspan>
                </text>
                <text id="6-13-20-27-3-10" font-family="Roboto-Regular, Roboto" font-size="9.8" font-weight="normal" line-spacing="22.4">
                    <tspan x="137.998535" y="65" fill="#212121">6</tspan>
                    <tspan x="135.24707" y="87.4" fill="#212121">13</tspan>
                    <tspan x="135.24707" y="109.8" fill="#000000">20</tspan>
                    <tspan x="146.25293" y="109.8" fill="#212121"></tspan>
                    <tspan x="135.24707" y="132.2" fill="#212121">27</tspan>
                    <tspan x="137.998535" y="154.6" fill="#9B9B9B">3</tspan>
                    <tspan x="135.24707" y="177" fill="#9B9B9B">10</tspan>
                </text>
                <text id="Su" font-family="Roboto-Bold, Roboto" font-size="8.4" font-weight="bold" fill="#212121">
                    <tspan x="13.5" y="43">Su</tspan>
                </text>
                <text id="Mo" font-family="Roboto-Bold, Roboto" font-size="8.4" font-weight="bold" fill="#212121">
                    <tspan x="39" y="43">Mo</tspan>
                </text>
                <text id="Tu" font-family="Roboto-Bold, Roboto" font-size="8.4" font-weight="bold" fill="#212121">
                    <tspan x="62" y="43">Tu</tspan>
                </text>
                <text id="We" font-family="Roboto-Bold, Roboto" font-size="8.4" font-weight="bold" fill="#212121">
                    <tspan x="88" y="43">We</tspan>
                </text>
                <text id="Th" font-family="Roboto-Bold, Roboto" font-size="8.4" font-weight="bold" fill="#212121">
                    <tspan x="114.5" y="43">Th</tspan>
                </text>
                <text id="Fr" font-family="Roboto-Bold, Roboto" font-size="8.4" font-weight="bold" fill="#212121">
                    <tspan x="137.5" y="43">Fr</tspan>
                </text>
                <text id="September-2018" font-family="Roboto-Bold, Roboto" font-size="9.8" font-weight="bold" letter-spacing="0.349999994" fill="#212121">
                    <tspan x="56" y="23">September 2018</tspan>
                </text>
            </g>
            <path d="M-0.5,470.5 L384.5,470.5 L-0.5,470.5 Z" id="Line-2-Copy" stroke="#3A5868" stroke-width="3.21099997" fill="#4D5B69" opacity="0.849999964"></path>
            <g id="bottom-menu-copy-2" transform="translate(78.000000, 481.500000)">
                <path d="M18.439875,10.409159 L18.5,10.409159 L18.5,24.4647729 L18.5,24.5 L10.40625,24.5 L10.40625,19.803053 L8.09375,19.803053 L8.09375,24.5 L0,24.5 L0,10.3927197 L9.217625,1 L18.439875,10.409159 Z" id="home-[#1392]-copy-2" stroke="#3A5868" stroke-width="0.731502768" fill="#78A9C2" transform="translate(9.250000, 12.750000) scale(-1, 1) translate(-9.250000, -12.750000) "></path>
                <g id="Group-6" transform="translate(100.500000, 0.000000)">
                    <ellipse id="Oval-3" stroke="#78A9C2" stroke-width="0.609870246" fill="#78A9C2" cx="12.5" cy="13" rx="12.5" ry="13"></ellipse>
                    <polygon id="Fill-2" fill="#3A5868" points="14.8636364 15.6363636 14.8636364 22 10.6363636 22 10.6363636 15.6363636 5 15.6363636 5 10.8636364 10.6363636 10.8636364 10.6363636 4.5 14.8636364 4.5 14.8636364 10.8636364 20.5 10.8636364 20.5 15.6363636"></polygon>
                </g>
                <path d="M220.863636,4.66666667 L225.113636,4.66666667 C225.216667,4.66666667 225.306818,4.7125 225.384606,4.80416667 C225.461364,4.89583333 225.5,5.00277778 225.5,5.125 L225.5,6.04166667 C225.5,6.17611111 225.463939,6.28611111 225.391818,6.37166667 C225.320212,6.45722222 225.22697,6.5 225.113636,6.5 L208.886364,6.5 C208.77303,6.5 208.680303,6.45722222 208.608182,6.37166667 C208.536576,6.28611111 208.5,6.17611111 208.5,6.04166667 L208.5,5.125 C208.5,5.00277778 208.539152,4.89583333 208.615909,4.80416667 C208.693182,4.7125 208.783333,4.66666667 208.886364,4.66666667 L213.136364,4.66666667 L213.136364,2.83333333 C213.136364,2.33222222 213.288333,1.90138889 213.592273,1.54083333 C213.896212,1.18088889 214.259394,1 214.681818,1 L219.318182,1 C219.741121,1 220.104303,1.18088889 220.408242,1.54083333 C220.711667,1.90138889 220.863636,2.33222222 220.863636,2.83333333 L220.863636,4.66666667 L220.863636,4.66666667 L220.863636,4.66666667 L220.863636,4.66666667 Z M210,8 L224,8 L224,22.6503885 C224,23.1509434 223.847037,23.5843507 223.54163,23.9506104 C223.235704,24.3168701 222.870148,24.5 222.444444,24.5 L211.555556,24.5 C211.13037,24.5 210.764815,24.3168701 210.458889,23.9506104 C210.152963,23.5843507 210,23.1509434 210,22.6503885 L210,8 L210,8 L210,8 L210,8 Z M211.5,22.5 L213,22.5 L213,10 L211.5,10 L211.5,10 L211.5,22.5 L211.5,22.5 Z M214.5,5 L219,5 L219,3 L214.5,3 L214.5,3 L214.5,5 L214.5,5 Z M214.5,22.5 L216,22.5 L216,10 L214.5,10 L214.5,10 L214.5,22.5 L214.5,22.5 Z M218,22.5 L219.5,22.5 L219.5,10 L218,10 L218,10 L218,22.5 L218,22.5 Z M221,22.5 L222.5,22.5 L222.5,10 L221,10 L221,10 L221,22.5 L221,22.5 Z" id="Fill-26" stroke="#3A5868" stroke-width="0.768077906" fill="#78A9C2"></path>
            </g>
            <g id="Group-7" transform="translate(30.000000, 80.500000)">
                <g id="Group-8">
                    <text id="project-title-copy-4" font-family="Roboto-Regular, Roboto" font-size="17.5" font-weight="normal" letter-spacing="0.912500083" fill="#302F2E">
                        <tspan x="0" y="18.5">Set up mtg w/CJ </tspan>
                    </text>
                    <g id="Group-5" transform="translate(261.500000, 0.000000)">
                        <g id="Rectangle-157-Copy">
                            <use fill="#FFFFFF" fill-rule="evenodd" xlink:href="#path-9"></use>
                            <rect stroke="#3A5868" stroke-width="0.825" x="0.4125" y="0.4125" width="72.175" height="20.675"></rect>
                        </g>
                        <rect id="Combined-Shape" stroke="#3A5868" stroke-width="1.65" fill="#3A5868" x="34.9791667" y="0" width="37.0069444" height="21.5"></rect>
                        <text id="Work" opacity="0.713994565" font-family="Roboto-Regular, Roboto" font-size="9.9" font-weight="normal" fill="#302F2E">
                            <tspan x="6.26041667" y="16.0853659">Work </tspan>
                        </text>
                    </g>
                    <g id="Line-4" opacity="0.299999982" stroke-linecap="square">
                        <use stroke="#000000" stroke-width="1" xlink:href="#path-10"></use>
                        <use stroke="#979797" stroke-width="0.5" xlink:href="#path-10"></use>
                    </g>
                </g>
            </g>
            <g id="Group-3" transform="translate(-1.000000, 30.500000)">
                <g id="Rectangle-12">
                    <use fill="#3A5868" fill-rule="evenodd" xlink:href="#path-11"></use>
                    <rect stroke="#3A5868" stroke-width="1.5" x="0.75" y="0.75" width="384" height="29"></rect>
                </g>
                <g id="Group-2" transform="translate(23.500000, 6.000000)">
                    <polygon id="Rectangle-43-Copy" stroke="#FFFFFF" stroke-width="2.76950002" fill="#FFFFFF" points="0.700026602 9.52485255 10.5547588 2.77540755 10.1526416 2.5 0.176157593 9.3328321 0.29393498 9.4134971 0 9.61481134 10.0529288 16.5 10.4686157 16.2152987"></polygon>
                    <g id="Group" transform="translate(282.465450, 0.000000)">
                        <rect id="Rectangle-3" fill="#AFE6E1" x="0" y="0" width="58.3024772" height="20"></rect>
                        <text id="SAVE" font-family="Roboto-Black, Roboto" font-size="8.5" font-weight="700" letter-spacing="0.566666722" fill="#302F2E">
                            <tspan x="17.6525424" y="14">SAVE</tspan>
                        </text>
                    </g>
                </g>
            </g>
            <g id="Group-2" transform="translate(165.500000, 35.500000)" fill="#FFFFFF" font-family="Roboto-Black, Roboto" font-size="18" font-weight="700" letter-spacing="1.73571432">
                <text id="TASK">
                    <tspan x="0" y="19">TASK</tspan>
                </text>
            </g>
        </g>
    </g>
</svg>