<?xml version="1.0" encoding="UTF-8"?>
<svg width="384px" height="512px" viewBox="0 0 384 512" version="1.1" xmlns="http://www.w3.org/2000/svg" xmlns:xlink="http://www.w3.org/1999/xlink" style="background: #FFFFFF;">
    <!-- Generator: Sketch 48.2 (47327) - http://www.bohemiancoding.com/sketch -->
    <title>T12</title>
    <desc>Created with Sketch.</desc>
    <defs>
        <rect id="path-1" x="-1.5" y="240" width="386" height="231.5"></rect>
        <rect id="path-2" x="0" y="44" width="336" height="37.5"></rect>
        <filter x="0.0%" y="0.0%" width="100.0%" height="100.0%" filterUnits="objectBoundingBox" id="filter-3">
            <feGaussianBlur stdDeviation="0" in="SourceGraphic"></feGaussianBlur>
        </filter>
        <rect id="path-4" x="0" y="0" width="336" height="37.5"></rect>
        <filter x="0.0%" y="0.0%" width="100.0%" height="100.0%" filterUnits="objectBoundingBox" id="filter-5">
            <feGaussianBlur stdDeviation="0" in="SourceGraphic"></feGaussianBlur>
        </filter>
        <rect id="path-6" x="0" y="90" width="336" height="37.5"></rect>
        <filter x="0.0%" y="0.0%" width="100.0%" height="100.0%" filterUnits="objectBoundingBox" id="filter-7">
            <feGaussianBlur stdDeviation="0" in="SourceGraphic"></feGaussianBlur>
        </filter>
        <rect id="path-8" x="0" y="0" width="157.5" height="24" rx="2.1"></rect>
        <rect id="path-9" x="0" y="0" width="385.5" height="30.5"></rect>
        <path d="M48,103 L358.5,103" id="path-10"></path>
        <rect id="path-11" x="0" y="0" width="72" height="20.5"></rect>
    </defs>
    <g id="Page-1" stroke="none" stroke-width="1" fill="none" fill-rule="evenodd">
        <g id="Artboard" transform="translate(-165.000000, -3655.000000)"></g>
        <g id="T12">
            <g id="Rectangle-4" opacity="0.15772192">
                <use fill="#78A9C2" fill-rule="evenodd" xlink:href="#path-1"></use>
                <rect stroke="#000000" stroke-width="0.94" x="-1.03" y="240.47" width="385.06" height="230.56"></rect>
            </g>
            <g id="StatusBar-Light-iPhone6" transform="translate(0.500000, 0.000000)">
                <rect id="Background" fill="#FFFFFF" x="0" y="0" width="382.5" height="20.5"></rect>
                <path d="M351,6.5 C351,5.67157288 351.671573,5 352.5,5 L373,5 C373.828427,5 374.5,5.67157288 374.5,6.5 L374.5,14 C374.5,14.8284271 373.828427,15.5 373,15.5 L352.5,15.5 C351.671573,15.5 351,14.8284271 351,14 L351,6.5 Z M351.5,7 L351.5,13.5 C351.5,14.3284271 352.171573,15 353,15 L372.5,15 C373.328427,15 374,14.3284271 374,13.5 L374,7 C374,6.17157288 373.328427,5.5 372.5,5.5 L353,5.5 C352.171573,5.5 351.5,6.17157288 351.5,7 Z M352,7.5 C352,6.67157288 352.671573,6 353.5,6 L363,6 L363,14.5 L353.5,14.5 C352.671573,14.5 352,13.8284271 352,13 L352,7.5 Z M377.5,10 C377.5,11.0178721 376.630764,11.8599457 375.5,12 L375.5,8 C376.630764,8.14005431 377.5,8.98212794 377.5,10 Z" id="battery-@2x" fill="#000000"></path>
                <text id="49%" font-family="HelveticaNeue, Helvetica Neue" font-size="12" font-weight="normal" line-spacing="12" fill="#000000">
                    <tspan x="323" y="16">49%</tspan>
                </text>
                <path d="M314.5,11.5 L316,13 L314.5,14.5 L314.5,11.5 Z M314.5,9 L314.5,6 L316,7.5 L314.5,9 Z M317.5,7.64722653 L313.528486,3.5 L313.528486,9.20243648 L310.5,6.09201658 L309.5,7.12882321 L312.95349,10.2504999 L309.5,13.349663 L310.5,14.3864696 L313.528486,11.2760497 L313.528486,17 L317.5,12.8312597 L315,10.2504998 L317.5,7.64722653 Z" id="bluetooth-@2x" fill="#535353"></path>
                <text id="9:49-AM" font-family="HelveticaNeue, Helvetica Neue" font-size="12" font-weight="normal" letter-spacing="0.599999905" fill="#000000">
                    <tspan x="166.692" y="14">9:49 AM</tspan>
                </text>
                <path d="M79.4957516,7.06231003 C81.4355242,7.06231003 83.2033612,7.79635258 84.5588529,9 L85.5,7.93262411 C83.894602,6.50101317 81.7978883,5.5 79.4957516,5.5 C77.1971136,5.5 75.1033987,6.49797366 73.5,7.92502533 L74.4391478,8.99392097 C75.7936399,7.79381966 77.5584781,7.06231003 79.4957516,7.06231003 L79.4957516,7.06231003 Z M82.5134951,11 L83.5,9.95755423 C82.426334,9.07591623 81.0297759,8.5 79.4975238,8.5 C77.9682432,8.5 76.5726755,9.07451384 75.5,9.95334705 L76.4850192,10.9971952 C77.2962115,10.3394727 78.3470967,9.9407255 79.4975238,9.9407255 C80.6494367,9.9407255 81.7018076,10.3408751 82.5134951,11 Z M81.5,12.2681206 C80.95843,11.8142533 80.2610792,11.5 79.4987791,11.5 C78.7379441,11.5 78.04157,11.8137668 77.5,12.2656883 L79.4987791,14.5 L81.5,12.2681206 L81.5,12.2681206 Z" id="wifi-@2x" fill="#0C0000"></path>
                <text id="Yext" font-family="HelveticaNeue, Helvetica Neue" font-size="12" font-weight="normal" fill="#000000">
                    <tspan x="45" y="13.5">Yext</tspan>
                </text>
                <path d="M8,13 C6.34314567,13 5,11.6568543 5,10 C5,8.34314567 6.34314567,7 8,7 C9.65685433,7 11,8.34314567 11,10 C11,11.6568543 9.65685433,13 8,13 Z M15,13 C13.3431457,13 12,11.6568543 12,10 C12,8.34314567 13.3431457,7 15,7 C16.6568543,7 18,8.34314567 18,10 C18,11.6568543 16.6568543,13 15,13 Z M22,13 C20.3431457,13 19,11.6568543 19,10 C19,8.34314567 20.3431457,7 22,7 C23.6568543,7 25,8.34314567 25,10 C25,11.6568543 23.6568543,13 22,13 Z M29.5,13 C27.8431457,13 26.5,11.6568543 26.5,10 C26.5,8.34314567 27.8431457,7 29.5,7 C31.1568543,7 32.5,8.34314567 32.5,10 C32.5,11.6568543 31.1568543,13 29.5,13 Z M29.5,12.5 C30.8807119,12.5 32,11.3807119 32,10 C32,8.61928806 30.8807119,7.5 29.5,7.5 C28.1192881,7.5 27,8.61928806 27,10 C27,11.3807119 28.1192881,12.5 29.5,12.5 Z M36.5,13 C34.8431457,13 33.5,11.6568543 33.5,10 C33.5,8.34314567 34.8431457,7 36.5,7 C38.1568543,7 39.5,8.34314567 39.5,10 C39.5,11.6568543 38.1568543,13 36.5,13 Z M36.5,12.5 C37.8807119,12.5 39,11.3807119 39,10 C39,8.61928806 37.8807119,7.5 36.5,7.5 C35.1192881,7.5 34,8.61928806 34,10 C34,11.3807119 35.1192881,12.5 36.5,12.5 Z" id="signal-@2x" fill="#000000"></path>
            </g>
            <path d="M0,114 L385,114" id="Line-4" stroke="#000000" stroke-width="1.5" stroke-linecap="square"></path>
            <text id="Due-Date/Time" opacity="0.713994565" font-family="Roboto-Regular, Roboto" font-size="13.13" font-weight="normal" fill="#302F2E">
                <tspan x="52" y="153.5">Due Date/Time</tspan>
            </text>
            <g id="option1-copy-3" transform="translate(25.500000, 272.000000)">
                <rect id="Rectangle-2-Copy-6" stroke="#78A9C2" stroke-width="0.5" fill="#FFFFFF" x="0" y="136" width="336" height="37.5"></rect>
                <path d="M19.1148038,164.236292 L23.7360735,159.412594 L28.3396861,154.721422 C29.4472078,153.578306 30.0438935,152.372382 30.1291343,151.103021 C30.2265524,149.872601 29.9166411,148.769682 29.1981829,147.796778 C28.4785069,146.822617 27.5414668,146.230332 26.3846272,146.015527 C26.1045503,145.96528 25.8122961,145.940785 25.5078646,145.940785 C24.8502926,145.940785 24.195765,146.107855 23.5448905,146.440113 C22.8927983,146.77237 22.3819623,147.112164 22.009947,147.456983 C21.6385406,147.803059 21.1368376,148.302387 20.5030113,148.954968 L14.1464822,155.51281 C13.902937,155.764672 13.6350373,156.020931 13.3427831,156.284727 C12.8800473,156.736949 12.5390841,157.076743 12.3198934,157.302854 C12.1013116,157.528337 11.8455892,157.84238 11.5527261,158.244983 C11.2604719,158.646957 11.0692889,159.042023 10.9773506,159.432065 C10.8860212,159.82085 10.8701907,160.236014 10.9322948,160.675046 C11.0418901,161.466434 11.3700672,162.070024 11.9180439,162.484561 C12.4660205,162.899097 13.0748834,163.106366 13.7446327,163.106366 C14.6335726,163.106366 15.3946512,162.779761 16.0278687,162.125924 L26.0193095,151.819038 C26.4582997,151.368073 26.5794634,150.897009 26.3846272,150.405846 C26.2025772,149.95488 25.879271,149.727513 25.4165352,149.727513 C25.088358,149.727513 24.7833177,149.872601 24.5032408,150.160892 C24.2718728,150.36188 24.0344163,150.60118 23.7908711,150.87691 L16.9052402,157.905188 L15.644285,156.642736 L15.7721463,156.511466 L22.8599197,149.049181 C23.2733376,148.622082 23.6837113,148.302387 24.0922583,148.088838 C24.5001965,147.875288 24.9842425,147.768514 25.5450052,147.768514 C25.6546006,147.768514 25.830562,147.781076 26.0741071,147.805571 C27.1706693,148.019748 27.8830389,148.672957 28.2112161,149.765826 C28.3944838,150.355599 28.4121408,150.959189 28.2660137,151.574085 C28.1198866,152.189609 27.8343299,152.717201 27.4081258,153.157489 L20.2107571,160.581461 C20.0031348,160.79501 19.6566918,161.178143 19.1696014,161.731486 C18.6952972,162.271012 18.3324149,162.673615 18.0827811,162.936782 C17.8331473,163.200578 17.5134942,163.486357 17.1244308,163.793491 C16.7341497,164.101253 16.3383888,164.356256 15.9365392,164.557872 C15.2552216,164.908343 14.5300659,165.084835 13.7628986,165.084835 C12.9104904,165.084835 12.1250573,164.883848 11.406599,164.481245 C10.6887496,164.07927 10.1158096,163.520902 9.68960551,162.804884 C9.10570595,161.824443 8.89260393,160.738483 9.05029943,159.54512 C9.20921265,158.351757 9.70178277,157.328606 10.5304452,156.473153 L19.8819711,146.826385 C20.7465564,145.934504 21.4217854,145.337194 21.9094847,145.036341 C23.0060468,144.346075 24.2048979,144 25.5078646,144 C26.5191859,144 27.4440488,144.207268 28.2848885,144.621805 C29.246283,145.073398 30.0378049,145.720955 30.6588451,146.562589 C31.2804941,147.404224 31.6884323,148.370848 31.8826596,149.463717 C32.089673,150.631956 32.022698,151.781353 31.6823437,152.912535 C31.3407715,154.04309 30.7617429,155.029812 29.9464754,155.870819 L20.5030113,165.5 L19.242665,164.368818 L19.1148038,164.236292" id="Fill-194-Copy" stroke="#3A5868" stroke-width="0.854601" fill="#78A9C2" transform="translate(20.500000, 154.750000) scale(-1, 1) translate(-20.500000, -154.750000) "></path>
                <g id="Rectangle-2-Copy-5" filter="url(#filter-3)">
                    <use fill="#FFFFFF" fill-rule="evenodd" xlink:href="#path-2"></use>
                    <rect stroke="#78A9C2" stroke-width="0.5" x="0.25" y="44.25" width="335.5" height="37"></rect>
                </g>
                <g id="Rectangle-2-Copy-3" filter="url(#filter-5)">
                    <use fill="#FFFFFF" fill-rule="evenodd" xlink:href="#path-4"></use>
                    <rect stroke="#9B9B9B" stroke-width="0.5" x="0.25" y="0.25" width="335.5" height="37"></rect>
                </g>
                <g id="Rectangle-2-Copy-4" filter="url(#filter-7)">
                    <use fill="#FFFFFF" fill-rule="evenodd" xlink:href="#path-6"></use>
                    <rect stroke="#78A9C2" stroke-width="0.5" x="0.25" y="90.25" width="335.5" height="37"></rect>
                </g>
                <text id="Attachments-Copy" opacity="0.713994565" font-family="Roboto-Regular, Roboto" font-size="13" font-weight="normal" fill="#302F2E">
                    <tspan x="43" y="161.5">Attachments</tspan>
                </text>
                <text id="Note-Copy" opacity="0.713994565" font-family="Roboto-Regular, Roboto" font-size="13" font-weight="normal" fill="#302F2E">
                    <tspan x="43.5" y="115.5">Note</tspan>
                </text>
                <path d="M19.1111111,106.75 L26,106.75 L26,118.5625 C26,118.690833 25.9598148,118.795833 25.8794444,118.8775 C25.7996481,118.959167 25.6957407,119 25.5694444,119 L10.9305556,119 C10.8042593,119 10.7009259,118.959167 10.6205556,118.8775 C10.5407593,118.795833 10.5,118.690833 10.5,118.5625 L10.5,98.4375 C10.5,98.3091667 10.5407593,98.2041667 10.6205556,98.1225 C10.7009259,98.0408333 10.8042593,98 10.9305556,98 L19.1111111,98 L19.1111111,106.75 L19.1111111,106.75 L19.1111111,106.75 L19.1111111,106.75 Z M26,104.5 L21,104.5 L21,99.5 L26,104.5 L26,104.5 Z" id="Fill-28-Copy" stroke="#3A5868" stroke-width="0.89958" fill="#78A9C2"></path>
                <path d="M313.249697,148.697308 L313.249697,148.697308 C313.525765,148.434231 313.972698,148.434231 314.248059,148.697308 L320.086428,154.275215 C320.637857,154.802043 320.637857,155.656706 320.086428,156.183535 L314.205696,161.802589 C313.932453,162.062968 313.491168,162.066341 313.214395,161.809335 L313.214395,161.809335 C312.931267,161.546933 312.928442,161.114542 313.206628,160.848092 L318.588886,155.706623 C318.864953,155.442872 318.864953,155.015877 318.588886,154.752126 L313.249697,149.65113 C312.97363,149.388053 312.97363,148.961059 313.249697,148.697308" id="arrow_left-[#335]-copy-41" fill="#9B9B9B"></path>
                <path d="M312.78299,58.1973077 L312.78299,58.1973077 C313.095867,57.9342308 313.602391,57.9342308 313.914467,58.1973077 L320.531285,63.7752146 C321.156238,64.3020431 321.156238,65.1567061 320.531285,65.6835346 L313.866455,71.3025894 C313.55678,71.5629682 313.056657,71.5663409 312.742981,71.3093349 L312.742981,71.3093349 C312.422102,71.0469325 312.418901,70.6145419 312.734178,70.3480921 L318.83407,65.2066232 C319.146947,64.9428717 319.146947,64.5158775 318.83407,64.2521259 L312.78299,59.1511305 C312.470114,58.8880535 312.470114,58.4610593 312.78299,58.1973077" id="arrow_left-[#335]-copy-42" fill="#9B9B9B"></path>
                <path d="M312.78299,102.197308 L312.78299,102.197308 C313.095867,101.934231 313.602391,101.934231 313.914467,102.197308 L320.531285,107.775215 C321.156238,108.302043 321.156238,109.156706 320.531285,109.683535 L313.866455,115.302589 C313.55678,115.562968 313.056657,115.566341 312.742981,115.309335 L312.742981,115.309335 C312.422102,115.046933 312.418901,114.614542 312.734178,114.348092 L318.83407,109.206623 C319.146947,108.942872 319.146947,108.515877 318.83407,108.252126 L312.78299,103.15113 C312.470114,102.888053 312.470114,102.461059 312.78299,102.197308" id="arrow_left-[#335]-copy-43" fill="#9B9B9B"></path>
            </g>
            <g id="dp-arrows" transform="translate(335.500000, 283.000000)" fill="#000000">
                <polyline id="Path-2-copy" points="6.75 16 13.5 10 0 10"></polyline>
                <polygon id="Path-2" points="6.75 0 0 6 13.5 6"></polygon>
            </g>
            <path d="M-0.5,129.5 L385,129.5" id="Line-4" stroke="#3A5868" stroke-width="1.01" stroke-linecap="square"></path>
            <g id="circle-check" transform="translate(25.500000, 136.500000)">
                <ellipse id="Oval-3" stroke="#78A9C2" stroke-width="1.01" fill="#78A9C2" cx="10.25" cy="10.5" rx="10.25" ry="10.5"></ellipse>
                <polygon id="Fill-2" fill="#3A5868" points="12.1363636 12.0909091 12.1363636 17 8.86363636 17 8.86363636 12.0909091 4.5 12.0909091 4.5 8.40909091 8.86363636 8.40909091 8.86363636 3.5 12.1363636 3.5 12.1363636 8.40909091 16.5 8.40909091 16.5 12.0909091"></polygon>
            </g>
            <path d="M0.5,218.5 L385,218.5" id="Line-4" stroke="#3A5868" stroke-width="1.01" stroke-linecap="square"></path>
            <path d="M0,183.5 L384.5,183.5" id="Line-4-Copy-3" stroke="#3A5868" stroke-width="1.01" stroke-linecap="square"></path>
            <path d="M-0.5,162.5 L384.5,162.5" id="Line-4-Copy-4" stroke="#3A5868" stroke-width="1.01" stroke-linecap="square"></path>
            <g id="Time-Group" transform="translate(16.500000, 154.500000)">
                <path d="M13.2647186,8 L20.0732233,1.19149532 L26.881728,8 L175.9,8 C177.059798,8 178,8.94020203 178,10.1 L178,169.9 C178,171.059798 177.059798,172 175.9,172 L2.1,172 C0.940202025,172 -4.74294702e-15,171.059798 -4.88498131e-15,169.9 L0,10.1 C-1.42034288e-16,8.94020203 0.940202025,8 2.1,8 L13.2647186,8 Z" id="Drop-Down" stroke="#3A5868" stroke-width="2.8" fill="#FFFFFF"></path>
                <g id="AM-PM-Button" transform="translate(139.000000, 83.500000)">
                    <g id="AM">
                        <rect id="AM-Background" fill="#3878BC" x="0" y="0" width="24" height="21.5" rx="2.1"></rect>
                        <text font-family="Roboto-Bold, Roboto" font-size="9.8" font-weight="bold" letter-spacing="0.349999994" fill="#FFFFFF">
                            <tspan x="4" y="15">AM</tspan>
                        </text>
                    </g>
                    <g id="PM">
                        <rect id="PM-Background" fill="#3A5868" x="0" y="0" width="24" height="21.5" rx="2.1"></rect>
                        <text font-family="Roboto-Bold, Roboto" font-size="9.8" font-weight="bold" letter-spacing="0.349999994" fill="#FFFFFF">
                            <tspan x="4" y="15">PM</tspan>
                        </text>
                    </g>
                </g>
                <g id="Time-Selection" transform="translate(11.500000, 15.000000)">
                    <g id="Minute-Arrows" transform="translate(93.500000, 37.000000)">
                        <text id="00" font-family="Roboto-Bold, Roboto" font-size="9.8" font-weight="bold" letter-spacing="0.349999994" fill="#212121">
                            <tspan x="0" y="46.5">00</tspan>
                        </text>
                        <polygon id="Rectangle-43" stroke="#000000" stroke-width="1.77744" fill="#000000" transform="translate(5.750000, 88.500000) rotate(-90.000000) translate(-5.750000, -88.500000) " points="3.36477824 88.519527 8.5 83.2163916 8.29045998 83 3.09179431 88.3686538 3.15316716 88.4320334 3 88.5902089 8.23850044 94 8.45511151 93.7763061"></polygon>
                        <polygon id="Rectangle-43-Copy-2" stroke="#000000" stroke-width="1.77744" fill="#000000" transform="translate(5.750000, 3.000000) rotate(90.000000) translate(-5.750000, -3.000000) " points="3.36477824 3.019527 8.5 -2.28360836 8.29045998 -2.5 3.09179431 2.86865379 3.15316716 2.93203343 3 3.09020891 8.23850044 8.5 8.45511151 8.27630609"></polygon>
                    </g>
                    <text id=":" font-family="Roboto-Black, Roboto" font-size="9.8" font-weight="700" letter-spacing="0.349999994" fill="#212121">
                        <tspan x="61" y="83.5">:</tspan>
                    </text>
                    <text id="11" font-family="Roboto-Bold, Roboto" font-size="11.2" font-weight="bold" letter-spacing="0.400000006" fill="#212121">
                        <tspan x="19" y="84">12</tspan>
                    </text>
                    <polygon id="Rectangle-43" stroke="#000000" stroke-width="1.77744" fill="#000000" transform="translate(25.750000, 126.000000) rotate(-90.000000) translate(-25.750000, -126.000000) " points="23.3647782 126.019527 28.5 120.716392 28.29046 120.5 23.0917943 125.868654 23.1531672 125.932033 23 126.090209 28.2385004 131.5 28.4551115 131.276306"></polygon>
                    <polygon id="Rectangle-43" stroke="#000000" stroke-width="1.77744" fill="#000000" transform="translate(25.750000, 40.000000) rotate(90.000000) translate(-25.750000, -40.000000) " points="23.3647782 40.019527 28.5 34.7163916 28.29046 34.5 23.0917943 39.8686538 23.1531672 39.9320334 23 40.0902089 28.2385004 45.5 28.4551115 45.2763061"></polygon>
                    <g id="Adjust-Time-Button-Backgrounf" opacity="0.38">
                        <use fill="#AFE6E1" fill-rule="evenodd" xlink:href="#path-8"></use>
                        <rect stroke="#3A5868" stroke-width="1.4" x="0.7" y="0.7" width="156.1" height="22.6" rx="2.1"></rect>
                    </g>
                    <path d="M70.5,7 L70.5,4.75 C70.5,4.54 70.5725,4.3625 70.718,4.217 C70.8625,4.0725 71.04,4 71.25,4 L73.5,4 L73.5,2.5 L75,2.5 L75,4 L82.5,4 L82.5,2.5 L84,2.5 L84,4 L86.25,4 C86.46,4 86.638,4.0725 86.7825,4.217 C86.9275,4.3625 87,4.54 87,4.75 L87,7 L70.5,7 L70.5,7 L70.5,7 L70.5,7 Z M87,8.5 L87,20.21875 C87,20.4270833 86.9275,20.609375 86.7825,20.7651042 C86.638,20.921875 86.46,21 86.25,21 L71.25,21 C71.04,21 70.8625,20.921875 70.718,20.7651042 C70.5725,20.609375 70.5,20.4270833 70.5,20.21875 L70.5,8.5 L87,8.5 L87,8.5 L87,8.5 L87,8.5 Z M72,13.5 L73.5,13.5 L73.5,11.5 L72,11.5 L72,11.5 L72,13.5 L72,13.5 Z M72,17 L73.5,17 L73.5,15 L72,15 L72,15 L72,17 L72,17 Z M72,20 L73.5,20 L73.5,18 L72,18 L72,18 L72,20 L72,20 Z M75,13.5 L76.5,13.5 L76.5,11.5 L75,11.5 L75,11.5 L75,13.5 L75,13.5 Z M75,17 L76.5,17 L76.5,15 L75,15 L75,15 L75,17 L75,17 Z M75,20 L76.5,20 L76.5,18 L75,18 L75,18 L75,20 L75,20 Z M78,13.5 L79.5,13.5 L79.5,11.5 L78,11.5 L78,11.5 L78,13.5 L78,13.5 Z M78,17 L79.5,17 L79.5,15 L78,15 L78,15 L78,17 L78,17 Z M78,20 L79.5,20 L79.5,18 L78,18 L78,18 L78,20 L78,20 Z M81,13.5 L82.5,13.5 L82.5,11.5 L81,11.5 L81,11.5 L81,13.5 L81,13.5 Z M81,17 L82.5,17 L82.5,15 L81,15 L81,15 L81,17 L81,17 Z M81,20 L82.5,20 L82.5,18 L81,18 L81,18 L81,20 L81,20 Z M84,13.5 L85.5,13.5 L85.5,11.5 L84,11.5 L84,11.5 L84,13.5 L84,13.5 Z M84,17 L85.5,17 L85.5,15 L84,15 L84,15 L84,17 L84,17 Z M84,20 L85.5,20 L85.5,18 L84,18 L84,18 L84,20 L84,20 Z" id="Fill-192" fill="#000000"></path>
                </g>
            </g>
            <text id="project-title-copy-5" font-family="Roboto-Regular, Roboto" font-size="17.5" font-weight="normal" letter-spacing="0.912500083" fill="#302F2E">
                <tspan x="41.5" y="99.5">Set up mtg w/CJ </tspan>
            </text>
            <path d="M-1,472 L383.5,472 L-1,472 Z" id="Line-2-Copy-2" stroke="#3A5868" stroke-width="3.21099997" fill="#4D5B69" opacity="0.849999964"></path>
            <g id="bottom-menu-copy-2" transform="translate(79.000000, 483.000000)">
                <path d="M18.439875,10.409159 L18.5,10.409159 L18.5,24.4647729 L18.5,24.5 L10.40625,24.5 L10.40625,19.803053 L8.09375,19.803053 L8.09375,24.5 L0,24.5 L0,10.3927197 L9.217625,1 L18.439875,10.409159 Z" id="home-[#1392]-copy-2" stroke="#3A5868" stroke-width="0.731502768" fill="#78A9C2" transform="translate(9.250000, 12.750000) scale(-1, 1) translate(-9.250000, -12.750000) "></path>
                <g id="Group-6" transform="translate(100.500000, 0.000000)">
                    <ellipse id="Oval-3" stroke="#78A9C2" stroke-width="0.609870246" fill="#78A9C2" cx="12.5" cy="13" rx="12.5" ry="13"></ellipse>
                    <polygon id="Fill-2" fill="#3A5868" points="14.8636364 15.6363636 14.8636364 22 10.6363636 22 10.6363636 15.6363636 5 15.6363636 5 10.8636364 10.6363636 10.8636364 10.6363636 4.5 14.8636364 4.5 14.8636364 10.8636364 20.5 10.8636364 20.5 15.6363636"></polygon>
                </g>
                <path d="M220.863636,4.66666667 L225.113636,4.66666667 C225.216667,4.66666667 225.306818,4.7125 225.384606,4.80416667 C225.461364,4.89583333 225.5,5.00277778 225.5,5.125 L225.5,6.04166667 C225.5,6.17611111 225.463939,6.28611111 225.391818,6.37166667 C225.320212,6.45722222 225.22697,6.5 225.113636,6.5 L208.886364,6.5 C208.77303,6.5 208.680303,6.45722222 208.608182,6.37166667 C208.536576,6.28611111 208.5,6.17611111 208.5,6.04166667 L208.5,5.125 C208.5,5.00277778 208.539152,4.89583333 208.615909,4.80416667 C208.693182,4.7125 208.783333,4.66666667 208.886364,4.66666667 L213.136364,4.66666667 L213.136364,2.83333333 C213.136364,2.33222222 213.288333,1.90138889 213.592273,1.54083333 C213.896212,1.18088889 214.259394,1 214.681818,1 L219.318182,1 C219.741121,1 220.104303,1.18088889 220.408242,1.54083333 C220.711667,1.90138889 220.863636,2.33222222 220.863636,2.83333333 L220.863636,4.66666667 L220.863636,4.66666667 L220.863636,4.66666667 L220.863636,4.66666667 Z M210,8 L224,8 L224,22.6503885 C224,23.1509434 223.847037,23.5843507 223.54163,23.9506104 C223.235704,24.3168701 222.870148,24.5 222.444444,24.5 L211.555556,24.5 C211.13037,24.5 210.764815,24.3168701 210.458889,23.9506104 C210.152963,23.5843507 210,23.1509434 210,22.6503885 L210,8 L210,8 L210,8 L210,8 Z M211.5,22.5 L213,22.5 L213,10 L211.5,10 L211.5,10 L211.5,22.5 L211.5,22.5 Z M214.5,5 L219,5 L219,3 L214.5,3 L214.5,3 L214.5,5 L214.5,5 Z M214.5,22.5 L216,22.5 L216,10 L214.5,10 L214.5,10 L214.5,22.5 L214.5,22.5 Z M218,22.5 L219.5,22.5 L219.5,10 L218,10 L218,10 L218,22.5 L218,22.5 Z M221,22.5 L222.5,22.5 L222.5,10 L221,10 L221,10 L221,22.5 L221,22.5 Z" id="Fill-26" stroke="#3A5868" stroke-width="0.768077906" fill="#78A9C2"></path>
            </g>
            <g id="Group-3" transform="translate(-1.000000, 32.000000)">
                <g id="Rectangle-12">
                    <use fill="#3A5868" fill-rule="evenodd" xlink:href="#path-9"></use>
                    <rect stroke="#3A5868" stroke-width="1.5" x="0.75" y="0.75" width="384" height="29"></rect>
                </g>
                <g id="Group-2" transform="translate(23.500000, 6.000000)">
                    <polygon id="Rectangle-43-Copy" stroke="#FFFFFF" stroke-width="2.76950002" fill="#FFFFFF" points="0.700026602 9.52485255 10.5547588 2.77540755 10.1526416 2.5 0.176157593 9.3328321 0.29393498 9.4134971 0 9.61481134 10.0529288 16.5 10.4686157 16.2152987"></polygon>
                    <g id="Group" transform="translate(282.465450, 0.000000)">
                        <rect id="Rectangle-3" fill="#AFE6E1" x="0" y="0" width="58.3024772" height="20"></rect>
                        <text id="SAVE" font-family="Roboto-Black, Roboto" font-size="8.5" font-weight="700" letter-spacing="0.566666722" fill="#302F2E">
                            <tspan x="17.6525424" y="14">SAVE</tspan>
                        </text>
                    </g>
                </g>
            </g>
            <g id="Group-2" transform="translate(165.500000, 34.500000)" fill="#FFFFFF" font-family="Roboto-Black, Roboto" font-size="18" font-weight="700" letter-spacing="1.73571432">
                <text id="TASK">
                    <tspan x="0" y="19">TASK</tspan>
                </text>
            </g>
            <g id="Line-4" opacity="0.299999982" stroke-linecap="square">
                <use stroke="#000000" stroke-width="1" xlink:href="#path-10"></use>
                <use stroke="#979797" stroke-width="0.5" xlink:href="#path-10"></use>
            </g>
            <g id="Group-5" transform="translate(291.500000, 81.500000)">
                <g id="Group-10">
                    <g id="Rectangle-157-Copy">
                        <use fill="#FFFFFF" fill-rule="evenodd" xlink:href="#path-11"></use>
                        <rect stroke="#3A5868" stroke-width="0.825" x="0.4125" y="0.4125" width="71.175" height="19.675"></rect>
                    </g>
                    <g id="Group-9" transform="translate(6.000000, 0.000000)">
                        <g id="Group-8">
                            <g id="Group-7">
                                <g id="Group-4">
                                    <rect id="Combined-Shape" stroke="#3A5868" stroke-width="1.65" fill="#3A5868" x="28.5" y="0" width="36.5" height="20.5"></rect>
                                    <text id="Work" opacity="0.713994565" font-family="Roboto-Regular, Roboto" font-size="9.9" font-weight="normal" fill="#302F2E">
                                        <tspan x="0" y="15.5">Work </tspan>
                                    </text>
                                </g>
                            </g>
                        </g>
                    </g>
                </g>
            </g>
        </g>
    </g>
</svg>