<?xml version="1.0" encoding="UTF-8"?>
<svg width="384px" height="512px" viewBox="0 0 384 512" version="1.1" xmlns="http://www.w3.org/2000/svg" xmlns:xlink="http://www.w3.org/1999/xlink" style="background: #FFFFFF;">
    <!-- Generator: Sketch 48.2 (47327) - http://www.bohemiancoding.com/sketch -->
    <title>T13</title>
    <desc>Created with Sketch.</desc>
    <defs>
        <rect id="path-1" x="57.5" y="301" width="11.5" height="12"></rect>
        <rect id="path-2" x="58" y="268" width="11.5" height="12"></rect>
        <rect id="path-3" x="74.5" y="268" width="11.5" height="12"></rect>
        <rect id="path-4" x="91" y="268" width="11.5" height="12"></rect>
    </defs>
    <g id="Page-1" stroke="none" stroke-width="1" fill="none" fill-rule="evenodd">
        <g id="Artboard" transform="translate(-560.000000, -3655.000000)"></g>
        <g id="T13">
            <g id="StatusBar-Light-iPhone6-Copy">
                <rect id="Background" fill="#FFFFFF" x="0" y="0" width="383.5" height="20.5"></rect>
                <path d="M352,6.5 C352,5.67157288 352.671573,5 353.5,5 L374,5 C374.828427,5 375.5,5.67157288 375.5,6.5 L375.5,14 C375.5,14.8284271 374.828427,15.5 374,15.5 L353.5,15.5 C352.671573,15.5 352,14.8284271 352,14 L352,6.5 Z M352.5,7 L352.5,13.5 C352.5,14.3284271 353.171573,15 354,15 L373.5,15 C374.328427,15 375,14.3284271 375,13.5 L375,7 C375,6.17157288 374.328427,5.5 373.5,5.5 L354,5.5 C353.171573,5.5 352.5,6.17157288 352.5,7 Z M353,7.5 C353,6.67157288 353.671573,6 354.5,6 L364,6 L364,14.5 L354.5,14.5 C353.671573,14.5 353,13.8284271 353,13 L353,7.5 Z M378.5,10 C378.5,11.0178721 377.630764,11.8599457 376.5,12 L376.5,8 C377.630764,8.14005431 378.5,8.98212794 378.5,10 Z" id="battery-@2x" fill="#000000"></path>
                <text id="49%" font-family="HelveticaNeue, Helvetica Neue" font-size="12" font-weight="normal" line-spacing="12" fill="#000000">
                    <tspan x="323.5" y="16">49%</tspan>
                </text>
                <path d="M315.5,11.5 L317,13 L315.5,14.5 L315.5,11.5 Z M315.5,9 L315.5,6 L317,7.5 L315.5,9 Z M318.5,7.64722653 L314.528486,3.5 L314.528486,9.20243648 L311.5,6.09201658 L310.5,7.12882321 L313.95349,10.2504999 L310.5,13.349663 L311.5,14.3864696 L314.528486,11.2760497 L314.528486,17 L318.5,12.8312597 L316,10.2504998 L318.5,7.64722653 Z" id="bluetooth-@2x-copy" fill="#535353"></path>
                <text id="9:49-AM" font-family="HelveticaNeue, Helvetica Neue" font-size="12" font-weight="normal" letter-spacing="0.599999905" fill="#000000">
                    <tspan x="167.192" y="14">9:49 AM</tspan>
                </text>
                <path d="M79.7455746,7.06231003 C81.766171,7.06231003 83.607668,7.79635258 85.0196385,9 L86,7.93262411 C84.3277104,6.50101317 82.1436336,5.5 79.7455746,5.5 C77.35116,5.5 75.170207,6.49797366 73.5,7.92502533 L74.478279,8.99392097 C75.8892082,7.79381966 77.7275813,7.06231003 79.7455746,7.06231003 L79.7455746,7.06231003 Z M82.9518386,11 L84,9.95755423 C82.8592299,9.07591623 81.3753869,8.5 79.7473691,8.5 C78.1225084,8.5 76.6397177,9.07451384 75.5,9.95334705 L76.5465829,10.9971952 C77.4084747,10.3394727 78.5250402,9.9407255 79.7473691,9.9407255 C80.9712765,9.9407255 82.0894206,10.3408751 82.9518386,11 Z M82,12.2681206 C81.3907337,11.8142533 80.6062141,11.5 79.7486265,11.5 C78.8926871,11.5 78.1092663,11.8137668 77.5,12.2656883 L79.7486265,14.5 L82,12.2681206 L82,12.2681206 Z" id="wifi-@2x" fill="#0C0000"></path>
                <text id="Yext" font-family="HelveticaNeue, Helvetica Neue" font-size="12" font-weight="normal" fill="#000000">
                    <tspan x="45" y="13.5">Yext</tspan>
                </text>
                <path d="M8,13 C6.34314567,13 5,11.6568543 5,10 C5,8.34314567 6.34314567,7 8,7 C9.65685433,7 11,8.34314567 11,10 C11,11.6568543 9.65685433,13 8,13 Z M15,13 C13.3431457,13 12,11.6568543 12,10 C12,8.34314567 13.3431457,7 15,7 C16.6568543,7 18,8.34314567 18,10 C18,11.6568543 16.6568543,13 15,13 Z M22.5,13 C20.8431457,13 19.5,11.6568543 19.5,10 C19.5,8.34314567 20.8431457,7 22.5,7 C24.1568543,7 25.5,8.34314567 25.5,10 C25.5,11.6568543 24.1568543,13 22.5,13 Z M29.5,13 C27.8431457,13 26.5,11.6568543 26.5,10 C26.5,8.34314567 27.8431457,7 29.5,7 C31.1568543,7 32.5,8.34314567 32.5,10 C32.5,11.6568543 31.1568543,13 29.5,13 Z M29.5,12.5 C30.8807119,12.5 32,11.3807119 32,10 C32,8.61928806 30.8807119,7.5 29.5,7.5 C28.1192881,7.5 27,8.61928806 27,10 C27,11.3807119 28.1192881,12.5 29.5,12.5 Z M37,13 C35.3431457,13 34,11.6568543 34,10 C34,8.34314567 35.3431457,7 37,7 C38.6568543,7 40,8.34314567 40,10 C40,11.6568543 38.6568543,13 37,13 Z M37,12.5 C38.3807119,12.5 39.5,11.3807119 39.5,10 C39.5,8.61928806 38.3807119,7.5 37,7.5 C35.6192881,7.5 34.5,8.61928806 34.5,10 C34.5,11.3807119 35.6192881,12.5 37,12.5 Z" id="signal-@2x" fill="#000000"></path>
            </g>
            <rect id="Rectangle-12" stroke="#3A5868" stroke-width="1.5" x="0.75" y="38.25" width="383.5" height="29.5"></rect>
            <g id="Group-2" transform="translate(34.000000, 38.000000)">
                <text id="SweetTooth" font-family="Roboto-Black, Roboto" font-size="18" font-weight="700" letter-spacing="1.73571444" fill="#3A5868">
                    <tspan x="99.5" y="23">SweetTooth</tspan>
                </text>
                <rect id="Rectangle" fill="#000000" x="293.5" y="0" width="56.5" height="29.5"></rect>
                <polygon id="Rectangle-43-Copy" stroke="#3A5868" stroke-width="2.76950002" fill="#FFFFFF" points="0.696394817 15.2757401 10.5 8.28524353 10.0999691 8 0.175243675 15.0768618 0.292410026 15.1604077 0 15.3689117 10.0007736 22.5 10.4143038 22.2051308"></polygon>
            </g>
            <path d="M26.5,215.5 L357,215.5 L26.5,215.5 Z" id="Line-2" stroke="#3A5868" stroke-width="3.21099997" fill="#4D5B69" opacity="0.849999964" transform="translate(191.750000, 215.750000) scale(1, -1) translate(-191.750000, -215.750000) "></path>
            <path d="M26.5,354 L357,354 L26.5,354 Z" id="Line-2-Copy" stroke="#3A5868" stroke-width="3.21099997" fill="#4D5B69" opacity="0.849999964" transform="translate(191.750000, 354.250000) scale(1, -1) translate(-191.750000, -354.250000) "></path>
            <text id="Alerts" font-family="Roboto-Regular, Roboto" font-size="10.5" font-weight="normal" letter-spacing="0.699999809" fill="#302F2E">
                <tspan x="47" y="101">Alerts</tspan>
            </text>
            <path d="M41.6178428,98.2 L41.8521658,98.2 C42.0359485,98.2 42.1903261,98.2676667 42.31392,98.4025333 C42.4379733,98.5383333 42.5,98.704 42.5,98.9 C42.5,99.0866667 42.4407301,99.2728667 42.3212713,99.4595333 C42.201353,99.6466667 42.0593808,99.7722 41.8935169,99.838 C41.6913559,99.922 41.401898,100.029333 41.0256028,100.159533 C40.6483887,100.291133 39.8787984,100.463333 38.7163725,100.677533 C37.5539466,100.892667 36.3984125,101 35.2497703,101 C34.101128,101 32.9731614,100.904333 31.8658703,100.713 C30.7585792,100.521667 29.9384486,100.327533 29.4054786,100.131533 L28.6060236,99.8515333 C28.4406192,99.7866667 28.2977281,99.6583333 28.1787287,99.467 C28.0592699,99.2756667 28,99.0866667 28,98.9 C28,98.704 28.0620267,98.5383333 28.1856206,98.4025333 C28.3096739,98.2676667 28.463592,98.2 28.6473748,98.2 L28.8821572,98.2 L30.5081752,95.7775333 L31.3770081,91.2 C31.5143858,90.4808667 31.863573,89.8275333 32.4241104,89.2395333 C32.9851073,88.6515333 33.6462657,88.2642 34.4089642,88.0775333 L34.1608574,87.63 C34.1057226,87.4531333 34.1195063,87.3033333 34.202668,87.1815333 C34.2853703,87.0602 34.4181533,87 34.6019361,87 L35.8980639,87 C36.0818467,87 36.2146297,87.0494667 36.297332,87.147 C36.3800342,87.245 36.3942774,87.3826667 36.3386831,87.5595333 L36.0905764,88.0775333 C36.8537343,88.2548667 37.5148927,88.6408 38.0758896,89.233 C38.6355081,89.8256667 38.9851548,90.4808667 39.1229919,91.2 L39.9918248,95.7775333 L41.6178428,98.2 L41.6178428,98.2 L41.6178428,98.2 L41.6178428,98.2 Z M35.5068293,102.581793 C34.98,102.581793 34.477561,102.554983 34,102.5 C34.1170732,102.945774 34.3117073,103.307028 34.584878,103.583762 C34.8580488,103.861406 35.1653659,104 35.5068293,104 C35.8482927,104 36.1556098,103.861406 36.4292683,103.583762 C36.7019512,103.307028 36.8921951,102.945774 37,102.5 C36.5312195,102.554983 36.0336585,102.581793 35.5068293,102.581793 L35.5068293,102.581793 Z" id="Fill-197" fill="#3A5868"></path>
            <text id="Tasks" font-family="Roboto-Regular, Roboto" font-size="10.5" font-weight="normal" fill="#302F2E">
                <tspan x="47" y="238.5">Tasks</tspan>
            </text>
            <path d="M27.5,226.875 L27.5,225.625 C27.5,225.45 27.5604167,225.302083 27.68125,225.18125 C27.8020833,225.060833 27.95,225 28.125,225 L29.375,225 C29.55,225 29.6979167,225.060833 29.8191667,225.18125 C29.9395833,225.302083 30,225.45 30,225.625 L30,226.875 C30,227.041667 29.9395833,227.1875 29.8191667,227.3125 C29.6979167,227.4375 29.55,227.5 29.375,227.5 L28.125,227.5 C27.95,227.5 27.8020833,227.4375 27.68125,227.3125 C27.5604167,227.1875 27.5,227.041667 27.5,226.875 C27.5,226.875 27.5,227.041667 27.5,226.875 L27.5,226.875 L27.5,226.875 Z M27.5,230.875 L27.5,229.625 C27.5,229.45 27.5604167,229.302083 27.68125,229.18125 C27.8020833,229.060833 27.95,229 28.125,229 L29.375,229 C29.55,229 29.6979167,229.060833 29.8191667,229.18125 C29.9395833,229.302083 30,229.45 30,229.625 L30,230.875 C30,231.041667 29.9395833,231.1875 29.8191667,231.3125 C29.6979167,231.4375 29.55,231.5 29.375,231.5 L28.125,231.5 C27.95,231.5 27.8020833,231.4375 27.68125,231.3125 C27.5604167,231.1875 27.5,231.041667 27.5,230.875 C27.5,230.875 27.5,231.041667 27.5,230.875 L27.5,230.875 L27.5,230.875 Z M27.5,234.875 L27.5,233.625 C27.5,233.45 27.5604167,233.302083 27.68125,233.18125 C27.8020833,233.060833 27.95,233 28.125,233 L29.375,233 C29.55,233 29.6979167,233.060833 29.8191667,233.18125 C29.9395833,233.302083 30,233.45 30,233.625 L30,234.875 C30,235.041667 29.9395833,235.1875 29.8191667,235.3125 C29.6979167,235.4375 29.55,235.5 29.375,235.5 L28.125,235.5 C27.95,235.5 27.8020833,235.4375 27.68125,235.3125 C27.5604167,235.1875 27.5,235.041667 27.5,234.875 C27.5,234.875 27.5,235.041667 27.5,234.875 L27.5,234.875 L27.5,234.875 Z M27.5,239.375 L27.5,238.125 C27.5,237.95 27.5604167,237.802083 27.68125,237.68125 C27.8020833,237.560833 27.95,237.5 28.125,237.5 L29.375,237.5 C29.55,237.5 29.6979167,237.560833 29.8191667,237.68125 C29.9395833,237.802083 30,237.95 30,238.125 L30,239.375 C30,239.541667 29.9395833,239.6875 29.8191667,239.8125 C29.6979167,239.9375 29.55,240 29.375,240 L28.125,240 C27.95,240 27.8020833,239.9375 27.68125,239.8125 C27.5604167,239.6875 27.5,239.541667 27.5,239.375 C27.5,239.375 27.5,239.541667 27.5,239.375 L27.5,239.375 L27.5,239.375 Z M31.5,226.875 L31.5,225.625 C31.5,225.45 31.5644444,225.302083 31.6933333,225.18125 C31.8222222,225.060833 31.98,225 32.1666667,225 L42.8333333,225 C43.02,225 43.1777778,225.060833 43.3071111,225.18125 C43.4355556,225.302083 43.5,225.45 43.5,225.625 L43.5,226.875 C43.5,227.041667 43.4355556,227.1875 43.3071111,227.3125 C43.1777778,227.4375 43.02,227.5 42.8333333,227.5 L32.1666667,227.5 C31.98,227.5 31.8222222,227.4375 31.6933333,227.3125 C31.5644444,227.1875 31.5,227.041667 31.5,226.875 C31.5,226.875 31.5,227.041667 31.5,226.875 L31.5,226.875 L31.5,226.875 Z M31.5,230.875 L31.5,229.625 C31.5,229.45 31.5644444,229.302083 31.6933333,229.18125 C31.8222222,229.060833 31.98,229 32.1666667,229 L42.8333333,229 C43.02,229 43.1777778,229.060833 43.3071111,229.18125 C43.4355556,229.302083 43.5,229.45 43.5,229.625 L43.5,230.875 C43.5,231.041667 43.4355556,231.1875 43.3071111,231.3125 C43.1777778,231.4375 43.02,231.5 42.8333333,231.5 L32.1666667,231.5 C31.98,231.5 31.8222222,231.4375 31.6933333,231.3125 C31.5644444,231.1875 31.5,231.041667 31.5,230.875 C31.5,230.875 31.5,231.041667 31.5,230.875 L31.5,230.875 L31.5,230.875 Z M31.5,234.875 L31.5,233.625 C31.5,233.45 31.5644444,233.302083 31.6933333,233.18125 C31.8222222,233.060833 31.98,233 32.1666667,233 L42.8333333,233 C43.02,233 43.1777778,233.060833 43.3071111,233.18125 C43.4355556,233.302083 43.5,233.45 43.5,233.625 L43.5,234.875 C43.5,235.041667 43.4355556,235.1875 43.3071111,235.3125 C43.1777778,235.4375 43.02,235.5 42.8333333,235.5 L32.1666667,235.5 C31.98,235.5 31.8222222,235.4375 31.6933333,235.3125 C31.5644444,235.1875 31.5,235.041667 31.5,234.875 C31.5,234.875 31.5,235.041667 31.5,234.875 L31.5,234.875 L31.5,234.875 Z M31.5,239.375 L31.5,238.125 C31.5,237.95 31.5644444,237.802083 31.6933333,237.68125 C31.8222222,237.560833 31.98,237.5 32.1666667,237.5 L42.8333333,237.5 C43.02,237.5 43.1777778,237.560833 43.3071111,237.68125 C43.4355556,237.802083 43.5,237.95 43.5,238.125 L43.5,239.375 C43.5,239.541667 43.4355556,239.6875 43.3071111,239.8125 C43.1777778,239.9375 43.02,240 42.8333333,240 L32.1666667,240 C31.98,240 31.8222222,239.9375 31.6933333,239.8125 C31.5644444,239.6875 31.5,239.541667 31.5,239.375 L31.5,239.375 Z" id="task-icon" fill="#3A5868"></path>
            <text id="Calendar" font-family="Roboto-Regular, Roboto" font-size="10.5" font-weight="normal" fill="#302F2E">
                <tspan x="47" y="377">Calendar</tspan>
            </text>
            <path d="M28,366 L28,363.75 C28,363.54 28.0681061,363.3625 28.2047879,363.217 C28.3405303,363.0725 28.5072727,363 28.7045455,363 L30.8181818,363 L30.8181818,361.5 L32.2272727,361.5 L32.2272727,363 L39.2727273,363 L39.2727273,361.5 L40.6818182,361.5 L40.6818182,363 L42.7954545,363 C42.9927273,363 43.1599394,363.0725 43.2956818,363.217 C43.4318939,363.3625 43.5,363.54 43.5,363.75 L43.5,366 L28,366 L28,366 L28,366 L28,366 Z M43.5,367.5 L43.5,378.75 C43.5,378.95 43.4318939,379.125 43.2956818,379.2745 C43.1599394,379.425 42.9927273,379.5 42.7954545,379.5 L28.7045455,379.5 C28.5072727,379.5 28.3405303,379.425 28.2047879,379.2745 C28.0681061,379.125 28,378.95 28,378.75 L28,367.5 L43.5,367.5 L43.5,367.5 L43.5,367.5 L43.5,367.5 Z M29.5,372 L31,372 L31,370.5 L29.5,370.5 L29.5,370.5 L29.5,372 L29.5,372 Z M29.5,375 L31,375 L31,373.5 L29.5,373.5 L29.5,373.5 L29.5,375 L29.5,375 Z M29.5,378 L31,378 L31,376.5 L29.5,376.5 L29.5,376.5 L29.5,378 L29.5,378 Z M32,372 L33.5,372 L33.5,370.5 L32,370.5 L32,370.5 L32,372 L32,372 Z M32,375 L33.5,375 L33.5,373.5 L32,373.5 L32,373.5 L32,375 L32,375 Z M32,378 L33.5,378 L33.5,376.5 L32,376.5 L32,376.5 L32,378 L32,378 Z M35,372 L36.5,372 L36.5,370.5 L35,370.5 L35,370.5 L35,372 L35,372 Z M35,375 L36.5,375 L36.5,373.5 L35,373.5 L35,373.5 L35,375 L35,375 Z M35,378 L36.5,378 L36.5,376.5 L35,376.5 L35,376.5 L35,378 L35,378 Z M38,372 L39.5,372 L39.5,370.5 L38,370.5 L38,370.5 L38,372 L38,372 Z M38,375 L39.5,375 L39.5,373.5 L38,373.5 L38,373.5 L38,375 L38,375 Z M38,378 L39.5,378 L39.5,376.5 L38,376.5 L38,376.5 L38,378 L38,378 Z M40.5,372 L42,372 L42,370.5 L40.5,370.5 L40.5,370.5 L40.5,372 L40.5,372 Z M40.5,375 L42,375 L42,373.5 L40.5,373.5 L40.5,373.5 L40.5,375 L40.5,375 Z M40.5,378 L42,378 L42,376.5 L40.5,376.5 L40.5,376.5 L40.5,378 L40.5,378 Z" id="Fill-192" fill="#3A5868"></path>
            <g id="Task-date-block" transform="translate(307.000000, 253.500000)">
                <text id="/-/-copy-3" font-family="Roboto-Medium, Roboto" font-size="11.41371" font-weight="400" letter-spacing="0.583367407" fill="#302F2E">
                    <tspan x="15" y="22.5">/   </tspan>
                    <tspan x="30.374525" y="22.5">/</tspan>
                </text>
                <text id="9" font-family="Roboto-Medium, Roboto" font-size="6.975045" font-weight="400" letter-spacing="0.406877637" fill="#302F2E">
                    <tspan x="5.5" y="21"> 9</tspan>
                </text>
                <text id="17" font-family="Roboto-Medium, Roboto" font-size="6.975045" font-weight="400" letter-spacing="0.406877637" fill="#302F2E">
                    <tspan x="20.5" y="21">17</tspan>
                </text>
                <text id="Due" font-family="Roboto-Medium, Roboto" font-size="6.975045" font-weight="400" letter-spacing="0.244126573" fill="#4A4A4A">
                    <tspan x="0" y="7">Due</tspan>
                </text>
                <text id="17-copy-2" font-family="Roboto-Medium, Roboto" font-size="6.975045" font-weight="400" letter-spacing="0.406877637" fill="#302F2E">
                    <tspan x="37" y="21">17</tspan>
                </text>
                <rect id="Rectangle-6" stroke="#302F2E" stroke-width="0.634095" opacity="0.211956522" x="0.3170475" y="10.3170475" width="49.365905" height="15.865905"></rect>
            </g>
            <path d="M44,281 L356.5,281" id="Line-Copy-22" stroke="#979797" stroke-width="0.5" opacity="0.501415308" stroke-linecap="square"></path>
            <path d="M44,313.5 L356.5,313.5" id="Line-Copy-23" stroke="#979797" stroke-width="0.5" opacity="0.501415308" stroke-linecap="square"></path>
            <path d="M45.5,346.5 L358,346.5" id="Line-Copy-23" stroke="#979797" stroke-width="0.5" opacity="0.501415308" stroke-linecap="square"></path>
            <path d="M43.5,143 L356,143" id="Line-Copy-22" stroke="#979797" stroke-width="0.5" opacity="0.501415308" stroke-linecap="square"></path>
            <path d="M44,177 L356.5,177" id="Line-Copy-23" stroke="#979797" stroke-width="0.5" opacity="0.501415308" stroke-linecap="square"></path>
            <text id="TODAY" stroke="#78A9C2" stroke-width="0.5" font-family="Roboto-Bold, Roboto" font-size="10.5" font-weight="bold" fill="#3A5868">
                <tspan x="28" y="123">TODAY</tspan>
            </text>
            <path d="M44,161 L356.5,161" id="Line-Copy-23" stroke="#979797" stroke-width="0.5" opacity="0.501415308" stroke-linecap="square"></path>
            <path d="M44,193.5 L356.5,193.5" id="Line-Copy-23" stroke="#979797" stroke-width="0.5" opacity="0.501415308" stroke-linecap="square"></path>
            <path d="M44.5,421.5 L357,421.5" id="Line-Copy-22" stroke="#979797" stroke-width="0.5" opacity="0.501415308" stroke-linecap="square"></path>
            <text id="TODAY" stroke="#78A9C2" stroke-width="0.5" font-family="Roboto-Bold, Roboto" font-size="10.5" font-weight="bold" fill="#3A5868">
                <tspan x="28" y="401">TODAY</tspan>
            </text>
            <path d="M45,441.25 L357.5,441.25" id="Line-Copy-23" stroke="#979797" stroke-width="0.5" opacity="0.501415308" stroke-linecap="square"></path>
            <path d="M44.5,461 L357,461" id="Line-Copy-23" stroke="#979797" stroke-width="0.5" opacity="0.501415308" stroke-linecap="square"></path>
            <g id="Group-6" transform="translate(178.500000, 476.500000)">
                <ellipse id="Oval-3" stroke="#78A9C2" stroke-width="0.609870246" fill="#78A9C2" cx="12.5" cy="13.25" rx="12.5" ry="13.25"></ellipse>
                <polygon id="Fill-2" fill="#3A5868" points="14.8636364 15.9545455 14.8636364 22.5 10.6363636 22.5 10.6363636 15.9545455 5 15.9545455 5 11.0454545 10.6363636 11.0454545 10.6363636 4.5 14.8636364 4.5 14.8636364 11.0454545 20.5 11.0454545 20.5 15.9545455"></polygon>
            </g>
            <g id="Task-date-block" transform="translate(306.500000, 286.000000)">
                <text id="/-/-copy-3" font-family="Roboto-Medium, Roboto" font-size="11.41371" font-weight="400" letter-spacing="0.583367407" fill="#302F2E">
                    <tspan x="15" y="23">/   </tspan>
                    <tspan x="30.374525" y="23">/</tspan>
                </text>
                <text id="9" font-family="Roboto-Medium, Roboto" font-size="6.975045" font-weight="400" letter-spacing="0.406877637" fill="#302F2E">
                    <tspan x="5.5" y="21"> 9</tspan>
                </text>
                <text id="22" font-family="Roboto-Medium, Roboto" font-size="6.975045" font-weight="400" letter-spacing="0.406877637" fill="#302F2E">
                    <tspan x="20.5" y="21">22</tspan>
                </text>
                <text id="Due" font-family="Roboto-Medium, Roboto" font-size="6.975045" font-weight="400" letter-spacing="0.244126573" fill="#4A4A4A">
                    <tspan x="0" y="7">Due</tspan>
                </text>
                <text id="17-copy-2" font-family="Roboto-Medium, Roboto" font-size="6.975045" font-weight="400" letter-spacing="0.406877637" fill="#302F2E">
                    <tspan x="37" y="21">17</tspan>
                </text>
                <rect id="Rectangle-6" stroke="#302F2E" stroke-width="0.634095" opacity="0.211956522" x="0.3170475" y="10.3170475" width="49.365905" height="15.865905"></rect>
            </g>
            <text id="Agenda-for-Sept.-27" font-family="Roboto-MediumItalic, Roboto" font-size="9" font-style="italic" font-weight="500" letter-spacing="0.314999998" fill="#4A4A4A">
                <tspan x="47" y="296.5">Agenda for Sept. 27 mtg  </tspan>
            </text>
            <text id="11:00-AM-Initial-mtg" opacity="0.900000036" font-family="Roboto-Regular, Roboto" font-size="9" font-weight="normal" letter-spacing="0.314999998" fill="#4A4A4A">
                <tspan x="47" y="139.5">11:00 AM   Initial mtg w/Bob Corkly (Wine of Wonders)</tspan>
            </text>
            <text id="SweetTooth-brouchure" opacity="0.900000036" font-family="Roboto-Regular, Roboto" font-size="9" font-weight="normal" letter-spacing="0.314999998" fill="#4A4A4A">
                <tspan x="94.5" y="158.5">SweetTooth brouchure edits due</tspan>
            </text>
            <text id="9:00-AM" opacity="0.900000036" font-family="Roboto-Regular, Roboto" font-size="9" font-weight="normal" letter-spacing="0.314999998" fill="#4A4A4A">
                <tspan x="49" y="418.5">9:00 </tspan>
                <tspan x="70.1438476" y="418.5" font-size="7.5">AM</tspan>
            </text>
            <text id="Weekly-check-in-meet" opacity="0.900000036" font-family="Roboto-Regular, Roboto" font-size="9" font-weight="normal" letter-spacing="0.314999998" fill="#4A4A4A">
                <tspan x="96" y="418.5">Weekly check-in meeting w/SweetTooth team</tspan>
            </text>
            <text id="11:30-AM" opacity="0.900000036" font-family="Roboto-Regular, Roboto" font-size="9" font-weight="normal" letter-spacing="0.314999998" fill="#4A4A4A">
                <tspan x="43.5" y="439">11:30 </tspan>
                <tspan x="70.0125586" y="439" font-size="7.5">AM</tspan>
            </text>
            <text id="5:30-PM" opacity="0.900000036" font-family="Roboto-Regular, Roboto" font-size="9" font-weight="normal" letter-spacing="0.314999998" fill="#4A4A4A">
                <tspan x="48.5" y="459">5:30 </tspan>
                <tspan x="69.6438476" y="459" font-size="7.5">PM</tspan>
            </text>
            <text id="Pick-up-JT-at-airpor" opacity="0.900000036" font-family="Roboto-Regular, Roboto" font-size="9" font-weight="normal" letter-spacing="0.314999998" fill="#4A4A4A">
                <tspan x="96.5" y="459">Pick up JT at airport</tspan>
            </text>
            <text id="Lunch-with-Mary" opacity="0.900000036" font-family="Roboto-Regular, Roboto" font-size="9" font-weight="normal" letter-spacing="0.314999998" fill="#4A4A4A">
                <tspan x="96.5" y="439">Lunch with Mary</tspan>
            </text>
            <text id="Review-SweetTooth-br" font-family="Roboto-MediumItalic, Roboto" font-size="9" font-style="italic" font-weight="500" letter-spacing="0.314999998" fill="#4A4A4A">
                <tspan x="47" y="263">Review SweetTooth brochure edits</tspan>
            </text>
            <g id="Task-date-block" transform="translate(306.500000, 319.000000)">
                <text id="/-/-copy-3" font-family="Roboto-Medium, Roboto" font-size="11.41371" font-weight="400" letter-spacing="0.583367407" fill="#302F2E">
                    <tspan x="15" y="23">/   </tspan>
                    <tspan x="30.374525" y="23">/</tspan>
                </text>
                <text id="---" font-family="Roboto-Medium, Roboto" font-size="6.975045" font-weight="400" letter-spacing="0.406877637" fill="#302F2E">
                    <tspan x="3" y="21"> - - </tspan>
                </text>
                <text id="---" font-family="Roboto-Medium, Roboto" font-size="6.975045" font-weight="400" letter-spacing="0.406877637" fill="#302F2E">
                    <tspan x="21" y="21">- -</tspan>
                </text>
                <text id="Due" font-family="Roboto-Medium, Roboto" font-size="6.975045" font-weight="400" letter-spacing="0.244126573" fill="#4A4A4A">
                    <tspan x="0" y="7">Due</tspan>
                </text>
                <text id="---" font-family="Roboto-Medium, Roboto" font-size="6.975045" font-weight="400" letter-spacing="0.406877637" fill="#302F2E">
                    <tspan x="37" y="21">- -</tspan>
                </text>
                <rect id="Rectangle-6" stroke="#302F2E" stroke-width="0.634095" opacity="0.211956522" x="0.3170475" y="10.3170475" width="49.365905" height="15.865905"></rect>
            </g>
            <text id="Set-up-mtg-w/CJ" font-family="Roboto-MediumItalic, Roboto" font-size="9" font-style="italic" font-weight="500" letter-spacing="0.314999998" fill="#4A4A4A">
                <tspan x="47" y="329.5">Set up mtg w/CJ </tspan>
            </text>
            <text id="September-17,-2017" opacity="0.900000036" font-family="Roboto-Regular, Roboto" font-size="5.5" font-weight="normal" letter-spacing="0.465000004" fill="#000000">
                <tspan x="163" y="31">September 17, 201</tspan>
                <tspan x="216.803682" y="31">7</tspan>
            </text>
            <path d="M281.997176,277.424908 L284.508736,274.820752 L287.010699,272.288143 C287.612613,271.671012 287.936899,271.019974 287.983225,270.334687 C288.03617,269.670424 287.86774,269.074995 287.477273,268.549755 C287.086145,268.023838 286.576884,267.704083 285.948167,267.588117 C285.795951,267.56099 285.637117,267.547766 285.471666,267.547766 C285.114289,267.547766 284.758568,267.637962 284.404832,267.817337 C284.050434,267.996711 283.772806,268.180155 283.570623,268.366312 C283.368772,268.553146 283.096107,268.822717 282.751637,269.175024 L279.297001,272.715387 C279.16464,272.85136 279.019042,272.989705 278.860208,273.13212 C278.608721,273.37626 278.423415,273.559704 278.30429,273.681773 C278.185495,273.803504 278.046516,273.973046 277.887351,274.190398 C277.728517,274.407411 277.624614,274.620694 277.574647,274.831264 C277.525012,275.041156 277.516408,275.26529 277.55016,275.502309 C277.609723,275.929553 277.78808,276.255412 278.085893,276.479206 C278.383707,276.703001 278.714611,276.814898 279.078605,276.814898 C279.561724,276.814898 279.975354,276.638575 280.319494,276.28559 L285.749625,270.721242 C285.988206,270.47778 286.054056,270.223468 285.948167,269.958305 C285.849227,269.714844 285.673517,269.592096 285.42203,269.592096 C285.243673,269.592096 285.07789,269.670424 284.925674,269.826063 C284.799931,269.93457 284.670878,270.06376 284.538517,270.212617 L280.796326,274.006954 L280.111024,273.325397 L280.180514,273.254529 L284.032565,269.225887 C284.257249,268.99531 284.480278,268.822717 284.702314,268.707429 C284.92402,268.592141 285.187088,268.534497 285.491851,268.534497 C285.551413,268.534497 285.647045,268.541278 285.779406,268.554503 C286.375364,268.67013 286.762521,269.022776 286.940878,269.61278 C287.04048,269.931179 287.050077,270.257037 286.97066,270.588999 C286.891243,270.9213 286.736049,271.20613 286.504416,271.443827 L282.592803,275.451786 C282.479965,275.567074 282.29168,275.773914 282.026957,276.072646 C281.769183,276.363918 281.571965,276.58127 281.436294,276.723346 C281.300624,276.865761 281.126899,277.020043 280.915452,277.185855 C280.703342,277.352005 280.488255,277.489673 280.269858,277.598519 C279.899577,277.787727 279.505471,277.883009 279.088532,277.883009 C278.625267,277.883009 278.198401,277.774503 277.807934,277.557151 C277.417799,277.340138 277.106418,277.038693 276.874786,276.652139 C276.557449,276.12283 276.441633,275.536556 276.527337,274.892299 C276.613703,274.248042 276.881404,273.695676 277.331764,273.233845 L282.414115,268.025873 C282.883998,267.544375 283.25097,267.221907 283.516024,267.059487 C284.111982,266.686835 284.763531,266.5 285.471666,266.5 C286.021297,266.5 286.52394,266.611897 286.980918,266.835692 C287.503415,267.079492 287.93359,267.429087 288.271111,267.883458 C288.608964,268.337829 288.83067,268.859677 288.936228,269.449681 C289.048735,270.080375 289.012336,270.700897 288.827361,271.311585 C288.641724,271.921934 288.327034,272.454633 287.883954,272.908665 L282.751637,278.107143 L282.066666,277.496455 L281.997176,277.424908" id="Fill-194-Copy" stroke="#3A5868" stroke-width="0.5127606" fill="#78A9C2" transform="translate(282.750000, 272.303571) scale(-1, 1) translate(-282.750000, -272.303571) "></path>
            <g id="Group-6" transform="translate(27.500000, 252.500000)" fill="#D7F2F0" stroke="#78A9C2" stroke-width="0.609870246">
                <ellipse id="Oval-3" cx="6.75" cy="7" rx="6.75" ry="7"></ellipse>
            </g>
            <text id="10" font-family="Roboto-Medium, Roboto" font-size="6" font-weight="400" letter-spacing="0.350000024" fill="#302F2E">
                <tspan x="29" y="262.5"> 10</tspan>
            </text>
            <g id="Group-6" transform="translate(26.500000, 286.000000)">
                <ellipse id="Oval-3" stroke="#78A9C2" stroke-width="0.609870246" fill="#D7F2F0" cx="6.75" cy="7" rx="6.75" ry="7"></ellipse>
                <text id="6" font-family="Roboto-Medium, Roboto" font-size="6" font-weight="400" letter-spacing="0.349999994" fill="#302F2E">
                    <tspan x="5" y="10">6</tspan>
                </text>
            </g>
            <g id="Group-6" transform="translate(26.500000, 319.500000)" fill="#D7F2F0" stroke="#78A9C2" stroke-width="0.609870246">
                <ellipse id="Oval-3" cx="6.75" cy="7" rx="6.75" ry="7"></ellipse>
            </g>
            <text id="2" font-family="Roboto-Medium, Roboto" font-size="6" font-weight="400" letter-spacing="0.349999994" fill="#302F2E">
                <tspan x="31.5" y="328.5">2</tspan>
            </text>
            <g id="Rectangle-7">
                <use fill-opacity="0.61" fill="#78A9C2" fill-rule="evenodd" xlink:href="#path-1"></use>
                <rect stroke="#979797" stroke-width="0.5" x="57.75" y="301.25" width="11" height="11.5"></rect>
            </g>
            <text id="KF" stroke="#4A4A4A" font-family="Roboto-Regular, Roboto" font-size="6" font-weight="normal" letter-spacing="0.314999998" fill="#4A4A4A">
                <tspan x="59.5" y="309.5">KF</tspan>
            </text>
            <g id="Rectangle-7">
                <use fill-opacity="0.61" fill="#78A9C2" fill-rule="evenodd" xlink:href="#path-2"></use>
                <rect stroke="#979797" stroke-width="0.5" x="58.25" y="268.25" width="11" height="11.5"></rect>
            </g>
            <text id="KF" stroke="#4A4A4A" font-family="Roboto-Regular, Roboto" font-size="6" font-weight="normal" letter-spacing="0.314999998" fill="#4A4A4A">
                <tspan x="60" y="276.5">KF</tspan>
            </text>
            <g id="Rectangle-7">
                <use fill-opacity="0.61" fill="#78A9C2" fill-rule="evenodd" xlink:href="#path-3"></use>
                <rect stroke="#979797" stroke-width="0.5" x="74.75" y="268.25" width="11" height="11.5"></rect>
            </g>
            <text id="LM" stroke="#4A4A4A" font-family="Roboto-Regular, Roboto" font-size="6" font-weight="normal" letter-spacing="0.314999998" fill="#4A4A4A">
                <tspan x="75.5" y="276.5">LM</tspan>
            </text>
            <g id="Rectangle-7">
                <use fill-opacity="0.61" fill="#78A9C2" fill-rule="evenodd" xlink:href="#path-4"></use>
                <rect stroke="#979797" stroke-width="0.5" x="91.25" y="268.25" width="11" height="11.5"></rect>
            </g>
            <text id="AB" stroke="#4A4A4A" font-family="Roboto-Regular, Roboto" font-size="6" font-weight="normal" letter-spacing="0.314999998" fill="#4A4A4A">
                <tspan x="92.5" y="277">AB</tspan>
            </text>
            <g id="Group" transform="translate(91.000000, 268.000000)"></g>
        </g>
    </g>
</svg>