<?xml version="1.0" encoding="UTF-8"?>
<svg width="384px" height="512px" viewBox="0 0 384 512" version="1.1" xmlns="http://www.w3.org/2000/svg" xmlns:xlink="http://www.w3.org/1999/xlink" style="background: #FFFFFF;">
    <!-- Generator: Sketch 48.2 (47327) - http://www.bohemiancoding.com/sketch -->
    <title>T14</title>
    <desc>Created with Sketch.</desc>
    <defs>
        <rect id="path-1" x="355.593131" y="0" width="28.4068692" height="44"></rect>
    </defs>
    <g id="Page-1" stroke="none" stroke-width="1" fill="none" fill-rule="evenodd">
        <g id="Artboard" transform="translate(-165.000000, -4227.000000)"></g>
        <g id="T14">
            <g id="StatusBar-Light-iPhone6">
                <rect id="Background" fill="#FFFFFF" x="0" y="0" width="386" height="20.5"></rect>
                <path d="M354,6.5 C354,5.67157288 354.671573,5 355.5,5 L376.5,5 C377.328427,5 378,5.67157288 378,6.5 L378,14 C378,14.8284271 377.328427,15.5 376.5,15.5 L355.5,15.5 C354.671573,15.5 354,14.8284271 354,14 L354,6.5 Z M354.5,7 L354.5,13.5 C354.5,14.3284271 355.171573,15 356,15 L376,15 C376.828427,15 377.5,14.3284271 377.5,13.5 L377.5,7 C377.5,6.17157288 376.828427,5.5 376,5.5 L356,5.5 C355.171573,5.5 354.5,6.17157288 354.5,7 Z M355,7.5 C355,6.67157288 355.671573,6 356.5,6 L366.5,6 L366.5,14.5 L356.5,14.5 C355.671573,14.5 355,13.8284271 355,13 L355,7.5 Z M381,10 C381,11.0178721 380.130764,11.8599457 379,12 L379,8 C380.130764,8.14005431 381,8.98212794 381,10 Z" id="battery-@2x" fill="#000000"></path>
                <text id="49%" font-family="HelveticaNeue, Helvetica Neue" font-size="12" font-weight="normal" line-spacing="12" fill="#000000">
                    <tspan x="326" y="16">49%</tspan>
                </text>
                <path d="M317.5,11.5 L319,13 L317.5,14.5 L317.5,11.5 Z M317.5,9 L317.5,6 L319,7.5 L317.5,9 Z M320.5,7.64722653 L316.528486,3.5 L316.528486,9.20243648 L313.5,6.09201658 L312.5,7.12882321 L315.95349,10.2504999 L312.5,13.349663 L313.5,14.3864696 L316.528486,11.2760497 L316.528486,17 L320.5,12.8312597 L318,10.2504998 L320.5,7.64722653 Z" id="bluetooth-@2x" fill="#535353"></path>
                <text id="9:49-AM" font-family="HelveticaNeue, Helvetica Neue" font-size="12" font-weight="normal" letter-spacing="0.599999905" fill="#000000">
                    <tspan x="168.442" y="14">9:49 AM</tspan>
                </text>
                <path d="M80.2455746,7.06231003 C82.266171,7.06231003 84.107668,7.79635258 85.5196385,9 L86.5,7.93262411 C84.8277104,6.50101317 82.6436336,5.5 80.2455746,5.5 C77.85116,5.5 75.670207,6.49797366 74,7.92502533 L74.978279,8.99392097 C76.3892082,7.79381966 78.2275813,7.06231003 80.2455746,7.06231003 L80.2455746,7.06231003 Z M83.4518386,11 L84.5,9.95755423 C83.3592299,9.07591623 81.8753869,8.5 80.2473691,8.5 C78.6225084,8.5 77.1397177,9.07451384 76,9.95334705 L77.0465829,10.9971952 C77.9084747,10.3394727 79.0250402,9.9407255 80.2473691,9.9407255 C81.4712765,9.9407255 82.5894206,10.3408751 83.4518386,11 Z M82.5,12.2681206 C81.8907337,11.8142533 81.1062141,11.5 80.2486265,11.5 C79.3926871,11.5 78.6092663,11.8137668 78,12.2656883 L80.2486265,14.5 L82.5,12.2681206 L82.5,12.2681206 Z" id="wifi-@2x" fill="#0C0000"></path>
                <text id="Yext" font-family="HelveticaNeue, Helvetica Neue" font-size="12" font-weight="normal" fill="#000000">
                    <tspan x="45.5" y="13.5">Yext</tspan>
                </text>
                <path d="M8,13 C6.34314567,13 5,11.6568543 5,10 C5,8.34314567 6.34314567,7 8,7 C9.65685433,7 11,8.34314567 11,10 C11,11.6568543 9.65685433,13 8,13 Z M15,13 C13.3431457,13 12,11.6568543 12,10 C12,8.34314567 13.3431457,7 15,7 C16.6568543,7 18,8.34314567 18,10 C18,11.6568543 16.6568543,13 15,13 Z M22.5,13 C20.8431457,13 19.5,11.6568543 19.5,10 C19.5,8.34314567 20.8431457,7 22.5,7 C24.1568543,7 25.5,8.34314567 25.5,10 C25.5,11.6568543 24.1568543,13 22.5,13 Z M29.5,13 C27.8431457,13 26.5,11.6568543 26.5,10 C26.5,8.34314567 27.8431457,7 29.5,7 C31.1568543,7 32.5,8.34314567 32.5,10 C32.5,11.6568543 31.1568543,13 29.5,13 Z M29.5,12.5 C30.8807119,12.5 32,11.3807119 32,10 C32,8.61928806 30.8807119,7.5 29.5,7.5 C28.1192881,7.5 27,8.61928806 27,10 C27,11.3807119 28.1192881,12.5 29.5,12.5 Z M37,13 C35.3431457,13 34,11.6568543 34,10 C34,8.34314567 35.3431457,7 37,7 C38.6568543,7 40,8.34314567 40,10 C40,11.6568543 38.6568543,13 37,13 Z M37,12.5 C38.3807119,12.5 39.5,11.3807119 39.5,10 C39.5,8.61928806 38.3807119,7.5 37,7.5 C35.6192881,7.5 34.5,8.61928806 34.5,10 C34.5,11.3807119 35.6192881,12.5 37,12.5 Z" id="signal-@2x" fill="#000000"></path>
            </g>
            <g id="circle-check-copy-3" transform="translate(178.500000, 456.000000)">
                <ellipse id="Oval-3" stroke="#78A9C2" stroke-width="0.75" fill="#78A9C2" cx="12.75" cy="13.25" rx="12.75" ry="13.25"></ellipse>
                <polygon id="Fill-2" fill="#3A5868" points="15.0454545 15.3181818 15.0454545 21.5 10.9545455 21.5 10.9545455 15.3181818 5.5 15.3181818 5.5 10.6818182 10.9545455 10.6818182 10.9545455 4.5 15.0454545 4.5 15.0454545 10.6818182 20.5 10.6818182 20.5 15.3181818"></polygon>
            </g>
            <g id="Group" transform="translate(192.495713, 45.491236) rotate(1.000000) translate(-192.495713, -45.491236) translate(171.995713, 24.991236)">
                <path d="M30,11 L30,8 C31.6545,8 33,9.3455 33,11 L30,11 Z M27,29.875 C27,31.5984375 25.5984375,33 23.875,33 L23.875,29.875 C23.875,28.1484375 22.4765625,26.75 20.75,26.75 L14.5,26.75 L14.5,11.125 C14.5,9.3984375 15.8984375,8 17.625,8 L27,8 L27,29.875 Z M21,32.5 L11.625,32.5 C9.9015625,32.5 8.5,31.1545 8.5,29.5 L19.4375,29.5 C20.3,29.5 21,30.172 21,31 L21,32.5 Z M17.6,4.5 C14.120825,4.5 11.3,7.320825 11.3,10.8 L11.3,26.55 L6.575,26.55 C5.7056,26.55 5,27.2556 5,28.125 L5,29.7 C5,33.179175 7.820825,36 11.3,36 L23.9,36 C27.379175,36 30.2,33.179175 30.2,29.7 L30.2,13.95 L34.925,13.95 C35.7944,13.95 36.5,13.2444 36.5,12.375 L36.5,10.8 C36.5,7.320825 33.679175,4.5 30.2,4.5 L17.6,4.5 Z" id="script-[#1603]-copy-3" fill-opacity="0.174860145" fill="#78A9C2" opacity="0.757699275" transform="translate(20.750000, 20.250000) rotate(19.000000) translate(-20.750000, -20.250000) "></path>
                <g id="Group-2" transform="translate(20.500000, 18.500000) rotate(200.000000) translate(-20.500000, -18.500000) translate(12.500000, 6.000000)" font-family="GurmukhiMN-Bold, Gurmukhi MN" font-weight="bold">
                    <text id="T" fill="#3A5868" style="mix-blend-mode: darken;" transform="translate(9.000000, 12.500000) scale(1, -1) translate(-9.000000, -12.500000) " font-size="17.224704" letter-spacing="0.614098251">
                        <tspan x="2" y="18.5">T</tspan>
                    </text>
                    <text id="T" fill="#78A9C2" style="mix-blend-mode: darken;" font-size="12.775" letter-spacing="0.455456465">
                        <tspan x="0" y="15">T</tspan>
                    </text>
                </g>
            </g>
            <path d="M35.3569933,459.507538 C37.0076075,458.502513 38.8052764,458 40.75,458 C42.6953238,458 44.4923925,458.502513 46.1436069,459.507538 C47.7936209,460.512563 49.0997069,461.878769 50.059464,463.606156 C51.0198213,465.333543 51.5,467.214824 51.5,469.25 C51.5,471.285176 51.0198213,473.166457 50.059464,474.893844 C49.0997069,476.621231 47.7936209,477.987437 46.1436069,478.992462 C44.4923925,479.997487 42.6953238,480.5 40.75,480.5 C38.8052764,480.5 37.0076075,479.997487 35.3569933,478.992462 C33.7063791,477.987437 32.4008934,476.621231 31.4411362,474.893844 C30.4801787,473.166457 30,471.285176 30,469.25 C30,467.214824 30.4801787,465.333543 31.4411362,463.606156 C32.4008934,461.878769 33.7063791,460.512563 35.3569933,459.507538 C35.3569933,459.507538 33.7063791,460.512563 35.3569933,459.507538 L35.3569933,459.507538 L35.3569933,459.507538 Z M37,467.5 L37,469.375 L38.75,469.375 L38.75,473.125 L37,473.125 L37,475 L44,475 L44,473.125 L42.25,473.125 L42.25,467.5 L37,467.5 L37,467.5 L37,467.5 L37,467.5 Z M39,465.5 L42.5,465.5 L42.5,463.5 L39,463.5 L39,463.5 L39,465.5 L39,465.5 Z" id="Fill-88-Copy" stroke="#3A5868" stroke-width="0.5" fill="#FFFFFF"></path>
            <g id="Group-7" transform="translate(-0.500000, 72.500000)">
                <g id="Group-4" transform="translate(0.000000, 0.500000)">
                    <rect id="Rectangle-2-Copy-9" stroke="#4D5B69" stroke-width="0.508725" fill="#FFFFFF" x="0" y="0" width="355.593131" height="43.5"></rect>
                    <text id="SweetTooth" font-family="Roboto-Regular, Roboto" font-size="13.22685" font-weight="normal" letter-spacing="0.689685762" fill="#000000">
                        <tspan x="13.3000002" y="28">SweetTooth</tspan>
                    </text>
                </g>
                <g id="Rectangle-4-Copy-2">
                    <use fill="#302F2E" fill-rule="evenodd" xlink:href="#path-1"></use>
                    <rect x="355.593131" y="0" width="28.4068692" height="44"></rect>
                </g>
                <text id="8" font-family="Roboto-Black, Roboto" font-size="14" font-weight="700" letter-spacing="0.730102122" fill="#D7F2F0">
                    <tspan x="365.231176" y="29">8</tspan>
                </text>
            </g>
            <g id="Group-6" transform="translate(139.000000, 79.500000)">
                <g id="Group-11" transform="translate(78.500000, 0.000000)">
                    <path d="M10.5,12.5 L10.5,10 C10.5,9.76666667 10.5768939,9.56944444 10.7312121,9.40777778 C10.8844697,9.24722222 11.0727273,9.16666667 11.2954545,9.16666667 L13.6818182,9.16666667 L13.6818182,7.5 L15.2727273,7.5 L15.2727273,9.16666667 L23.2272727,9.16666667 L23.2272727,7.5 L24.8181818,7.5 L24.8181818,9.16666667 L27.2045455,9.16666667 C27.4272727,9.16666667 27.6160606,9.24722222 27.7693182,9.40777778 C27.9231061,9.56944444 28,9.76666667 28,10 L28,12.5 L10.5,12.5 L10.5,12.5 L10.5,12.5 L10.5,12.5 Z M28,14 L28,26.65625 C28,26.88125 27.9231061,27.078125 27.7693182,27.2463125 C27.6160606,27.415625 27.4272727,27.5 27.2045455,27.5 L11.2954545,27.5 C11.0727273,27.5 10.8844697,27.415625 10.7312121,27.2463125 C10.5768939,27.078125 10.5,26.88125 10.5,26.65625 L10.5,14 L28,14 L28,14 L28,14 L28,14 Z M12,19 L13.5,19 L13.5,17.5 L12,17.5 L12,17.5 L12,19 L12,19 Z M12,22.5 L13.5,22.5 L13.5,21 L12,21 L12,21 L12,22.5 L12,22.5 Z M12,25.5 L13.5,25.5 L13.5,24 L12,24 L12,24 L12,25.5 L12,25.5 Z M15.5,19 L17,19 L17,17.5 L15.5,17.5 L15.5,17.5 L15.5,19 L15.5,19 Z M15.5,22.5 L17,22.5 L17,21 L15.5,21 L15.5,21 L15.5,22.5 L15.5,22.5 Z M15.5,25.5 L17,25.5 L17,24 L15.5,24 L15.5,24 L15.5,25.5 L15.5,25.5 Z M18.5,19 L20,19 L20,17.5 L18.5,17.5 L18.5,17.5 L18.5,19 L18.5,19 Z M18.5,22.5 L20,22.5 L20,21 L18.5,21 L18.5,21 L18.5,22.5 L18.5,22.5 Z M18.5,25.5 L20,25.5 L20,24 L18.5,24 L18.5,24 L18.5,25.5 L18.5,25.5 Z M21.5,19 L23,19 L23,17.5 L21.5,17.5 L21.5,17.5 L21.5,19 L21.5,19 Z M21.5,22.5 L23,22.5 L23,21 L21.5,21 L21.5,21 L21.5,22.5 L21.5,22.5 Z M21.5,25.5 L23,25.5 L23,24 L21.5,24 L21.5,24 L21.5,25.5 L21.5,25.5 Z M25,19 L26.5,19 L26.5,17.5 L25,17.5 L25,17.5 L25,19 L25,19 Z M25,22.5 L26.5,22.5 L26.5,21 L25,21 L25,21 L25,22.5 L25,22.5 Z M25,25.5 L26.5,25.5 L26.5,24 L25,24 L25,24 L25,25.5 L25,25.5 Z" id="Fill-192" fill="#3A5868"></path>
                    <ellipse id="Oval-4-Copy" fill="#AFE6E1" cx="8.5" cy="8.25" rx="8" ry="8.25"></ellipse>
                    <text id="3" font-family="Roboto-Bold, Roboto" font-size="9" font-weight="bold" letter-spacing="1.63636363" fill="#3A5868">
                        <tspan x="6.10003108" y="12.5">3</tspan>
                    </text>
                </g>
                <g id="Group-5" transform="translate(38.000000, 0.000000)">
                    <path d="M10.5,11.125 L10.5,9.375 C10.5,9.13 10.5725,8.92291667 10.7175,8.75375 C10.8625,8.58516667 11.04,8.5 11.25,8.5 L12.75,8.5 C12.96,8.5 13.1375,8.58516667 13.283,8.75375 C13.4275,8.92291667 13.5,9.13 13.5,9.375 L13.5,11.125 C13.5,11.3583333 13.4275,11.5625 13.283,11.7375 C13.1375,11.9125 12.96,12 12.75,12 L11.25,12 C11.04,12 10.8625,11.9125 10.7175,11.7375 C10.5725,11.5625 10.5,11.3583333 10.5,11.125 C10.5,11.125 10.5,11.3583333 10.5,11.125 L10.5,11.125 L10.5,11.125 Z M10.5,16.125 L10.5,14.375 C10.5,14.13 10.5725,13.9229167 10.7175,13.75375 C10.8625,13.5851667 11.04,13.5 11.25,13.5 L12.75,13.5 C12.96,13.5 13.1375,13.5851667 13.283,13.75375 C13.4275,13.9229167 13.5,14.13 13.5,14.375 L13.5,16.125 C13.5,16.3583333 13.4275,16.5625 13.283,16.7375 C13.1375,16.9125 12.96,17 12.75,17 L11.25,17 C11.04,17 10.8625,16.9125 10.7175,16.7375 C10.5725,16.5625 10.5,16.3583333 10.5,16.125 C10.5,16.125 10.5,16.3583333 10.5,16.125 L10.5,16.125 L10.5,16.125 Z M10.5,21.125 L10.5,19.375 C10.5,19.13 10.5725,18.9229167 10.7175,18.75375 C10.8625,18.5851667 11.04,18.5 11.25,18.5 L12.75,18.5 C12.96,18.5 13.1375,18.5851667 13.283,18.75375 C13.4275,18.9229167 13.5,19.13 13.5,19.375 L13.5,21.125 C13.5,21.3583333 13.4275,21.5625 13.283,21.7375 C13.1375,21.9125 12.96,22 12.75,22 L11.25,22 C11.04,22 10.8625,21.9125 10.7175,21.7375 C10.5725,21.5625 10.5,21.3583333 10.5,21.125 C10.5,21.125 10.5,21.3583333 10.5,21.125 L10.5,21.125 L10.5,21.125 Z M10.5,26.125 L10.5,24.375 C10.5,24.13 10.5725,23.9229167 10.7175,23.75375 C10.8625,23.5851667 11.04,23.5 11.25,23.5 L12.75,23.5 C12.96,23.5 13.1375,23.5851667 13.283,23.75375 C13.4275,23.9229167 13.5,24.13 13.5,24.375 L13.5,26.125 C13.5,26.3583333 13.4275,26.5625 13.283,26.7375 C13.1375,26.9125 12.96,27 12.75,27 L11.25,27 C11.04,27 10.8625,26.9125 10.7175,26.7375 C10.5725,26.5625 10.5,26.3583333 10.5,26.125 C10.5,26.125 10.5,26.3583333 10.5,26.125 L10.5,26.125 L10.5,26.125 Z M15,11.125 L15,9.375 C15,9.13 15.0725,8.92291667 15.2175,8.75375 C15.3625,8.58516667 15.54,8.5 15.75,8.5 L27.75,8.5 C27.96,8.5 28.1375,8.58516667 28.283,8.75375 C28.4275,8.92291667 28.5,9.13 28.5,9.375 L28.5,11.125 C28.5,11.3583333 28.4275,11.5625 28.283,11.7375 C28.1375,11.9125 27.96,12 27.75,12 L15.75,12 C15.54,12 15.3625,11.9125 15.2175,11.7375 C15.0725,11.5625 15,11.3583333 15,11.125 C15,11.125 15,11.3583333 15,11.125 L15,11.125 L15,11.125 Z M15,16.125 L15,14.375 C15,14.13 15.0725,13.9229167 15.2175,13.75375 C15.3625,13.5851667 15.54,13.5 15.75,13.5 L27.75,13.5 C27.96,13.5 28.1375,13.5851667 28.283,13.75375 C28.4275,13.9229167 28.5,14.13 28.5,14.375 L28.5,16.125 C28.5,16.3583333 28.4275,16.5625 28.283,16.7375 C28.1375,16.9125 27.96,17 27.75,17 L15.75,17 C15.54,17 15.3625,16.9125 15.2175,16.7375 C15.0725,16.5625 15,16.3583333 15,16.125 C15,16.125 15,16.3583333 15,16.125 L15,16.125 L15,16.125 Z M15,21.125 L15,19.375 C15,19.13 15.0725,18.9229167 15.2175,18.75375 C15.3625,18.5851667 15.54,18.5 15.75,18.5 L27.75,18.5 C27.96,18.5 28.1375,18.5851667 28.283,18.75375 C28.4275,18.9229167 28.5,19.13 28.5,19.375 L28.5,21.125 C28.5,21.3583333 28.4275,21.5625 28.283,21.7375 C28.1375,21.9125 27.96,22 27.75,22 L15.75,22 C15.54,22 15.3625,21.9125 15.2175,21.7375 C15.0725,21.5625 15,21.3583333 15,21.125 C15,21.125 15,21.3583333 15,21.125 L15,21.125 L15,21.125 Z M15,26.125 L15,24.375 C15,24.13 15.0725,23.9229167 15.2175,23.75375 C15.3625,23.5851667 15.54,23.5 15.75,23.5 L27.75,23.5 C27.96,23.5 28.1375,23.5851667 28.283,23.75375 C28.4275,23.9229167 28.5,24.13 28.5,24.375 L28.5,26.125 C28.5,26.3583333 28.4275,26.5625 28.283,26.7375 C28.1375,26.9125 27.96,27 27.75,27 L15.75,27 C15.54,27 15.3625,26.9125 15.2175,26.7375 C15.0725,26.5625 15,26.3583333 15,26.125 L15,26.125 Z" id="Fill-59" fill="#3A5868"></path>
                    <ellipse id="Oval-4" fill="#AFE6E1" cx="8.5" cy="8.25" rx="8" ry="8.25"></ellipse>
                    <text id="3" font-family="Roboto-Bold, Roboto" font-size="9" font-weight="bold" letter-spacing="1.63636363" fill="#3A5868">
                        <tspan x="6.10003108" y="12.5">3</tspan>
                    </text>
                </g>
                <g id="Group-10">
                    <path d="M23.9657467,20.7 L24.2404702,20.7 C24.4559397,20.7 24.636934,20.77975 24.7818372,20.9387 C24.9272791,21.09875 25,21.294 25,21.525 C25,21.745 24.9305111,21.96445 24.790456,22.18445 C24.6498622,22.405 24.483412,22.55295 24.2889509,22.6305 C24.0519345,22.7295 23.7125701,22.856 23.2713964,23.00945 C22.8291454,23.16455 21.9268671,23.3675 20.5640229,23.61995 C19.2011787,23.8735 17.8464147,24 16.4997307,24 C15.1530467,24 13.830603,23.88725 12.5323996,23.66175 C11.2341963,23.43625 10.2726639,23.20745 9.64780253,22.97645 L8.71051047,22.64645 C8.51658798,22.57 8.34906049,22.41875 8.20954403,22.19325 C8.06948889,21.96775 8,21.745 8,21.525 C8,21.294 8.07272094,21.09875 8.21762413,20.9387 C8.363066,20.77975 8.54352166,20.7 8.7589911,20.7 L9.0342533,20.7 L10.9406192,17.84495 L11.9592509,12.45 C12.1203143,11.60245 12.5297063,10.83245 13.1868881,10.13945 C13.8446085,9.44645 14.6197598,8.98995 15.513958,8.76995 L15.2230742,8.2425 C15.1584334,8.03405 15.1745936,7.8575 15.2720935,7.71395 C15.3690548,7.57095 15.5247315,7.5 15.7402009,7.5 L17.2597991,7.5 C17.4752685,7.5 17.6309452,7.5583 17.7279065,7.67325 C17.8248677,7.78875 17.8415666,7.951 17.7763871,8.15945 L17.4855033,8.76995 C18.3802402,8.97895 19.1553915,9.4338 19.8131119,10.13175 C20.4692164,10.83025 20.879147,11.60245 21.0407491,12.45 L22.0593808,17.84495 L23.9657467,20.7 L23.9657467,20.7 L23.9657467,20.7 L23.9657467,20.7 Z M16.7579675,25.6090579 C16.1433333,25.6090579 15.5571545,25.5733111 15,25.5 C15.1365854,26.0943653 15.3636585,26.5760376 15.6823577,26.9450167 C16.0010569,27.3152075 16.3595935,27.5 16.7579675,27.5 C17.1563415,27.5 17.514878,27.3152075 17.8341463,26.9450167 C18.1522764,26.5760376 18.3742276,26.0943653 18.5,25.5 C17.9530894,25.5733111 17.3726016,25.6090579 16.7579675,25.6090579 L16.7579675,25.6090579 Z" id="Fill-197" fill="#3A5868"></path>
                    <g id="Group-9">
                        <ellipse id="Oval-4" fill="#AFE6E1" cx="8" cy="8.25" rx="8" ry="8.25"></ellipse>
                        <text id="2" font-family="Roboto-Bold, Roboto" font-size="9" font-weight="bold" letter-spacing="1.63636363" fill="#3A5868">
                            <tspan x="5.60003108" y="12.5">2</tspan>
                        </text>
                    </g>
                </g>
                <path d="M137.555556,16.125 L144,16.125 L144,27.09375 C144,27.2129167 143.962407,27.3104167 143.887222,27.38625 C143.812574,27.4620833 143.71537,27.5 143.597222,27.5 L129.902778,27.5 C129.78463,27.5 129.687963,27.4620833 129.612778,27.38625 C129.53813,27.3104167 129.5,27.2129167 129.5,27.09375 L129.5,8.40625 C129.5,8.28708333 129.53813,8.18958333 129.612778,8.11375 C129.687963,8.03791667 129.78463,8 129.902778,8 L137.555556,8 L137.555556,16.125 L137.555556,16.125 L137.555556,16.125 L137.555556,16.125 Z M143.456026,14.0388872 L138.956712,13.9603513 L139.043974,8.96111285 L143.456026,14.0388872 L143.456026,14.0388872 Z" id="Fill-28" fill-opacity="0.199999988" fill="#3A5868"></path>
                <path d="M176.452048,23.6038147 L176.309526,23.6509588 L174.941139,24.0044928 L168.458915,15.161595 C167.901317,14.3920145 167.586398,13.5982588 167.514859,12.781876 C167.444546,11.9654467 167.623739,11.2165126 168.053114,10.5348511 C168.455301,9.89733257 169.023275,9.40174819 169.7573,9.04730068 C170.490777,8.69267709 171.337061,8.5105429 172.295212,8.50191804 C173.137291,8.48195231 174.01172,8.61784571 174.92069,8.91030253 C176.091788,9.2870982 177.09723,9.85345259 177.939049,10.6086979 C178.314731,10.9406951 178.797219,11.5150949 179.388547,12.3312296 L185.784475,21.1587032 C186.351104,21.9413267 186.580727,22.733203 186.475011,23.536631 C186.368201,24.3397068 185.950489,24.9673817 185.221484,25.4208518 C184.689287,25.7520847 184.058038,25.9408178 183.329119,25.9883769 C182.599521,26.0361585 181.851718,25.9365991 181.085579,25.6900972 C180.396054,25.4682456 179.781047,25.1465167 179.241677,24.7270334 C178.922488,24.4828523 178.619891,24.206545 178.333207,23.8983341 C178.047487,23.590874 177.819705,23.317041 177.650278,23.0774098 C177.480719,22.8381772 177.238414,22.4776904 176.924481,21.9980722 C176.601934,21.5059858 176.37035,21.1626117 176.228217,20.9670231 L171.305483,14.1733879 C171.014114,13.7706693 170.867341,13.3532084 170.8642,12.9202544 C170.860928,12.487699 171.00251,12.1096833 171.290064,11.78833 C171.812644,11.1895475 172.588964,10.9809358 173.619154,11.1620963 C173.843153,11.2169773 174.003922,11.2598889 174.102426,11.291582 C174.606436,11.453745 175.019256,11.6614967 175.341431,11.9150133 C175.664154,12.1687059 175.966411,12.4903019 176.249036,12.8809509 L181.065286,19.6672118 L181.152867,19.7875091 L179.756593,20.2241892 L175.031634,13.7718654 C174.870164,13.5264201 174.70658,13.3058585 174.540488,13.1113765 C174.3488,12.8473935 174.10485,12.6670883 173.809886,12.5721851 C173.393982,12.4383698 173.056042,12.4891937 172.798492,12.722793 C172.521078,12.9782096 172.531869,13.3122506 172.832507,13.7254441 L179.666101,23.1569723 C180.099056,23.7551034 180.715086,24.1825027 181.514059,24.4395689 C182.116026,24.633249 182.706437,24.6777606 183.285292,24.5731039 C183.864147,24.4684472 184.284823,24.1802285 184.548151,23.7095974 C184.695409,23.4488865 184.767649,23.1807878 184.766536,22.9076001 C184.765138,22.6334391 184.675585,22.3273888 184.49663,21.9877251 C184.317258,21.6474867 184.152823,21.3742011 184.003325,21.1678685 C183.853411,20.9609611 183.617725,20.6466799 183.296007,20.2258222 C183.088272,19.9738659 182.900858,19.7337365 182.734417,19.5034408 L178.387033,13.502728 C177.953269,12.9052182 177.606338,12.4431916 177.344599,12.11612 C177.08205,11.7896698 176.693684,11.4262643 176.176788,11.026794 C175.660986,10.6276758 175.107497,10.3323514 174.516476,10.1421928 C174.242854,10.0541564 173.975076,9.98518963 173.71288,9.93608977 C172.628381,9.7378967 171.662818,9.84286654 170.813085,10.2530857 C169.964709,10.6628597 169.456454,11.2733032 169.287749,12.0824693 C169.099988,12.9128315 169.385123,13.8508292 170.142476,14.8966849 L173.303128,19.205637 L176.452048,23.6038147 Z" id="Fill-194" fill-opacity="0.199999988" fill="#3A5868"></path>
            </g>
        </g>
    </g>
</svg>